<svg width="176" height="67" viewBox="0 0 176 67" fill="none" xmlns="http://www.w3.org/2000/svg">
<rect x="8.3" y="6.3" width="167.2" height="59.9" rx="14.5" fill="#7D2CFF" stroke="#7D2CFF"/>
<rect x="2.5" y="0.5" width="167.2" height="59.9" rx="14.5" fill="white" stroke="#7D2CFF"/>
<path d="M30.6864 22.0981H37.2384C38.5504 22.0981 39.5744 22.4741 40.3104 23.2261C41.0624 23.9621 41.4384 24.9941 41.4384 26.3221C41.4384 26.8981 41.3584 27.4021 41.1984 27.8341C41.0544 28.2661 40.8624 28.6261 40.6224 28.9141C40.3824 29.2021 40.1024 29.4341 39.7824 29.6101C39.4784 29.7861 39.1744 29.9061 38.8704 29.9701V30.0661C39.2544 30.1141 39.6384 30.2341 40.0224 30.4261C40.4064 30.6021 40.7504 30.8581 41.0544 31.1941C41.3584 31.5141 41.6064 31.9221 41.7984 32.4181C41.9904 32.8981 42.0864 33.4661 42.0864 34.1221C42.0864 34.8101 41.9824 35.4421 41.7744 36.0181C41.5824 36.5941 41.2944 37.0981 40.9104 37.5301C40.5424 37.9461 40.0944 38.2741 39.5664 38.5141C39.0544 38.7381 38.4784 38.8501 37.8384 38.8501H30.6864V22.0981ZM32.1264 37.5781H37.4544C38.4624 37.5781 39.2304 37.3061 39.7584 36.7621C40.2864 36.2021 40.5504 35.4821 40.5504 34.6021V33.7141C40.5504 32.8501 40.2864 32.1461 39.7584 31.6021C39.2304 31.0421 38.4624 30.7621 37.4544 30.7621H32.1264V37.5781ZM32.1264 29.5141H37.0944C38.0064 29.5141 38.7024 29.2741 39.1824 28.7941C39.6624 28.2981 39.9024 27.6661 39.9024 26.8981V25.9861C39.9024 25.2181 39.6624 24.5941 39.1824 24.1141C38.7024 23.6181 38.0064 23.3701 37.0944 23.3701H32.1264V29.5141ZM54.1301 38.8501C53.6021 38.8501 53.2181 38.7141 52.9781 38.4421C52.7381 38.1701 52.6021 37.8021 52.5701 37.3381V36.9061H52.4501C52.1781 37.5941 51.7301 38.1381 51.1061 38.5381C50.4821 38.9381 49.6901 39.1381 48.7301 39.1381C47.4341 39.1381 46.4341 38.8261 45.7301 38.2021C45.0261 37.5621 44.6741 36.6661 44.6741 35.5141C44.6741 34.4261 45.0581 33.5621 45.8261 32.9221C46.6101 32.2821 47.8901 31.9621 49.6661 31.9621H52.4981V30.5221C52.4981 28.4901 51.4501 27.4741 49.3541 27.4741C48.5381 27.4741 47.8581 27.6501 47.3141 28.0021C46.7701 28.3381 46.3301 28.8261 45.9941 29.4661L45.1301 28.7461C45.4661 28.0261 45.9781 27.4341 46.6661 26.9701C47.3701 26.5061 48.2821 26.2741 49.4021 26.2741C50.8421 26.2741 51.9461 26.6341 52.7141 27.3541C53.4821 28.0741 53.8661 29.0821 53.8661 30.3781V37.6501H55.5221V38.8501H54.1301ZM48.9221 37.9621C49.4181 37.9621 49.8821 37.8981 50.3141 37.7701C50.7461 37.6421 51.1221 37.4661 51.4421 37.2421C51.7781 37.0021 52.0341 36.7221 52.2101 36.4021C52.4021 36.0661 52.4981 35.6901 52.4981 35.2741V32.9941H49.6181C48.3861 32.9941 47.4901 33.1941 46.9301 33.5941C46.3861 33.9781 46.1141 34.5141 46.1141 35.2021V35.7781C46.1141 36.4981 46.3701 37.0421 46.8821 37.4101C47.3941 37.7781 48.0741 37.9621 48.9221 37.9621ZM58.8453 23.2261C58.5253 23.2261 58.2853 23.1461 58.1253 22.9861C57.9813 22.8261 57.9093 22.6181 57.9093 22.3621V22.1221C57.9093 21.8661 57.9813 21.6581 58.1253 21.4981C58.2853 21.3381 58.5253 21.2581 58.8453 21.2581C59.1653 21.2581 59.3973 21.3381 59.5413 21.4981C59.7013 21.6581 59.7813 21.8661 59.7813 22.1221V22.3621C59.7813 22.6181 59.7013 22.8261 59.5413 22.9861C59.3973 23.1461 59.1653 23.2261 58.8453 23.2261ZM58.1733 26.5621H59.5413V38.8501H58.1733V26.5621ZM62.2362 38.8501L66.7962 32.6581L62.4042 26.5621H64.0122L67.5162 31.5781H67.5882L71.1642 26.5621H72.7002L68.3322 32.5621L72.8202 38.8501H71.2122L67.5882 33.6661H67.5402L63.7722 38.8501H62.2362ZM83.9632 38.8501C83.4352 38.8501 83.0512 38.7141 82.8112 38.4421C82.5712 38.1701 82.4352 37.8021 82.4032 37.3381V36.9061H82.2832C82.0112 37.5941 81.5632 38.1381 80.9392 38.5381C80.3152 38.9381 79.5232 39.1381 78.5632 39.1381C77.2672 39.1381 76.2672 38.8261 75.5632 38.2021C74.8592 37.5621 74.5072 36.6661 74.5072 35.5141C74.5072 34.4261 74.8912 33.5621 75.6592 32.9221C76.4432 32.2821 77.7232 31.9621 79.4992 31.9621H82.3312V30.5221C82.3312 28.4901 81.2832 27.4741 79.1872 27.4741C78.3712 27.4741 77.6912 27.6501 77.1472 28.0021C76.6032 28.3381 76.1632 28.8261 75.8272 29.4661L74.9632 28.7461C75.2992 28.0261 75.8112 27.4341 76.4992 26.9701C77.2032 26.5061 78.1152 26.2741 79.2352 26.2741C80.6752 26.2741 81.7792 26.6341 82.5472 27.3541C83.3152 28.0741 83.6992 29.0821 83.6992 30.3781V37.6501H85.3552V38.8501H83.9632ZM78.7552 37.9621C79.2512 37.9621 79.7152 37.8981 80.1472 37.7701C80.5792 37.6421 80.9552 37.4661 81.2752 37.2421C81.6112 37.0021 81.8672 36.7221 82.0432 36.4021C82.2352 36.0661 82.3312 35.6901 82.3312 35.2741V32.9941H79.4512C78.2192 32.9941 77.3232 33.1941 76.7632 33.5941C76.2192 33.9781 75.9472 34.5141 75.9472 35.2021V35.7781C75.9472 36.4981 76.2032 37.0421 76.7152 37.4101C77.2272 37.7781 77.9072 37.9621 78.7552 37.9621ZM88.0064 38.8501V26.5621H89.3744V28.7701H89.4704C89.7104 28.1941 90.1184 27.6821 90.6944 27.2341C91.2704 26.7861 92.0864 26.5621 93.1424 26.5621H93.9584V27.9061H92.8784C91.8544 27.9061 91.0144 28.1301 90.3584 28.5781C89.7024 29.0261 89.3744 29.6501 89.3744 30.4501V38.8501H88.0064ZM112.558 38.8501L110.734 33.6421H103.606L101.782 38.8501H100.342L106.27 22.0981H108.118L114.07 38.8501H112.558ZM107.206 23.4661H107.11L103.966 32.3941H110.35L107.206 23.4661ZM116.761 26.5621H118.129V28.5301H118.201C118.505 27.8421 118.969 27.2981 119.593 26.8981C120.217 26.4821 121.001 26.2741 121.945 26.2741C123.529 26.2741 124.769 26.8341 125.665 27.9541C126.561 29.0741 127.009 30.6581 127.009 32.7061C127.009 34.7541 126.561 36.3381 125.665 37.4581C124.769 38.5781 123.529 39.1381 121.945 39.1381C121.001 39.1381 120.225 38.9381 119.617 38.5381C119.009 38.1221 118.537 37.5701 118.201 36.8821H118.129V43.6501H116.761V26.5621ZM121.633 37.9141C122.865 37.9141 123.825 37.5221 124.513 36.7381C125.201 35.9541 125.545 34.8981 125.545 33.5701V31.8421C125.545 30.5141 125.201 29.4581 124.513 28.6741C123.825 27.8901 122.865 27.4981 121.633 27.4981C121.153 27.4981 120.697 27.5701 120.265 27.7141C119.849 27.8421 119.481 28.0261 119.161 28.2661C118.841 28.5061 118.585 28.7941 118.393 29.1301C118.217 29.4661 118.129 29.8341 118.129 30.2341V35.1061C118.129 35.5381 118.217 35.9301 118.393 36.2821C118.585 36.6181 118.841 36.9141 119.161 37.1701C119.481 37.4101 119.849 37.5941 120.265 37.7221C120.697 37.8501 121.153 37.9141 121.633 37.9141ZM130.378 26.5621H131.746V28.5301H131.818C132.122 27.8421 132.586 27.2981 133.21 26.8981C133.834 26.4821 134.618 26.2741 135.562 26.2741C137.146 26.2741 138.386 26.8341 139.282 27.9541C140.178 29.0741 140.626 30.6581 140.626 32.7061C140.626 34.7541 140.178 36.3381 139.282 37.4581C138.386 38.5781 137.146 39.1381 135.562 39.1381C134.618 39.1381 133.842 38.9381 133.234 38.5381C132.626 38.1221 132.154 37.5701 131.818 36.8821H131.746V43.6501H130.378V26.5621ZM135.25 37.9141C136.482 37.9141 137.442 37.5221 138.13 36.7381C138.818 35.9541 139.162 34.8981 139.162 33.5701V31.8421C139.162 30.5141 138.818 29.4581 138.13 28.6741C137.442 27.8901 136.482 27.4981 135.25 27.4981C134.77 27.4981 134.314 27.5701 133.882 27.7141C133.466 27.8421 133.098 28.0261 132.778 28.2661C132.458 28.5061 132.202 28.7941 132.01 29.1301C131.834 29.4661 131.746 29.8341 131.746 30.2341V35.1061C131.746 35.5381 131.834 35.9301 132.01 36.2821C132.202 36.6181 132.458 36.9141 132.778 37.1701C133.098 37.4101 133.466 37.5941 133.882 37.7221C134.314 37.8501 134.77 37.9141 135.25 37.9141Z" fill="black"/>
</svg>
