<svg width="336" height="145" viewBox="0 0 336 145" fill="none" xmlns="http://www.w3.org/2000/svg">
<path d="M10.8686 123.473C15.7966 123.473 17.1606 121.295 17.1606 118.963C17.1606 117.621 16.5886 116.609 15.5986 116.103C14.6966 115.619 13.2886 115.377 11.7706 115.135C10.5166 114.959 8.88859 114.695 8.25059 114.387C7.67859 114.123 7.39259 113.639 7.39259 112.825C7.39259 111.505 8.69059 110.603 10.8686 110.603C13.1346 110.603 14.3006 111.615 14.3006 113.749H16.6766C16.6766 110.449 15.1146 108.557 10.8246 108.557C7.04059 108.557 4.77459 110.405 4.77459 113.045C4.77459 114.409 5.32459 115.399 6.20459 115.949C6.99659 116.455 8.53659 116.785 9.98859 116.983C11.2426 117.159 12.8046 117.357 13.5306 117.643C14.2126 117.885 14.5426 118.347 14.5426 119.139C14.5426 120.327 13.7946 121.427 10.8466 121.427C8.07459 121.427 7.19459 120.151 7.19459 118.303H4.81859C4.81859 120.943 6.07259 123.473 10.8686 123.473ZM19.3927 111.109H21.9227V108.689H19.3927V111.109ZM19.4147 123.253H21.8787V112.385H19.4147V123.253ZM32.0075 121.537H28.4875C27.6955 121.537 27.2555 121.163 27.2555 120.547C27.2555 120.173 27.3875 119.865 27.5195 119.711C28.0915 119.865 28.7295 119.953 29.4335 119.953C32.4255 119.953 34.2735 118.479 34.2735 116.081C34.2735 115.267 34.0535 114.541 33.6355 113.969C33.5035 113.551 33.3935 113.177 33.3935 112.869C33.3935 112.275 33.7455 111.967 34.4715 111.967C34.7795 111.967 35.0215 112.011 35.1975 112.077V110.339C34.9335 110.273 34.6255 110.229 34.0975 110.229C32.7995 110.229 31.9635 110.779 31.9635 111.659C31.9635 112.121 32.1615 112.539 32.4915 112.891L32.4695 112.913C31.6775 112.451 30.6655 112.209 29.4335 112.209C26.4415 112.209 24.5935 113.705 24.5935 116.081C24.5935 117.445 25.1875 118.523 26.2655 119.183V119.227C25.6715 119.513 25.2535 120.151 25.2535 121.075C25.2535 121.845 25.5835 122.439 26.1995 122.857V122.879C24.9015 122.945 24.0875 123.759 24.0875 124.859C24.0875 126.817 26.2875 127.939 29.9615 127.939C33.5475 127.939 35.6815 126.575 35.6815 124.287C35.6815 122.549 34.3395 121.537 32.0075 121.537ZM29.4335 113.969C30.9735 113.969 31.9195 114.783 31.9195 116.081C31.9195 117.379 30.9735 118.193 29.4335 118.193C27.8935 118.193 26.9475 117.379 26.9475 116.081C26.9475 114.783 27.8935 113.969 29.4335 113.969ZM29.9395 126.201C27.8495 126.201 26.5295 125.695 26.5295 124.661C26.5295 123.825 27.3215 123.451 28.5535 123.451H31.5015C32.6675 123.451 33.2175 123.847 33.2175 124.573C33.2175 125.541 32.2495 126.201 29.9395 126.201ZM41.0727 123.429C43.4707 123.429 44.7687 122.461 45.1207 120.855H45.1427C45.1427 121.735 45.0767 122.725 45.0327 123.253H47.4967V116.631C47.4967 113.771 45.5607 112.209 42.2607 112.209C39.1587 112.209 37.2667 113.507 37.2667 115.685C37.2667 115.883 37.2887 116.169 37.3107 116.323H39.5767C39.5547 116.147 39.5547 115.971 39.5547 115.905C39.5547 114.695 40.5007 114.057 42.1727 114.057C44.0867 114.057 45.0327 114.783 45.0327 116.411V117.181H41.0067C38.1027 117.181 36.9367 118.479 36.9367 120.129C36.9367 122.241 38.5867 123.429 41.0727 123.429ZM41.5787 121.581C40.0827 121.581 39.2027 121.009 39.2027 120.019C39.2027 119.161 39.8187 118.677 41.2267 118.677H45.0327V118.875C45.0327 120.547 43.7127 121.581 41.5787 121.581ZM58.7543 123.429C61.1523 123.429 62.4503 122.461 62.8023 120.855H62.8243C62.8243 121.735 62.7583 122.725 62.7143 123.253H65.1783V116.631C65.1783 113.771 63.2423 112.209 59.9423 112.209C56.8403 112.209 54.9483 113.507 54.9483 115.685C54.9483 115.883 54.9703 116.169 54.9923 116.323H57.2583C57.2363 116.147 57.2363 115.971 57.2363 115.905C57.2363 114.695 58.1823 114.057 59.8543 114.057C61.7683 114.057 62.7143 114.783 62.7143 116.411V117.181H58.6883C55.7843 117.181 54.6183 118.479 54.6183 120.129C54.6183 122.241 56.2683 123.429 58.7543 123.429ZM59.2603 121.581C57.7643 121.581 56.8843 121.009 56.8843 120.019C56.8843 119.161 57.5003 118.677 58.9083 118.677H62.7143V118.875C62.7143 120.547 61.3943 121.581 59.2603 121.581ZM80.154 121.537H76.634C75.842 121.537 75.402 121.163 75.402 120.547C75.402 120.173 75.534 119.865 75.666 119.711C76.238 119.865 76.876 119.953 77.58 119.953C80.572 119.953 82.42 118.479 82.42 116.081C82.42 115.267 82.2 114.541 81.782 113.969C81.65 113.551 81.54 113.177 81.54 112.869C81.54 112.275 81.892 111.967 82.618 111.967C82.926 111.967 83.168 112.011 83.344 112.077V110.339C83.08 110.273 82.772 110.229 82.244 110.229C80.946 110.229 80.11 110.779 80.11 111.659C80.11 112.121 80.308 112.539 80.638 112.891L80.616 112.913C79.824 112.451 78.812 112.209 77.58 112.209C74.588 112.209 72.74 113.705 72.74 116.081C72.74 117.445 73.334 118.523 74.412 119.183V119.227C73.818 119.513 73.4 120.151 73.4 121.075C73.4 121.845 73.73 122.439 74.346 122.857V122.879C73.048 122.945 72.234 123.759 72.234 124.859C72.234 126.817 74.434 127.939 78.108 127.939C81.694 127.939 83.828 126.575 83.828 124.287C83.828 122.549 82.486 121.537 80.154 121.537ZM77.58 113.969C79.12 113.969 80.066 114.783 80.066 116.081C80.066 117.379 79.12 118.193 77.58 118.193C76.04 118.193 75.094 117.379 75.094 116.081C75.094 114.783 76.04 113.969 77.58 113.969ZM78.086 126.201C75.996 126.201 74.676 125.695 74.676 124.661C74.676 123.825 75.468 123.451 76.7 123.451H79.648C80.814 123.451 81.364 123.847 81.364 124.573C81.364 125.541 80.396 126.201 78.086 126.201ZM95.4509 117.423C95.4509 114.035 93.4929 112.209 90.4129 112.209C86.9809 112.209 84.8249 114.387 84.8249 117.907C84.8249 121.317 86.9809 123.429 90.4129 123.429C93.3829 123.429 95.3629 121.955 95.4509 119.535H93.2289C93.1189 120.811 92.0409 121.515 90.4569 121.515C88.6089 121.515 87.4429 120.393 87.3109 118.303H95.4509V117.423ZM93.2289 116.807H87.3769C87.6629 115.003 88.7409 114.123 90.4349 114.123C92.2169 114.123 93.2289 115.025 93.2289 116.653V116.807ZM97.5943 123.253H100.058V117.995C100.058 115.619 101.422 114.321 103.578 114.321C105.536 114.321 106.504 115.289 106.504 117.005V123.253H108.968V116.455C108.968 113.771 107.274 112.209 104.524 112.209C101.994 112.209 100.586 113.331 99.9923 115.289H99.9703L100.058 112.385H97.5943V123.253ZM116.163 123.385C117.065 123.385 117.813 123.231 118.143 123.121V121.163C117.835 121.251 117.131 121.361 116.515 121.361C115.019 121.361 114.491 120.657 114.491 119.249V114.387H118.231V112.385H114.491V109.921H112.445L112.335 111.549C112.269 112.165 112.115 112.385 111.697 112.385H110.311V114.387H112.027V119.381C112.027 121.779 113.193 123.385 116.163 123.385ZM130.062 117.423C130.062 114.035 128.104 112.209 125.024 112.209C121.592 112.209 119.436 114.387 119.436 117.907C119.436 121.317 121.592 123.429 125.024 123.429C127.994 123.429 129.974 121.955 130.062 119.535H127.84C127.73 120.811 126.652 121.515 125.068 121.515C123.22 121.515 122.054 120.393 121.922 118.303H130.062V117.423ZM127.84 116.807H121.988C122.274 115.003 123.352 114.123 125.046 114.123C126.828 114.123 127.84 115.025 127.84 116.653V116.807ZM137.276 123.253H139.74V117.995C139.74 115.619 141.104 114.321 143.26 114.321C145.218 114.321 146.186 115.289 146.186 117.005V123.253H148.65V116.455C148.65 113.771 146.956 112.209 144.206 112.209C141.676 112.209 140.268 113.331 139.674 115.289H139.652L139.74 112.385H137.276V123.253ZM154.832 123.429C157.23 123.429 158.528 122.461 158.88 120.855H158.902C158.902 121.735 158.836 122.725 158.792 123.253H161.256V116.631C161.256 113.771 159.32 112.209 156.02 112.209C152.918 112.209 151.026 113.507 151.026 115.685C151.026 115.883 151.048 116.169 151.07 116.323H153.336C153.314 116.147 153.314 115.971 153.314 115.905C153.314 114.695 154.26 114.057 155.932 114.057C157.846 114.057 158.792 114.783 158.792 116.411V117.181H154.766C151.862 117.181 150.696 118.479 150.696 120.129C150.696 122.241 152.346 123.429 154.832 123.429ZM155.338 121.581C153.842 121.581 152.962 121.009 152.962 120.019C152.962 119.161 153.578 118.677 154.986 118.677H158.792V118.875C158.792 120.547 157.472 121.581 155.338 121.581ZM168.368 123.429C171.844 123.429 173.692 122.131 173.692 119.931C173.692 119.051 173.274 118.215 172.548 117.819C171.778 117.379 170.898 117.225 169.358 117.071C168.038 116.939 167.004 116.829 166.476 116.653C165.838 116.433 165.728 115.993 165.728 115.531C165.728 114.607 166.696 113.991 168.412 113.991C170.216 113.991 170.986 114.673 171.008 116.081H173.23C173.23 113.617 171.734 112.209 168.346 112.209C165.398 112.209 163.286 113.529 163.286 115.707C163.286 116.543 163.638 117.335 164.232 117.775C164.892 118.259 166.036 118.479 167.73 118.633C168.94 118.743 169.974 118.853 170.502 119.051C171.074 119.249 171.228 119.623 171.228 120.041C171.228 121.031 170.348 121.647 168.346 121.647C166.234 121.647 165.508 120.877 165.508 119.623H163.286C163.286 121.757 164.628 123.429 168.368 123.429ZM180.889 123.253H183.353V118.501C183.353 115.905 184.519 114.321 186.389 114.321C187.841 114.321 188.545 115.179 188.545 117.005C188.545 117.511 188.501 118.061 188.457 118.479H190.701C190.745 118.017 190.811 117.137 190.811 116.455C190.811 113.749 189.513 112.209 187.159 112.209C184.915 112.209 183.793 113.551 183.287 115.509H183.265L183.353 112.385H180.889V123.253ZM203.216 117.423C203.216 114.035 201.258 112.209 198.178 112.209C194.746 112.209 192.59 114.387 192.59 117.907C192.59 121.317 194.746 123.429 198.178 123.429C201.148 123.429 203.128 121.955 203.216 119.535H200.994C200.884 120.811 199.806 121.515 198.222 121.515C196.374 121.515 195.208 120.393 195.076 118.303H203.216V117.423ZM200.994 116.807H195.142C195.428 115.003 196.506 114.123 198.2 114.123C199.982 114.123 200.994 115.025 200.994 116.653V116.807ZM210.156 123.429C212.378 123.429 213.742 122.329 214.16 120.613H214.204C214.16 121.669 214.138 122.615 214.094 123.253H216.558V108.007H214.094V114.299H214.072C213.632 113.023 212.356 112.209 210.31 112.209C207.076 112.209 205.03 114.475 205.03 117.753C205.03 121.141 207.01 123.429 210.156 123.429ZM210.662 121.405C208.726 121.405 207.472 119.909 207.472 117.753C207.472 115.685 208.748 114.233 210.706 114.233C212.752 114.233 214.094 115.465 214.094 117.401V117.929C214.094 120.041 212.73 121.405 210.662 121.405ZM229.384 117.423C229.384 114.035 227.426 112.209 224.346 112.209C220.914 112.209 218.758 114.387 218.758 117.907C218.758 121.317 220.914 123.429 224.346 123.429C227.316 123.429 229.296 121.955 229.384 119.535H227.162C227.052 120.811 225.974 121.515 224.39 121.515C222.542 121.515 221.376 120.393 221.244 118.303H229.384V117.423ZM227.162 116.807H221.31C221.596 115.003 222.674 114.123 224.368 114.123C226.15 114.123 227.162 115.025 227.162 116.653V116.807ZM236.28 123.429C239.756 123.429 241.604 122.131 241.604 119.931C241.604 119.051 241.186 118.215 240.46 117.819C239.69 117.379 238.81 117.225 237.27 117.071C235.95 116.939 234.916 116.829 234.388 116.653C233.75 116.433 233.64 115.993 233.64 115.531C233.64 114.607 234.608 113.991 236.324 113.991C238.128 113.991 238.898 114.673 238.92 116.081H241.142C241.142 113.617 239.646 112.209 236.258 112.209C233.31 112.209 231.198 113.529 231.198 115.707C231.198 116.543 231.55 117.335 232.144 117.775C232.804 118.259 233.948 118.479 235.642 118.633C236.852 118.743 237.886 118.853 238.414 119.051C238.986 119.249 239.14 119.623 239.14 120.041C239.14 121.031 238.26 121.647 236.258 121.647C234.146 121.647 233.42 120.877 233.42 119.623H231.198C231.198 121.757 232.54 123.429 236.28 123.429ZM253.553 123.429C257.029 123.429 258.877 122.131 258.877 119.931C258.877 119.051 258.459 118.215 257.733 117.819C256.963 117.379 256.083 117.225 254.543 117.071C253.223 116.939 252.189 116.829 251.661 116.653C251.023 116.433 250.913 115.993 250.913 115.531C250.913 114.607 251.881 113.991 253.597 113.991C255.401 113.991 256.171 114.673 256.193 116.081H258.415C258.415 113.617 256.919 112.209 253.531 112.209C250.583 112.209 248.471 113.529 248.471 115.707C248.471 116.543 248.823 117.335 249.417 117.775C250.077 118.259 251.221 118.479 252.915 118.633C254.125 118.743 255.159 118.853 255.687 119.051C256.259 119.249 256.413 119.623 256.413 120.041C256.413 121.031 255.533 121.647 253.531 121.647C251.419 121.647 250.693 120.877 250.693 119.623H248.471C248.471 121.757 249.813 123.429 253.553 123.429ZM266.35 123.429C269.826 123.429 272.048 121.295 272.048 117.841C272.048 114.365 269.826 112.209 266.35 112.209C262.896 112.209 260.674 114.365 260.674 117.841C260.674 121.295 262.896 123.429 266.35 123.429ZM266.35 121.405C264.348 121.405 263.138 120.041 263.138 117.841C263.138 115.619 264.348 114.233 266.35 114.233C268.352 114.233 269.584 115.619 269.584 117.841C269.584 120.041 268.352 121.405 266.35 121.405ZM279.147 123.429C282.249 123.429 284.317 121.735 284.317 118.831H282.095C282.073 120.437 280.995 121.405 279.257 121.405C277.431 121.405 276.287 120.041 276.287 117.819C276.287 115.575 277.453 114.233 279.345 114.233C280.995 114.233 282.051 115.223 282.073 116.851H284.295C284.295 113.969 282.315 112.209 279.279 112.209C276.001 112.209 273.823 114.343 273.823 117.819C273.823 121.295 275.957 123.429 279.147 123.429ZM286.572 111.109H289.102V108.689H286.572V111.109ZM286.594 123.253H289.058V112.385H286.594V123.253ZM295.469 123.429C297.867 123.429 299.165 122.461 299.517 120.855H299.539C299.539 121.735 299.473 122.725 299.429 123.253H301.893V116.631C301.893 113.771 299.957 112.209 296.657 112.209C293.555 112.209 291.663 113.507 291.663 115.685C291.663 115.883 291.685 116.169 291.707 116.323H293.973C293.951 116.147 293.951 115.971 293.951 115.905C293.951 114.695 294.897 114.057 296.569 114.057C298.483 114.057 299.429 114.783 299.429 116.411V117.181H295.403C292.499 117.181 291.333 118.479 291.333 120.129C291.333 122.241 292.983 123.429 295.469 123.429ZM295.975 121.581C294.479 121.581 293.599 121.009 293.599 120.019C293.599 119.161 294.215 118.677 295.623 118.677H299.429V118.875C299.429 120.547 298.109 121.581 295.975 121.581ZM304.319 111.109H306.849V108.689H304.319V111.109ZM304.341 123.253H306.805V112.385H304.341V123.253ZM314.139 123.429C317.615 123.429 319.463 122.131 319.463 119.931C319.463 119.051 319.045 118.215 318.319 117.819C317.549 117.379 316.669 117.225 315.129 117.071C313.809 116.939 312.775 116.829 312.247 116.653C311.609 116.433 311.499 115.993 311.499 115.531C311.499 114.607 312.467 113.991 314.183 113.991C315.987 113.991 316.757 114.673 316.779 116.081H319.001C319.001 113.617 317.505 112.209 314.117 112.209C311.169 112.209 309.057 113.529 309.057 115.707C309.057 116.543 309.409 117.335 310.003 117.775C310.663 118.259 311.807 118.479 313.501 118.633C314.711 118.743 315.745 118.853 316.273 119.051C316.845 119.249 316.999 119.623 316.999 120.041C316.999 121.031 316.119 121.647 314.117 121.647C312.005 121.647 311.279 120.877 311.279 119.623H309.057C309.057 121.757 310.399 123.429 314.139 123.429ZM322.272 118.281H323.24L323.966 110.955V108.469H321.546V110.955L322.272 118.281ZM321.502 123.253H324.01V120.393H321.502V123.253Z" fill="white"/>
<path d="M14.8816 29.35C21.8466 29.35 27.2366 24.905 27.2366 17.38C27.2366 9.995 21.8466 5.62 14.8816 5.62C7.91656 5.62 2.52656 9.995 2.52656 17.38C2.52656 24.905 7.91656 29.35 14.8816 29.35ZM14.8816 24.835C11.2416 24.835 8.47656 22.07 8.47656 17.415C8.47656 12.83 11.2416 10.135 14.8816 10.135C18.5216 10.135 21.2866 12.83 21.2866 17.415C21.2866 22.07 18.5216 24.835 14.8816 24.835ZM37.6698 29H42.9898V20.775C42.9898 17.485 44.6698 15.84 47.4698 15.84C49.8148 15.84 51.2148 16.925 51.2148 19.375V29H56.5348V18.185C56.5348 13.705 53.8398 11.43 49.6748 11.43C45.7548 11.43 43.7248 13.005 42.8498 16.295H42.7798L42.9898 11.71H37.6698V29ZM68.1321 29.28C73.8371 29.28 77.5471 25.99 77.5471 20.39C77.5471 14.755 73.8371 11.43 68.1321 11.43C62.4271 11.43 58.7171 14.755 58.7171 20.39C58.7171 25.99 62.4271 29.28 68.1321 29.28ZM68.1321 25.22C65.5421 25.22 64.0371 23.435 64.0371 20.39C64.0371 17.31 65.5421 15.49 68.1321 15.49C70.7221 15.49 72.2271 17.31 72.2271 20.39C72.2271 23.435 70.7221 25.22 68.1321 25.22ZM85.2296 29H91.5646L98.7046 11.71H93.2446L88.6946 24.135H88.6246L84.1796 11.71H77.9846L85.2296 29ZM108.567 29.28C114.272 29.28 117.982 25.99 117.982 20.39C117.982 14.755 114.272 11.43 108.567 11.43C102.862 11.43 99.1517 14.755 99.1517 20.39C99.1517 25.99 102.862 29.28 108.567 29.28ZM108.567 25.22C105.977 25.22 104.472 23.435 104.472 20.39C104.472 17.31 105.977 15.49 108.567 15.49C111.157 15.49 112.662 17.31 112.662 20.39C112.662 23.435 111.157 25.22 108.567 25.22ZM142.523 5.025H137.238L134.753 9.925H138.743L142.523 5.025ZM145.708 19.865C145.708 14.195 142.313 11.43 137.483 11.43C131.638 11.43 128.068 14.825 128.068 20.53C128.068 26.025 131.638 29.28 137.378 29.28C142.313 29.28 145.603 26.97 145.708 23.015H141.018C140.878 24.695 139.548 25.43 137.483 25.43C135.103 25.43 133.668 24.205 133.423 21.37H145.708V19.865ZM141.018 18.535H133.563C133.983 16.26 135.243 15.28 137.483 15.28C139.688 15.28 141.018 16.295 141.018 18.255V18.535ZM164.572 29.28C169.682 29.28 173.217 26.69 173.217 21.72H168.527C168.492 23.925 167.127 25.22 164.852 25.22C162.507 25.22 161.107 23.4 161.107 20.355C161.107 17.205 162.472 15.49 164.957 15.49C167.127 15.49 168.457 16.82 168.492 19.06H173.182C173.182 14.265 169.857 11.43 164.782 11.43C159.462 11.43 155.787 14.755 155.787 20.39C155.787 25.99 159.392 29.28 164.572 29.28ZM184.651 29.28C190.356 29.28 194.066 25.99 194.066 20.39C194.066 14.755 190.356 11.43 184.651 11.43C178.946 11.43 175.236 14.755 175.236 20.39C175.236 25.99 178.946 29.28 184.651 29.28ZM184.651 25.22C182.061 25.22 180.556 23.435 180.556 20.39C180.556 17.31 182.061 15.49 184.651 15.49C187.241 15.49 188.746 17.31 188.746 20.39C188.746 23.435 187.241 25.22 184.651 25.22ZM196.4 29H201.72V20.775C201.72 17.485 203.4 15.84 206.2 15.84C208.545 15.84 209.945 16.925 209.945 19.375V29H215.265V18.185C215.265 13.705 212.57 11.43 208.405 11.43C204.485 11.43 202.455 13.005 201.58 16.295H201.51L201.72 11.71H196.4V29ZM226.093 29.28C232.008 29.28 235.123 27.145 235.123 23.505C235.123 22 234.318 20.705 233.198 20.075C231.903 19.34 230.398 19.13 228.263 18.92C226.408 18.745 224.868 18.605 223.993 18.395C223.013 18.15 222.733 17.59 222.733 16.855C222.733 15.665 223.783 14.86 226.163 14.86C228.788 14.86 229.628 15.805 229.663 17.625H234.353C234.353 13.6 231.763 11.43 226.093 11.43C221.298 11.43 217.448 13.495 217.448 17.24C217.448 18.675 218.113 19.935 219.093 20.635C220.143 21.37 222.068 21.755 224.553 21.965C226.268 22.105 227.668 22.245 228.578 22.455C229.488 22.665 229.803 23.155 229.803 23.785C229.803 25.045 228.823 25.85 226.058 25.85C223.013 25.85 222.208 24.8 222.208 23.19H217.448C217.448 26.69 220.003 29.28 226.093 29.28ZM246.269 29.28C247.704 29.28 249.174 29 249.629 28.895V24.87C249.034 25.01 247.949 25.115 247.214 25.115C245.114 25.115 244.274 24.555 244.274 22.77V15.84H249.804V11.71H244.274V7.79H239.899L239.654 10.205C239.549 11.255 239.269 11.71 238.464 11.71H236.399V15.84H238.954V23.05C238.954 26.9 240.879 29.28 246.269 29.28ZM258.181 29.28C261.331 29.28 263.291 27.95 263.816 25.5H263.851C263.851 26.55 263.711 28.125 263.606 29H268.926V18.5C268.926 13.88 265.706 11.43 260.211 11.43C254.961 11.43 251.881 13.495 251.881 16.995C251.881 17.345 251.916 17.73 251.951 18.01H256.851C256.816 17.66 256.816 17.38 256.816 17.275C256.816 15.875 257.971 15.035 259.966 15.035C262.416 15.035 263.606 15.875 263.606 17.975V19.13H257.971C253.386 19.13 251.356 21.195 251.356 24.03C251.356 27.53 254.156 29.28 258.181 29.28ZM259.231 25.675C257.306 25.675 256.151 24.975 256.151 23.645C256.151 22.665 257.026 22 258.461 22H263.606V22.35C263.606 24.45 261.996 25.675 259.231 25.675ZM271.425 29H276.745V20.775C276.745 17.485 278.425 15.84 281.225 15.84C283.57 15.84 284.97 16.925 284.97 19.375V29H290.29V18.185C290.29 13.705 287.595 11.43 283.43 11.43C279.51 11.43 277.48 13.005 276.605 16.295H276.535L276.745 11.71H271.425V29ZM301.572 29.28C303.007 29.28 304.477 29 304.932 28.895V24.87C304.337 25.01 303.252 25.115 302.517 25.115C300.417 25.115 299.577 24.555 299.577 22.77V15.84H305.107V11.71H299.577V7.79H295.202L294.957 10.205C294.852 11.255 294.572 11.71 293.767 11.71H291.702V15.84H294.257V23.05C294.257 26.9 296.182 29.28 301.572 29.28ZM323.921 19.865C323.921 14.195 320.526 11.43 315.696 11.43C309.851 11.43 306.281 14.825 306.281 20.53C306.281 26.025 309.851 29.28 315.591 29.28C320.526 29.28 323.816 26.97 323.921 23.015H319.231C319.091 24.695 317.761 25.43 315.696 25.43C313.316 25.43 311.881 24.205 311.636 21.37H323.921V19.865ZM319.231 18.535H311.776C312.196 16.26 313.456 15.28 315.696 15.28C317.901 15.28 319.231 16.295 319.231 18.255V18.535ZM326.704 34.145C330.204 34.04 332.234 32.29 332.234 27.46V23.75H327.054V29H329.224V29.14C329.224 30.785 328.454 31.52 326.704 31.59V34.145ZM19.6677 69.28C24.7777 69.28 28.3127 66.69 28.3127 61.72H23.6227C23.5877 63.925 22.2227 65.22 19.9477 65.22C17.6027 65.22 16.2027 63.4 16.2027 60.355C16.2027 57.205 17.5677 55.49 20.0527 55.49C22.2227 55.49 23.5527 56.82 23.5877 59.06H28.2777C28.2777 54.265 24.9527 51.43 19.8777 51.43C14.5577 51.43 10.8827 54.755 10.8827 60.39C10.8827 65.99 14.4877 69.28 19.6677 69.28ZM39.7459 69.28C45.4509 69.28 49.1609 65.99 49.1609 60.39C49.1609 54.755 45.4509 51.43 39.7459 51.43C34.0409 51.43 30.3309 54.755 30.3309 60.39C30.3309 65.99 34.0409 69.28 39.7459 69.28ZM39.7459 65.22C37.1559 65.22 35.6509 63.435 35.6509 60.39C35.6509 57.31 37.1559 55.49 39.7459 55.49C42.3359 55.49 43.8409 57.31 43.8409 60.39C43.8409 63.435 42.3359 65.22 39.7459 65.22ZM51.4955 69H56.8155V60.775C56.8155 57.485 58.4955 55.84 61.2955 55.84C63.6405 55.84 65.0405 56.925 65.0405 59.375V69H70.3605V58.185C70.3605 53.705 67.6655 51.43 63.5005 51.43C59.5805 51.43 57.5505 53.005 56.6755 56.295H56.6055L56.8155 51.71H51.4955V69ZM81.1878 69.28C87.1028 69.28 90.2178 67.145 90.2178 63.505C90.2178 62 89.4128 60.705 88.2928 60.075C86.9978 59.34 85.4928 59.13 83.3578 58.92C81.5028 58.745 79.9628 58.605 79.0878 58.395C78.1078 58.15 77.8278 57.59 77.8278 56.855C77.8278 55.665 78.8778 54.86 81.2578 54.86C83.8828 54.86 84.7228 55.805 84.7578 57.625H89.4478C89.4478 53.6 86.8578 51.43 81.1878 51.43C76.3928 51.43 72.5428 53.495 72.5428 57.24C72.5428 58.675 73.2078 59.935 74.1878 60.635C75.2378 61.37 77.1628 61.755 79.6478 61.965C81.3628 62.105 82.7628 62.245 83.6728 62.455C84.5828 62.665 84.8978 63.155 84.8978 63.785C84.8978 65.045 83.9178 65.85 81.1528 65.85C78.1078 65.85 77.3028 64.8 77.3028 63.19H72.5428C72.5428 66.69 75.0978 69.28 81.1878 69.28ZM101.365 69.28C102.8 69.28 104.27 69 104.725 68.895V64.87C104.13 65.01 103.045 65.115 102.31 65.115C100.21 65.115 99.3695 64.555 99.3695 62.77V55.84H104.9V51.71H99.3695V47.79H94.9945L94.7495 50.205C94.6445 51.255 94.3645 51.71 93.5595 51.71H91.4945V55.84H94.0495V63.05C94.0495 66.9 95.9745 69.28 101.365 69.28ZM107.14 69H112.46V61.545C112.46 57.695 114.035 55.84 116.31 55.84C117.99 55.84 119.005 56.855 119.005 59.375C119.005 59.9 118.97 60.775 118.9 61.615H123.73C123.8 60.705 123.905 59.165 123.905 58.185C123.905 53.705 121.84 51.43 118.305 51.43C114.91 51.43 113.055 53.355 112.32 56.645H112.25L112.46 51.71H107.14V69ZM133.283 69.28C136.573 69.28 138.918 67.81 139.688 64.485H139.758C139.723 66.375 139.618 67.81 139.513 69H144.833V51.71H139.513V59.2C139.513 62.98 137.798 64.87 134.928 64.87C132.653 64.87 131.323 63.75 131.323 61.335V51.71H126.003V61.965C126.003 67.04 128.803 69.28 133.283 69.28ZM154.155 69.28C157.305 69.28 159.265 67.95 159.79 65.5H159.825C159.825 66.55 159.685 68.125 159.58 69H164.9V58.5C164.9 53.88 161.68 51.43 156.185 51.43C150.935 51.43 147.855 53.495 147.855 56.995C147.855 57.345 147.89 57.73 147.925 58.01H152.825C152.79 57.66 152.79 57.38 152.79 57.275C152.79 55.875 153.945 55.035 155.94 55.035C158.39 55.035 159.58 55.875 159.58 57.975V59.13H153.945C149.36 59.13 147.33 61.195 147.33 64.03C147.33 67.53 150.13 69.28 154.155 69.28ZM155.205 65.675C153.28 65.675 152.125 64.975 152.125 63.645C152.125 62.665 153 62 154.435 62H159.58V62.35C159.58 64.45 157.97 65.675 155.205 65.675ZM183.935 69.28C189.045 69.28 192.58 66.69 192.58 61.72H187.89C187.855 63.925 186.49 65.22 184.215 65.22C181.87 65.22 180.47 63.4 180.47 60.355C180.47 57.205 181.835 55.49 184.32 55.49C186.49 55.49 187.82 56.82 187.855 59.06H192.545C192.545 54.265 189.22 51.43 184.145 51.43C178.825 51.43 175.15 54.755 175.15 60.39C175.15 65.99 178.755 69.28 183.935 69.28ZM204.013 69.28C209.718 69.28 213.428 65.99 213.428 60.39C213.428 54.755 209.718 51.43 204.013 51.43C198.308 51.43 194.598 54.755 194.598 60.39C194.598 65.99 198.308 69.28 204.013 69.28ZM204.013 65.22C201.423 65.22 199.918 63.435 199.918 60.39C199.918 57.31 201.423 55.49 204.013 55.49C206.603 55.49 208.108 57.31 208.108 60.39C208.108 63.435 206.603 65.22 204.013 65.22ZM215.763 69H221.083V60.775C221.083 57.485 222.763 55.84 225.563 55.84C227.908 55.84 229.308 56.925 229.308 59.375V69H234.628V58.185C234.628 53.705 231.933 51.43 227.768 51.43C223.848 51.43 221.818 53.005 220.943 56.295H220.873L221.083 51.71H215.763V69ZM246.225 69.28C251.93 69.28 255.64 65.99 255.64 60.39C255.64 54.755 251.93 51.43 246.225 51.43C240.52 51.43 236.81 54.755 236.81 60.39C236.81 65.99 240.52 69.28 246.225 69.28ZM246.225 65.22C243.635 65.22 242.13 63.435 242.13 60.39C242.13 57.31 243.635 55.49 246.225 55.49C248.815 55.49 250.32 57.31 250.32 60.39C250.32 63.435 248.815 65.22 246.225 65.22ZM266.168 69.28C272.083 69.28 275.198 67.145 275.198 63.505C275.198 62 274.393 60.705 273.273 60.075C271.978 59.34 270.473 59.13 268.338 58.92C266.483 58.745 264.943 58.605 264.068 58.395C263.088 58.15 262.808 57.59 262.808 56.855C262.808 55.665 263.858 54.86 266.238 54.86C268.863 54.86 269.703 55.805 269.738 57.625H274.428C274.428 53.6 271.838 51.43 266.168 51.43C261.373 51.43 257.523 53.495 257.523 57.24C257.523 58.675 258.188 59.935 259.168 60.635C260.218 61.37 262.143 61.755 264.628 61.965C266.343 62.105 267.743 62.245 268.653 62.455C269.563 62.665 269.878 63.155 269.878 63.785C269.878 65.045 268.898 65.85 266.133 65.85C263.088 65.85 262.283 64.8 262.283 63.19H257.523C257.523 66.69 260.078 69.28 266.168 69.28ZM286.03 69.28C291.14 69.28 294.675 66.69 294.675 61.72H289.985C289.95 63.925 288.585 65.22 286.31 65.22C283.965 65.22 282.565 63.4 282.565 60.355C282.565 57.205 283.93 55.49 286.415 55.49C288.585 55.49 289.915 56.82 289.95 59.06H294.64C294.64 54.265 291.315 51.43 286.24 51.43C280.92 51.43 277.245 54.755 277.245 60.39C277.245 65.99 280.85 69.28 286.03 69.28ZM306.108 69.28C311.813 69.28 315.523 65.99 315.523 60.39C315.523 54.755 311.813 51.43 306.108 51.43C300.403 51.43 296.693 54.755 296.693 60.39C296.693 65.99 300.403 69.28 306.108 69.28ZM306.108 65.22C303.518 65.22 302.013 63.435 302.013 60.39C302.013 57.31 303.518 55.49 306.108 55.49C308.698 55.49 310.203 57.31 310.203 60.39C310.203 63.435 308.698 65.22 306.108 65.22ZM318.733 69H323.913V63.75H318.733V69Z" fill="white"/>
</svg>
