<svg width="785" height="688" viewBox="0 0 785 688" fill="none" xmlns="http://www.w3.org/2000/svg">
<path d="M109.976 408.089L109.039 407.216L245.752 258.49L401.972 319.368L401.509 320.565L246.105 260.006L109.976 408.089Z" fill="black"/>
<path d="M288.719 358.017L245.288 259.385L245.284 259.256L242.444 31.4029L243.725 31.3848L246.562 259.109L289.89 357.498L288.719 358.017Z" fill="black"/>
<path d="M245.978 259.991L47.7009 163.213L48.2615 162.062L245.87 258.511L351.304 186.184L352.032 187.241L245.978 259.991Z" fill="black"/>
<path d="M138.761 329.156L138.069 328.077L245.379 258.846L311.012 26.2121L312.245 26.5583L246.477 259.658L246.275 259.783L138.761 329.156Z" fill="black"/>
<path d="M610.573 521.205L400.395 54.8698C397.804 49.1232 393.038 44.6423 387.145 42.4128C381.252 40.1832 374.716 40.3876 368.973 42.9811L157.651 138.411C154.804 139.69 152.237 141.518 150.096 143.79C147.955 146.062 146.283 148.734 145.174 151.654C144.066 154.573 143.543 157.682 143.636 160.803C143.729 163.925 144.436 166.997 145.716 169.845L355.91 636.19C358.501 641.937 363.267 646.418 369.16 648.647C375.052 650.877 381.589 650.672 387.332 648.079L598.688 552.653C604.43 550.059 608.909 545.289 611.138 539.391C613.366 533.493 613.163 526.952 610.573 521.205Z" fill="white"/>
<path d="M375.017 650.701C372.934 650.478 370.889 649.988 368.931 649.245C365.931 648.119 363.183 646.408 360.848 644.213C358.512 642.017 356.634 639.38 355.323 636.454L145.155 170.112C142.503 164.212 142.298 157.5 144.584 151.448C146.871 145.396 151.462 140.498 157.352 137.829L368.709 42.3947C374.608 39.7377 381.319 39.5312 387.369 41.8205C393.42 44.1099 398.315 48.7081 400.981 54.606L611.158 520.941C613.817 526.844 614.025 533.562 611.736 539.618C609.447 545.675 604.848 550.574 598.951 553.239L387.595 648.666C383.658 650.453 379.316 651.156 375.017 650.701ZM381.15 41.6419C377.08 41.2109 372.968 41.8728 369.237 43.5593L157.88 138.994C152.31 141.525 147.967 146.16 145.801 151.885C143.635 157.611 143.822 163.962 146.322 169.549L356.496 635.926C359.016 641.507 363.647 645.858 369.37 648.026C375.094 650.194 381.443 650 387.026 647.488L598.381 552.062C603.958 549.538 608.307 544.904 610.474 539.175C612.641 533.447 612.448 527.093 609.939 521.507L399.808 55.134C398.148 51.4491 395.552 48.2642 392.278 45.8969C389.005 43.5295 385.168 42.0624 381.15 41.6419V41.6419Z" fill="black"/>
<path d="M274.703 115.443C276.705 114.527 277.533 112.045 276.553 109.9C275.573 107.756 273.155 106.76 271.153 107.677C269.151 108.593 268.323 111.075 269.304 113.22C270.284 115.365 272.702 116.36 274.703 115.443Z" fill="white"/>
<path d="M272.758 117.63C271.896 117.532 271.074 117.208 270.376 116.692C269.678 116.176 269.127 115.485 268.779 114.689C268.242 113.525 268.168 112.199 268.574 110.982C268.767 110.394 269.08 109.854 269.492 109.394C269.905 108.933 270.408 108.564 270.97 108.308C272.14 107.825 273.452 107.824 274.621 108.306C275.791 108.788 276.722 109.713 277.212 110.88V110.88C277.763 112.02 277.841 113.331 277.428 114.529C277.016 115.726 276.147 116.711 275.011 117.269C274.305 117.587 273.528 117.712 272.758 117.63V117.63ZM273.148 109.218C272.594 109.157 272.033 109.246 271.524 109.475C271.123 109.66 270.764 109.927 270.47 110.258C270.176 110.589 269.954 110.977 269.817 111.398C269.511 112.305 269.565 113.295 269.969 114.163C270.141 114.58 270.395 114.958 270.716 115.274C271.038 115.591 271.419 115.839 271.839 116.005C272.258 116.17 272.707 116.249 273.157 116.237C273.608 116.225 274.052 116.123 274.462 115.935C274.872 115.748 275.24 115.48 275.545 115.147C275.849 114.814 276.083 114.423 276.233 113.997C276.383 113.572 276.446 113.121 276.418 112.67C276.389 112.22 276.271 111.78 276.069 111.377C275.805 110.8 275.398 110.301 274.886 109.928C274.374 109.554 273.775 109.319 273.146 109.244L273.148 109.218Z" fill="black"/>
<path d="M707.936 209.094L378.851 209.729C371.431 209.743 365.426 215.775 365.439 223.201L365.798 426.958C365.812 434.384 371.838 440.392 379.258 440.378L708.343 439.743C715.763 439.728 721.768 433.697 721.755 426.271L721.395 222.514C721.382 215.088 715.356 209.08 707.936 209.094Z" fill="black"/>
<path d="M702.002 491.81C695.503 491.16 689.146 489.497 683.161 486.881C660.008 476.578 650.494 453.408 650.398 453.175L651.592 452.692C651.678 452.924 661.01 475.629 683.681 485.708C705.424 495.38 728.33 488.749 728.563 488.662L728.921 489.895C720.131 492.119 711.017 492.768 702.002 491.81V491.81Z" fill="white"/>
<path d="M661.157 445.076L659.399 449.589L660.592 450.054L662.35 445.541L661.157 445.076Z" fill="white"/>
<path d="M727.15 474.794L725.389 479.315L726.582 479.78L728.343 475.259L727.15 474.794Z" fill="white"/>
<path d="M682.853 528.36C672.488 527.251 662.684 523.092 654.681 516.408C646.679 509.724 640.837 500.815 637.894 490.807C634.951 480.8 635.04 470.143 638.149 460.185C641.257 450.227 647.247 441.414 655.359 434.862C663.472 428.309 673.343 424.31 683.726 423.372C694.108 422.433 704.535 424.596 713.688 429.587C722.841 434.578 730.309 442.174 735.148 451.413C739.987 460.653 741.98 471.121 740.874 481.495C739.376 495.402 732.425 508.148 721.547 516.935C710.669 525.721 696.753 529.83 682.853 528.36V528.36ZM693.899 424.727C683.785 423.648 673.577 425.596 664.568 430.323C655.559 435.051 648.152 442.345 643.284 451.284C638.417 460.224 636.307 470.406 637.222 480.544C638.137 490.682 642.036 500.321 648.425 508.241C654.814 516.161 663.407 522.006 673.117 525.039C682.826 528.071 693.217 528.153 702.974 525.276C712.732 522.398 721.418 516.69 727.935 508.872C734.451 501.055 738.505 491.479 739.584 481.357C741.017 467.786 737.011 454.201 728.446 443.584C719.881 432.967 707.457 426.185 693.899 424.727V424.727Z" fill="white"/>
<path d="M556.096 333.434L556.079 323.944L546.595 323.962L546.612 333.453L556.096 333.434Z" fill="white"/>
<path d="M546.578 313.956L597.01 312.922L596.974 294.491L589.572 294.509L589.593 305.671L556.247 306.352L581.918 282.645L604.826 280.422L604.843 294.032L612.244 294.022L612.211 272.266L578.729 275.518L546.565 305.217L546.578 313.956Z" fill="white"/>
<path d="M546.488 265.106L546.506 272.582L612.195 263.476L612.172 249.195L582.376 238.158L612.153 238.093L612.136 230.686L563.941 230.781L563.951 239.227L604.78 254.352L604.786 257.033L546.488 265.106Z" fill="white"/>
<path d="M569.702 537.716L395.322 616.447C392.665 617.649 389.797 618.314 386.882 618.406C383.968 618.498 381.064 618.014 378.337 616.982C375.609 615.95 373.112 614.39 370.988 612.392C368.863 610.394 367.153 607.996 365.955 605.336L174.035 179.521C172.834 176.86 172.169 173.989 172.078 171.071C171.987 168.154 172.471 165.246 173.504 162.516C174.536 159.785 176.096 157.285 178.095 155.159C180.094 153.032 182.492 151.32 185.152 150.122L244.574 123.294C246.51 126.569 249.585 129.013 253.21 130.16C256.835 131.308 260.756 131.077 264.222 129.512L291.756 117.078C295.234 115.523 298.014 112.736 299.563 109.254C301.112 105.771 301.319 101.838 300.145 98.2125L359.576 71.3774C362.234 70.1765 365.103 69.5115 368.017 69.4204C370.932 69.3294 373.836 69.814 376.563 70.8467C379.291 71.8794 381.788 73.4399 383.912 75.439C386.036 77.438 387.746 79.8365 388.943 82.4973L580.81 508.324C582.01 510.983 582.675 513.853 582.766 516.77C582.857 519.687 582.373 522.593 581.341 525.322C580.31 528.052 578.751 530.551 576.754 532.678C574.757 534.804 572.361 536.516 569.702 537.716V537.716Z" fill="black"/>
<path d="M383.81 618.941C381.859 618.732 379.943 618.274 378.109 617.577C375.301 616.522 372.731 614.919 370.547 612.862C368.362 610.805 366.608 608.334 365.385 605.594L173.449 179.776C172.215 177.04 171.533 174.087 171.44 171.087C171.348 168.087 171.847 165.097 172.909 162.29C173.971 159.482 175.576 156.911 177.631 154.724C179.686 152.537 182.151 150.777 184.886 149.544L244.837 122.429L245.128 122.924C246.98 126.067 249.927 128.414 253.404 129.514C256.88 130.614 260.64 130.389 263.962 128.883L291.495 116.457C294.816 114.964 297.469 112.296 298.946 108.965C300.422 105.635 300.618 101.876 299.496 98.4099L299.314 97.8664L299.837 97.6301L359.278 70.7874C364.801 68.3033 371.084 68.1128 376.747 70.2577C382.409 72.4025 386.991 76.7077 389.486 82.2289L581.395 508.06C582.632 510.795 583.318 513.746 583.415 516.746C583.511 519.746 583.016 522.736 581.958 525.545C580.899 528.353 579.299 530.926 577.247 533.116C575.195 535.305 572.732 537.069 569.999 538.306L395.585 617.034C391.899 618.706 387.834 619.364 383.81 618.941V618.941ZM244.323 124.11L185.415 150.708C180.204 153.066 176.141 157.399 174.122 162.753C172.102 168.107 172.291 174.045 174.645 179.26L366.531 605.071C368.886 610.286 373.215 614.351 378.565 616.371C383.915 618.391 389.848 618.202 395.059 615.844L569.438 537.129C572.018 535.964 574.344 534.3 576.282 532.235C578.22 530.169 579.733 527.741 580.733 525.09C581.733 522.44 582.201 519.618 582.111 516.786C582.02 513.954 581.373 511.168 580.206 508.587L388.313 82.7653C385.954 77.5562 381.626 73.4965 376.28 71.4771C370.933 69.4576 365.004 69.6434 359.793 71.9935L300.878 98.5744C301.95 102.286 301.649 106.26 300.03 109.768C298.41 113.275 295.581 116.081 292.061 117.669L264.527 130.103C261.003 131.709 257.018 131.987 253.305 130.885C249.593 129.784 246.403 127.378 244.323 124.11V124.11Z" fill="white"/>
<path d="M210.353 298.892L209.415 298.027L245.752 258.49L338.953 294.816L338.491 296.004L246.106 260.006L210.353 298.892Z" fill="white"/>
<path d="M288.719 358.017L245.287 259.385L245.284 259.256L243.564 121.805L244.845 121.796L246.562 259.108L289.89 357.498L288.719 358.017Z" fill="white"/>
<path d="M245.979 259.992L175.755 225.711L176.316 224.56L245.871 258.511L333.662 198.282L334.391 199.339L245.979 259.992Z" fill="white"/>
<path d="M217.808 278.149L217.116 277.07L245.379 258.845L285.225 117.612L286.458 117.958L246.477 259.658L217.808 278.149Z" fill="white"/>
<path d="M446.161 208.977L441.04 208.987L441.042 210.269L446.164 210.258L446.161 208.977Z" fill="white"/>
<path d="M383.65 441.004L383.641 439.723L393.72 439.706L393.721 440.986L383.65 441.004ZM373.479 439.782C370.231 438.321 367.657 435.683 366.274 432.399L367.459 431.907C368.711 434.895 371.052 437.294 374.006 438.618L373.479 439.782ZM403.811 440.962L403.81 439.682L413.881 439.664L413.89 440.945L403.811 440.962ZM423.962 440.928L423.961 439.648L434.042 439.622L434.042 440.911L423.962 440.928ZM444.115 440.876L444.114 439.596L454.185 439.579L454.195 440.86L444.115 440.876ZM464.266 440.842L464.266 439.554L474.346 439.537L474.347 440.817L464.266 440.842ZM484.427 440.8L484.417 439.519L494.497 439.503L494.498 440.783L484.427 440.8ZM504.579 440.758L504.578 439.478L514.649 439.46L514.659 440.741L504.579 440.758ZM524.73 440.724L524.729 439.443L534.81 439.418L534.81 440.707L524.73 440.724ZM365.187 422.215L365.164 412.126L366.452 412.126L366.468 422.205L365.187 422.215ZM365.149 402.039L365.134 391.951L366.413 391.95L366.428 402.038L365.149 402.039ZM365.11 381.871L365.095 371.784L366.374 371.783L366.368 381.902L365.11 381.871ZM365.08 361.696L365.055 351.617L366.343 351.616L366.359 361.695L365.08 361.696ZM365.04 341.529L365.025 331.442L366.304 331.441L366.295 341.517L365.04 341.529ZM365.009 321.363L364.991 311.309L366.278 311.309L366.294 321.388L365.009 321.363ZM364.971 301.187L364.955 291.108L366.235 291.098L366.25 301.186L364.971 301.187ZM364.931 281.02L364.892 270.921L366.171 270.92L366.195 281.008L364.931 281.02ZM364.901 260.853L364.877 250.765L366.165 250.765L366.181 260.844L364.901 260.853ZM364.862 240.677L364.847 230.59L366.126 230.589L366.141 240.676L364.862 240.677ZM366.362 220.648L365.1 220.402C365.797 216.905 367.797 213.805 370.695 211.729L371.442 212.771C368.802 214.651 366.976 217.467 366.336 220.646L366.362 220.648ZM380.61 210.354L380.609 209.074L390.689 209.058L390.69 210.338L380.61 210.354ZM400.745 210.31L400.745 209.03L410.816 209.012L410.825 210.293L400.745 210.31ZM420.898 210.267L420.897 208.987L430.977 208.97L430.977 210.251L420.898 210.267Z" fill="white"/>
<path d="M550.006 439.443L544.884 439.454L544.887 440.735L550.008 440.724L550.006 439.443Z" fill="white"/>
<path d="M685.94 329.156L643.937 329.347C641.918 329.357 640.288 331.002 640.297 333.023L640.414 359.741C640.423 361.762 642.067 363.393 644.086 363.384L686.089 363.192C688.109 363.183 689.738 361.538 689.73 359.517L689.612 332.798C689.604 330.778 687.959 329.147 685.94 329.156Z" fill="white"/>
<path d="M672.966 370.04C671.446 371.931 668.397 372.997 665.283 372.72C662.169 372.442 660.114 371.075 659.244 370.229" stroke="white" stroke-width="1.5" stroke-linecap="round"/>
<path d="M676.467 375.138C674.947 377.029 671.122 380.091 665.377 379.58C659.632 379.068 656.892 376.75 655.884 375.422" stroke="white" stroke-width="1.5" stroke-linecap="round"/>
<path d="M680.814 379.368C679.295 381.259 674.827 385.389 666.285 385.54C657.742 385.69 653.533 381.944 652.525 380.616" stroke="white" stroke-width="1.5" stroke-linecap="round"/>
<path d="M667.173 331.929L666.319 331.931L666.379 366.101L667.233 366.099L667.173 331.929Z" fill="black"/>
<path d="M642.017 349.497L642.022 348.639C665.627 348.577 666.301 332.189 666.318 331.469L667.176 331.466C667.197 332.164 667.93 348.557 691.542 348.513L691.545 349.373C678.786 349.396 672.615 344.546 669.675 340.478C668.306 338.575 667.311 336.428 666.744 334.152C665.479 339.18 660.631 349.462 642.017 349.497Z" fill="black"/>
<path d="M666.424 366.549C666.404 365.851 665.671 349.458 642.059 349.502L642.065 348.643C654.807 348.618 660.986 353.461 663.926 357.528C665.296 359.432 666.291 361.579 666.858 363.854C668.114 358.834 672.958 348.577 691.573 348.542L691.576 349.402C667.962 349.462 667.29 365.842 667.272 366.57L666.424 366.549Z" fill="black"/>
</svg>
