<svg width="609" height="798" viewBox="0 0 609 798" fill="none" xmlns="http://www.w3.org/2000/svg">
<g clip-path="url(#clip0_1_49)">
<path d="M608.105 195.593L569.928 166.144L569.869 166.066L541.766 129.221L542.924 128.335L570.968 165.103L609 194.435L608.105 195.593Z" fill="white"/>
<path d="M526.276 174.689L526.004 173.258L569.889 164.986L578.272 140.228L579.652 140.695L570.998 166.261L526.276 174.689Z" fill="white"/>
<path d="M565.076 209.159L563.627 208.955L569.782 165.103L570.171 164.947L599.091 153.298L599.636 154.65L571.105 166.144L565.076 209.159Z" fill="white"/>
<path d="M104.147 451.815L103.787 451.63L36.5731 416.897L37.2441 415.603L104.098 450.141L141.702 427.563L142.451 428.819L104.147 451.815Z" fill="white"/>
<path d="M112.539 497.419L103.388 451.017V450.92L106.442 410.552L107.9 410.659L104.857 450.939L113.968 497.137L112.539 497.419Z" fill="white"/>
<path d="M63.3342 483.571L62.4396 482.413L104.04 450.122L129.469 463.065L128.808 464.36L104.205 451.835L63.3342 483.571Z" fill="white"/>
<path d="M582.813 320.366L465.509 609.473L291.611 570.214H291.416L136.684 617.453L1.9451 195.018C3.02076 198.041 4.75846 200.784 7.03088 203.047L305.186 501.935C311.368 508.133 319.608 511.844 328.343 512.364C337.077 512.884 345.699 510.177 352.572 504.757L576.735 327.908C579.308 325.889 581.386 323.31 582.813 320.366Z" fill="url(#paint0_linear_1_49)"/>
<path d="M253.663 13.3964L252.208 13.4969L290.673 570.997L292.128 570.897L253.663 13.3964Z" fill="white"/>
<path d="M466.355 610.417L291.445 570.915L136.898 618.154V714.228L305.312 797.173L466.355 700.759V610.417Z" fill="black"/>
<path d="M305.341 798.02L304.982 797.845L136.14 714.675V617.619L136.655 617.463L291.377 570.166H291.572L467.046 609.794V701.138L466.686 701.342L305.341 798.02ZM137.637 713.77L305.283 796.336L465.626 700.34V611.001L291.475 571.674L137.637 618.699V713.77Z" fill="white"/>
<path d="M136.898 618.154L305.312 679.465L466.355 610.417" fill="black"/>
<path d="M305.341 680.253L305.069 680.156L136.655 618.845L137.151 617.472L305.293 678.677L466.064 609.745L466.637 611.079L305.341 680.253Z" fill="white"/>
<path d="M306.041 797.173H304.583V679.465L324.819 512.338L326.268 512.514L306.041 679.553V797.173Z" fill="white"/>
<path d="M360.274 765.097L359.224 764.123C391.314 731.122 413.747 699.494 429.676 664.566C433.721 655.68 437.825 647.048 443.416 639.574C449.815 630.99 457.536 624.898 465.782 621.988L466.268 623.361C458.323 626.183 450.836 632.119 444.612 640.45C439.108 647.846 435.199 656.021 430.998 665.179C415.002 700.204 392.529 731.969 360.274 765.097Z" fill="white"/>
<path d="M263.459 773.787C261.038 773.787 258.597 773.729 255.991 773.622L256.049 772.162C273.475 772.882 286.788 771.189 305.098 765.972C333.425 735.803 353.554 706.52 368.442 673.869C372.497 664.984 376.591 656.352 382.182 648.878C383.437 647.194 384.759 645.588 386.072 644.099L387.151 645.072C385.829 646.532 384.536 648.109 383.32 649.744C377.806 657.14 373.742 665.665 369.706 674.473C354.731 707.318 334.475 736.757 305.973 767.121L305.828 767.267L305.643 767.325C289.783 771.88 277.676 773.787 263.459 773.787Z" fill="white"/>
<path d="M196.537 742.188C194.961 742.188 193.464 742.188 192.083 742.188V740.728C200.028 740.893 211.716 740.728 222.228 738.898C248.629 734.373 285.902 725.361 304.69 699.494C311.127 690.496 317.068 681.152 322.485 671.504L323.749 672.234C318.323 681.925 312.366 691.308 305.905 700.34C286.807 726.616 249.164 735.755 222.51 740.319C213.917 741.648 205.231 742.272 196.537 742.188V742.188Z" fill="white"/>
<path d="M429.102 724.573L428.129 723.453C437.504 715.668 443.756 704.719 449.805 694.151C450.729 692.545 451.643 690.949 452.566 689.362C455.668 684.039 459.5 678.21 465.762 676.458L466.151 677.869C460.424 679.475 456.787 685.022 453.831 690.092C452.91 691.682 451.993 693.275 451.079 694.871C445.001 705.566 438.68 716.602 429.102 724.573Z" fill="white"/>
<path d="M156.638 697.07C150.015 697.08 143.397 696.693 136.82 695.912L136.986 694.462C151.652 696.137 166.47 695.967 181.095 693.956C202.683 691.036 224.854 684.603 248.989 674.161L250.438 673.529C257.77 670.336 265.346 667.028 273.407 667.028H273.563V668.487H273.417C265.637 668.487 258.218 671.728 251.051 674.862L249.592 675.494C225.379 685.995 203.042 692.516 181.318 695.406C173.137 696.505 164.893 697.061 156.638 697.07V697.07Z" fill="white"/>
<path d="M141.002 656.293C139.595 656.295 138.19 656.22 136.791 656.069L136.937 654.619C147.352 655.7 156.074 652.546 166.168 648.887L167.14 648.547L170.145 647.457C179.422 644.06 189.02 640.557 199.026 640.06L199.094 641.52C189.312 641.997 179.821 645.471 170.641 648.819L167.636 649.919L166.664 650.259C158.175 653.344 150.055 656.293 141.002 656.293Z" fill="white"/>
<path d="M576.735 327.908L352.572 504.757C345.699 510.178 337.077 512.884 328.343 512.364C319.608 511.844 311.368 508.133 305.186 501.935L7.06968 203.047C4.81705 200.79 3.08934 198.064 2.00956 195.062C0.92978 192.061 0.524491 188.858 0.822544 185.682C1.1206 182.505 2.11467 179.434 3.73397 176.686C5.35328 173.938 7.558 171.582 10.1912 169.784L230.611 19.1818C236.696 15.0312 243.992 13.0327 251.341 13.5035C258.691 13.9742 265.673 16.8871 271.18 21.7802L577.727 294.635C580.096 296.744 581.974 299.348 583.229 302.262C584.485 305.177 585.086 308.331 584.991 311.503C584.897 314.675 584.109 317.788 582.682 320.623C581.256 323.457 579.226 325.944 576.735 327.908V327.908Z" fill="white"/>
<path d="M330.469 513.156C325.676 513.161 320.929 512.218 316.502 510.381C312.074 508.544 308.053 505.849 304.67 502.451L6.55432 203.563C4.22594 201.23 2.44019 198.412 1.32421 195.309C0.208232 192.207 -0.210531 188.896 0.0977383 185.613C0.406008 182.33 1.43373 179.155 3.10773 176.315C4.78173 173.474 7.06083 171.039 9.78277 169.18L230.192 18.5784C236.408 14.3209 243.87 12.2693 251.387 12.7508C258.904 13.2324 266.043 16.2193 271.666 21.2352L578.213 294.09C580.661 296.271 582.601 298.962 583.898 301.974C585.194 304.986 585.816 308.246 585.719 311.525C585.621 314.803 584.808 318.02 583.334 320.95C581.861 323.88 579.765 326.451 577.192 328.483L352.99 505.322C346.576 510.392 338.642 513.152 330.469 513.156ZM249.232 14.1407C242.732 14.1435 236.384 16.1109 231.019 19.7852L10.5996 170.387C8.06295 172.127 5.9397 174.404 4.38028 177.057C2.82086 179.71 1.86341 182.674 1.57578 185.738C1.28814 188.802 1.67735 191.893 2.71583 194.79C3.75431 197.687 5.41665 200.32 7.58509 202.502L305.701 501.419C311.759 507.488 319.832 511.121 328.388 511.631C336.944 512.14 345.39 509.49 352.125 504.183L576.288 327.334L576.735 327.908L576.288 327.334C578.69 325.438 580.648 323.038 582.025 320.303C583.401 317.568 584.163 314.564 584.255 311.503C584.348 308.442 583.77 305.398 582.561 302.585C581.353 299.772 579.543 297.257 577.26 295.219L270.694 22.3252C264.786 17.0534 257.147 14.1403 249.232 14.1407V14.1407Z" fill="#00CA30"/>
<g opacity="0.7">
<path opacity="0.7" d="M576.735 315.208L352.572 492.057C345.7 497.479 337.078 500.188 328.342 499.667C319.607 499.147 311.366 495.435 305.186 489.235L7.06968 190.357C4.81705 188.1 3.08934 185.373 2.00956 182.372C0.92978 179.37 0.524491 176.167 0.822544 172.991C1.1206 169.815 2.11466 166.744 3.73397 163.996C5.35328 161.248 7.558 158.891 10.1912 157.093L230.61 6.48158C236.697 2.33228 243.994 0.335533 251.343 0.808015C258.692 1.2805 265.674 4.19516 271.18 9.08974L577.727 281.944C580.096 284.053 581.974 286.656 583.229 289.569C584.484 292.483 585.085 295.637 584.991 298.808C584.896 301.979 584.108 305.091 582.682 307.925C581.255 310.759 579.225 313.245 576.735 315.208V315.208Z" fill="white"/>
</g>
<path d="M320.173 251.082L309.87 258.75L317.533 269.061L327.836 261.393L320.173 251.082Z" fill="#00CA30"/>
<path d="M306.666 277.135L264.897 223.051L244.89 237.945L250.871 245.996L262.989 236.975L290.608 272.728L244.147 263.893L223.263 240.752L238.042 229.75L232.06 221.699L208.443 239.287L238.97 273.12L297.188 284.195L306.666 277.135Z" fill="#00CA30"/>
<path d="M253.635 316.615L261.752 310.577L198.893 246.378L183.392 257.927L195.407 299.275L171.346 266.886L163.302 272.873L202.265 325.284L211.423 318.462L194.953 261.808L197.872 259.651L253.635 316.615Z" fill="#00CA30"/>
<path d="M330.469 500.456C325.676 500.461 320.929 499.518 316.502 497.681C312.075 495.844 308.054 493.149 304.671 489.751L6.5548 190.873C4.21835 188.544 2.42543 185.727 1.30445 182.623C0.183459 179.519 -0.237858 176.206 0.0706696 172.92C0.379197 169.634 1.40994 166.457 3.08906 163.617C4.76819 160.776 7.05416 158.342 9.78324 156.49L230.193 5.88803C236.409 1.6305 243.87 -0.421117 251.387 0.0604227C258.904 0.541962 266.044 3.52892 271.667 8.54485L578.214 281.399C580.661 283.579 582.601 286.27 583.898 289.281C585.195 292.293 585.816 295.552 585.719 298.829C585.621 302.107 584.808 305.323 583.335 308.252C581.861 311.181 579.765 313.751 577.193 315.782L576.736 315.208L577.193 315.782L352.991 492.631C346.576 497.699 338.642 500.455 330.469 500.456V500.456ZM249.233 1.45026C242.733 1.44967 236.385 3.41369 231.019 7.08506L10.6001 157.658C8.06201 159.397 5.9374 161.674 4.37697 164.326C2.81653 166.979 1.85849 169.943 1.57081 173.008C1.28312 176.073 1.67283 179.164 2.7123 182.061C3.75177 184.958 5.41553 187.591 7.58557 189.773L305.702 488.719C311.762 494.785 319.836 498.415 328.392 498.921C336.949 499.426 345.393 496.773 352.125 491.463L576.288 314.634C578.691 312.737 580.649 310.337 582.025 307.602C583.402 304.867 584.163 301.864 584.256 298.803C584.349 295.742 583.77 292.698 582.562 289.885C581.353 287.072 579.544 284.557 577.261 282.518L270.694 9.63482C264.789 4.35908 257.149 1.44537 249.233 1.45026V1.45026Z" fill="#00CA30"/>
<path d="M1.47835 174.105H0.0197144V186.805H1.47835V174.105Z" fill="#00CA30"/>
<path d="M585.73 298.956H584.271V311.627H585.73V298.956Z" fill="#00CA30"/>
<path d="M78.9707 360.335C77.5129 360.335 76.0878 359.902 74.8756 359.092C73.6635 358.281 72.7187 357.129 72.1608 355.781C71.6029 354.433 71.457 352.95 71.7414 351.519C72.0258 350.088 72.7278 348.774 73.7586 347.742C74.7895 346.71 76.1029 346.008 77.5327 345.723C78.9625 345.438 80.4446 345.585 81.7915 346.143C83.1383 346.701 84.2895 347.647 85.0995 348.86C85.9094 350.073 86.3417 351.499 86.3417 352.958C86.3391 354.914 85.5617 356.789 84.1799 358.172C82.7982 359.554 80.9248 360.332 78.9707 360.335V360.335ZM78.9707 347.041C77.8014 347.041 76.6583 347.388 75.686 348.038C74.7137 348.689 73.9559 349.613 73.5084 350.694C73.0609 351.775 72.9438 352.965 73.172 354.113C73.4001 355.26 73.9632 356.315 74.7901 357.142C75.6169 357.97 76.6704 358.533 77.8173 358.762C78.9641 358.99 80.1529 358.873 81.2333 358.425C82.3136 357.977 83.237 357.219 83.8866 356.245C84.5363 355.272 84.883 354.128 84.883 352.958C84.883 351.389 84.2601 349.884 83.1514 348.774C82.0426 347.665 80.5388 347.041 78.9707 347.041Z" fill="#00CA30"/>
<path d="M220.575 497.273C225.473 497.273 229.444 493.299 229.444 488.398C229.444 483.496 225.473 479.522 220.575 479.522C215.677 479.522 211.707 483.496 211.707 488.398C211.707 493.299 215.677 497.273 220.575 497.273Z" fill="black"/>
<path d="M192.102 519.433C190.718 519.433 189.364 519.022 188.213 518.252C187.061 517.482 186.164 516.388 185.634 515.107C185.104 513.827 184.965 512.418 185.236 511.059C185.506 509.7 186.173 508.451 187.152 507.471C188.131 506.491 189.378 505.824 190.737 505.554C192.095 505.283 193.502 505.422 194.782 505.952C196.061 506.483 197.155 507.381 197.924 508.533C198.693 509.685 199.104 511.04 199.104 512.426C199.101 514.283 198.363 516.064 197.05 517.378C195.738 518.691 193.959 519.43 192.102 519.433V519.433ZM192.102 506.879C191.006 506.879 189.935 507.204 189.023 507.814C188.112 508.423 187.401 509.289 186.982 510.303C186.562 511.317 186.452 512.432 186.666 513.508C186.88 514.584 187.408 515.573 188.183 516.348C188.958 517.124 189.946 517.653 191.021 517.867C192.096 518.081 193.211 517.971 194.224 517.551C195.236 517.131 196.102 516.42 196.711 515.508C197.32 514.596 197.645 513.523 197.645 512.426C197.643 510.955 197.058 509.546 196.019 508.506C194.98 507.467 193.572 506.881 192.102 506.879V506.879Z" fill="black"/>
<path d="M55.1366 361.318C52.618 333.962 50.5759 331.918 23.2411 329.397C50.5759 326.886 52.618 324.843 55.1366 297.486C57.6455 324.843 59.6875 326.886 87.0224 329.397C59.6875 331.918 57.6455 333.962 55.1366 361.318ZM516.357 87.5194C473.503 83.578 470.303 80.3762 466.365 37.4875C462.417 80.3762 459.218 83.578 416.363 87.5194C459.218 91.4706 462.417 94.6724 466.365 137.561C470.294 94.6724 473.493 91.4804 516.357 87.5194Z" fill="#00CA30"/>
<path d="M495.362 515.793C490.092 500.777 485.813 496.504 470.818 491.23C485.813 485.945 490.092 481.673 495.362 466.657C500.633 481.673 504.902 485.945 519.906 491.23C504.902 496.456 500.633 500.728 495.362 515.793Z" fill="black"/>
<path d="M264.117 157.567L222.143 110.435C220.403 108.481 220.577 105.472 222.542 103.716L252.571 76.8695C254.535 75.1132 257.538 75.2811 259.279 77.2355L301.253 124.368C302.994 126.322 302.819 129.331 300.855 131.087L270.825 157.934C268.861 159.69 265.858 159.522 264.117 157.567Z" fill="white" stroke="#00CA30" stroke-width="1.5"/>
<path d="M243.533 134.034L244.341 134.973L280.074 100.717L279.266 99.779L243.533 134.034Z" fill="#00CA30"/>
<path d="M285.705 144.158L284.8 145.011C262.431 119.079 244.629 134.734 243.859 135.436L243.045 134.493C243.757 133.773 260.234 116.563 237.877 90.6056L238.775 89.7426C250.855 103.77 251.605 115.417 250.123 122.725C249.424 126.137 248.115 129.381 246.266 132.282C252.729 128.645 268.079 123.695 285.705 144.158Z" fill="#00CA30"/>
<path d="M280.502 100.22C279.79 100.94 263.313 118.149 285.67 144.107L284.765 144.96C272.699 130.954 271.932 119.303 273.414 111.996C274.114 108.583 275.422 105.34 277.271 102.439C270.825 106.079 255.504 111.006 237.879 90.5424L238.776 89.6794C261.152 115.622 278.945 99.9741 279.724 99.2647L280.502 100.22Z" fill="#00CA30"/>
<path d="M282 85.8C285.61 85.457 289.929 87.6131 292.878 91.2391C295.827 94.8651 296.504 98.4911 296.504 100.304" stroke="#00CA30" stroke-width="1.5" stroke-linecap="round"/>
<path d="M283.813 76.7351C287.423 76.3921 294.691 77.2988 300.13 83.9871C305.569 90.6755 305.942 96.0275 305.569 98.4912" stroke="#00CA30" stroke-width="1.5" stroke-linecap="round"/>
<path d="M283.813 67.6702C287.423 67.3272 296.504 67.8089 305.569 76.8046C314.634 85.8002 315.007 94.2146 314.634 96.6782" stroke="#00CA30" stroke-width="1.5" stroke-linecap="round"/>
</g>
<defs>
<linearGradient id="paint0_linear_1_49" x1="292.398" y1="195.018" x2="292.398" y2="617.453" gradientUnits="userSpaceOnUse">
<stop offset="0.3" stop-color="white" stop-opacity="0"/>
<stop offset="0.73" stop-color="#00CA30"/>
<stop offset="0.92" stop-color="#00CA30"/>
</linearGradient>
<clipPath id="clip0_1_49">
<rect width="609" height="798" fill="white"/>
</clipPath>
</defs>
</svg>
