<svg width="743" height="569" viewBox="0 0 743 569" fill="none" xmlns="http://www.w3.org/2000/svg">
<g opacity="0.9">
<path d="M169.571 89.7298L17.6352 118.67C7.89554 120.525 1.50473 129.92 3.3609 139.655L74.0182 510.203C75.8743 519.938 85.2746 526.325 95.0143 524.47L246.95 495.53C256.69 493.674 263.081 484.279 261.224 474.545L190.567 103.996C188.711 94.262 179.311 87.8747 169.571 89.7298Z" fill="white"/>
</g>
<path d="M91.5783 525.487C87.2443 525.479 83.0482 523.964 79.7107 521.2C76.3733 518.437 74.1027 514.598 73.2892 510.344L2.68843 139.789C2.223 137.383 2.23732 134.91 2.73057 132.511C3.22382 130.111 4.18629 127.833 5.56275 125.806C6.93922 123.779 8.70259 122.044 10.7517 120.7C12.8008 119.356 15.0952 118.429 17.5034 117.974L169.436 89.0778C171.843 88.6151 174.316 88.6312 176.716 89.1252C179.116 89.6192 181.395 90.5814 183.423 91.9568C185.45 93.3321 187.186 95.0936 188.531 97.1403C189.877 99.1871 190.805 101.479 191.263 103.885L261.891 474.44C262.819 479.296 261.779 484.321 259.001 488.412C256.224 492.502 251.934 495.323 247.076 496.255L95.1161 525.151C93.9503 525.376 92.7656 525.488 91.5783 525.487V525.487ZM169.564 89.7504L169.691 90.4139L17.7581 119.346C13.2595 120.205 9.28625 122.814 6.71125 126.599C4.13625 130.385 3.17018 135.037 4.02533 139.534L74.6534 510.089C75.5087 514.589 78.1173 518.564 81.9052 521.142C85.6932 523.719 90.3503 524.687 94.8523 523.833L246.785 494.9C251.286 494.043 255.261 491.436 257.838 487.65C260.415 483.864 261.382 479.211 260.527 474.713L189.89 104.139C189.031 99.6431 186.42 95.672 182.633 93.0984C178.845 90.5248 174.19 89.5592 169.691 90.4139L169.564 89.7504Z" fill="black"/>
<path d="M162.833 226.648L164.034 232.847L160.987 233.438L159.823 227.412C159.077 227.621 158.259 227.775 157.377 227.948C156.676 228.075 156.031 228.203 155.376 228.266L156.54 234.293L153.502 234.883L152.302 228.684C139.142 230.011 136.186 224.449 135.377 220.295L142.653 218.895C143.126 220.995 144.426 223.349 151.202 222.894L149.474 213.941C145.308 214.377 140.861 214.632 138.296 213.941C135.568 213.141 133.704 211.214 133.04 207.796C132.13 203.115 135.213 197.362 145.627 194.08L144.426 187.872L147.473 187.29L148.637 193.317C149.264 193.135 149.91 193.008 150.556 192.88C151.465 192.717 152.256 192.553 153.084 192.453L151.92 186.427L154.967 185.845L156.176 192.099C167.463 191.135 170.855 195.516 171.919 201.016L164.952 202.361C164.307 199.334 162.87 197.543 157.277 197.816L158.986 206.651C162.833 206.151 166.653 205.742 168.99 206.06C173.156 206.588 175.111 209.124 175.748 212.423C176.648 217.368 174.611 223.158 162.833 226.648ZM148.282 208.151L146.672 199.779C141.361 201.534 140.07 203.67 140.506 205.888C140.601 206.575 140.941 207.205 141.464 207.661C141.988 208.118 142.659 208.369 143.353 208.369C145.014 208.464 146.681 208.391 148.328 208.151H148.282ZM149.683 199.061L151.365 207.778L155.612 207.142H155.849L154.13 198.252C153.357 198.343 152.475 198.507 151.602 198.68C150.947 198.725 150.301 198.852 149.728 199.016L149.683 199.061ZM158.677 221.722L156.967 212.887L152.602 213.55H152.484L154.221 222.558C154.876 222.485 155.521 222.367 156.222 222.231C157.149 222.058 157.968 221.885 158.723 221.676L158.677 221.722ZM168.154 214.55C167.881 213.15 167.017 212.105 164.643 212.078C163.434 212.123 161.824 212.259 160.041 212.478L161.678 220.958C167.735 219.022 168.654 216.85 168.199 214.505L168.154 214.55Z" fill="black"/>
<path d="M48.7572 157.583L47.8642 157.756L48.295 159.987L49.1879 159.815L48.7572 157.583Z" fill="black"/>
<path d="M67.1779 257.699L66.2684 253.154L67.1779 252.981L68.0873 257.526L67.1779 257.699ZM65.6045 249.518L64.6951 244.973L65.6045 244.8L66.514 249.345L65.6045 249.518ZM64.0311 241.383L63.1217 236.838L64.0311 236.665L64.9406 241.21L64.0311 241.383ZM62.4578 233.202L61.5483 228.657L62.4578 228.485L63.3672 233.029L62.4578 233.202ZM60.8844 225.022L59.975 220.477L60.8844 220.304L61.7939 224.849L60.8844 225.022ZM59.3111 216.841L58.4016 212.296L59.3111 212.123L60.2205 216.668L59.3111 216.841ZM57.7377 208.66L56.8283 204.115L57.7377 203.943L58.6472 208.488L57.7377 208.66ZM56.1644 200.48L55.2549 195.935L56.1644 195.762L57.0738 200.307L56.1644 200.48ZM54.5819 192.299L53.6725 187.754L54.5819 187.582L55.4914 192.126L54.5819 192.299ZM53.0086 184.118L52.0991 179.574L53.0086 179.401L53.918 183.946L53.0086 184.118ZM51.4352 175.938L50.5258 171.393L51.4352 171.22L52.3447 175.765L51.4352 175.938ZM49.8619 167.757L48.9524 163.212L49.8619 163.04L50.7713 167.584L49.8619 167.757Z" fill="black"/>
<path d="M68.7423 263.924C68.6366 263.922 68.5349 263.884 68.4538 263.816C68.3728 263.749 68.3173 263.655 68.2966 263.552L67.8692 261.325L68.7786 261.152L69.1242 262.97L70.9431 262.624L71.1159 263.533L68.8878 263.97L68.7423 263.924Z" fill="black"/>
<path d="M74.5531 262.807L74.3894 261.898L78.7457 261.053L78.9185 261.962L74.5531 262.807ZM82.3835 261.298L82.2107 260.389L86.567 259.553L86.7398 260.462L82.3835 261.298ZM90.223 259.78L90.0502 258.871L94.4155 258.026L94.5793 258.935L90.223 259.78ZM98.0715 258.262L97.8987 257.353L102.255 256.517L102.428 257.426L98.0715 258.262ZM105.911 256.754L105.738 255.845L110.095 254.999L110.267 255.908L105.911 256.754ZM113.76 255.236L113.587 254.327L117.943 253.49L118.116 254.399L113.76 255.236ZM121.599 253.727L121.426 252.818L125.783 251.972L125.955 252.881L121.599 253.727ZM129.448 252.209L129.275 251.3L133.631 250.454L133.804 251.363L129.448 252.209ZM137.287 250.7L137.114 249.791L141.471 248.955L141.643 249.864L137.287 250.7ZM145.127 249.182L144.963 248.273L149.319 247.428L149.492 248.337L145.127 249.182ZM152.975 247.664L152.802 246.755L157.159 245.919L157.331 246.828L152.975 247.664ZM160.815 246.155L160.642 245.246L165.007 244.401L165.18 245.31L160.815 246.155ZM168.663 244.637L168.49 243.728L172.847 242.883L173.02 243.792L168.663 244.637Z" fill="black"/>
<path d="M178.608 241.78L176.376 242.21L176.548 243.103L178.781 242.672L178.608 241.78Z" fill="black"/>
<path d="M80.0192 249.09L62.4395 158.149C62.2768 157.309 62.4546 156.439 62.9338 155.73C63.4131 155.021 64.1545 154.531 64.9951 154.368L77.5819 151.941C77.9982 151.859 78.4266 151.861 78.8424 151.945C79.2583 152.029 79.6533 152.195 80.0049 152.432C80.3565 152.669 80.6577 152.974 80.8911 153.328C81.1246 153.682 81.2857 154.079 81.3652 154.495L98.9358 245.436" fill="black"/>
<path d="M108.604 243.573L98.9815 193.762C98.8998 193.347 98.9011 192.919 98.9855 192.504C99.0699 192.089 99.2357 191.695 99.4732 191.344C99.7108 190.994 100.015 190.693 100.37 190.461C100.724 190.229 101.121 190.069 101.537 189.99L114.115 187.518C114.955 187.355 115.826 187.533 116.536 188.012C117.245 188.491 117.735 189.232 117.898 190.072L127.52 239.883" fill="black"/>
<path d="M145.018 176.219L118.762 158.504L99.4362 174.274C99.342 174.348 99.2222 174.382 99.1029 174.369C98.9837 174.355 98.8747 174.295 98.7996 174.201C98.7242 174.108 98.6886 173.989 98.7006 173.87C98.7125 173.751 98.771 173.641 98.8633 173.565L118.762 157.367L144.709 174.901L159.778 146.251C159.841 146.159 159.936 146.094 160.044 146.067C160.152 146.04 160.266 146.053 160.364 146.105C160.463 146.156 160.539 146.242 160.579 146.346C160.618 146.45 160.618 146.565 160.579 146.669L145.018 176.219Z" fill="black"/>
<path d="M163.789 156.667C163.697 156.667 163.607 156.639 163.531 156.587C163.455 156.535 163.396 156.462 163.362 156.376L159.888 147.041L150.593 150.514C150.478 150.552 150.353 150.546 150.243 150.495C150.133 150.444 150.047 150.353 150.002 150.241C149.961 150.128 149.967 150.003 150.018 149.894C150.069 149.785 150.161 149.7 150.275 149.659L160.461 145.878L164.253 156.058C164.294 156.172 164.288 156.296 164.237 156.406C164.186 156.515 164.093 156.599 163.98 156.64C163.919 156.664 163.854 156.673 163.789 156.667V156.667Z" fill="black"/>
<path d="M79.9859 305.789L79.093 305.962L79.5249 308.193L80.4178 308.02L79.9859 305.789Z" fill="black"/>
<path d="M98.3901 405.923L97.4806 401.378L98.3901 401.205L99.2995 405.75L98.3901 405.923ZM96.8167 397.742L95.9073 393.197L96.8167 393.025L97.7262 397.569L96.8167 397.742ZM95.2433 389.561L94.3339 385.017L95.2433 384.844L96.1528 389.389L95.2433 389.561ZM93.67 381.381L92.7605 376.836L93.67 376.663L94.5795 381.208L93.67 381.381ZM92.0966 373.2L91.1872 368.655L92.0966 368.483L93.0061 373.028L92.0966 373.2ZM90.5233 365.02L89.6138 360.475L90.5233 360.311L91.4327 364.856L90.5233 365.02ZM88.9499 356.839L88.0405 352.294L88.9499 352.121L89.8594 356.666L88.9499 356.839ZM87.3766 348.658L86.4671 344.114L87.3766 343.941L88.286 348.486L87.3766 348.658ZM85.8032 340.523L84.8938 335.978L85.8032 335.806L86.7127 340.35L85.8032 340.523ZM84.2299 332.343L83.3204 327.798L84.2299 327.625L85.1393 332.17L84.2299 332.343ZM82.6565 324.162L81.7471 319.617L82.6565 319.444L83.566 323.989L82.6565 324.162ZM81.0832 315.981L80.1737 311.436L81.0832 311.264L81.9926 315.809L81.0832 315.981Z" fill="black"/>
<path d="M99.9722 412.14C99.8781 412.139 99.7862 412.111 99.7084 412.058C99.612 411.987 99.5442 411.884 99.5174 411.767L99.09 409.54L99.9995 409.368L100.345 411.185L102.164 410.84L102.328 411.749L100.099 412.185L99.9722 412.14Z" fill="black"/>
<path d="M105.774 411.022L105.601 410.113L109.958 409.277L110.13 410.186L105.774 411.022ZM113.614 409.513L113.441 408.604L117.797 407.768L117.97 408.677L113.614 409.513ZM121.462 407.995L121.289 407.086L125.646 406.241L125.818 407.15L121.462 407.995ZM129.302 406.486L129.129 405.577L133.485 404.741L133.658 405.65L129.302 406.486ZM137.15 404.968L136.977 404.059L141.334 403.214L141.506 404.123L137.15 404.968ZM144.99 403.45L144.817 402.541L149.173 401.705L149.346 402.614L144.99 403.45ZM152.829 401.941L152.665 401.032L157.022 400.187L157.195 401.096L152.829 401.941ZM160.678 400.423L160.505 399.514L164.861 398.669L165.034 399.578L160.678 400.423ZM168.517 398.915L168.344 398.006L172.71 397.169L172.873 398.078L168.517 398.915ZM176.366 397.397L176.193 396.488L180.549 395.642L180.722 396.551L176.366 397.397ZM184.205 395.879L184.032 394.97L188.389 394.133L188.562 395.042L184.205 395.879ZM192.054 394.37L191.881 393.461L196.237 392.616L196.41 393.524L192.054 394.37ZM199.893 392.852L199.721 391.943L204.077 391.098L204.25 392.006L199.893 392.852Z" fill="black"/>
<path d="M209.828 389.991L207.595 390.422L207.768 391.314L210 390.884L209.828 389.991Z" fill="black"/>
<path d="M111.231 397.305L105.338 366.81C105.283 366.518 105.287 366.218 105.348 365.927C105.41 365.636 105.529 365.361 105.699 365.117C105.868 364.872 106.084 364.664 106.334 364.504C106.584 364.343 106.864 364.234 107.157 364.183L121.708 361.383C122 361.327 122.3 361.33 122.591 361.391C122.882 361.453 123.157 361.571 123.401 361.741C123.645 361.91 123.853 362.127 124.012 362.377C124.171 362.628 124.278 362.908 124.328 363.201L130.23 393.697" fill="black"/>
<path d="M139.815 391.788L130.193 341.977C130.033 341.138 130.212 340.27 130.691 339.563C131.17 338.856 131.91 338.368 132.749 338.205L145.336 335.778C145.751 335.696 146.178 335.697 146.593 335.781C147.007 335.865 147.401 336.03 147.752 336.266C148.103 336.503 148.404 336.806 148.636 337.159C148.869 337.512 149.03 337.908 149.11 338.323L158.777 388.134" fill="black"/>
<path d="M169.527 386.907L157.477 324.525C157.343 323.835 157.49 323.119 157.884 322.536C158.278 321.954 158.887 321.551 159.578 321.417L173.329 318.772C174.021 318.641 174.736 318.789 175.319 319.184C175.902 319.58 176.305 320.189 176.439 320.88L188.489 383.253" fill="black"/>
<g opacity="0.9">
<path d="M230.669 43.5948L171.236 469.491C169.675 480.678 177.483 491.012 188.676 492.572L363.31 516.916C374.503 518.476 384.842 510.672 386.403 499.485L445.837 73.5885C447.398 62.4017 439.59 52.0681 428.397 50.5079L253.763 26.1643C242.57 24.6041 232.231 32.408 230.669 43.5948Z" fill="white"/>
</g>
<path d="M366.133 517.77C365.141 517.768 364.15 517.698 363.168 517.561L188.553 493.228C183.011 492.437 178.009 489.482 174.644 485.011C171.278 480.54 169.824 474.918 170.6 469.377L229.96 43.4843C230.743 37.9364 233.694 32.9249 238.168 29.548C242.641 26.1711 248.271 24.7042 253.824 25.4687L428.439 49.8016C433.993 50.577 439.011 53.5254 442.389 57.9982C445.768 62.4711 447.23 68.102 446.455 73.6526L387.05 499.545C386.348 504.593 383.845 509.218 380.001 512.567C376.157 515.916 371.232 517.763 366.133 517.77V517.77ZM250.896 26.6322C246.125 26.6387 241.518 28.3665 237.92 31.4978C234.322 34.6291 231.977 38.9533 231.315 43.6752L171.91 469.568C171.192 474.763 172.566 480.031 175.731 484.215C178.896 488.399 183.592 491.156 188.789 491.883L363.404 516.206C368.601 516.929 373.872 515.56 378.058 512.4C382.245 509.24 385.005 504.547 385.731 499.354L445.128 73.4708C445.848 68.2797 444.477 63.015 441.315 58.834C438.153 54.653 433.46 51.8979 428.266 51.1741L253.651 26.8413C252.739 26.7088 251.818 26.639 250.896 26.6322V26.6322Z" fill="black"/>
<path d="M239.792 290.121C240.537 284.849 243.939 279.55 255.252 279.695V279.541C247.504 276.923 245.767 272.178 246.485 267.061C247.44 260.289 254.516 253.426 273.35 256.071C292.185 258.716 297.069 267.288 296.087 274.06C295.368 279.177 292.385 283.249 284.209 283.622V283.704C295.123 286.685 296.942 292.793 296.159 298.074C295.032 306.11 286.665 312.4 265.793 309.455C244.921 306.509 238.664 298.156 239.792 290.121ZM285.446 295.675C286.028 291.584 282.39 287.776 269.149 285.912C255.907 284.049 251.369 286.694 250.787 290.794C250.123 295.511 254.779 299.538 266.984 301.265C279.189 302.992 284.782 300.401 285.446 295.684V295.675ZM286.292 273.796C286.847 269.86 283.082 265.797 272.214 264.261C261.346 262.725 256.598 265.588 256.044 269.524C255.452 273.705 259.218 277.205 270.167 278.75C281.117 280.295 285.701 277.968 286.292 273.796Z" fill="black"/>
<path d="M304.427 288.239C306.682 272.25 317.568 262.306 337.34 265.097C355.693 267.678 361.122 276.477 359.931 284.903C359.816 285.639 359.658 286.367 359.458 287.085L349.618 285.685C349.748 285.224 349.84 284.752 349.89 284.276C350.536 279.731 347.626 275.286 336.367 273.705C323.762 271.887 316.85 278.177 315.213 289.748C314.976 291.484 314.949 292.766 314.804 293.784H314.967C317.114 287.657 323.926 285.494 337.404 287.421C356.302 290.084 360.458 297.656 359.394 305.209C358.139 314.108 350.991 321.452 329.719 318.453C305.536 315.053 302.526 301.701 304.427 288.239ZM348.599 303.691C349.163 299.674 346.471 296.001 333.629 294.193C320.16 292.293 315.586 296.229 315.095 299.692C314.922 300.946 315.577 307.709 330.937 309.872C343.542 311.663 347.944 308.263 348.599 303.7V303.691Z" fill="black"/>
<path d="M365.778 329.488C370.325 329.888 372.481 328.106 373.053 324.034V323.798L368.406 323.143L369.916 312.436L380.547 313.935L379.374 322.28C378.046 331.642 373.326 335.478 364.996 334.787L365.778 329.488Z" fill="black"/>
<path d="M266.912 364.964L229.488 359.692L230.734 350.876L272.569 323.689L283.482 325.234L278.871 357.911L289.503 359.411L288.293 367.991L277.653 366.491L276.17 377.035L265.375 375.517L266.912 364.964ZM268.122 356.384L271.268 334.105H271.186L242.448 352.684V352.766L268.122 356.384Z" fill="black"/>
<path d="M293.895 362.829C294.036 361.605 294.342 360.407 294.805 359.266L304.572 360.638C304.373 361.384 304.212 362.139 304.09 362.901C303.335 368.255 306.818 373.4 320.106 375.281C334.129 377.254 338.768 373.418 339.459 368.537C339.941 365.065 337.431 362.383 329.555 361.265L317.932 359.638L318.951 352.476L328.245 353.784C336.203 354.912 339.204 353.003 339.768 348.985C340.423 344.34 335.975 340.586 325.653 339.132C313.13 337.36 308.737 341.159 307.983 346.513C307.872 347.277 307.818 348.049 307.819 348.822L298.306 347.494C298.175 346.215 298.196 344.924 298.37 343.65C299.434 336.087 306.491 327.688 327.127 330.597C344.061 332.988 351.045 340.477 349.863 348.585C349.19 353.312 346.452 356.766 340.032 357.311V357.548C348.008 359.72 350.945 365.037 350.145 370.7C348.771 380.462 339.677 386.816 318.65 383.844C297.015 380.771 292.777 370.7 293.895 362.829Z" fill="black"/>
<path d="M289.575 443.198L288.393 451.543L284.301 450.97L285.447 442.853C284.41 442.789 283.309 442.635 282.127 442.471C281.218 442.335 280.308 442.217 279.462 442.017L278.316 450.125L274.215 449.543L275.397 441.199C258.208 437.172 256.89 428.873 257.681 423.283L267.448 424.665C267.13 427.51 267.749 431.027 276.498 433.409L278.198 421.356C272.742 420.111 267.03 418.502 264.102 416.484C260.964 414.266 259.482 411.094 260.137 406.486C261.046 400.186 267.412 394.26 281.963 394.624L283.137 386.279L287.229 386.861L286.101 394.933C287.011 394.933 287.838 395.096 288.711 395.214C289.894 395.387 290.994 395.542 292.086 395.778L293.231 387.67L297.324 388.243L296.105 396.669C310.775 400.305 313.158 407.34 312.112 414.748L302.744 413.421C303.245 409.312 302.199 406.44 295.023 404.386L293.377 416.275C298.452 417.311 303.426 418.493 306.209 419.847C311.239 422.329 312.576 426.374 311.966 430.855C311.029 437.481 305.946 443.898 289.575 443.198ZM279.299 413.566L280.89 402.304C273.433 402.213 270.886 404.349 270.459 407.34C270.186 409.231 270.868 410.685 272.969 411.712C275.014 412.532 277.134 413.153 279.299 413.566ZM285.019 402.659L283.373 414.375L289.012 415.412H289.321L291.012 403.45C290.003 403.222 288.821 403.059 287.638 402.886C286.683 402.804 285.819 402.677 285.019 402.65V402.659ZM286.538 435.154L288.211 423.265L282.464 422.192H282.309L280.59 434.318C281.454 434.518 282.318 434.636 283.264 434.772C284.401 434.918 285.501 435.072 286.538 435.145V435.154ZM301.617 430.209C301.88 428.319 301.235 426.628 298.252 425.565C296.715 425.101 294.614 424.565 292.277 424.074L290.649 435.481C299.07 435.709 301.171 433.354 301.617 430.209Z" fill="black"/>
<path d="M313.384 146.869L258.735 138.688L265.229 95.3854C265.447 93.8923 265.958 92.4569 266.732 91.1618C267.507 89.8667 268.53 88.7373 269.743 87.8386C270.956 86.9399 272.334 86.2895 273.799 85.9249C275.264 85.5603 276.787 85.4887 278.279 85.714L321.569 92.2404L313.384 146.869ZM260.818 137.152L311.875 144.796L319.532 93.7674L278.007 87.532C275.479 87.1542 272.905 87.7952 270.85 89.3139C268.795 90.8326 267.427 93.1047 267.048 95.6308L260.818 137.152Z" fill="black"/>
<path d="M304.562 104.846L279.523 101.092L275.768 126.118L300.807 129.871L304.562 104.846Z" fill="black"/>
<path d="M303.499 133.471L272.159 128.772L276.861 97.4579L308.191 102.148L303.499 133.471ZM279.398 123.472L298.142 126.281L300.952 107.529L282.208 104.72L279.398 123.472Z" fill="black"/>
<path d="M388.523 158.131L333.865 149.951L342.05 95.3313L396.708 103.512L388.523 158.131ZM335.929 148.433L386.986 156.086L394.644 105.057L343.587 97.4037L335.929 148.433Z" fill="black"/>
<path d="M376.7 142.143L349.862 138.116L353.882 111.293L380.684 115.319L376.7 142.143ZM351.927 136.616L375.163 140.098L378.647 116.874L355.41 113.392L351.927 136.616Z" fill="black"/>
<path d="M302.143 221.94L247.485 213.759L255.67 159.131L310.328 167.311L302.143 221.94ZM249.559 212.223L300.652 219.876L308.309 168.847L257.216 161.158L249.559 212.223Z" fill="black"/>
<path d="M290.321 205.96L263.483 201.934L267.512 175.11L294.341 179.137L290.321 205.96ZM265.557 200.407L288.829 203.879L292.313 180.655L269.076 177.174L265.557 200.407Z" fill="black"/>
<path d="M349.631 202.576L330.159 199.657L327.239 219.118L346.71 222.037L349.631 202.576Z" fill="black"/>
<path d="M349.399 225.639L323.634 221.776L327.499 196.016L353.264 199.879L349.399 225.639ZM330.873 216.422L344.051 218.422L346.025 205.251L332.847 203.27L330.873 216.422Z" fill="black"/>
<path d="M378.534 182.111L359.042 179.159L356.088 198.641L375.581 201.593L378.534 182.111Z" fill="black"/>
<path d="M378.192 204.36L352.427 200.506L356.283 174.792L382.057 178.655L378.192 204.36ZM359.666 195.152L372.844 197.125L374.818 183.954L361.64 181.982L359.666 195.152Z" fill="black"/>
<g opacity="0.9">
<path d="M524.111 19.4966L287.613 429.395C281.401 440.163 285.098 453.925 295.872 460.135L463.943 557.001C474.716 563.21 488.486 559.515 494.699 548.747L731.196 138.848C737.409 128.08 733.711 114.318 722.938 108.109L554.867 11.2428C544.093 5.03363 530.323 8.72897 524.111 19.4966Z" fill="white"/>
</g>
<path d="M475.158 560.7C471.098 560.696 467.112 559.624 463.598 557.592L295.532 460.724C290.205 457.649 286.317 452.588 284.719 446.651C283.122 440.714 283.946 434.386 287.01 429.056L523.468 19.1157C524.993 16.4744 527.025 14.1597 529.447 12.3044C531.869 10.449 534.633 9.08931 537.581 8.30324C540.529 7.51716 543.604 7.32011 546.629 7.72338C549.653 8.12664 552.569 9.12229 555.208 10.6533L723.283 107.53C728.613 110.605 732.503 115.669 734.097 121.609C735.692 127.549 734.861 133.879 731.787 139.207L495.275 549.084C493.759 551.729 491.734 554.047 489.316 555.903C486.897 557.76 484.135 559.119 481.187 559.901C479.221 560.429 477.194 560.698 475.158 560.7V560.7ZM543.658 8.89903C539.82 8.90304 536.051 9.91227 532.725 11.8261C529.4 13.7399 526.634 16.4915 524.705 19.8065L288.247 429.747C286.814 432.229 285.885 434.97 285.512 437.812C285.139 440.653 285.33 443.541 286.074 446.308C286.818 449.076 288.101 451.671 289.848 453.943C291.596 456.215 293.774 458.121 296.259 459.552L464.326 556.419C466.81 557.853 469.553 558.783 472.397 559.156C475.241 559.53 478.131 559.339 480.902 558.595C483.672 557.852 486.269 556.569 488.543 554.822C490.818 553.074 492.725 550.896 494.156 548.411L730.614 138.516C732.048 136.034 732.98 133.293 733.354 130.451C733.728 127.609 733.538 124.721 732.795 121.952C732.052 119.183 730.77 116.587 729.022 114.314C727.275 112.041 725.096 110.134 722.61 108.703L554.526 11.8259C551.223 9.91227 547.475 8.90272 543.658 8.89903V8.89903Z" fill="black"/>
<path d="M462.244 214.932C462.546 214.47 462.877 214.026 463.235 213.605L473.957 219.795L473.621 220.377C471.247 224.485 473.621 230.566 487.981 238.838C500.131 245.846 506.67 243.819 510.108 237.874C513.637 231.757 510.545 225.503 498.822 218.731C487.672 212.305 481.415 213.278 478.741 214.623L468.346 207.279L489.482 177.283L537.683 205.097L532.408 214.187L493.702 191.844L481.579 208.96L481.742 209.06C486.453 205.742 494.038 205.77 506.852 213.169C525.369 223.858 526.787 235.511 521.403 244.8C515.747 254.599 503.424 259.88 482.724 247.936C457.915 233.647 458.133 222.058 462.244 214.932Z" fill="black"/>
<path d="M556.809 258.353C576.908 262.816 581.364 261.907 584.829 255.881C587.557 251.109 586.057 244.064 575.835 238.183C564.53 231.657 556.036 233.011 551.634 240.628C550.767 242.19 550.042 243.827 549.47 245.518L539.002 239.474C539.697 237.415 540.611 235.437 541.73 233.575C548.024 222.667 562.002 218.032 581.1 229.03C600.626 240.301 601.363 253.908 596.561 262.28C591.104 271.742 582.546 273.951 558.946 268.588C541.376 264.588 540.348 265.007 539.093 267.179L581.673 291.83L576.399 300.92L520.513 268.651C528.016 255.799 532.563 252.963 556.809 258.353Z" fill="black"/>
<path d="M584.846 315.19C589.766 317.699 593.031 316.681 595.55 312.327L595.696 312.073L590.767 309.219L597.351 297.829L608.665 304.365L603.499 313.236C597.742 323.235 590.676 325.38 581.59 320.799L584.846 315.19Z" fill="black"/>
<path d="M419.072 290.03C419.463 289.324 419.894 288.641 420.363 287.985L430.831 294.029C430.471 294.527 430.137 295.042 429.831 295.575C427.457 299.674 428.712 305.428 441.654 312.918C454.814 320.516 464.89 317.962 472.73 304.391C473.839 302.464 474.485 301.165 474.985 300.11L474.812 300.01C470.42 305.291 462.617 308.191 445.61 298.347C425.338 286.64 424.974 275.478 429.422 267.779C434.742 258.571 447.747 252.899 469.61 265.515C494.575 279.931 492.483 296.702 484.162 311.018C473.712 329.106 458.451 334.814 436.333 322.053C416.071 310.291 414.034 298.738 419.072 290.03ZM477.277 293.057C477.714 292.302 480.351 283.885 464.426 274.696C450.603 266.715 443.809 269.378 441.008 274.241C438.534 278.504 438.971 284.34 452.704 292.266C465.563 299.674 473.93 298.92 477.313 293.057H477.277Z" fill="black"/>
<path d="M491.256 315.508C500.696 299.147 517.575 293.184 537.347 304.601C557.118 316.017 560.51 333.687 551.079 350.049C542.121 365.501 525.733 373.6 504.534 361.365C483.334 349.131 482.307 331.006 491.256 315.508ZM539.602 343.422C546.377 331.697 544.149 320.698 532.072 313.727C520.176 306.855 509.508 310.418 502.733 322.135C496.203 333.442 497.076 344.859 509.808 352.239C522.541 359.62 533.063 354.766 539.602 343.422Z" fill="black"/>
<path d="M439.153 426.919L433.378 436.918L428.485 434.091L434.087 424.392C432.805 423.774 431.486 423.011 430.077 422.202C428.94 421.547 427.912 420.947 426.93 420.257L421.319 429.955L416.417 427.128L422.192 417.13C402.448 403.223 405.03 392.024 408.896 385.316L420.582 392.061C418.709 395.506 417.69 400.314 427.576 407.786L435.906 393.37C429.64 388.997 423.174 384.035 420.527 379.972C417.672 375.563 417.426 370.773 420.637 365.21C424.993 357.675 436.097 353.394 454.414 361.347L460.18 351.348L465.082 354.175L459.479 363.874C460.571 364.383 461.607 364.983 462.644 365.583C464.054 366.392 465.373 367.155 466.637 368.01L472.248 358.311L477.15 361.138L471.32 371.218C488.045 383.38 487.481 393.488 482.37 402.341L471.157 395.869C473.885 390.915 474.04 386.734 465.991 380.417L457.806 394.642C463.708 398.56 469.42 402.605 472.248 405.75C477.368 411.467 477.014 417.293 473.912 422.656C469.301 430.637 459.561 436.191 439.153 426.919ZM441.29 384.062L449.075 370.6C439.662 366.664 435.333 368.064 433.269 371.645C431.959 373.909 432.068 376.108 434.224 378.472C435.588 380.017 438.253 381.935 441.29 384.062V384.062ZM454.141 373.154L446.029 387.189L452.649 391.388L453.031 391.606L461.307 377.29C460.134 376.49 458.724 375.672 457.306 374.854C456.281 374.23 455.225 373.66 454.141 373.145V373.154ZM439.426 415.148L447.611 400.932L440.836 396.578L440.645 396.469L432.259 410.967C433.242 411.667 434.278 412.258 435.406 412.912C436.825 413.767 438.144 414.53 439.426 415.139V415.148ZM461.08 416.575C462.39 414.312 462.435 411.83 459.197 408.958C457.479 407.586 455.096 405.831 452.377 404.013L444.482 417.648C455.032 422.265 458.897 420.357 461.08 416.575Z" fill="black"/>
<path d="M525.86 98.5577L556.854 116.11C571.951 124.663 576.262 135.098 569.95 146.233C563.638 157.367 552.843 158.958 537.992 150.505L509.662 134.462L498.913 153.422L495.766 151.605L525.86 98.5577ZM539.229 147.578C552.216 154.94 561.237 154.086 566.676 144.478C571.987 135.125 568.368 126.463 554.962 118.882L527.36 103.248L511.218 131.717L539.229 147.578Z" fill="black"/>
<path d="M591.476 135.707L594.704 137.525L564.611 190.599L561.382 188.781L591.476 135.707Z" fill="black"/>
<path d="M619.542 186.255L605.109 143.443L609.793 146.097L623.162 185.528L663.705 176.611L668.307 179.219L624.19 188.763L639.023 232.757L634.339 230.103L620.579 189.491L578.744 198.58L574.197 196.017L619.542 186.255Z" fill="black"/>
</svg>
