<svg width="2178" height="60" viewBox="0 0 2178 60" fill="none" xmlns="http://www.w3.org/2000/svg">
<path d="M83 4L1922.5 4" stroke="white"/>
<rect x="1.5" y="0.5" width="2176" height="59" fill="black" stroke="white"/>
<path d="M71.7935 31.7144L69.7619 27.4692H69.6709V41.7207H65.3348V20.5558H70.3683L76.1599 30.5621L78.1915 34.8072H78.2824V20.5558H82.6185V41.7207H77.585L71.7935 31.7144ZM100.71 38.3549H100.558C100.396 39.4263 99.8506 40.3158 98.9208 41.0233C97.9909 41.7308 96.7274 42.0846 95.1305 42.0846C93.9176 42.0846 92.7855 41.8521 91.7344 41.3872C90.6832 40.9222 89.7634 40.2349 88.975 39.3252C88.1867 38.4156 87.5701 37.2835 87.1254 35.9291C86.6807 34.5748 86.4583 33.0081 86.4583 31.2292C86.4583 29.4503 86.6908 27.8735 87.1557 26.4989C87.6207 25.1243 88.2675 23.9721 89.0963 23.0422C89.9454 22.1123 90.9561 21.4048 92.1286 20.9196C93.301 20.4345 94.6049 20.1919 96.0401 20.1919C97.9403 20.1919 99.5777 20.6063 100.952 21.4351C102.327 22.2437 103.408 23.4667 104.197 25.1041L100.437 27.257C100.113 26.4282 99.6081 25.7308 98.9208 25.1647C98.2334 24.5785 97.2732 24.2854 96.0401 24.2854C94.6049 24.2854 93.4627 24.6998 92.6137 25.5286C91.7647 26.3574 91.3402 27.6613 91.3402 29.4402V32.8363C91.3402 34.595 91.7647 35.8988 92.6137 36.7479C93.4627 37.5767 94.6049 37.9911 96.0401 37.9911C96.6062 37.9911 97.1418 37.9304 97.6472 37.8091C98.1526 37.6676 98.5973 37.4655 98.9814 37.2027C99.3655 36.9197 99.6586 36.5861 99.8607 36.2021C100.083 35.818 100.194 35.3631 100.194 34.8375V33.7763H96.2524V29.9253H104.591V41.7207H100.71V38.3549ZM111.436 42.0542C110.527 42.0542 109.849 41.8319 109.405 41.3872C108.98 40.9222 108.768 40.336 108.768 39.6285V39.022C108.768 38.3145 108.98 37.7384 109.405 37.2937C109.849 36.8287 110.527 36.5962 111.436 36.5962C112.346 36.5962 113.013 36.8287 113.438 37.2937C113.882 37.7384 114.105 38.3145 114.105 39.022V39.6285C114.105 40.336 113.882 40.9222 113.438 41.3872C113.013 41.8319 112.346 42.0542 111.436 42.0542ZM125.795 42.0846C124.36 42.0846 123.066 41.8622 121.914 41.4175C120.761 40.9525 119.781 40.2753 118.972 39.3859C118.164 38.4762 117.537 37.3543 117.092 36.0201C116.648 34.6657 116.425 33.089 116.425 31.2898C116.425 29.5109 116.648 27.9342 117.092 26.5596C117.537 25.1647 118.164 24.0024 118.972 23.0725C119.781 22.1224 120.761 21.4048 121.914 20.9196C123.066 20.4345 124.36 20.1919 125.795 20.1919C127.756 20.1919 129.373 20.5962 130.646 21.4048C131.92 22.1932 132.941 23.4465 133.709 25.1647L129.737 27.2267C129.454 26.3372 129.009 25.6297 128.403 25.1041C127.816 24.5583 126.947 24.2854 125.795 24.2854C124.44 24.2854 123.349 24.7301 122.52 25.6196C121.711 26.4888 121.307 27.7624 121.307 29.4402V32.8363C121.307 34.5141 121.711 35.7978 122.52 36.6872C123.349 37.5564 124.44 37.9911 125.795 37.9911C126.927 37.9911 127.826 37.6878 128.493 37.0814C129.181 36.4547 129.686 35.7068 130.01 34.8375L133.77 37.0208C132.981 38.6379 131.94 39.8913 130.646 40.7807C129.373 41.65 127.756 42.0846 125.795 42.0846ZM149.797 41.7207L148.28 36.6872H141.215L139.699 41.7207H135.03L142.004 20.5558H147.704L154.587 41.7207H149.797ZM144.793 24.7402H144.642L142.307 32.7756H147.159L144.793 24.7402ZM164.369 42.0846C162.509 42.0846 160.932 41.7712 159.638 41.1446C158.344 40.4977 157.243 39.6689 156.333 38.6582L159.365 35.5956C160.801 37.2128 162.569 38.0214 164.672 38.0214C165.804 38.0214 166.643 37.7889 167.188 37.324C167.734 36.859 168.007 36.2425 168.007 35.4743C168.007 34.8881 167.845 34.4029 167.522 34.0188C167.199 33.6146 166.542 33.3416 165.551 33.2001L163.459 32.9272C161.215 32.6442 159.567 31.967 158.516 30.8957C157.485 29.8243 156.97 28.3991 156.97 26.6202C156.97 25.6701 157.152 24.8009 157.516 24.0125C157.88 23.2241 158.395 22.5469 159.062 21.9809C159.749 21.4149 160.578 20.9803 161.549 20.6771C162.539 20.3536 163.661 20.1919 164.914 20.1919C166.511 20.1919 167.916 20.4446 169.129 20.9499C170.342 21.4553 171.383 22.1932 172.252 23.1635L169.19 26.2563C168.684 25.6701 168.068 25.1951 167.34 24.8312C166.633 24.4471 165.733 24.2551 164.641 24.2551C163.61 24.2551 162.842 24.437 162.337 24.8009C161.832 25.1647 161.579 25.6701 161.579 26.317C161.579 27.0447 161.771 27.5703 162.155 27.8937C162.559 28.2172 163.206 28.4497 164.096 28.5912L166.188 28.9247C168.371 29.2684 169.988 29.9456 171.039 30.9563C172.091 31.9468 172.616 33.3619 172.616 35.2014C172.616 36.2122 172.434 37.142 172.07 37.9911C171.707 38.8401 171.171 39.5678 170.463 40.1743C169.776 40.7807 168.917 41.2558 167.886 41.5994C166.855 41.9229 165.682 42.0846 164.369 42.0846ZM189.112 33.0485H181.046V41.7207H176.437V20.5558H181.046V28.9854H189.112V20.5558H193.721V41.7207H189.112V33.0485ZM212.004 31.7144L209.973 27.4692H209.882V41.7207H205.546V20.5558H210.579L216.371 30.5621L218.402 34.8072H218.493V20.5558H222.829V41.7207H217.796L212.004 31.7144ZM240.526 41.7207L239.01 36.6872H231.945L230.429 41.7207H225.759L232.734 20.5558H238.434L245.317 41.7207H240.526ZM235.523 24.7402H235.372L233.037 32.7756H237.888L235.523 24.7402ZM271.24 27.8331H271.149L269.602 30.926L265.479 38.4156L261.446 30.9563L259.839 27.6208H259.748V41.7207H255.412V20.5558H260.293L265.479 30.4711H265.539L270.664 20.5558H275.576V41.7207H271.24V27.8331ZM279.437 41.7207V38.0517H282.166V24.2248H279.437V20.5558H289.504V24.2248H286.775V38.0517H289.504V41.7207H279.437ZM284.986 19.2822L282.318 17.9784L285.32 12.0958L289.049 13.9455L284.986 19.2822ZM293.344 20.5558H301.319C302.714 20.5558 303.987 20.7781 305.139 21.2228C306.292 21.6676 307.272 22.3347 308.081 23.2241C308.889 24.0934 309.516 25.1951 309.961 26.5292C310.405 27.8432 310.628 29.3795 310.628 31.1382C310.628 32.8969 310.405 34.4434 309.961 35.7775C309.516 37.0915 308.889 38.1932 308.081 39.0827C307.272 39.9519 306.292 40.6089 305.139 41.0536C303.987 41.4983 302.714 41.7207 301.319 41.7207H293.344V20.5558ZM301.319 37.6272C302.693 37.6272 303.775 37.2431 304.563 36.475C305.352 35.7068 305.746 34.4737 305.746 32.7756V29.5008C305.746 27.8028 305.352 26.5697 304.563 25.8015C303.775 25.0333 302.693 24.6493 301.319 24.6493H297.953V37.6272H301.319ZM313.668 41.7207V38.0517H316.397V24.2248H313.668V20.5558H323.735V24.2248H321.006V38.0517H323.735V41.7207H313.668ZM340.614 41.7207L339.098 36.6872H332.032L330.516 41.7207H325.847L332.821 20.5558H338.521L345.405 41.7207H340.614ZM335.61 24.7402H335.459L333.124 32.7756H337.976L335.61 24.7402Z" fill="white"/>
<path d="M353 59.5L389.575 0.736315" stroke="white"/>
<path d="M371 59.5L407.575 0.736315" stroke="white"/>
<path d="M1 59.5L37.5752 0.736315" stroke="white"/>
<path d="M19 59.5L55.5752 0.736315" stroke="white"/>
<path d="M423.793 31.7144L421.762 27.4692H421.671V41.7207H417.335V20.5558H422.368L428.16 30.5621L430.191 34.8072H430.282V20.5558H434.619V41.7207H429.585L423.793 31.7144ZM452.71 38.3549H452.558C452.396 39.4263 451.851 40.3158 450.921 41.0233C449.991 41.7308 448.727 42.0846 447.13 42.0846C445.918 42.0846 444.786 41.8521 443.734 41.3872C442.683 40.9222 441.763 40.2349 440.975 39.3252C440.187 38.4156 439.57 37.2835 439.125 35.9291C438.681 34.5748 438.458 33.0081 438.458 31.2292C438.458 29.4503 438.691 27.8735 439.156 26.4989C439.621 25.1243 440.268 23.9721 441.096 23.0422C441.945 22.1123 442.956 21.4048 444.129 20.9196C445.301 20.4345 446.605 20.1919 448.04 20.1919C449.94 20.1919 451.578 20.6063 452.952 21.4351C454.327 22.2437 455.408 23.4667 456.197 25.1041L452.437 27.257C452.113 26.4282 451.608 25.7308 450.921 25.1647C450.233 24.5785 449.273 24.2854 448.04 24.2854C446.605 24.2854 445.463 24.6998 444.614 25.5286C443.765 26.3574 443.34 27.6613 443.34 29.4402V32.8363C443.34 34.595 443.765 35.8988 444.614 36.7479C445.463 37.5767 446.605 37.9911 448.04 37.9911C448.606 37.9911 449.142 37.9304 449.647 37.8091C450.153 37.6676 450.597 37.4655 450.981 37.2027C451.365 36.9197 451.659 36.5861 451.861 36.2021C452.083 35.818 452.194 35.3631 452.194 34.8375V33.7763H448.252V29.9253H456.591V41.7207H452.71V38.3549ZM463.436 42.0542C462.527 42.0542 461.849 41.8319 461.405 41.3872C460.98 40.9222 460.768 40.336 460.768 39.6285V39.022C460.768 38.3145 460.98 37.7384 461.405 37.2937C461.849 36.8287 462.527 36.5962 463.436 36.5962C464.346 36.5962 465.013 36.8287 465.438 37.2937C465.882 37.7384 466.105 38.3145 466.105 39.022V39.6285C466.105 40.336 465.882 40.9222 465.438 41.3872C465.013 41.8319 464.346 42.0542 463.436 42.0542ZM477.795 42.0846C476.36 42.0846 475.066 41.8622 473.914 41.4175C472.761 40.9525 471.781 40.2753 470.972 39.3859C470.164 38.4762 469.537 37.3543 469.092 36.0201C468.648 34.6657 468.425 33.089 468.425 31.2898C468.425 29.5109 468.648 27.9342 469.092 26.5596C469.537 25.1647 470.164 24.0024 470.972 23.0725C471.781 22.1224 472.761 21.4048 473.914 20.9196C475.066 20.4345 476.36 20.1919 477.795 20.1919C479.756 20.1919 481.373 20.5962 482.646 21.4048C483.92 22.1932 484.941 23.4465 485.709 25.1647L481.737 27.2267C481.454 26.3372 481.009 25.6297 480.403 25.1041C479.816 24.5583 478.947 24.2854 477.795 24.2854C476.44 24.2854 475.349 24.7301 474.52 25.6196C473.711 26.4888 473.307 27.7624 473.307 29.4402V32.8363C473.307 34.5141 473.711 35.7978 474.52 36.6872C475.349 37.5564 476.44 37.9911 477.795 37.9911C478.927 37.9911 479.826 37.6878 480.493 37.0814C481.181 36.4547 481.686 35.7068 482.01 34.8375L485.77 37.0208C484.981 38.6379 483.94 39.8913 482.646 40.7807C481.373 41.65 479.756 42.0846 477.795 42.0846ZM501.797 41.7207L500.28 36.6872H493.215L491.699 41.7207H487.03L494.004 20.5558H499.704L506.587 41.7207H501.797ZM496.793 24.7402H496.642L494.307 32.7756H499.159L496.793 24.7402ZM516.369 42.0846C514.509 42.0846 512.932 41.7712 511.638 41.1446C510.344 40.4977 509.243 39.6689 508.333 38.6582L511.365 35.5956C512.801 37.2128 514.569 38.0214 516.672 38.0214C517.804 38.0214 518.643 37.7889 519.188 37.324C519.734 36.859 520.007 36.2425 520.007 35.4743C520.007 34.8881 519.845 34.4029 519.522 34.0188C519.199 33.6146 518.542 33.3416 517.551 33.2001L515.459 32.9272C513.215 32.6442 511.567 31.967 510.516 30.8957C509.485 29.8243 508.97 28.3991 508.97 26.6202C508.97 25.6701 509.152 24.8009 509.516 24.0125C509.88 23.2241 510.395 22.5469 511.062 21.9809C511.749 21.4149 512.578 20.9803 513.549 20.6771C514.539 20.3536 515.661 20.1919 516.914 20.1919C518.511 20.1919 519.916 20.4446 521.129 20.9499C522.342 21.4553 523.383 22.1932 524.252 23.1635L521.19 26.2563C520.684 25.6701 520.068 25.1951 519.34 24.8312C518.633 24.4471 517.733 24.2551 516.641 24.2551C515.61 24.2551 514.842 24.437 514.337 24.8009C513.832 25.1647 513.579 25.6701 513.579 26.317C513.579 27.0447 513.771 27.5703 514.155 27.8937C514.559 28.2172 515.206 28.4497 516.096 28.5912L518.188 28.9247C520.371 29.2684 521.988 29.9456 523.039 30.9563C524.091 31.9468 524.616 33.3619 524.616 35.2014C524.616 36.2122 524.434 37.142 524.07 37.9911C523.707 38.8401 523.171 39.5678 522.463 40.1743C521.776 40.7807 520.917 41.2558 519.886 41.5994C518.855 41.9229 517.682 42.0846 516.369 42.0846ZM541.112 33.0485H533.046V41.7207H528.437V20.5558H533.046V28.9854H541.112V20.5558H545.721V41.7207H541.112V33.0485ZM564.004 31.7144L561.973 27.4692H561.882V41.7207H557.546V20.5558H562.579L568.371 30.5621L570.402 34.8072H570.493V20.5558H574.829V41.7207H569.796L564.004 31.7144ZM592.526 41.7207L591.01 36.6872H583.945L582.429 41.7207H577.759L584.734 20.5558H590.434L597.317 41.7207H592.526ZM587.523 24.7402H587.372L585.037 32.7756H589.888L587.523 24.7402ZM623.24 27.8331H623.149L621.602 30.926L617.479 38.4156L613.446 30.9563L611.839 27.6208H611.748V41.7207H607.412V20.5558H612.293L617.479 30.4711H617.539L622.664 20.5558H627.576V41.7207H623.24V27.8331ZM631.437 41.7207V38.0517H634.166V24.2248H631.437V20.5558H641.504V24.2248H638.775V38.0517H641.504V41.7207H631.437ZM636.986 19.2822L634.318 17.9784L637.32 12.0958L641.049 13.9455L636.986 19.2822ZM645.344 20.5558H653.319C654.714 20.5558 655.987 20.7781 657.139 21.2228C658.292 21.6676 659.272 22.3347 660.081 23.2241C660.889 24.0934 661.516 25.1951 661.961 26.5292C662.405 27.8432 662.628 29.3795 662.628 31.1382C662.628 32.8969 662.405 34.4434 661.961 35.7775C661.516 37.0915 660.889 38.1932 660.081 39.0827C659.272 39.9519 658.292 40.6089 657.139 41.0536C655.987 41.4983 654.714 41.7207 653.319 41.7207H645.344V20.5558ZM653.319 37.6272C654.693 37.6272 655.775 37.2431 656.563 36.475C657.352 35.7068 657.746 34.4737 657.746 32.7756V29.5008C657.746 27.8028 657.352 26.5697 656.563 25.8015C655.775 25.0333 654.693 24.6493 653.319 24.6493H649.953V37.6272H653.319ZM665.668 41.7207V38.0517H668.397V24.2248H665.668V20.5558H675.735V24.2248H673.006V38.0517H675.735V41.7207H665.668ZM692.614 41.7207L691.098 36.6872H684.032L682.516 41.7207H677.847L684.821 20.5558H690.521L697.405 41.7207H692.614ZM687.61 24.7402H687.459L685.124 32.7756H689.976L687.61 24.7402Z" fill="white"/>
<path d="M707 59.5L743.575 0.736315" stroke="white"/>
<path d="M725 59.5L761.575 0.736315" stroke="white"/>
<path d="M777.793 31.7144L775.762 27.4692H775.671V41.7207H771.335V20.5558H776.368L782.16 30.5621L784.191 34.8072H784.282V20.5558H788.619V41.7207H783.585L777.793 31.7144ZM806.71 38.3549H806.558C806.396 39.4263 805.851 40.3158 804.921 41.0233C803.991 41.7308 802.727 42.0846 801.13 42.0846C799.918 42.0846 798.786 41.8521 797.734 41.3872C796.683 40.9222 795.763 40.2349 794.975 39.3252C794.187 38.4156 793.57 37.2835 793.125 35.9291C792.681 34.5748 792.458 33.0081 792.458 31.2292C792.458 29.4503 792.691 27.8735 793.156 26.4989C793.621 25.1243 794.268 23.9721 795.096 23.0422C795.945 22.1123 796.956 21.4048 798.129 20.9196C799.301 20.4345 800.605 20.1919 802.04 20.1919C803.94 20.1919 805.578 20.6063 806.952 21.4351C808.327 22.2437 809.408 23.4667 810.197 25.1041L806.437 27.257C806.113 26.4282 805.608 25.7308 804.921 25.1647C804.233 24.5785 803.273 24.2854 802.04 24.2854C800.605 24.2854 799.463 24.6998 798.614 25.5286C797.765 26.3574 797.34 27.6613 797.34 29.4402V32.8363C797.34 34.595 797.765 35.8988 798.614 36.7479C799.463 37.5767 800.605 37.9911 802.04 37.9911C802.606 37.9911 803.142 37.9304 803.647 37.8091C804.153 37.6676 804.597 37.4655 804.981 37.2027C805.365 36.9197 805.659 36.5861 805.861 36.2021C806.083 35.818 806.194 35.3631 806.194 34.8375V33.7763H802.252V29.9253H810.591V41.7207H806.71V38.3549ZM817.436 42.0542C816.527 42.0542 815.849 41.8319 815.405 41.3872C814.98 40.9222 814.768 40.336 814.768 39.6285V39.022C814.768 38.3145 814.98 37.7384 815.405 37.2937C815.849 36.8287 816.527 36.5962 817.436 36.5962C818.346 36.5962 819.013 36.8287 819.438 37.2937C819.882 37.7384 820.105 38.3145 820.105 39.022V39.6285C820.105 40.336 819.882 40.9222 819.438 41.3872C819.013 41.8319 818.346 42.0542 817.436 42.0542ZM831.795 42.0846C830.36 42.0846 829.066 41.8622 827.914 41.4175C826.761 40.9525 825.781 40.2753 824.972 39.3859C824.164 38.4762 823.537 37.3543 823.092 36.0201C822.648 34.6657 822.425 33.089 822.425 31.2898C822.425 29.5109 822.648 27.9342 823.092 26.5596C823.537 25.1647 824.164 24.0024 824.972 23.0725C825.781 22.1224 826.761 21.4048 827.914 20.9196C829.066 20.4345 830.36 20.1919 831.795 20.1919C833.756 20.1919 835.373 20.5962 836.646 21.4048C837.92 22.1932 838.941 23.4465 839.709 25.1647L835.737 27.2267C835.454 26.3372 835.009 25.6297 834.403 25.1041C833.816 24.5583 832.947 24.2854 831.795 24.2854C830.44 24.2854 829.349 24.7301 828.52 25.6196C827.711 26.4888 827.307 27.7624 827.307 29.4402V32.8363C827.307 34.5141 827.711 35.7978 828.52 36.6872C829.349 37.5564 830.44 37.9911 831.795 37.9911C832.927 37.9911 833.826 37.6878 834.493 37.0814C835.181 36.4547 835.686 35.7068 836.01 34.8375L839.77 37.0208C838.981 38.6379 837.94 39.8913 836.646 40.7807C835.373 41.65 833.756 42.0846 831.795 42.0846ZM855.797 41.7207L854.28 36.6872H847.215L845.699 41.7207H841.03L848.004 20.5558H853.704L860.587 41.7207H855.797ZM850.793 24.7402H850.642L848.307 32.7756H853.159L850.793 24.7402ZM870.369 42.0846C868.509 42.0846 866.932 41.7712 865.638 41.1446C864.344 40.4977 863.243 39.6689 862.333 38.6582L865.365 35.5956C866.801 37.2128 868.569 38.0214 870.672 38.0214C871.804 38.0214 872.643 37.7889 873.188 37.324C873.734 36.859 874.007 36.2425 874.007 35.4743C874.007 34.8881 873.845 34.4029 873.522 34.0188C873.199 33.6146 872.542 33.3416 871.551 33.2001L869.459 32.9272C867.215 32.6442 865.567 31.967 864.516 30.8957C863.485 29.8243 862.97 28.3991 862.97 26.6202C862.97 25.6701 863.152 24.8009 863.516 24.0125C863.88 23.2241 864.395 22.5469 865.062 21.9809C865.749 21.4149 866.578 20.9803 867.549 20.6771C868.539 20.3536 869.661 20.1919 870.914 20.1919C872.511 20.1919 873.916 20.4446 875.129 20.9499C876.342 21.4553 877.383 22.1932 878.252 23.1635L875.19 26.2563C874.684 25.6701 874.068 25.1951 873.34 24.8312C872.633 24.4471 871.733 24.2551 870.641 24.2551C869.61 24.2551 868.842 24.437 868.337 24.8009C867.832 25.1647 867.579 25.6701 867.579 26.317C867.579 27.0447 867.771 27.5703 868.155 27.8937C868.559 28.2172 869.206 28.4497 870.096 28.5912L872.188 28.9247C874.371 29.2684 875.988 29.9456 877.039 30.9563C878.091 31.9468 878.616 33.3619 878.616 35.2014C878.616 36.2122 878.434 37.142 878.07 37.9911C877.707 38.8401 877.171 39.5678 876.463 40.1743C875.776 40.7807 874.917 41.2558 873.886 41.5994C872.855 41.9229 871.682 42.0846 870.369 42.0846ZM895.112 33.0485H887.046V41.7207H882.437V20.5558H887.046V28.9854H895.112V20.5558H899.721V41.7207H895.112V33.0485ZM918.004 31.7144L915.973 27.4692H915.882V41.7207H911.546V20.5558H916.579L922.371 30.5621L924.402 34.8072H924.493V20.5558H928.829V41.7207H923.796L918.004 31.7144ZM946.526 41.7207L945.01 36.6872H937.945L936.429 41.7207H931.759L938.734 20.5558H944.434L951.317 41.7207H946.526ZM941.523 24.7402H941.372L939.037 32.7756H943.888L941.523 24.7402ZM977.24 27.8331H977.149L975.602 30.926L971.479 38.4156L967.446 30.9563L965.839 27.6208H965.748V41.7207H961.412V20.5558H966.293L971.479 30.4711H971.539L976.664 20.5558H981.576V41.7207H977.24V27.8331ZM985.437 41.7207V38.0517H988.166V24.2248H985.437V20.5558H995.504V24.2248H992.775V38.0517H995.504V41.7207H985.437ZM990.986 19.2822L988.318 17.9784L991.32 12.0958L995.049 13.9455L990.986 19.2822ZM999.344 20.5558H1007.32C1008.71 20.5558 1009.99 20.7781 1011.14 21.2228C1012.29 21.6676 1013.27 22.3347 1014.08 23.2241C1014.89 24.0934 1015.52 25.1951 1015.96 26.5292C1016.41 27.8432 1016.63 29.3795 1016.63 31.1382C1016.63 32.8969 1016.41 34.4434 1015.96 35.7775C1015.52 37.0915 1014.89 38.1932 1014.08 39.0827C1013.27 39.9519 1012.29 40.6089 1011.14 41.0536C1009.99 41.4983 1008.71 41.7207 1007.32 41.7207H999.344V20.5558ZM1007.32 37.6272C1008.69 37.6272 1009.77 37.2431 1010.56 36.475C1011.35 35.7068 1011.75 34.4737 1011.75 32.7756V29.5008C1011.75 27.8028 1011.35 26.5697 1010.56 25.8015C1009.77 25.0333 1008.69 24.6493 1007.32 24.6493H1003.95V37.6272H1007.32ZM1019.67 41.7207V38.0517H1022.4V24.2248H1019.67V20.5558H1029.74V24.2248H1027.01V38.0517H1029.74V41.7207H1019.67ZM1046.61 41.7207L1045.1 36.6872H1038.03L1036.52 41.7207H1031.85L1038.82 20.5558H1044.52L1051.4 41.7207H1046.61ZM1041.61 24.7402H1041.46L1039.12 32.7756H1043.98L1041.61 24.7402Z" fill="white"/>
<path d="M1061 59.5L1097.58 0.736315" stroke="white"/>
<path d="M1079 59.5L1115.58 0.736315" stroke="white"/>
<path d="M1131.79 31.7144L1129.76 27.4692H1129.67V41.7207H1125.33V20.5558H1130.37L1136.16 30.5621L1138.19 34.8072H1138.28V20.5558H1142.62V41.7207H1137.59L1131.79 31.7144ZM1160.71 38.3549H1160.56C1160.4 39.4263 1159.85 40.3158 1158.92 41.0233C1157.99 41.7308 1156.73 42.0846 1155.13 42.0846C1153.92 42.0846 1152.79 41.8521 1151.73 41.3872C1150.68 40.9222 1149.76 40.2349 1148.98 39.3252C1148.19 38.4156 1147.57 37.2835 1147.13 35.9291C1146.68 34.5748 1146.46 33.0081 1146.46 31.2292C1146.46 29.4503 1146.69 27.8735 1147.16 26.4989C1147.62 25.1243 1148.27 23.9721 1149.1 23.0422C1149.95 22.1123 1150.96 21.4048 1152.13 20.9196C1153.3 20.4345 1154.6 20.1919 1156.04 20.1919C1157.94 20.1919 1159.58 20.6063 1160.95 21.4351C1162.33 22.2437 1163.41 23.4667 1164.2 25.1041L1160.44 27.257C1160.11 26.4282 1159.61 25.7308 1158.92 25.1647C1158.23 24.5785 1157.27 24.2854 1156.04 24.2854C1154.6 24.2854 1153.46 24.6998 1152.61 25.5286C1151.76 26.3574 1151.34 27.6613 1151.34 29.4402V32.8363C1151.34 34.595 1151.76 35.8988 1152.61 36.7479C1153.46 37.5767 1154.6 37.9911 1156.04 37.9911C1156.61 37.9911 1157.14 37.9304 1157.65 37.8091C1158.15 37.6676 1158.6 37.4655 1158.98 37.2027C1159.37 36.9197 1159.66 36.5861 1159.86 36.2021C1160.08 35.818 1160.19 35.3631 1160.19 34.8375V33.7763H1156.25V29.9253H1164.59V41.7207H1160.71V38.3549ZM1171.44 42.0542C1170.53 42.0542 1169.85 41.8319 1169.4 41.3872C1168.98 40.9222 1168.77 40.336 1168.77 39.6285V39.022C1168.77 38.3145 1168.98 37.7384 1169.4 37.2937C1169.85 36.8287 1170.53 36.5962 1171.44 36.5962C1172.35 36.5962 1173.01 36.8287 1173.44 37.2937C1173.88 37.7384 1174.1 38.3145 1174.1 39.022V39.6285C1174.1 40.336 1173.88 40.9222 1173.44 41.3872C1173.01 41.8319 1172.35 42.0542 1171.44 42.0542ZM1185.79 42.0846C1184.36 42.0846 1183.07 41.8622 1181.91 41.4175C1180.76 40.9525 1179.78 40.2753 1178.97 39.3859C1178.16 38.4762 1177.54 37.3543 1177.09 36.0201C1176.65 34.6657 1176.43 33.089 1176.43 31.2898C1176.43 29.5109 1176.65 27.9342 1177.09 26.5596C1177.54 25.1647 1178.16 24.0024 1178.97 23.0725C1179.78 22.1224 1180.76 21.4048 1181.91 20.9196C1183.07 20.4345 1184.36 20.1919 1185.79 20.1919C1187.76 20.1919 1189.37 20.5962 1190.65 21.4048C1191.92 22.1932 1192.94 23.4465 1193.71 25.1647L1189.74 27.2267C1189.45 26.3372 1189.01 25.6297 1188.4 25.1041C1187.82 24.5583 1186.95 24.2854 1185.79 24.2854C1184.44 24.2854 1183.35 24.7301 1182.52 25.6196C1181.71 26.4888 1181.31 27.7624 1181.31 29.4402V32.8363C1181.31 34.5141 1181.71 35.7978 1182.52 36.6872C1183.35 37.5564 1184.44 37.9911 1185.79 37.9911C1186.93 37.9911 1187.83 37.6878 1188.49 37.0814C1189.18 36.4547 1189.69 35.7068 1190.01 34.8375L1193.77 37.0208C1192.98 38.6379 1191.94 39.8913 1190.65 40.7807C1189.37 41.65 1187.76 42.0846 1185.79 42.0846ZM1209.8 41.7207L1208.28 36.6872H1201.22L1199.7 41.7207H1195.03L1202 20.5558H1207.7L1214.59 41.7207H1209.8ZM1204.79 24.7402H1204.64L1202.31 32.7756H1207.16L1204.79 24.7402ZM1224.37 42.0846C1222.51 42.0846 1220.93 41.7712 1219.64 41.1446C1218.34 40.4977 1217.24 39.6689 1216.33 38.6582L1219.37 35.5956C1220.8 37.2128 1222.57 38.0214 1224.67 38.0214C1225.8 38.0214 1226.64 37.7889 1227.19 37.324C1227.73 36.859 1228.01 36.2425 1228.01 35.4743C1228.01 34.8881 1227.85 34.4029 1227.52 34.0188C1227.2 33.6146 1226.54 33.3416 1225.55 33.2001L1223.46 32.9272C1221.22 32.6442 1219.57 31.967 1218.52 30.8957C1217.49 29.8243 1216.97 28.3991 1216.97 26.6202C1216.97 25.6701 1217.15 24.8009 1217.52 24.0125C1217.88 23.2241 1218.4 22.5469 1219.06 21.9809C1219.75 21.4149 1220.58 20.9803 1221.55 20.6771C1222.54 20.3536 1223.66 20.1919 1224.91 20.1919C1226.51 20.1919 1227.92 20.4446 1229.13 20.9499C1230.34 21.4553 1231.38 22.1932 1232.25 23.1635L1229.19 26.2563C1228.68 25.6701 1228.07 25.1951 1227.34 24.8312C1226.63 24.4471 1225.73 24.2551 1224.64 24.2551C1223.61 24.2551 1222.84 24.437 1222.34 24.8009C1221.83 25.1647 1221.58 25.6701 1221.58 26.317C1221.58 27.0447 1221.77 27.5703 1222.15 27.8937C1222.56 28.2172 1223.21 28.4497 1224.1 28.5912L1226.19 28.9247C1228.37 29.2684 1229.99 29.9456 1231.04 30.9563C1232.09 31.9468 1232.62 33.3619 1232.62 35.2014C1232.62 36.2122 1232.43 37.142 1232.07 37.9911C1231.71 38.8401 1231.17 39.5678 1230.46 40.1743C1229.78 40.7807 1228.92 41.2558 1227.89 41.5994C1226.85 41.9229 1225.68 42.0846 1224.37 42.0846ZM1249.11 33.0485H1241.05V41.7207H1236.44V20.5558H1241.05V28.9854H1249.11V20.5558H1253.72V41.7207H1249.11V33.0485ZM1272 31.7144L1269.97 27.4692H1269.88V41.7207H1265.55V20.5558H1270.58L1276.37 30.5621L1278.4 34.8072H1278.49V20.5558H1282.83V41.7207H1277.8L1272 31.7144ZM1300.53 41.7207L1299.01 36.6872H1291.95L1290.43 41.7207H1285.76L1292.73 20.5558H1298.43L1305.32 41.7207H1300.53ZM1295.52 24.7402H1295.37L1293.04 32.7756H1297.89L1295.52 24.7402ZM1331.24 27.8331H1331.15L1329.6 30.926L1325.48 38.4156L1321.45 30.9563L1319.84 27.6208H1319.75V41.7207H1315.41V20.5558H1320.29L1325.48 30.4711H1325.54L1330.66 20.5558H1335.58V41.7207H1331.24V27.8331ZM1339.44 41.7207V38.0517H1342.17V24.2248H1339.44V20.5558H1349.5V24.2248H1346.78V38.0517H1349.5V41.7207H1339.44ZM1344.99 19.2822L1342.32 17.9784L1345.32 12.0958L1349.05 13.9455L1344.99 19.2822ZM1353.34 20.5558H1361.32C1362.71 20.5558 1363.99 20.7781 1365.14 21.2228C1366.29 21.6676 1367.27 22.3347 1368.08 23.2241C1368.89 24.0934 1369.52 25.1951 1369.96 26.5292C1370.41 27.8432 1370.63 29.3795 1370.63 31.1382C1370.63 32.8969 1370.41 34.4434 1369.96 35.7775C1369.52 37.0915 1368.89 38.1932 1368.08 39.0827C1367.27 39.9519 1366.29 40.6089 1365.14 41.0536C1363.99 41.4983 1362.71 41.7207 1361.32 41.7207H1353.34V20.5558ZM1361.32 37.6272C1362.69 37.6272 1363.77 37.2431 1364.56 36.475C1365.35 35.7068 1365.75 34.4737 1365.75 32.7756V29.5008C1365.75 27.8028 1365.35 26.5697 1364.56 25.8015C1363.77 25.0333 1362.69 24.6493 1361.32 24.6493H1357.95V37.6272H1361.32ZM1373.67 41.7207V38.0517H1376.4V24.2248H1373.67V20.5558H1383.74V24.2248H1381.01V38.0517H1383.74V41.7207H1373.67ZM1400.61 41.7207L1399.1 36.6872H1392.03L1390.52 41.7207H1385.85L1392.82 20.5558H1398.52L1405.4 41.7207H1400.61ZM1395.61 24.7402H1395.46L1393.12 32.7756H1397.98L1395.61 24.7402Z" fill="white"/>
<path d="M1415 59.5L1451.58 0.736315" stroke="white"/>
<path d="M1433 59.5L1469.58 0.736315" stroke="white"/>
<path d="M1485.79 31.7144L1483.76 27.4692H1483.67V41.7207H1479.33V20.5558H1484.37L1490.16 30.5621L1492.19 34.8072H1492.28V20.5558H1496.62V41.7207H1491.59L1485.79 31.7144ZM1514.71 38.3549H1514.56C1514.4 39.4263 1513.85 40.3158 1512.92 41.0233C1511.99 41.7308 1510.73 42.0846 1509.13 42.0846C1507.92 42.0846 1506.79 41.8521 1505.73 41.3872C1504.68 40.9222 1503.76 40.2349 1502.98 39.3252C1502.19 38.4156 1501.57 37.2835 1501.13 35.9291C1500.68 34.5748 1500.46 33.0081 1500.46 31.2292C1500.46 29.4503 1500.69 27.8735 1501.16 26.4989C1501.62 25.1243 1502.27 23.9721 1503.1 23.0422C1503.95 22.1123 1504.96 21.4048 1506.13 20.9196C1507.3 20.4345 1508.6 20.1919 1510.04 20.1919C1511.94 20.1919 1513.58 20.6063 1514.95 21.4351C1516.33 22.2437 1517.41 23.4667 1518.2 25.1041L1514.44 27.257C1514.11 26.4282 1513.61 25.7308 1512.92 25.1647C1512.23 24.5785 1511.27 24.2854 1510.04 24.2854C1508.6 24.2854 1507.46 24.6998 1506.61 25.5286C1505.76 26.3574 1505.34 27.6613 1505.34 29.4402V32.8363C1505.34 34.595 1505.76 35.8988 1506.61 36.7479C1507.46 37.5767 1508.6 37.9911 1510.04 37.9911C1510.61 37.9911 1511.14 37.9304 1511.65 37.8091C1512.15 37.6676 1512.6 37.4655 1512.98 37.2027C1513.37 36.9197 1513.66 36.5861 1513.86 36.2021C1514.08 35.818 1514.19 35.3631 1514.19 34.8375V33.7763H1510.25V29.9253H1518.59V41.7207H1514.71V38.3549ZM1525.44 42.0542C1524.53 42.0542 1523.85 41.8319 1523.4 41.3872C1522.98 40.9222 1522.77 40.336 1522.77 39.6285V39.022C1522.77 38.3145 1522.98 37.7384 1523.4 37.2937C1523.85 36.8287 1524.53 36.5962 1525.44 36.5962C1526.35 36.5962 1527.01 36.8287 1527.44 37.2937C1527.88 37.7384 1528.1 38.3145 1528.1 39.022V39.6285C1528.1 40.336 1527.88 40.9222 1527.44 41.3872C1527.01 41.8319 1526.35 42.0542 1525.44 42.0542ZM1539.79 42.0846C1538.36 42.0846 1537.07 41.8622 1535.91 41.4175C1534.76 40.9525 1533.78 40.2753 1532.97 39.3859C1532.16 38.4762 1531.54 37.3543 1531.09 36.0201C1530.65 34.6657 1530.43 33.089 1530.43 31.2898C1530.43 29.5109 1530.65 27.9342 1531.09 26.5596C1531.54 25.1647 1532.16 24.0024 1532.97 23.0725C1533.78 22.1224 1534.76 21.4048 1535.91 20.9196C1537.07 20.4345 1538.36 20.1919 1539.79 20.1919C1541.76 20.1919 1543.37 20.5962 1544.65 21.4048C1545.92 22.1932 1546.94 23.4465 1547.71 25.1647L1543.74 27.2267C1543.45 26.3372 1543.01 25.6297 1542.4 25.1041C1541.82 24.5583 1540.95 24.2854 1539.79 24.2854C1538.44 24.2854 1537.35 24.7301 1536.52 25.6196C1535.71 26.4888 1535.31 27.7624 1535.31 29.4402V32.8363C1535.31 34.5141 1535.71 35.7978 1536.52 36.6872C1537.35 37.5564 1538.44 37.9911 1539.79 37.9911C1540.93 37.9911 1541.83 37.6878 1542.49 37.0814C1543.18 36.4547 1543.69 35.7068 1544.01 34.8375L1547.77 37.0208C1546.98 38.6379 1545.94 39.8913 1544.65 40.7807C1543.37 41.65 1541.76 42.0846 1539.79 42.0846ZM1563.8 41.7207L1562.28 36.6872H1555.22L1553.7 41.7207H1549.03L1556 20.5558H1561.7L1568.59 41.7207H1563.8ZM1558.79 24.7402H1558.64L1556.31 32.7756H1561.16L1558.79 24.7402ZM1578.37 42.0846C1576.51 42.0846 1574.93 41.7712 1573.64 41.1446C1572.34 40.4977 1571.24 39.6689 1570.33 38.6582L1573.37 35.5956C1574.8 37.2128 1576.57 38.0214 1578.67 38.0214C1579.8 38.0214 1580.64 37.7889 1581.19 37.324C1581.73 36.859 1582.01 36.2425 1582.01 35.4743C1582.01 34.8881 1581.85 34.4029 1581.52 34.0188C1581.2 33.6146 1580.54 33.3416 1579.55 33.2001L1577.46 32.9272C1575.22 32.6442 1573.57 31.967 1572.52 30.8957C1571.49 29.8243 1570.97 28.3991 1570.97 26.6202C1570.97 25.6701 1571.15 24.8009 1571.52 24.0125C1571.88 23.2241 1572.4 22.5469 1573.06 21.9809C1573.75 21.4149 1574.58 20.9803 1575.55 20.6771C1576.54 20.3536 1577.66 20.1919 1578.91 20.1919C1580.51 20.1919 1581.92 20.4446 1583.13 20.9499C1584.34 21.4553 1585.38 22.1932 1586.25 23.1635L1583.19 26.2563C1582.68 25.6701 1582.07 25.1951 1581.34 24.8312C1580.63 24.4471 1579.73 24.2551 1578.64 24.2551C1577.61 24.2551 1576.84 24.437 1576.34 24.8009C1575.83 25.1647 1575.58 25.6701 1575.58 26.317C1575.58 27.0447 1575.77 27.5703 1576.15 27.8937C1576.56 28.2172 1577.21 28.4497 1578.1 28.5912L1580.19 28.9247C1582.37 29.2684 1583.99 29.9456 1585.04 30.9563C1586.09 31.9468 1586.62 33.3619 1586.62 35.2014C1586.62 36.2122 1586.43 37.142 1586.07 37.9911C1585.71 38.8401 1585.17 39.5678 1584.46 40.1743C1583.78 40.7807 1582.92 41.2558 1581.89 41.5994C1580.85 41.9229 1579.68 42.0846 1578.37 42.0846ZM1603.11 33.0485H1595.05V41.7207H1590.44V20.5558H1595.05V28.9854H1603.11V20.5558H1607.72V41.7207H1603.11V33.0485ZM1626 31.7144L1623.97 27.4692H1623.88V41.7207H1619.55V20.5558H1624.58L1630.37 30.5621L1632.4 34.8072H1632.49V20.5558H1636.83V41.7207H1631.8L1626 31.7144ZM1654.53 41.7207L1653.01 36.6872H1645.95L1644.43 41.7207H1639.76L1646.73 20.5558H1652.43L1659.32 41.7207H1654.53ZM1649.52 24.7402H1649.37L1647.04 32.7756H1651.89L1649.52 24.7402ZM1685.24 27.8331H1685.15L1683.6 30.926L1679.48 38.4156L1675.45 30.9563L1673.84 27.6208H1673.75V41.7207H1669.41V20.5558H1674.29L1679.48 30.4711H1679.54L1684.66 20.5558H1689.58V41.7207H1685.24V27.8331ZM1693.44 41.7207V38.0517H1696.17V24.2248H1693.44V20.5558H1703.5V24.2248H1700.78V38.0517H1703.5V41.7207H1693.44ZM1698.99 19.2822L1696.32 17.9784L1699.32 12.0958L1703.05 13.9455L1698.99 19.2822ZM1707.34 20.5558H1715.32C1716.71 20.5558 1717.99 20.7781 1719.14 21.2228C1720.29 21.6676 1721.27 22.3347 1722.08 23.2241C1722.89 24.0934 1723.52 25.1951 1723.96 26.5292C1724.41 27.8432 1724.63 29.3795 1724.63 31.1382C1724.63 32.8969 1724.41 34.4434 1723.96 35.7775C1723.52 37.0915 1722.89 38.1932 1722.08 39.0827C1721.27 39.9519 1720.29 40.6089 1719.14 41.0536C1717.99 41.4983 1716.71 41.7207 1715.32 41.7207H1707.34V20.5558ZM1715.32 37.6272C1716.69 37.6272 1717.77 37.2431 1718.56 36.475C1719.35 35.7068 1719.75 34.4737 1719.75 32.7756V29.5008C1719.75 27.8028 1719.35 26.5697 1718.56 25.8015C1717.77 25.0333 1716.69 24.6493 1715.32 24.6493H1711.95V37.6272H1715.32ZM1727.67 41.7207V38.0517H1730.4V24.2248H1727.67V20.5558H1737.74V24.2248H1735.01V38.0517H1737.74V41.7207H1727.67ZM1754.61 41.7207L1753.1 36.6872H1746.03L1744.52 41.7207H1739.85L1746.82 20.5558H1752.52L1759.4 41.7207H1754.61ZM1749.61 24.7402H1749.46L1747.12 32.7756H1751.98L1749.61 24.7402Z" fill="white"/>
<path d="M1769 59.5L1805.58 0.736315" stroke="white"/>
<path d="M1787 59.5L1823.58 0.736315" stroke="white"/>
<path d="M1839.79 31.7144L1837.76 27.4692H1837.67V41.7207H1833.33V20.5558H1838.37L1844.16 30.5621L1846.19 34.8072H1846.28V20.5558H1850.62V41.7207H1845.59L1839.79 31.7144ZM1868.71 38.3549H1868.56C1868.4 39.4263 1867.85 40.3158 1866.92 41.0233C1865.99 41.7308 1864.73 42.0846 1863.13 42.0846C1861.92 42.0846 1860.79 41.8521 1859.73 41.3872C1858.68 40.9222 1857.76 40.2349 1856.98 39.3252C1856.19 38.4156 1855.57 37.2835 1855.13 35.9291C1854.68 34.5748 1854.46 33.0081 1854.46 31.2292C1854.46 29.4503 1854.69 27.8735 1855.16 26.4989C1855.62 25.1243 1856.27 23.9721 1857.1 23.0422C1857.95 22.1123 1858.96 21.4048 1860.13 20.9196C1861.3 20.4345 1862.6 20.1919 1864.04 20.1919C1865.94 20.1919 1867.58 20.6063 1868.95 21.4351C1870.33 22.2437 1871.41 23.4667 1872.2 25.1041L1868.44 27.257C1868.11 26.4282 1867.61 25.7308 1866.92 25.1647C1866.23 24.5785 1865.27 24.2854 1864.04 24.2854C1862.6 24.2854 1861.46 24.6998 1860.61 25.5286C1859.76 26.3574 1859.34 27.6613 1859.34 29.4402V32.8363C1859.34 34.595 1859.76 35.8988 1860.61 36.7479C1861.46 37.5767 1862.6 37.9911 1864.04 37.9911C1864.61 37.9911 1865.14 37.9304 1865.65 37.8091C1866.15 37.6676 1866.6 37.4655 1866.98 37.2027C1867.37 36.9197 1867.66 36.5861 1867.86 36.2021C1868.08 35.818 1868.19 35.3631 1868.19 34.8375V33.7763H1864.25V29.9253H1872.59V41.7207H1868.71V38.3549ZM1879.44 42.0542C1878.53 42.0542 1877.85 41.8319 1877.4 41.3872C1876.98 40.9222 1876.77 40.336 1876.77 39.6285V39.022C1876.77 38.3145 1876.98 37.7384 1877.4 37.2937C1877.85 36.8287 1878.53 36.5962 1879.44 36.5962C1880.35 36.5962 1881.01 36.8287 1881.44 37.2937C1881.88 37.7384 1882.1 38.3145 1882.1 39.022V39.6285C1882.1 40.336 1881.88 40.9222 1881.44 41.3872C1881.01 41.8319 1880.35 42.0542 1879.44 42.0542ZM1893.79 42.0846C1892.36 42.0846 1891.07 41.8622 1889.91 41.4175C1888.76 40.9525 1887.78 40.2753 1886.97 39.3859C1886.16 38.4762 1885.54 37.3543 1885.09 36.0201C1884.65 34.6657 1884.43 33.089 1884.43 31.2898C1884.43 29.5109 1884.65 27.9342 1885.09 26.5596C1885.54 25.1647 1886.16 24.0024 1886.97 23.0725C1887.78 22.1224 1888.76 21.4048 1889.91 20.9196C1891.07 20.4345 1892.36 20.1919 1893.79 20.1919C1895.76 20.1919 1897.37 20.5962 1898.65 21.4048C1899.92 22.1932 1900.94 23.4465 1901.71 25.1647L1897.74 27.2267C1897.45 26.3372 1897.01 25.6297 1896.4 25.1041C1895.82 24.5583 1894.95 24.2854 1893.79 24.2854C1892.44 24.2854 1891.35 24.7301 1890.52 25.6196C1889.71 26.4888 1889.31 27.7624 1889.31 29.4402V32.8363C1889.31 34.5141 1889.71 35.7978 1890.52 36.6872C1891.35 37.5564 1892.44 37.9911 1893.79 37.9911C1894.93 37.9911 1895.83 37.6878 1896.49 37.0814C1897.18 36.4547 1897.69 35.7068 1898.01 34.8375L1901.77 37.0208C1900.98 38.6379 1899.94 39.8913 1898.65 40.7807C1897.37 41.65 1895.76 42.0846 1893.79 42.0846ZM1917.8 41.7207L1916.28 36.6872H1909.22L1907.7 41.7207H1903.03L1910 20.5558H1915.7L1922.59 41.7207H1917.8ZM1912.79 24.7402H1912.64L1910.31 32.7756H1915.16L1912.79 24.7402ZM1932.37 42.0846C1930.51 42.0846 1928.93 41.7712 1927.64 41.1446C1926.34 40.4977 1925.24 39.6689 1924.33 38.6582L1927.37 35.5956C1928.8 37.2128 1930.57 38.0214 1932.67 38.0214C1933.8 38.0214 1934.64 37.7889 1935.19 37.324C1935.73 36.859 1936.01 36.2425 1936.01 35.4743C1936.01 34.8881 1935.85 34.4029 1935.52 34.0188C1935.2 33.6146 1934.54 33.3416 1933.55 33.2001L1931.46 32.9272C1929.22 32.6442 1927.57 31.967 1926.52 30.8957C1925.49 29.8243 1924.97 28.3991 1924.97 26.6202C1924.97 25.6701 1925.15 24.8009 1925.52 24.0125C1925.88 23.2241 1926.4 22.5469 1927.06 21.9809C1927.75 21.4149 1928.58 20.9803 1929.55 20.6771C1930.54 20.3536 1931.66 20.1919 1932.91 20.1919C1934.51 20.1919 1935.92 20.4446 1937.13 20.9499C1938.34 21.4553 1939.38 22.1932 1940.25 23.1635L1937.19 26.2563C1936.68 25.6701 1936.07 25.1951 1935.34 24.8312C1934.63 24.4471 1933.73 24.2551 1932.64 24.2551C1931.61 24.2551 1930.84 24.437 1930.34 24.8009C1929.83 25.1647 1929.58 25.6701 1929.58 26.317C1929.58 27.0447 1929.77 27.5703 1930.15 27.8937C1930.56 28.2172 1931.21 28.4497 1932.1 28.5912L1934.19 28.9247C1936.37 29.2684 1937.99 29.9456 1939.04 30.9563C1940.09 31.9468 1940.62 33.3619 1940.62 35.2014C1940.62 36.2122 1940.43 37.142 1940.07 37.9911C1939.71 38.8401 1939.17 39.5678 1938.46 40.1743C1937.78 40.7807 1936.92 41.2558 1935.89 41.5994C1934.85 41.9229 1933.68 42.0846 1932.37 42.0846ZM1957.11 33.0485H1949.05V41.7207H1944.44V20.5558H1949.05V28.9854H1957.11V20.5558H1961.72V41.7207H1957.11V33.0485ZM1980 31.7144L1977.97 27.4692H1977.88V41.7207H1973.55V20.5558H1978.58L1984.37 30.5621L1986.4 34.8072H1986.49V20.5558H1990.83V41.7207H1985.8L1980 31.7144ZM2008.53 41.7207L2007.01 36.6872H1999.95L1998.43 41.7207H1993.76L2000.73 20.5558H2006.43L2013.32 41.7207H2008.53ZM2003.52 24.7402H2003.37L2001.04 32.7756H2005.89L2003.52 24.7402ZM2039.24 27.8331H2039.15L2037.6 30.926L2033.48 38.4156L2029.45 30.9563L2027.84 27.6208H2027.75V41.7207H2023.41V20.5558H2028.29L2033.48 30.4711H2033.54L2038.66 20.5558H2043.58V41.7207H2039.24V27.8331ZM2047.44 41.7207V38.0517H2050.17V24.2248H2047.44V20.5558H2057.5V24.2248H2054.78V38.0517H2057.5V41.7207H2047.44ZM2052.99 19.2822L2050.32 17.9784L2053.32 12.0958L2057.05 13.9455L2052.99 19.2822ZM2061.34 20.5558H2069.32C2070.71 20.5558 2071.99 20.7781 2073.14 21.2228C2074.29 21.6676 2075.27 22.3347 2076.08 23.2241C2076.89 24.0934 2077.52 25.1951 2077.96 26.5292C2078.41 27.8432 2078.63 29.3795 2078.63 31.1382C2078.63 32.8969 2078.41 34.4434 2077.96 35.7775C2077.52 37.0915 2076.89 38.1932 2076.08 39.0827C2075.27 39.9519 2074.29 40.6089 2073.14 41.0536C2071.99 41.4983 2070.71 41.7207 2069.32 41.7207H2061.34V20.5558ZM2069.32 37.6272C2070.69 37.6272 2071.77 37.2431 2072.56 36.475C2073.35 35.7068 2073.75 34.4737 2073.75 32.7756V29.5008C2073.75 27.8028 2073.35 26.5697 2072.56 25.8015C2071.77 25.0333 2070.69 24.6493 2069.32 24.6493H2065.95V37.6272H2069.32ZM2081.67 41.7207V38.0517H2084.4V24.2248H2081.67V20.5558H2091.74V24.2248H2089.01V38.0517H2091.74V41.7207H2081.67ZM2108.61 41.7207L2107.1 36.6872H2100.03L2098.52 41.7207H2093.85L2100.82 20.5558H2106.52L2113.4 41.7207H2108.61ZM2103.61 24.7402H2103.46L2101.12 32.7756H2105.98L2103.61 24.7402Z" fill="white"/>
<path d="M2123 59.5L2159.58 0.736315" stroke="white"/>
<path d="M2141 59.5L2177.58 0.736315" stroke="white"/>
</svg>
