<svg width="198" height="246" viewBox="0 0 198 246" fill="none" xmlns="http://www.w3.org/2000/svg">
<g clip-path="url(#clip0_13_1603)">
<rect x="18" y="73" width="162" height="162" fill="black"/>
<path d="M24.482 73H18V79.482H24.482V73Z" fill="white"/>
<path d="M30.9636 73H24.4816V79.482H30.9636V73Z" fill="white"/>
<path d="M37.442 73H30.96V79.482H37.442V73Z" fill="white"/>
<path d="M43.9234 73H37.4414V79.482H43.9234V73Z" fill="white"/>
<path d="M50.4011 73H43.9191V79.482H50.4011V73Z" fill="white"/>
<path d="M56.8824 73H50.4004V79.482H56.8824V73Z" fill="white"/>
<path d="M63.3607 73H56.8787V79.482H63.3607V73Z" fill="white"/>
<path d="M76.3199 73H69.8379V79.482H76.3199V73Z" fill="white"/>
<path d="M89.2787 73H82.7967V79.482H89.2787V73Z" fill="white"/>
<path d="M95.7614 73H89.2794V79.482H95.7614V73Z" fill="white"/>
<path d="M102.243 73H95.7607V79.482H102.243V73Z" fill="white"/>
<path d="M108.721 73H102.239V79.482H108.721V73Z" fill="white"/>
<path d="M115.204 73H108.722V79.482H115.204V73Z" fill="white"/>
<path d="M141.122 73H134.64V79.482H141.122V73Z" fill="white"/>
<path d="M147.6 73H141.118V79.482H147.6V73Z" fill="white"/>
<path d="M154.082 73H147.6V79.482H154.082V73Z" fill="white"/>
<path d="M160.558 73H154.076V79.482H160.558V73Z" fill="white"/>
<path d="M167.041 73H160.559V79.482H167.041V73Z" fill="white"/>
<path d="M173.519 73H167.037V79.482H173.519V73Z" fill="white"/>
<path d="M180 73H173.518V79.482H180V73Z" fill="white"/>
<path d="M24.482 79.482H18V85.964H24.482V79.482Z" fill="white"/>
<path d="M63.3607 79.482H56.8787V85.964H63.3607V79.482Z" fill="white"/>
<path d="M82.8023 79.482H76.3203V85.964H82.8023V79.482Z" fill="white"/>
<path d="M89.2787 79.482H82.7967V85.964H89.2787V79.482Z" fill="white"/>
<path d="M102.243 79.482H95.7607V85.964H102.243V79.482Z" fill="white"/>
<path d="M108.721 79.482H102.239V85.964H108.721V79.482Z" fill="white"/>
<path d="M128.162 79.482H121.68V85.964H128.162V79.482Z" fill="white"/>
<path d="M141.122 79.482H134.64V85.964H141.122V79.482Z" fill="white"/>
<path d="M180 79.482H173.518V85.964H180V79.482Z" fill="white"/>
<path d="M24.482 85.9595H18V92.4415H24.482V85.9595Z" fill="white"/>
<path d="M37.442 85.9595H30.96V92.4415H37.442V85.9595Z" fill="white"/>
<path d="M43.9234 85.9595H37.4414V92.4415H43.9234V85.9595Z" fill="white"/>
<path d="M50.4011 85.9595H43.9191V92.4415H50.4011V85.9595Z" fill="white"/>
<path d="M63.3607 85.9595H56.8787V92.4415H63.3607V85.9595Z" fill="white"/>
<path d="M89.2787 85.9595H82.7967V92.4415H89.2787V85.9595Z" fill="white"/>
<path d="M102.243 85.9595H95.7607V92.4415H102.243V85.9595Z" fill="white"/>
<path d="M108.721 85.9595H102.239V92.4415H108.721V85.9595Z" fill="white"/>
<path d="M128.162 85.9595H121.68V92.4415H128.162V85.9595Z" fill="white"/>
<path d="M141.122 85.9595H134.64V92.4415H141.122V85.9595Z" fill="white"/>
<path d="M154.082 85.9595H147.6V92.4415H154.082V85.9595Z" fill="white"/>
<path d="M160.558 85.9595H154.076V92.4415H160.558V85.9595Z" fill="white"/>
<path d="M167.041 85.9595H160.559V92.4415H167.041V85.9595Z" fill="white"/>
<path d="M180 85.9595H173.518V92.4415H180V85.9595Z" fill="white"/>
<path d="M24.482 92.4415H18V98.9235H24.482V92.4415Z" fill="white"/>
<path d="M37.442 92.4415H30.96V98.9235H37.442V92.4415Z" fill="white"/>
<path d="M43.9234 92.4415H37.4414V98.9235H43.9234V92.4415Z" fill="white"/>
<path d="M50.4011 92.4415H43.9191V98.9235H50.4011V92.4415Z" fill="white"/>
<path d="M63.3607 92.4415H56.8787V98.9235H63.3607V92.4415Z" fill="white"/>
<path d="M108.721 92.4415H102.239V98.9235H108.721V92.4415Z" fill="white"/>
<path d="M128.162 92.4415H121.68V98.9235H128.162V92.4415Z" fill="white"/>
<path d="M141.122 92.4415H134.64V98.9235H141.122V92.4415Z" fill="white"/>
<path d="M154.082 92.4415H147.6V98.9235H154.082V92.4415Z" fill="white"/>
<path d="M160.558 92.4415H154.076V98.9235H160.558V92.4415Z" fill="white"/>
<path d="M167.041 92.4415H160.559V98.9235H167.041V92.4415Z" fill="white"/>
<path d="M180 92.4415H173.518V98.9235H180V92.4415Z" fill="white"/>
<path d="M24.482 98.9189H18V105.401H24.482V98.9189Z" fill="white"/>
<path d="M37.442 98.9189H30.96V105.401H37.442V98.9189Z" fill="white"/>
<path d="M43.9234 98.9189H37.4414V105.401H43.9234V98.9189Z" fill="white"/>
<path d="M50.4011 98.9189H43.9191V105.401H50.4011V98.9189Z" fill="white"/>
<path d="M63.3607 98.9189H56.8787V105.401H63.3607V98.9189Z" fill="white"/>
<path d="M82.8023 98.9189H76.3203V105.401H82.8023V98.9189Z" fill="white"/>
<path d="M108.721 98.9189H102.239V105.401H108.721V98.9189Z" fill="white"/>
<path d="M115.204 98.9189H108.722V105.401H115.204V98.9189Z" fill="white"/>
<path d="M141.122 98.9189H134.64V105.401H141.122V98.9189Z" fill="white"/>
<path d="M154.082 98.9189H147.6V105.401H154.082V98.9189Z" fill="white"/>
<path d="M160.558 98.9189H154.076V105.401H160.558V98.9189Z" fill="white"/>
<path d="M167.041 98.9189H160.559V105.401H167.041V98.9189Z" fill="white"/>
<path d="M180 98.9189H173.518V105.401H180V98.9189Z" fill="white"/>
<path d="M24.482 105.401H18V111.883H24.482V105.401Z" fill="white"/>
<path d="M63.3607 105.401H56.8787V111.883H63.3607V105.401Z" fill="white"/>
<path d="M89.2787 105.401H82.7967V111.883H89.2787V105.401Z" fill="white"/>
<path d="M95.7614 105.401H89.2794V111.883H95.7614V105.401Z" fill="white"/>
<path d="M102.243 105.401H95.7607V111.883H102.243V105.401Z" fill="white"/>
<path d="M108.721 105.401H102.239V111.883H108.721V105.401Z" fill="white"/>
<path d="M115.204 105.401H108.722V111.883H115.204V105.401Z" fill="white"/>
<path d="M141.122 105.401H134.64V111.883H141.122V105.401Z" fill="white"/>
<path d="M180 105.401H173.518V111.883H180V105.401Z" fill="white"/>
<path d="M24.482 111.878H18V118.36H24.482V111.878Z" fill="white"/>
<path d="M30.9636 111.878H24.4816V118.36H30.9636V111.878Z" fill="white"/>
<path d="M37.442 111.878H30.96V118.36H37.442V111.878Z" fill="white"/>
<path d="M43.9234 111.878H37.4414V118.36H43.9234V111.878Z" fill="white"/>
<path d="M50.4011 111.878H43.9191V118.36H50.4011V111.878Z" fill="white"/>
<path d="M56.8824 111.878H50.4004V118.36H56.8824V111.878Z" fill="white"/>
<path d="M63.3607 111.878H56.8787V118.36H63.3607V111.878Z" fill="white"/>
<path d="M76.3199 111.878H69.8379V118.36H76.3199V111.878Z" fill="white"/>
<path d="M89.2787 111.878H82.7967V118.36H89.2787V111.878Z" fill="white"/>
<path d="M102.243 111.878H95.7607V118.36H102.243V111.878Z" fill="white"/>
<path d="M115.204 111.878H108.722V118.36H115.204V111.878Z" fill="white"/>
<path d="M128.162 111.878H121.68V118.36H128.162V111.878Z" fill="white"/>
<path d="M141.122 111.878H134.64V118.36H141.122V111.878Z" fill="white"/>
<path d="M147.6 111.878H141.118V118.36H147.6V111.878Z" fill="white"/>
<path d="M154.082 111.878H147.6V118.36H154.082V111.878Z" fill="white"/>
<path d="M160.558 111.878H154.076V118.36H160.558V111.878Z" fill="white"/>
<path d="M167.041 111.878H160.559V118.36H167.041V111.878Z" fill="white"/>
<path d="M173.519 111.878H167.037V118.36H173.519V111.878Z" fill="white"/>
<path d="M180 111.878H173.518V118.36H180V111.878Z" fill="white"/>
<path d="M76.3199 118.36H69.8379V124.842H76.3199V118.36Z" fill="white"/>
<path d="M89.2787 118.36H82.7967V124.842H89.2787V118.36Z" fill="white"/>
<path d="M102.243 118.36H95.7607V124.842H102.243V118.36Z" fill="white"/>
<path d="M108.721 118.36H102.239V124.842H108.721V118.36Z" fill="white"/>
<path d="M121.68 118.36H115.198V124.842H121.68V118.36Z" fill="white"/>
<path d="M128.162 118.36H121.68V124.842H128.162V118.36Z" fill="white"/>
<path d="M24.482 124.838H18V131.32H24.482V124.838Z" fill="white"/>
<path d="M30.9636 124.838H24.4816V131.32H30.9636V124.838Z" fill="white"/>
<path d="M43.9234 124.838H37.4414V131.32H43.9234V124.838Z" fill="white"/>
<path d="M50.4011 124.838H43.9191V131.32H50.4011V124.838Z" fill="white"/>
<path d="M63.3607 124.838H56.8787V131.32H63.3607V124.838Z" fill="white"/>
<path d="M82.8023 124.838H76.3203V131.32H82.8023V124.838Z" fill="white"/>
<path d="M89.2787 124.838H82.7967V131.32H89.2787V124.838Z" fill="white"/>
<path d="M115.204 124.838H108.722V131.32H115.204V124.838Z" fill="white"/>
<path d="M128.162 124.838H121.68V131.32H128.162V124.838Z" fill="white"/>
<path d="M141.122 124.838H134.64V131.32H141.122V124.838Z" fill="white"/>
<path d="M180 124.838H173.518V131.32H180V124.838Z" fill="white"/>
<path d="M24.482 131.32H18V137.802H24.482V131.32Z" fill="white"/>
<path d="M56.8824 131.32H50.4004V137.802H56.8824V131.32Z" fill="white"/>
<path d="M69.8423 131.32H63.3603V137.802H69.8423V131.32Z" fill="white"/>
<path d="M82.8023 131.32H76.3203V137.802H82.8023V131.32Z" fill="white"/>
<path d="M95.7614 131.32H89.2794V137.802H95.7614V131.32Z" fill="white"/>
<path d="M121.68 131.32H115.198V137.802H121.68V131.32Z" fill="white"/>
<path d="M128.162 131.32H121.68V137.802H128.162V131.32Z" fill="white"/>
<path d="M147.6 131.32H141.118V137.802H147.6V131.32Z" fill="white"/>
<path d="M154.082 131.32H147.6V137.802H154.082V131.32Z" fill="white"/>
<path d="M160.558 131.32H154.076V137.802H160.558V131.32Z" fill="white"/>
<path d="M167.041 131.32H160.559V137.802H167.041V131.32Z" fill="white"/>
<path d="M173.519 131.32H167.037V137.802H173.519V131.32Z" fill="white"/>
<path d="M24.482 137.797H18V144.279H24.482V137.797Z" fill="white"/>
<path d="M43.9234 137.797H37.4414V144.279H43.9234V137.797Z" fill="white"/>
<path d="M56.8824 137.797H50.4004V144.279H56.8824V137.797Z" fill="white"/>
<path d="M63.3607 137.797H56.8787V144.279H63.3607V137.797Z" fill="white"/>
<path d="M76.3199 137.797H69.8379V144.279H76.3199V137.797Z" fill="white"/>
<path d="M89.2787 137.797H82.7967V144.279H89.2787V137.797Z" fill="white"/>
<path d="M95.7614 137.797H89.2794V144.279H95.7614V137.797Z" fill="white"/>
<path d="M108.721 137.797H102.239V144.279H108.721V137.797Z" fill="white"/>
<path d="M121.68 137.797H115.198V144.279H121.68V137.797Z" fill="white"/>
<path d="M141.122 137.797H134.64V144.279H141.122V137.797Z" fill="white"/>
<path d="M160.558 137.797H154.076V144.279H160.558V137.797Z" fill="white"/>
<path d="M180 137.797H173.518V144.279H180V137.797Z" fill="white"/>
<path d="M30.9636 144.279H24.4816V150.761H30.9636V144.279Z" fill="white"/>
<path d="M37.442 144.279H30.96V150.761H37.442V144.279Z" fill="white"/>
<path d="M43.9234 144.279H37.4414V150.761H43.9234V144.279Z" fill="white"/>
<path d="M56.8824 144.279H50.4004V150.761H56.8824V144.279Z" fill="white"/>
<path d="M82.8023 144.279H76.3203V150.761H82.8023V144.279Z" fill="white"/>
<path d="M89.2787 144.279H82.7967V150.761H89.2787V144.279Z" fill="white"/>
<path d="M95.7614 144.279H89.2794V150.761H95.7614V144.279Z" fill="white"/>
<path d="M102.243 144.279H95.7607V150.761H102.243V144.279Z" fill="white"/>
<path d="M115.204 144.279H108.722V150.761H115.204V144.279Z" fill="white"/>
<path d="M128.162 144.279H121.68V150.761H128.162V144.279Z" fill="white"/>
<path d="M147.6 144.279H141.118V150.761H147.6V144.279Z" fill="white"/>
<path d="M154.082 144.279H147.6V150.761H154.082V144.279Z" fill="white"/>
<path d="M160.558 144.279H154.076V150.761H160.558V144.279Z" fill="white"/>
<path d="M167.041 144.279H160.559V150.761H167.041V144.279Z" fill="white"/>
<path d="M173.519 144.279H167.037V150.761H173.519V144.279Z" fill="white"/>
<path d="M180 144.279H173.518V150.761H180V144.279Z" fill="white"/>
<path d="M30.9636 150.761H24.4816V157.243H30.9636V150.761Z" fill="white"/>
<path d="M37.442 150.761H30.96V157.243H37.442V150.761Z" fill="white"/>
<path d="M50.4011 150.761H43.9191V157.243H50.4011V150.761Z" fill="white"/>
<path d="M56.8824 150.761H50.4004V157.243H56.8824V150.761Z" fill="white"/>
<path d="M63.3607 150.761H56.8787V157.243H63.3607V150.761Z" fill="white"/>
<path d="M69.8423 150.761H63.3603V157.243H69.8423V150.761Z" fill="white"/>
<path d="M82.8023 150.761H76.3203V157.243H82.8023V150.761Z" fill="white"/>
<path d="M95.7614 150.761H89.2794V157.243H95.7614V150.761Z" fill="white"/>
<path d="M102.243 150.761H95.7607V157.243H102.243V150.761Z" fill="white"/>
<path d="M128.162 150.761H121.68V157.243H128.162V150.761Z" fill="white"/>
<path d="M134.64 150.761H128.158V157.243H134.64V150.761Z" fill="white"/>
<path d="M141.122 150.761H134.64V157.243H141.122V150.761Z" fill="white"/>
<path d="M147.6 150.761H141.118V157.243H147.6V150.761Z" fill="white"/>
<path d="M180 150.761H173.518V157.243H180V150.761Z" fill="white"/>
<path d="M24.482 157.239H18V163.721H24.482V157.239Z" fill="white"/>
<path d="M37.442 157.239H30.96V163.721H37.442V157.239Z" fill="white"/>
<path d="M43.9234 157.239H37.4414V163.721H43.9234V157.239Z" fill="white"/>
<path d="M50.4011 157.239H43.9191V163.721H50.4011V157.239Z" fill="white"/>
<path d="M76.3199 157.239H69.8379V163.721H76.3199V157.239Z" fill="white"/>
<path d="M82.8023 157.239H76.3203V163.721H82.8023V157.239Z" fill="white"/>
<path d="M95.7614 157.239H89.2794V163.721H95.7614V157.239Z" fill="white"/>
<path d="M115.204 157.239H108.722V163.721H115.204V157.239Z" fill="white"/>
<path d="M121.68 157.239H115.198V163.721H121.68V157.239Z" fill="white"/>
<path d="M128.162 157.239H121.68V163.721H128.162V157.239Z" fill="white"/>
<path d="M154.082 157.239H147.6V163.721H154.082V157.239Z" fill="white"/>
<path d="M173.519 157.239H167.037V163.721H173.519V157.239Z" fill="white"/>
<path d="M24.482 163.721H18V170.203H24.482V163.721Z" fill="white"/>
<path d="M30.9636 163.721H24.4816V170.203H30.9636V163.721Z" fill="white"/>
<path d="M37.442 163.721H30.96V170.203H37.442V163.721Z" fill="white"/>
<path d="M43.9234 163.721H37.4414V170.203H43.9234V163.721Z" fill="white"/>
<path d="M63.3607 163.721H56.8787V170.203H63.3607V163.721Z" fill="white"/>
<path d="M82.8023 163.721H76.3203V170.203H82.8023V163.721Z" fill="white"/>
<path d="M115.204 163.721H108.722V170.203H115.204V163.721Z" fill="white"/>
<path d="M121.68 163.721H115.198V170.203H121.68V163.721Z" fill="white"/>
<path d="M134.64 163.721H128.158V170.203H134.64V163.721Z" fill="white"/>
<path d="M154.082 163.721H147.6V170.203H154.082V163.721Z" fill="white"/>
<path d="M160.558 163.721H154.076V170.203H160.558V163.721Z" fill="white"/>
<path d="M167.041 163.721H160.559V170.203H167.041V163.721Z" fill="white"/>
<path d="M173.519 163.721H167.037V170.203H173.519V163.721Z" fill="white"/>
<path d="M180 163.721H173.518V170.203H180V163.721Z" fill="white"/>
<path d="M24.482 170.198H18V176.68H24.482V170.198Z" fill="white"/>
<path d="M43.9234 170.198H37.4414V176.68H43.9234V170.198Z" fill="white"/>
<path d="M50.4011 170.198H43.9191V176.68H50.4011V170.198Z" fill="white"/>
<path d="M69.8423 170.198H63.3603V176.68H69.8423V170.198Z" fill="white"/>
<path d="M89.2787 170.198H82.7967V176.68H89.2787V170.198Z" fill="white"/>
<path d="M115.204 170.198H108.722V176.68H115.204V170.198Z" fill="white"/>
<path d="M121.68 170.198H115.198V176.68H121.68V170.198Z" fill="white"/>
<path d="M128.162 170.198H121.68V176.68H128.162V170.198Z" fill="white"/>
<path d="M147.6 170.198H141.118V176.68H147.6V170.198Z" fill="white"/>
<path d="M160.558 170.198H154.076V176.68H160.558V170.198Z" fill="white"/>
<path d="M167.041 170.198H160.559V176.68H167.041V170.198Z" fill="white"/>
<path d="M180 170.198H173.518V176.68H180V170.198Z" fill="white"/>
<path d="M24.482 176.68H18V183.162H24.482V176.68Z" fill="white"/>
<path d="M63.3607 176.68H56.8787V183.162H63.3607V176.68Z" fill="white"/>
<path d="M69.8423 176.68H63.3603V183.162H69.8423V176.68Z" fill="white"/>
<path d="M76.3199 176.68H69.8379V183.162H76.3199V176.68Z" fill="white"/>
<path d="M89.2787 176.68H82.7967V183.162H89.2787V176.68Z" fill="white"/>
<path d="M102.243 176.68H95.7607V183.162H102.243V176.68Z" fill="white"/>
<path d="M108.721 176.68H102.239V183.162H108.721V176.68Z" fill="white"/>
<path d="M121.68 176.68H115.198V183.162H121.68V176.68Z" fill="white"/>
<path d="M128.162 176.68H121.68V183.162H128.162V176.68Z" fill="white"/>
<path d="M134.64 176.68H128.158V183.162H134.64V176.68Z" fill="white"/>
<path d="M141.122 176.68H134.64V183.162H141.122V176.68Z" fill="white"/>
<path d="M147.6 176.68H141.118V183.162H147.6V176.68Z" fill="white"/>
<path d="M154.082 176.68H147.6V183.162H154.082V176.68Z" fill="white"/>
<path d="M167.041 176.68H160.559V183.162H167.041V176.68Z" fill="white"/>
<path d="M173.519 176.68H167.037V183.162H173.519V176.68Z" fill="white"/>
<path d="M76.3199 183.158H69.8379V189.64H76.3199V183.158Z" fill="white"/>
<path d="M82.8023 183.158H76.3203V189.64H82.8023V183.158Z" fill="white"/>
<path d="M89.2787 183.158H82.7967V189.64H89.2787V183.158Z" fill="white"/>
<path d="M102.243 183.158H95.7607V189.64H102.243V183.158Z" fill="white"/>
<path d="M108.721 183.158H102.239V189.64H108.721V183.158Z" fill="white"/>
<path d="M121.68 183.158H115.198V189.64H121.68V183.158Z" fill="white"/>
<path d="M128.162 183.158H121.68V189.64H128.162V183.158Z" fill="white"/>
<path d="M154.082 183.158H147.6V189.64H154.082V183.158Z" fill="white"/>
<path d="M167.041 183.158H160.559V189.64H167.041V183.158Z" fill="white"/>
<path d="M173.519 183.158H167.037V189.64H173.519V183.158Z" fill="white"/>
<path d="M24.482 189.64H18V196.122H24.482V189.64Z" fill="white"/>
<path d="M30.9636 189.64H24.4816V196.122H30.9636V189.64Z" fill="white"/>
<path d="M37.442 189.64H30.96V196.122H37.442V189.64Z" fill="white"/>
<path d="M43.9234 189.64H37.4414V196.122H43.9234V189.64Z" fill="white"/>
<path d="M50.4011 189.64H43.9191V196.122H50.4011V189.64Z" fill="white"/>
<path d="M56.8824 189.64H50.4004V196.122H56.8824V189.64Z" fill="white"/>
<path d="M63.3607 189.64H56.8787V196.122H63.3607V189.64Z" fill="white"/>
<path d="M82.8023 189.64H76.3203V196.122H82.8023V189.64Z" fill="white"/>
<path d="M95.7614 189.64H89.2794V196.122H95.7614V189.64Z" fill="white"/>
<path d="M102.243 189.64H95.7607V196.122H102.243V189.64Z" fill="white"/>
<path d="M108.721 189.64H102.239V196.122H108.721V189.64Z" fill="white"/>
<path d="M128.162 189.64H121.68V196.122H128.162V189.64Z" fill="white"/>
<path d="M141.122 189.64H134.64V196.122H141.122V189.64Z" fill="white"/>
<path d="M154.082 189.64H147.6V196.122H154.082V189.64Z" fill="white"/>
<path d="M180 189.64H173.518V196.122H180V189.64Z" fill="white"/>
<path d="M24.482 196.117H18V202.599H24.482V196.117Z" fill="white"/>
<path d="M63.3607 196.117H56.8787V202.599H63.3607V196.117Z" fill="white"/>
<path d="M89.2787 196.117H82.7967V202.599H89.2787V196.117Z" fill="white"/>
<path d="M108.721 196.117H102.239V202.599H108.721V196.117Z" fill="white"/>
<path d="M115.204 196.117H108.722V202.599H115.204V196.117Z" fill="white"/>
<path d="M121.68 196.117H115.198V202.599H121.68V196.117Z" fill="white"/>
<path d="M128.162 196.117H121.68V202.599H128.162V196.117Z" fill="white"/>
<path d="M154.082 196.117H147.6V202.599H154.082V196.117Z" fill="white"/>
<path d="M173.519 196.117H167.037V202.599H173.519V196.117Z" fill="white"/>
<path d="M180 196.117H173.518V202.599H180V196.117Z" fill="white"/>
<path d="M24.482 202.599H18V209.081H24.482V202.599Z" fill="white"/>
<path d="M37.442 202.599H30.96V209.081H37.442V202.599Z" fill="white"/>
<path d="M43.9234 202.599H37.4414V209.081H43.9234V202.599Z" fill="white"/>
<path d="M50.4011 202.599H43.9191V209.081H50.4011V202.599Z" fill="white"/>
<path d="M63.3607 202.599H56.8787V209.081H63.3607V202.599Z" fill="white"/>
<path d="M76.3199 202.599H69.8379V209.081H76.3199V202.599Z" fill="white"/>
<path d="M102.243 202.599H95.7607V209.081H102.243V202.599Z" fill="white"/>
<path d="M115.204 202.599H108.722V209.081H115.204V202.599Z" fill="white"/>
<path d="M121.68 202.599H115.198V209.081H121.68V202.599Z" fill="white"/>
<path d="M128.162 202.599H121.68V209.081H128.162V202.599Z" fill="white"/>
<path d="M134.64 202.599H128.158V209.081H134.64V202.599Z" fill="white"/>
<path d="M141.122 202.599H134.64V209.081H141.122V202.599Z" fill="white"/>
<path d="M147.6 202.599H141.118V209.081H147.6V202.599Z" fill="white"/>
<path d="M154.082 202.599H147.6V209.081H154.082V202.599Z" fill="white"/>
<path d="M173.519 202.599H167.037V209.081H173.519V202.599Z" fill="white"/>
<path d="M24.482 209.077H18V215.559H24.482V209.077Z" fill="white"/>
<path d="M37.442 209.077H30.96V215.559H37.442V209.077Z" fill="white"/>
<path d="M43.9234 209.077H37.4414V215.559H43.9234V209.077Z" fill="white"/>
<path d="M50.4011 209.077H43.9191V215.559H50.4011V209.077Z" fill="white"/>
<path d="M63.3607 209.077H56.8787V215.559H63.3607V209.077Z" fill="white"/>
<path d="M76.3199 209.077H69.8379V215.559H76.3199V209.077Z" fill="white"/>
<path d="M89.2787 209.077H82.7967V215.559H89.2787V209.077Z" fill="white"/>
<path d="M95.7614 209.077H89.2794V215.559H95.7614V209.077Z" fill="white"/>
<path d="M108.721 209.077H102.239V215.559H108.721V209.077Z" fill="white"/>
<path d="M115.204 209.077H108.722V215.559H115.204V209.077Z" fill="white"/>
<path d="M121.68 209.077H115.198V215.559H121.68V209.077Z" fill="white"/>
<path d="M128.162 209.077H121.68V215.559H128.162V209.077Z" fill="white"/>
<path d="M134.64 209.077H128.158V215.559H134.64V209.077Z" fill="white"/>
<path d="M141.122 209.077H134.64V215.559H141.122V209.077Z" fill="white"/>
<path d="M173.519 209.077H167.037V215.559H173.519V209.077Z" fill="white"/>
<path d="M180 209.077H173.518V215.559H180V209.077Z" fill="white"/>
<path d="M24.482 215.559H18V222.041H24.482V215.559Z" fill="white"/>
<path d="M37.442 215.559H30.96V222.041H37.442V215.559Z" fill="white"/>
<path d="M43.9234 215.559H37.4414V222.041H43.9234V215.559Z" fill="white"/>
<path d="M50.4011 215.559H43.9191V222.041H50.4011V215.559Z" fill="white"/>
<path d="M63.3607 215.559H56.8787V222.041H63.3607V215.559Z" fill="white"/>
<path d="M89.2787 215.559H82.7967V222.041H89.2787V215.559Z" fill="white"/>
<path d="M95.7614 215.559H89.2794V222.041H95.7614V215.559Z" fill="white"/>
<path d="M108.721 215.559H102.239V222.041H108.721V215.559Z" fill="white"/>
<path d="M121.68 215.559H115.198V222.041H121.68V215.559Z" fill="white"/>
<path d="M134.64 215.559H128.158V222.041H134.64V215.559Z" fill="white"/>
<path d="M154.082 215.559H147.6V222.041H154.082V215.559Z" fill="white"/>
<path d="M160.558 215.559H154.076V222.041H160.558V215.559Z" fill="white"/>
<path d="M167.041 215.559H160.559V222.041H167.041V215.559Z" fill="white"/>
<path d="M173.519 215.559H167.037V222.041H173.519V215.559Z" fill="white"/>
<path d="M180 215.559H173.518V222.041H180V215.559Z" fill="white"/>
<path d="M24.482 222.036H18V228.518H24.482V222.036Z" fill="white"/>
<path d="M63.3607 222.036H56.8787V228.518H63.3607V222.036Z" fill="white"/>
<path d="M76.3199 222.036H69.8379V228.518H76.3199V222.036Z" fill="white"/>
<path d="M82.8023 222.036H76.3203V228.518H82.8023V222.036Z" fill="white"/>
<path d="M95.7614 222.036H89.2794V228.518H95.7614V222.036Z" fill="white"/>
<path d="M102.243 222.036H95.7607V228.518H102.243V222.036Z" fill="white"/>
<path d="M115.204 222.036H108.722V228.518H115.204V222.036Z" fill="white"/>
<path d="M134.64 222.036H128.158V228.518H134.64V222.036Z" fill="white"/>
<path d="M141.122 222.036H134.64V228.518H141.122V222.036Z" fill="white"/>
<path d="M147.6 222.036H141.118V228.518H147.6V222.036Z" fill="white"/>
<path d="M154.082 222.036H147.6V228.518H154.082V222.036Z" fill="white"/>
<path d="M167.041 222.036H160.559V228.518H167.041V222.036Z" fill="white"/>
<path d="M173.519 222.036H167.037V228.518H173.519V222.036Z" fill="white"/>
<path d="M180 222.036H173.518V228.518H180V222.036Z" fill="white"/>
<path d="M24.482 228.518H18V235H24.482V228.518Z" fill="white"/>
<path d="M30.9636 228.518H24.4816V235H30.9636V228.518Z" fill="white"/>
<path d="M37.442 228.518H30.96V235H37.442V228.518Z" fill="white"/>
<path d="M43.9234 228.518H37.4414V235H43.9234V228.518Z" fill="white"/>
<path d="M50.4011 228.518H43.9191V235H50.4011V228.518Z" fill="white"/>
<path d="M56.8824 228.518H50.4004V235H56.8824V228.518Z" fill="white"/>
<path d="M63.3607 228.518H56.8787V235H63.3607V228.518Z" fill="white"/>
<path d="M76.3199 228.518H69.8379V235H76.3199V228.518Z" fill="white"/>
<path d="M95.7614 228.518H89.2794V235H95.7614V228.518Z" fill="white"/>
<path d="M102.243 228.518H95.7607V235H102.243V228.518Z" fill="white"/>
<path d="M128.162 228.518H121.68V235H128.162V228.518Z" fill="white"/>
<path d="M160.558 228.518H154.076V235H160.558V228.518Z" fill="white"/>
<path d="M180 228.518H173.518V235H180V228.518Z" fill="white"/>
</g>
<rect x="12.5" y="67.5" width="173" height="173" stroke="black" stroke-width="11"/>
<path d="M40.566 21V5.644H49.938V7.272H42.414V12.42H49.498V14.048H42.414V19.372H49.938V21H40.566ZM57.5569 21.264C56.3102 21.264 55.2469 21.0293 54.3669 20.56C53.4869 20.076 52.7389 19.416 52.1229 18.58L53.4869 17.436C54.0296 18.1547 54.6309 18.7047 55.2909 19.086C55.9509 19.4527 56.7282 19.636 57.6229 19.636C58.7229 19.636 59.5589 19.372 60.1309 18.844C60.7176 18.316 61.0109 17.612 61.0109 16.732C61.0109 15.9987 60.7909 15.434 60.3509 15.038C59.9109 14.642 59.1849 14.3267 58.1729 14.092L56.9189 13.806C55.5109 13.4833 54.4329 12.9993 53.6849 12.354C52.9516 11.694 52.5849 10.77 52.5849 9.582C52.5849 8.90733 52.7096 8.306 52.9589 7.778C53.2082 7.25 53.5529 6.81 53.9929 6.458C54.4476 6.106 54.9829 5.842 55.5989 5.666C56.2296 5.47533 56.9189 5.38 57.6669 5.38C58.8256 5.38 59.8156 5.59267 60.6369 6.018C61.4729 6.44333 62.1769 7.06667 62.7489 7.888L61.3629 8.9C60.9376 8.31333 60.4242 7.85133 59.8229 7.514C59.2216 7.17667 58.4736 7.008 57.5789 7.008C56.5962 7.008 55.8189 7.22067 55.2469 7.646C54.6896 8.05667 54.4109 8.68 54.4109 9.516C54.4109 10.2493 54.6456 10.8067 55.1149 11.188C55.5989 11.5547 56.3249 11.848 57.2929 12.068L58.5469 12.354C60.0576 12.6913 61.1502 13.2047 61.8249 13.894C62.4996 14.5833 62.8369 15.5 62.8369 16.644C62.8369 17.348 62.7122 17.986 62.4629 18.558C62.2282 19.13 61.8836 19.614 61.4289 20.01C60.9742 20.406 60.4169 20.714 59.7569 20.934C59.1116 21.154 58.3782 21.264 57.5569 21.264ZM71.2928 21.264C69.3422 21.264 67.8242 20.604 66.7388 19.284C65.6535 17.9493 65.1108 15.9913 65.1108 13.41C65.1108 10.8287 65.6535 8.84867 66.7388 7.47C67.8242 6.07667 69.3422 5.38 71.2928 5.38C72.5835 5.38 73.6615 5.67333 74.5268 6.26C75.4068 6.84667 76.0888 7.67533 76.5728 8.746L75.0768 9.648C74.7688 8.856 74.2995 8.22533 73.6688 7.756C73.0382 7.272 72.2462 7.03 71.2928 7.03C70.6328 7.03 70.0388 7.15467 69.5108 7.404C68.9975 7.65333 68.5575 8.01267 68.1908 8.482C67.8388 8.93667 67.5675 9.48667 67.3768 10.132C67.1862 10.7627 67.0908 11.474 67.0908 12.266V14.554C67.0908 16.138 67.4575 17.3773 68.1908 18.272C68.9242 19.1667 69.9582 19.614 71.2928 19.614C72.2755 19.614 73.0968 19.3647 73.7568 18.866C74.4168 18.3527 74.9008 17.678 75.2088 16.842L76.6828 17.766C76.1988 18.8513 75.5022 19.7093 74.5928 20.34C73.6835 20.956 72.5835 21.264 71.2928 21.264ZM89.0116 21L87.4716 16.468H81.2676L79.7276 21H77.8576L83.2256 5.644H85.5796L90.9476 21H89.0116ZM84.4136 7.36H84.3036L81.7076 14.84H87.0096L84.4136 7.36ZM97.0621 11.628L95.2141 8.218H95.1481V21H93.3441V5.644H95.4781L101.088 15.016L102.936 18.426H103.002V5.644H104.806V21H102.672L97.0621 11.628ZM108.752 21V5.644H118.124V7.272H110.6V12.42H117.684V14.048H110.6V19.372H118.124V21H108.752ZM120.704 21V19.46H122.86V7.184H120.704V5.644H126.864V7.184H124.708V19.46H126.864V21H120.704ZM130.092 21V5.644H139.464V7.272H131.94V12.42H139.024V14.048H131.94V19.372H139.464V21H130.092ZM147.823 21V5.644H157.195V7.272H149.671V12.42H156.755V14.048H149.671V19.372H157.195V21H147.823ZM10.8238 32.644H17.1378C18.4138 32.644 19.4112 33.0033 20.1298 33.722C20.8632 34.4407 21.2298 35.4013 21.2298 36.604C21.2298 37.176 21.1492 37.66 20.9878 38.056C20.8265 38.452 20.6212 38.782 20.3718 39.046C20.1225 39.2953 19.8512 39.486 19.5578 39.618C19.2645 39.7353 18.9932 39.816 18.7438 39.86V39.992C19.0225 40.0067 19.3305 40.08 19.6678 40.212C20.0198 40.344 20.3498 40.5567 20.6578 40.85C20.9658 41.1287 21.2225 41.4953 21.4278 41.95C21.6478 42.39 21.7578 42.9253 21.7578 43.556C21.7578 44.1867 21.6552 44.7733 21.4498 45.316C21.2592 45.8587 20.9878 46.328 20.6358 46.724C20.2838 47.12 19.8658 47.4353 19.3818 47.67C18.8978 47.89 18.3698 48 17.7978 48H10.8238V32.644ZM12.6718 46.372H17.2258C18.0178 46.372 18.6412 46.174 19.0958 45.778C19.5505 45.3673 19.7778 44.7733 19.7778 43.996V43.248C19.7778 42.4707 19.5505 41.884 19.0958 41.488C18.6412 41.0773 18.0178 40.872 17.2258 40.872H12.6718V46.372ZM12.6718 39.288H16.9178C17.6512 39.288 18.2232 39.1047 18.6338 38.738C19.0445 38.3713 19.2498 37.8433 19.2498 37.154V36.406C19.2498 35.7167 19.0445 35.1887 18.6338 34.822C18.2232 34.4553 17.6512 34.272 16.9178 34.272H12.6718V39.288ZM34.4488 48L32.9088 43.468H26.7048L25.1648 48H23.2948L28.6628 32.644H31.0168L36.3848 48H34.4488ZM29.8508 34.36H29.7408L27.1448 41.84H32.4468L29.8508 34.36ZM38.0552 48V46.46H40.2112V34.184H38.0552V32.644H44.2152V34.184H42.0592V46.46H44.2152V48H38.0552ZM58.3546 48H56.1326L52.1066 41.554H52.0626L48.0366 48H45.9246L50.9406 40.19L46.0566 32.644H48.2786L52.1286 38.76H52.1726L56.1106 32.644H58.2226L53.2946 40.124L58.3546 48ZM60.7875 48V32.644H70.1595V34.272H62.6355V39.42H69.7195V41.048H62.6355V46.372H70.1595V48H60.7875ZM84.2603 48.264C83.263 48.264 82.361 48.0953 81.5543 47.758C80.7623 47.406 80.0803 46.9 79.5083 46.24C78.951 45.5653 78.5183 44.7367 78.2103 43.754C77.9023 42.7567 77.7483 41.6127 77.7483 40.322C77.7483 39.0313 77.9023 37.8947 78.2103 36.912C78.5183 35.9293 78.951 35.1007 79.5083 34.426C80.0803 33.7513 80.7623 33.2453 81.5543 32.908C82.361 32.556 83.263 32.38 84.2603 32.38C85.243 32.38 86.1377 32.556 86.9443 32.908C87.751 33.2453 88.433 33.7513 88.9903 34.426C89.5623 35.1007 90.0023 35.9293 90.3103 36.912C90.6183 37.8947 90.7723 39.0313 90.7723 40.322C90.7723 41.6127 90.6183 42.7567 90.3103 43.754C90.0023 44.7367 89.5623 45.5653 88.9903 46.24C88.433 46.9 87.751 47.406 86.9443 47.758C86.1377 48.0953 85.243 48.264 84.2603 48.264ZM84.2603 46.614C84.9203 46.614 85.529 46.4967 86.0863 46.262C86.6437 46.0273 87.1203 45.69 87.5163 45.25C87.927 44.81 88.2423 44.282 88.4623 43.666C88.6823 43.05 88.7923 42.3607 88.7923 41.598V39.046C88.7923 38.2833 88.6823 37.594 88.4623 36.978C88.2423 36.362 87.927 35.834 87.5163 35.394C87.1203 34.954 86.6437 34.6167 86.0863 34.382C85.529 34.1473 84.9203 34.03 84.2603 34.03C83.6003 34.03 82.9917 34.1473 82.4343 34.382C81.877 34.6167 81.393 34.954 80.9823 35.394C80.5863 35.834 80.2783 36.362 80.0583 36.978C79.8383 37.594 79.7283 38.2833 79.7283 39.046V41.598C79.7283 42.3607 79.8383 43.05 80.0583 43.666C80.2783 44.282 80.5863 44.81 80.9823 45.25C81.393 45.69 81.877 46.0273 82.4343 46.262C82.9917 46.4967 83.6003 46.614 84.2603 46.614ZM102.717 38.628L100.869 35.218H100.803V48H98.9992V32.644H101.133L106.743 42.016L108.591 45.426H108.657V32.644H110.461V48H108.327L102.717 38.628ZM124.351 45.756H124.285C124.094 46.4747 123.625 47.076 122.877 47.56C122.143 48.0293 121.19 48.264 120.017 48.264C119.078 48.264 118.213 48.0953 117.421 47.758C116.643 47.406 115.976 46.9 115.419 46.24C114.861 45.5653 114.421 44.7367 114.099 43.754C113.791 42.7567 113.637 41.6127 113.637 40.322C113.637 39.046 113.791 37.9167 114.099 36.934C114.407 35.9367 114.847 35.108 115.419 34.448C115.991 33.7733 116.68 33.26 117.487 32.908C118.293 32.556 119.188 32.38 120.171 32.38C121.549 32.38 122.701 32.688 123.625 33.304C124.549 33.92 125.26 34.734 125.759 35.746L124.241 36.67C123.889 35.8487 123.361 35.2033 122.657 34.734C121.967 34.2647 121.139 34.03 120.171 34.03C119.496 34.03 118.88 34.1547 118.323 34.404C117.765 34.6387 117.281 34.976 116.871 35.416C116.475 35.856 116.167 36.384 115.947 37C115.727 37.616 115.617 38.3053 115.617 39.068V41.554C115.617 42.3167 115.727 43.0133 115.947 43.644C116.167 44.26 116.475 44.788 116.871 45.228C117.281 45.668 117.78 46.0127 118.367 46.262C118.953 46.4967 119.613 46.614 120.347 46.614C120.875 46.614 121.373 46.548 121.843 46.416C122.327 46.2693 122.745 46.0567 123.097 45.778C123.463 45.4993 123.749 45.1547 123.955 44.744C124.16 44.3187 124.263 43.82 124.263 43.248V41.73H120.875V40.102H126.067V48H124.351V45.756ZM130.502 48.264C130.033 48.264 129.688 48.1467 129.468 47.912C129.263 47.6773 129.16 47.3693 129.16 46.988V46.702C129.16 46.3207 129.263 46.0127 129.468 45.778C129.688 45.5433 130.033 45.426 130.502 45.426C130.972 45.426 131.309 45.5433 131.514 45.778C131.734 46.0127 131.844 46.3207 131.844 46.702V46.988C131.844 47.3693 131.734 47.6773 131.514 47.912C131.309 48.1467 130.972 48.264 130.502 48.264ZM140.149 48.264C138.198 48.264 136.68 47.604 135.595 46.284C134.51 44.9493 133.967 42.9913 133.967 40.41C133.967 37.8287 134.51 35.8487 135.595 34.47C136.68 33.0767 138.198 32.38 140.149 32.38C141.44 32.38 142.518 32.6733 143.383 33.26C144.263 33.8467 144.945 34.6753 145.429 35.746L143.933 36.648C143.625 35.856 143.156 35.2253 142.525 34.756C141.894 34.272 141.102 34.03 140.149 34.03C139.489 34.03 138.895 34.1547 138.367 34.404C137.854 34.6533 137.414 35.0127 137.047 35.482C136.695 35.9367 136.424 36.4867 136.233 37.132C136.042 37.7627 135.947 38.474 135.947 39.266V41.554C135.947 43.138 136.314 44.3773 137.047 45.272C137.78 46.1667 138.814 46.614 140.149 46.614C141.132 46.614 141.953 46.3647 142.613 45.866C143.273 45.3527 143.757 44.678 144.065 43.842L145.539 44.766C145.055 45.8513 144.358 46.7093 143.449 47.34C142.54 47.956 141.44 48.264 140.149 48.264ZM157.868 48L156.328 43.468H150.124L148.584 48H146.714L152.082 32.644H154.436L159.804 48H157.868ZM153.27 34.36H153.16L150.564 41.84H155.866L153.27 34.36ZM166.512 48.264C165.266 48.264 164.202 48.0293 163.322 47.56C162.442 47.076 161.694 46.416 161.078 45.58L162.442 44.436C162.985 45.1547 163.586 45.7047 164.246 46.086C164.906 46.4527 165.684 46.636 166.578 46.636C167.678 46.636 168.514 46.372 169.086 45.844C169.673 45.316 169.966 44.612 169.966 43.732C169.966 42.9987 169.746 42.434 169.306 42.038C168.866 41.642 168.14 41.3267 167.128 41.092L165.874 40.806C164.466 40.4833 163.388 39.9993 162.64 39.354C161.907 38.694 161.54 37.77 161.54 36.582C161.54 35.9073 161.665 35.306 161.914 34.778C162.164 34.25 162.508 33.81 162.948 33.458C163.403 33.106 163.938 32.842 164.554 32.666C165.185 32.4753 165.874 32.38 166.622 32.38C167.781 32.38 168.771 32.5927 169.592 33.018C170.428 33.4433 171.132 34.0667 171.704 34.888L170.318 35.9C169.893 35.3133 169.38 34.8513 168.778 34.514C168.177 34.1767 167.429 34.008 166.534 34.008C165.552 34.008 164.774 34.2207 164.202 34.646C163.645 35.0567 163.366 35.68 163.366 36.516C163.366 37.2493 163.601 37.8067 164.07 38.188C164.554 38.5547 165.28 38.848 166.248 39.068L167.502 39.354C169.013 39.6913 170.106 40.2047 170.78 40.894C171.455 41.5833 171.792 42.5 171.792 43.644C171.792 44.348 171.668 44.986 171.418 45.558C171.184 46.13 170.839 46.614 170.384 47.01C169.93 47.406 169.372 47.714 168.712 47.934C168.067 48.154 167.334 48.264 166.512 48.264ZM184.45 41.048H176.684V48H174.836V32.644H176.684V39.42H184.45V32.644H186.298V48H184.45V41.048Z" fill="white"/>
<defs>
<clipPath id="clip0_13_1603">
<rect x="18" y="73" width="162" height="162" fill="white"/>
</clipPath>
</defs>
</svg>
