<svg width="459" height="242" viewBox="0 0 459 242" fill="none" xmlns="http://www.w3.org/2000/svg">
<path d="M127.474 43H134.25L134.074 20.56H134.118L147.274 43H155.81V14.048H149.034L149.254 33.496H149.21L137.858 14.048H127.474V43ZM173.515 43.44C178.223 43.44 181.567 41.416 182.403 38.028H182.447C182.447 39.876 182.359 41.944 182.315 43H187.903V28.348H173.559V32.44H181.039V32.88C181.039 36.18 177.783 38.16 174.527 38.16C170.039 38.16 166.475 34.728 166.475 28.964C166.475 22.892 169.863 19.284 174.791 19.284C178.223 19.284 181.347 21.176 181.347 24.608C181.347 24.916 181.347 25.356 181.303 25.84H187.595C187.639 25.488 187.683 24.784 187.683 24.124C187.683 17.524 181.831 13.608 174.527 13.608C165.639 13.608 159.127 19.284 159.127 28.92C159.127 38.028 165.243 43.44 173.515 43.44ZM192.29 43H198.802V36.4H192.29V43ZM218.18 43.44C226.144 43.44 231.644 38.952 231.644 32.308C231.644 31.956 231.644 31.472 231.6 30.9H225.264C225.308 31.384 225.308 31.648 225.308 31.824C225.308 35.476 222.756 37.764 218.532 37.764C213.868 37.764 210.392 34.332 210.392 28.568C210.392 22.848 213.78 19.284 218.532 19.284C222.448 19.284 225.22 21.528 225.22 25.444C225.22 25.664 225.22 26.104 225.176 26.588H231.468C231.512 26.192 231.556 25.4 231.556 24.74C231.556 18.096 226.1 13.608 218.18 13.608C209.248 13.608 202.912 19.152 202.912 28.568C202.912 37.896 209.248 43.44 218.18 43.44ZM255.256 43H263.66L252.484 14.048H243.508L232.332 43H239.724L241.704 37.104H253.276L255.256 43ZM243.2 32.616L247.424 19.944H247.512L251.78 32.616H243.2ZM277.16 43.44C287.5 43.44 290.272 39.04 290.272 34.112C290.272 31.384 289.172 29.316 287.104 28.216C285.388 27.292 282.924 26.764 279.668 26.236C277.204 25.84 274.168 25.356 273.068 24.872C272.056 24.432 271.66 23.64 271.66 22.232C271.66 20.296 273.332 18.844 277.248 18.844C281.208 18.844 282.924 20.648 282.924 23.948H289.304C289.304 17.436 286.312 13.608 277.116 13.608C268.756 13.608 264.488 17.392 264.488 22.848C264.488 25.62 265.456 27.644 267.304 28.832C268.976 29.932 271.88 30.504 274.74 30.944C277.16 31.296 280.152 31.736 281.428 32.176C282.572 32.572 283.1 33.364 283.1 34.596C283.1 36.444 282 38.204 277.116 38.204C272.276 38.204 271 36.18 271 33.056H264.576C264.576 38.38 267.216 43.44 277.16 43.44ZM293.677 43H300.893V30.9H313.301V43H320.517V14.048H313.301V25.268H300.893V14.048H293.677V43Z" fill="#00CA30"/>
<path d="M83.1322 98H86.3442L92.1302 83.524H89.4022L84.9362 95.58H84.8922L80.3602 83.524H77.3902L83.1322 98ZM93.8459 85.856H96.3759V83.436H93.8459V85.856ZM93.8679 98H96.3319V87.132H93.8679V98ZM109.211 92.17C109.211 88.782 107.253 86.956 104.173 86.956C100.741 86.956 98.5846 89.134 98.5846 92.654C98.5846 96.064 100.741 98.176 104.173 98.176C107.143 98.176 109.123 96.702 109.211 94.282H106.989C106.879 95.558 105.801 96.262 104.217 96.262C102.369 96.262 101.203 95.14 101.071 93.05H109.211V92.17ZM106.989 91.554H101.137C101.423 89.75 102.501 88.87 104.195 88.87C105.977 88.87 106.989 89.772 106.989 91.4V91.554ZM111.354 98H113.818V92.698C113.818 90.366 114.94 89.068 116.612 89.068C118.086 89.068 118.9 90.036 118.9 91.576V98H121.364V92.61C121.364 90.344 122.464 89.068 124.18 89.068C125.654 89.068 126.424 90.036 126.424 91.62V98H128.888V91.07C128.888 88.518 127.502 86.956 125.082 86.956C123.014 86.956 121.694 88.056 121.298 89.816H121.276C121.012 88.056 119.648 86.956 117.536 86.956C115.556 86.956 114.236 88.122 113.752 89.992H113.73L113.818 87.132H111.354V98ZM136.595 98.176C140.071 98.176 142.293 96.042 142.293 92.588C142.293 89.112 140.071 86.956 136.595 86.956C133.141 86.956 130.919 89.112 130.919 92.588C130.919 96.042 133.141 98.176 136.595 98.176ZM136.595 96.152C134.593 96.152 133.383 94.788 133.383 92.588C133.383 90.366 134.593 88.98 136.595 88.98C138.597 88.98 139.829 90.366 139.829 92.588C139.829 94.788 138.597 96.152 136.595 96.152ZM149.02 98.176C152.496 98.176 154.344 96.878 154.344 94.678C154.344 93.798 153.926 92.962 153.2 92.566C152.43 92.126 151.55 91.972 150.01 91.818C148.69 91.686 147.656 91.576 147.128 91.4C146.49 91.18 146.38 90.74 146.38 90.278C146.38 89.354 147.348 88.738 149.064 88.738C150.868 88.738 151.638 89.42 151.66 90.828H153.882C153.882 88.364 152.386 86.956 148.998 86.956C146.05 86.956 143.938 88.276 143.938 90.454C143.938 91.29 144.29 92.082 144.884 92.522C145.544 93.006 146.688 93.226 148.382 93.38C149.592 93.49 150.626 93.6 151.154 93.798C151.726 93.996 151.88 94.37 151.88 94.788C151.88 95.778 151 96.394 148.998 96.394C146.886 96.394 146.16 95.624 146.16 94.37H143.938C143.938 96.504 145.28 98.176 149.02 98.176ZM166.382 98.132C167.284 98.132 168.032 97.978 168.362 97.868V95.91C168.054 95.998 167.35 96.108 166.734 96.108C165.238 96.108 164.71 95.404 164.71 93.996V89.134H168.45V87.132H164.71V84.668H162.664L162.554 86.296C162.488 86.912 162.334 87.132 161.916 87.132H160.53V89.134H162.246V94.128C162.246 96.526 163.412 98.132 166.382 98.132ZM180.281 92.17C180.281 88.782 178.323 86.956 175.243 86.956C171.811 86.956 169.655 89.134 169.655 92.654C169.655 96.064 171.811 98.176 175.243 98.176C178.213 98.176 180.193 96.702 180.281 94.282H178.059C177.949 95.558 176.871 96.262 175.287 96.262C173.439 96.262 172.273 95.14 172.141 93.05H180.281V92.17ZM178.059 91.554H172.207C172.493 89.75 173.571 88.87 175.265 88.87C177.047 88.87 178.059 89.772 178.059 91.4V91.554ZM191.323 98.176C193.721 98.176 195.019 97.208 195.371 95.602H195.393C195.393 96.482 195.327 97.472 195.283 98H197.747V91.378C197.747 88.518 195.811 86.956 192.511 86.956C189.409 86.956 187.517 88.254 187.517 90.432C187.517 90.63 187.539 90.916 187.561 91.07H189.827C189.805 90.894 189.805 90.718 189.805 90.652C189.805 89.442 190.751 88.804 192.423 88.804C194.337 88.804 195.283 89.53 195.283 91.158V91.928H191.257C188.353 91.928 187.187 93.226 187.187 94.876C187.187 96.988 188.837 98.176 191.323 98.176ZM191.829 96.328C190.333 96.328 189.453 95.756 189.453 94.766C189.453 93.908 190.069 93.424 191.477 93.424H195.283V93.622C195.283 95.294 193.963 96.328 191.829 96.328ZM200.15 85.856H202.702V83.436H200.15V85.856ZM198.83 102.598C201.426 102.598 202.658 100.86 202.658 98.308V87.132H200.194V98.22C200.194 99.694 199.6 100.552 198.214 100.552C197.708 100.552 197.18 100.486 196.762 100.398V102.356C197.07 102.444 197.84 102.598 198.83 102.598ZM209.707 98.176C212.127 98.176 213.645 97.032 214.107 94.964H214.129C214.129 96.108 214.085 97.274 214.019 98H216.483V87.132H214.019V91.95C214.019 94.59 212.633 96.064 210.433 96.064C208.651 96.064 207.595 95.096 207.595 93.38V87.132H205.131V93.732C205.131 96.614 206.869 98.176 209.707 98.176ZM223.744 98.176C225.966 98.176 227.33 97.076 227.748 95.36H227.792C227.748 96.416 227.726 97.362 227.682 98H230.146V82.754H227.682V89.046H227.66C227.22 87.77 225.944 86.956 223.898 86.956C220.664 86.956 218.618 89.222 218.618 92.5C218.618 95.888 220.598 98.176 223.744 98.176ZM224.25 96.152C222.314 96.152 221.06 94.656 221.06 92.5C221.06 90.432 222.336 88.98 224.294 88.98C226.34 88.98 227.682 90.212 227.682 92.148V92.676C227.682 94.788 226.318 96.152 224.25 96.152ZM236.504 98.176C238.902 98.176 240.2 97.208 240.552 95.602H240.574C240.574 96.482 240.508 97.472 240.464 98H242.928V91.378C242.928 88.518 240.992 86.956 237.692 86.956C234.59 86.956 232.698 88.254 232.698 90.432C232.698 90.63 232.72 90.916 232.742 91.07H235.008C234.986 90.894 234.986 90.718 234.986 90.652C234.986 89.442 235.932 88.804 237.604 88.804C239.518 88.804 240.464 89.53 240.464 91.158V91.928H236.438C233.534 91.928 232.368 93.226 232.368 94.876C232.368 96.988 234.018 98.176 236.504 98.176ZM237.01 96.328C235.514 96.328 234.634 95.756 234.634 94.766C234.634 93.908 235.25 93.424 236.658 93.424H240.464V93.622C240.464 95.294 239.144 96.328 237.01 96.328ZM245.288 98H247.752V93.248C247.752 90.652 248.918 89.068 250.788 89.068C252.24 89.068 252.944 89.926 252.944 91.752C252.944 92.258 252.9 92.808 252.856 93.226H255.1C255.144 92.764 255.21 91.884 255.21 91.202C255.21 88.496 253.912 86.956 251.558 86.956C249.314 86.956 248.192 88.298 247.686 90.256H247.664L247.752 87.132H245.288V98ZM266.217 98.176C268.615 98.176 269.913 97.208 270.265 95.602H270.287C270.287 96.482 270.221 97.472 270.177 98H272.641V91.378C272.641 88.518 270.705 86.956 267.405 86.956C264.303 86.956 262.411 88.254 262.411 90.432C262.411 90.63 262.433 90.916 262.455 91.07H264.721C264.699 90.894 264.699 90.718 264.699 90.652C264.699 89.442 265.645 88.804 267.317 88.804C269.231 88.804 270.177 89.53 270.177 91.158V91.928H266.151C263.247 91.928 262.081 93.226 262.081 94.876C262.081 96.988 263.731 98.176 266.217 98.176ZM266.723 96.328C265.227 96.328 264.347 95.756 264.347 94.766C264.347 93.908 264.963 93.424 266.371 93.424H270.177V93.622C270.177 95.294 268.857 96.328 266.723 96.328ZM285.065 98.176C288.167 98.176 290.235 96.482 290.235 93.578H288.013C287.991 95.184 286.913 96.152 285.175 96.152C283.349 96.152 282.205 94.788 282.205 92.566C282.205 90.322 283.371 88.98 285.263 88.98C286.913 88.98 287.969 89.97 287.991 91.598H290.213C290.213 88.716 288.233 86.956 285.197 86.956C281.919 86.956 279.741 89.09 279.741 92.566C279.741 96.042 281.875 98.176 285.065 98.176ZM297.77 98.176C301.246 98.176 303.468 96.042 303.468 92.588C303.468 89.112 301.246 86.956 297.77 86.956C294.316 86.956 292.094 89.112 292.094 92.588C292.094 96.042 294.316 98.176 297.77 98.176ZM297.77 96.152C295.768 96.152 294.558 94.788 294.558 92.588C294.558 90.366 295.768 88.98 297.77 88.98C299.772 88.98 301.004 90.366 301.004 92.588C301.004 94.788 299.772 96.152 297.77 96.152ZM305.573 98H308.037V92.742C308.037 90.366 309.401 89.068 311.557 89.068C313.515 89.068 314.483 90.036 314.483 91.752V98H316.947V91.202C316.947 88.518 315.253 86.956 312.503 86.956C309.973 86.956 308.565 88.078 307.971 90.036H307.949L308.037 87.132H305.573V98ZM324.053 98.176C327.529 98.176 329.377 96.878 329.377 94.678C329.377 93.798 328.959 92.962 328.233 92.566C327.463 92.126 326.583 91.972 325.043 91.818C323.723 91.686 322.689 91.576 322.161 91.4C321.523 91.18 321.413 90.74 321.413 90.278C321.413 89.354 322.381 88.738 324.097 88.738C325.901 88.738 326.671 89.42 326.693 90.828H328.915C328.915 88.364 327.419 86.956 324.031 86.956C321.083 86.956 318.971 88.276 318.971 90.454C318.971 91.29 319.323 92.082 319.917 92.522C320.577 93.006 321.721 93.226 323.415 93.38C324.625 93.49 325.659 93.6 326.187 93.798C326.759 93.996 326.913 94.37 326.913 94.788C326.913 95.778 326.033 96.394 324.031 96.394C321.919 96.394 321.193 95.624 321.193 94.37H318.971C318.971 96.504 320.313 98.176 324.053 98.176ZM336.344 98.132C337.246 98.132 337.994 97.978 338.324 97.868V95.91C338.016 95.998 337.312 96.108 336.696 96.108C335.2 96.108 334.672 95.404 334.672 93.996V89.134H338.412V87.132H334.672V84.668H332.626L332.516 86.296C332.45 86.912 332.296 87.132 331.878 87.132H330.492V89.134H332.208V94.128C332.208 96.526 333.374 98.132 336.344 98.132ZM340.378 98H342.842V93.248C342.842 90.652 344.008 89.068 345.878 89.068C347.33 89.068 348.034 89.926 348.034 91.752C348.034 92.258 347.99 92.808 347.946 93.226H350.19C350.234 92.764 350.3 91.884 350.3 91.202C350.3 88.496 349.002 86.956 346.648 86.956C344.404 86.956 343.282 88.298 342.776 90.256H342.754L342.842 87.132H340.378V98ZM356.875 98.176C359.295 98.176 360.813 97.032 361.275 94.964H361.297C361.297 96.108 361.253 97.274 361.187 98H363.651V87.132H361.187V91.95C361.187 94.59 359.801 96.064 357.601 96.064C355.819 96.064 354.763 95.096 354.763 93.38V87.132H352.299V93.732C352.299 96.614 354.037 98.176 356.875 98.176ZM366.182 85.856H368.712V83.436H366.182V85.856ZM366.204 98H368.668V87.132H366.204V98ZM371.251 98H373.715V93.248C373.715 90.652 374.881 89.068 376.751 89.068C378.203 89.068 378.907 89.926 378.907 91.752C378.907 92.258 378.863 92.808 378.819 93.226H381.063C381.107 92.764 381.173 91.884 381.173 91.202C381.173 88.496 379.875 86.956 377.521 86.956C375.277 86.956 374.155 88.298 373.649 90.256H373.627L373.715 87.132H371.251V98ZM69.7748 130.176C72.1728 130.176 73.4708 129.208 73.8228 127.602H73.8448C73.8448 128.482 73.7788 129.472 73.7348 130H76.1988V123.378C76.1988 120.518 74.2628 118.956 70.9628 118.956C67.8608 118.956 65.9688 120.254 65.9688 122.432C65.9688 122.63 65.9908 122.916 66.0128 123.07H68.2788C68.2568 122.894 68.2568 122.718 68.2568 122.652C68.2568 121.442 69.2028 120.804 70.8748 120.804C72.7888 120.804 73.7348 121.53 73.7348 123.158V123.928H69.7088C66.8048 123.928 65.6388 125.226 65.6388 126.876C65.6388 128.988 67.2888 130.176 69.7748 130.176ZM70.2808 128.328C68.7848 128.328 67.9048 127.756 67.9048 126.766C67.9048 125.908 68.5208 125.424 69.9288 125.424H73.7348V125.622C73.7348 127.294 72.4148 128.328 70.2808 128.328ZM88.3805 130.176C91.8565 130.176 93.7045 128.878 93.7045 126.678C93.7045 125.798 93.2865 124.962 92.5605 124.566C91.7905 124.126 90.9105 123.972 89.3705 123.818C88.0505 123.686 87.0165 123.576 86.4885 123.4C85.8505 123.18 85.7405 122.74 85.7405 122.278C85.7405 121.354 86.7085 120.738 88.4245 120.738C90.2285 120.738 90.9985 121.42 91.0205 122.828H93.2425C93.2425 120.364 91.7465 118.956 88.3585 118.956C85.4105 118.956 83.2985 120.276 83.2985 122.454C83.2985 123.29 83.6505 124.082 84.2445 124.522C84.9045 125.006 86.0485 125.226 87.7425 125.38C88.9525 125.49 89.9865 125.6 90.5145 125.798C91.0865 125.996 91.2405 126.37 91.2405 126.788C91.2405 127.778 90.3605 128.394 88.3585 128.394C86.2465 128.394 85.5205 127.624 85.5205 126.37H83.2985C83.2985 128.504 84.6405 130.176 88.3805 130.176ZM100.298 130.176C102.718 130.176 104.236 129.032 104.698 126.964H104.72C104.72 128.108 104.676 129.274 104.61 130H107.074V119.132H104.61V123.95C104.61 126.59 103.224 128.064 101.024 128.064C99.2416 128.064 98.1856 127.096 98.1856 125.38V119.132H95.7216V125.732C95.7216 128.614 97.4596 130.176 100.298 130.176ZM113.367 130.176C115.765 130.176 117.063 129.208 117.415 127.602H117.437C117.437 128.482 117.371 129.472 117.327 130H119.791V123.378C119.791 120.518 117.855 118.956 114.555 118.956C111.453 118.956 109.561 120.254 109.561 122.432C109.561 122.63 109.583 122.916 109.605 123.07H111.871C111.849 122.894 111.849 122.718 111.849 122.652C111.849 121.442 112.795 120.804 114.467 120.804C116.381 120.804 117.327 121.53 117.327 123.158V123.928H113.301C110.397 123.928 109.231 125.226 109.231 126.876C109.231 128.988 110.881 130.176 113.367 130.176ZM113.873 128.328C112.377 128.328 111.497 127.756 111.497 126.766C111.497 125.908 112.113 125.424 113.521 125.424H117.327V125.622C117.327 127.294 116.007 128.328 113.873 128.328ZM127.286 117.856H129.816V115.436H127.286V117.856ZM127.308 130H129.772V119.132H127.308V130ZM132.355 130H134.819V124.742C134.819 122.366 136.183 121.068 138.339 121.068C140.297 121.068 141.265 122.036 141.265 123.752V130H143.729V123.202C143.729 120.518 142.035 118.956 139.285 118.956C136.755 118.956 135.347 120.078 134.753 122.036H134.731L134.819 119.132H132.355V130ZM150.88 130.176C153.102 130.176 154.466 129.076 154.884 127.36H154.928C154.884 128.416 154.862 129.362 154.818 130H157.282V114.754H154.818V121.046H154.796C154.356 119.77 153.08 118.956 151.034 118.956C147.8 118.956 145.754 121.222 145.754 124.5C145.754 127.888 147.734 130.176 150.88 130.176ZM151.386 128.152C149.45 128.152 148.196 126.656 148.196 124.5C148.196 122.432 149.472 120.98 151.43 120.98C153.476 120.98 154.818 122.212 154.818 124.148V124.676C154.818 126.788 153.454 128.152 151.386 128.152ZM170.108 124.17C170.108 120.782 168.15 118.956 165.07 118.956C161.638 118.956 159.482 121.134 159.482 124.654C159.482 128.064 161.638 130.176 165.07 130.176C168.04 130.176 170.02 128.702 170.108 126.282H167.886C167.776 127.558 166.698 128.262 165.114 128.262C163.266 128.262 162.1 127.14 161.968 125.05H170.108V124.17ZM167.886 123.554H162.034C162.32 121.75 163.398 120.87 165.092 120.87C166.874 120.87 167.886 121.772 167.886 123.4V123.554ZM172.318 134.356H174.782V130.088C174.782 129.648 174.738 128.526 174.716 127.8H174.738C175.2 129.208 176.608 130.176 178.764 130.176C181.888 130.176 183.868 127.888 183.868 124.368C183.868 121.09 181.91 118.956 178.808 118.956C176.652 118.956 175.2 120.012 174.76 121.662H174.738L174.782 119.132H172.318V134.356ZM178.28 128.152C176.168 128.152 174.782 126.964 174.782 125.116V124.544C174.826 122.366 176.19 120.98 178.236 120.98C180.194 120.98 181.404 122.344 181.404 124.434C181.404 126.7 180.172 128.152 178.28 128.152ZM196.298 124.17C196.298 120.782 194.34 118.956 191.26 118.956C187.828 118.956 185.672 121.134 185.672 124.654C185.672 128.064 187.828 130.176 191.26 130.176C194.23 130.176 196.21 128.702 196.298 126.282H194.076C193.966 127.558 192.888 128.262 191.304 128.262C189.456 128.262 188.29 127.14 188.158 125.05H196.298V124.17ZM194.076 123.554H188.224C188.51 121.75 189.588 120.87 191.282 120.87C193.064 120.87 194.076 121.772 194.076 123.4V123.554ZM198.441 130H200.905V124.742C200.905 122.366 202.269 121.068 204.425 121.068C206.383 121.068 207.351 122.036 207.351 123.752V130H209.815V123.202C209.815 120.518 208.121 118.956 205.371 118.956C202.841 118.956 201.433 120.078 200.839 122.036H200.817L200.905 119.132H198.441V130ZM216.966 130.176C219.188 130.176 220.552 129.076 220.97 127.36H221.014C220.97 128.416 220.948 129.362 220.904 130H223.367V114.754H220.904V121.046H220.882C220.442 119.77 219.166 118.956 217.12 118.956C213.886 118.956 211.84 121.222 211.84 124.5C211.84 127.888 213.82 130.176 216.966 130.176ZM217.472 128.152C215.536 128.152 214.282 126.656 214.282 124.5C214.282 122.432 215.558 120.98 217.516 120.98C219.562 120.98 220.904 122.212 220.904 124.148V124.676C220.904 126.788 219.54 128.152 217.472 128.152ZM231.024 116.558L234.28 118.12V116.294L231.024 114.732H230.98L227.724 116.294V118.12L230.98 116.558H231.024ZM236.194 124.17C236.194 120.782 234.236 118.956 231.156 118.956C227.724 118.956 225.568 121.134 225.568 124.654C225.568 128.064 227.724 130.176 231.156 130.176C234.126 130.176 236.106 128.702 236.194 126.282H233.972C233.862 127.558 232.784 128.262 231.2 128.262C229.352 128.262 228.186 127.14 228.054 125.05H236.194V124.17ZM233.972 123.554H228.12C228.406 121.75 229.484 120.87 231.178 120.87C232.96 120.87 233.972 121.772 233.972 123.4V123.554ZM238.337 130H240.801V124.742C240.801 122.366 242.165 121.068 244.321 121.068C246.279 121.068 247.247 122.036 247.247 123.752V130H249.711V123.202C249.711 120.518 248.017 118.956 245.267 118.956C242.737 118.956 241.329 120.078 240.735 122.036H240.713L240.801 119.132H238.337V130ZM257.06 130.176C260.162 130.176 262.23 128.482 262.23 125.578H260.008C259.986 127.184 258.908 128.152 257.17 128.152C255.344 128.152 254.2 126.788 254.2 124.566C254.2 122.322 255.366 120.98 257.258 120.98C258.908 120.98 259.964 121.97 259.986 123.598H262.208C262.208 120.716 260.228 118.956 257.192 118.956C253.914 118.956 251.736 121.09 251.736 124.566C251.736 128.042 253.87 130.176 257.06 130.176ZM264.486 117.856H267.016V115.436H264.486V117.856ZM264.508 130H266.972V119.132H264.508V130ZM273.382 130.176C275.78 130.176 277.078 129.208 277.43 127.602H277.452C277.452 128.482 277.386 129.472 277.342 130H279.806V123.378C279.806 120.518 277.87 118.956 274.57 118.956C271.468 118.956 269.576 120.254 269.576 122.432C269.576 122.63 269.598 122.916 269.62 123.07H271.886C271.864 122.894 271.864 122.718 271.864 122.652C271.864 121.442 272.81 120.804 274.482 120.804C276.396 120.804 277.342 121.53 277.342 123.158V123.928H273.316C270.412 123.928 269.246 125.226 269.246 126.876C269.246 128.988 270.896 130.176 273.382 130.176ZM273.888 128.328C272.392 128.328 271.512 127.756 271.512 126.766C271.512 125.908 272.128 125.424 273.536 125.424H277.342V125.622C277.342 127.294 276.022 128.328 273.888 128.328ZM287.962 130H290.426V121.134H294.21V119.132H290.426V118.164C290.426 116.976 291.108 116.316 292.362 116.316C293.11 116.316 293.682 116.47 294.034 116.58V114.622C293.682 114.49 292.89 114.314 291.922 114.314C289.568 114.314 287.962 115.634 287.962 118.054V119.132H286.224V121.134H287.962V130ZM296.102 117.856H298.632V115.436H296.102V117.856ZM296.124 130H298.588V119.132H296.124V130ZM301.158 130H303.622V124.742C303.622 122.366 304.986 121.068 307.142 121.068C309.1 121.068 310.068 122.036 310.068 123.752V130H312.532V123.202C312.532 120.518 310.838 118.956 308.088 118.956C305.558 118.956 304.15 120.078 303.556 122.036H303.534L303.622 119.132H301.158V130ZM318.714 130.176C321.112 130.176 322.41 129.208 322.762 127.602H322.784C322.784 128.482 322.718 129.472 322.674 130H325.138V123.378C325.138 120.518 323.202 118.956 319.902 118.956C316.8 118.956 314.908 120.254 314.908 122.432C314.908 122.63 314.93 122.916 314.952 123.07H317.218C317.196 122.894 317.196 122.718 317.196 122.652C317.196 121.442 318.142 120.804 319.814 120.804C321.728 120.804 322.674 121.53 322.674 123.158V123.928H318.648C315.744 123.928 314.578 125.226 314.578 126.876C314.578 128.988 316.228 130.176 318.714 130.176ZM319.22 128.328C317.724 128.328 316.844 127.756 316.844 126.766C316.844 125.908 317.46 125.424 318.868 125.424H322.674V125.622C322.674 127.294 321.354 128.328 319.22 128.328ZM327.498 130H329.962V124.742C329.962 122.366 331.326 121.068 333.482 121.068C335.44 121.068 336.408 122.036 336.408 123.752V130H338.872V123.202C338.872 120.518 337.178 118.956 334.428 118.956C331.898 118.956 330.49 120.078 329.896 122.036H329.874L329.962 119.132H327.498V130ZM346.22 130.176C349.322 130.176 351.39 128.482 351.39 125.578H349.168C349.146 127.184 348.068 128.152 346.33 128.152C344.504 128.152 343.36 126.788 343.36 124.566C343.36 122.322 344.526 120.98 346.418 120.98C348.068 120.98 349.124 121.97 349.146 123.598H351.368C351.368 120.716 349.388 118.956 346.352 118.956C343.074 118.956 340.896 121.09 340.896 124.566C340.896 128.042 343.03 130.176 346.22 130.176ZM363.876 124.17C363.876 120.782 361.918 118.956 358.838 118.956C355.406 118.956 353.25 121.134 353.25 124.654C353.25 128.064 355.406 130.176 358.838 130.176C361.808 130.176 363.788 128.702 363.876 126.282H361.654C361.544 127.558 360.466 128.262 358.882 128.262C357.034 128.262 355.868 127.14 355.736 125.05H363.876V124.17ZM361.654 123.554H355.802C356.088 121.75 357.166 120.87 358.86 120.87C360.642 120.87 361.654 121.772 361.654 123.4V123.554ZM366.085 117.856H368.615V115.436H366.085V117.856ZM366.107 130H368.571V119.132H366.107V130ZM371.154 130H373.618V125.248C373.618 122.652 374.784 121.068 376.654 121.068C378.106 121.068 378.81 121.926 378.81 123.752C378.81 124.258 378.766 124.808 378.722 125.226H380.966C381.01 124.764 381.076 123.884 381.076 123.202C381.076 120.496 379.778 118.956 377.424 118.956C375.18 118.956 374.058 120.298 373.552 122.256H373.53L373.618 119.132H371.154V130ZM387.013 130.176C389.411 130.176 390.709 129.208 391.061 127.602H391.083C391.083 128.482 391.017 129.472 390.973 130H393.437V123.378C393.437 120.518 391.501 118.956 388.201 118.956C385.099 118.956 383.207 120.254 383.207 122.432C383.207 122.63 383.229 122.916 383.251 123.07H385.517C385.495 122.894 385.495 122.718 385.495 122.652C385.495 121.442 386.441 120.804 388.113 120.804C390.027 120.804 390.973 121.53 390.973 123.158V123.928H386.947C384.043 123.928 382.877 125.226 382.877 126.876C382.877 128.988 384.527 130.176 387.013 130.176ZM387.519 128.328C386.023 128.328 385.143 127.756 385.143 126.766C385.143 125.908 385.759 125.424 387.167 125.424H390.973V125.622C390.973 127.294 389.653 128.328 387.519 128.328ZM396.478 125.028H397.446L398.172 117.702V115.216H395.752V117.702L396.478 125.028ZM395.708 130H398.216V127.14H395.708V130ZM64.0218 162H67.2338L73.0198 147.524H70.2918L65.8258 159.58H65.7818L61.2498 147.524H58.2798L64.0218 162ZM74.7355 149.856H77.2655V147.436H74.7355V149.856ZM74.7575 162H77.2215V151.132H74.7575V162ZM83.7643 162H86.6903L91.3983 151.132H88.8243L85.3703 159.69H85.3263L81.9163 151.132H79.0343L83.7643 162ZM103.055 156.17C103.055 152.782 101.097 150.956 98.0173 150.956C94.5853 150.956 92.4293 153.134 92.4293 156.654C92.4293 160.064 94.5853 162.176 98.0173 162.176C100.987 162.176 102.967 160.702 103.055 158.282H100.833C100.723 159.558 99.6453 160.262 98.0613 160.262C96.2133 160.262 95.0473 159.14 94.9153 157.05H103.055V156.17ZM100.833 155.554H94.9813C95.2673 153.75 96.3453 152.87 98.0393 152.87C99.8213 152.87 100.833 153.772 100.833 155.4V155.554ZM105.199 162H107.663V156.698C107.663 154.366 108.785 153.068 110.457 153.068C111.931 153.068 112.745 154.036 112.745 155.576V162H115.209V156.61C115.209 154.344 116.309 153.068 118.025 153.068C119.499 153.068 120.269 154.036 120.269 155.62V162H122.733V155.07C122.733 152.518 121.347 150.956 118.927 150.956C116.859 150.956 115.539 152.056 115.143 153.816H115.121C114.857 152.056 113.493 150.956 111.381 150.956C109.401 150.956 108.081 152.122 107.597 153.992H107.575L107.663 151.132H105.199V162ZM130.439 162.176C133.915 162.176 136.137 160.042 136.137 156.588C136.137 153.112 133.915 150.956 130.439 150.956C126.985 150.956 124.763 153.112 124.763 156.588C124.763 160.042 126.985 162.176 130.439 162.176ZM130.439 160.152C128.437 160.152 127.227 158.788 127.227 156.588C127.227 154.366 128.437 152.98 130.439 152.98C132.441 152.98 133.673 154.366 133.673 156.588C133.673 158.788 132.441 160.152 130.439 160.152ZM142.865 162.176C146.341 162.176 148.189 160.878 148.189 158.678C148.189 157.798 147.771 156.962 147.045 156.566C146.275 156.126 145.395 155.972 143.855 155.818C142.535 155.686 141.501 155.576 140.973 155.4C140.335 155.18 140.225 154.74 140.225 154.278C140.225 153.354 141.193 152.738 142.909 152.738C144.713 152.738 145.483 153.42 145.505 154.828H147.727C147.727 152.364 146.231 150.956 142.843 150.956C139.895 150.956 137.783 152.276 137.783 154.454C137.783 155.29 138.135 156.082 138.729 156.522C139.389 157.006 140.533 157.226 142.227 157.38C143.437 157.49 144.471 157.6 144.999 157.798C145.571 157.996 145.725 158.37 145.725 158.788C145.725 159.778 144.845 160.394 142.843 160.394C140.731 160.394 140.005 159.624 140.005 158.37H137.783C137.783 160.504 139.125 162.176 142.865 162.176ZM160.732 162.176C164.208 162.176 166.43 160.042 166.43 156.588C166.43 153.112 164.208 150.956 160.732 150.956C157.278 150.956 155.056 153.112 155.056 156.588C155.056 160.042 157.278 162.176 160.732 162.176ZM160.732 160.152C158.73 160.152 157.52 158.788 157.52 156.588C157.52 154.366 158.73 152.98 160.732 152.98C162.734 152.98 163.966 154.366 163.966 156.588C163.966 158.788 162.734 160.152 160.732 160.152ZM173.605 162H176.069V156.742C176.069 154.366 177.433 153.068 179.589 153.068C181.547 153.068 182.515 154.036 182.515 155.752V162H184.979V155.202C184.979 152.518 183.285 150.956 180.535 150.956C178.005 150.956 176.597 152.078 176.003 154.036H175.981L176.069 151.132H173.605V162ZM192.68 162.176C196.156 162.176 198.378 160.042 198.378 156.588C198.378 153.112 196.156 150.956 192.68 150.956C189.226 150.956 187.004 153.112 187.004 156.588C187.004 160.042 189.226 162.176 192.68 162.176ZM192.68 160.152C190.678 160.152 189.468 158.788 189.468 156.588C189.468 154.366 190.678 152.98 192.68 152.98C194.682 152.98 195.914 154.366 195.914 156.588C195.914 158.788 194.682 160.152 192.68 160.152ZM203.797 162H206.723L211.431 151.132H208.857L205.403 159.69H205.359L201.949 151.132H199.067L203.797 162ZM218.139 162.176C221.615 162.176 223.837 160.042 223.837 156.588C223.837 153.112 221.615 150.956 218.139 150.956C214.685 150.956 212.463 153.112 212.463 156.588C212.463 160.042 214.685 162.176 218.139 162.176ZM218.139 160.152C216.137 160.152 214.927 158.788 214.927 156.588C214.927 154.366 216.137 152.98 218.139 152.98C220.141 152.98 221.373 154.366 221.373 156.588C221.373 158.788 220.141 160.152 218.139 160.152ZM225.941 165.036C227.855 164.882 228.823 163.804 228.823 161.208V159.14H226.337V162H227.371V162.066C227.371 163.144 226.953 163.672 225.941 163.76V165.036ZM241.631 162.132C242.533 162.132 243.281 161.978 243.611 161.868V159.91C243.303 159.998 242.599 160.108 241.983 160.108C240.487 160.108 239.959 159.404 239.959 157.996V153.134H243.699V151.132H239.959V148.668H237.913L237.803 150.296C237.737 150.912 237.583 151.132 237.165 151.132H235.779V153.134H237.495V158.128C237.495 160.526 238.661 162.132 241.631 162.132ZM245.664 162H248.128V157.248C248.128 154.652 249.294 153.068 251.164 153.068C252.616 153.068 253.32 153.926 253.32 155.752C253.32 156.258 253.276 156.808 253.232 157.226H255.476C255.52 156.764 255.586 155.884 255.586 155.202C255.586 152.496 254.288 150.956 251.934 150.956C249.69 150.956 248.568 152.298 248.062 154.256H248.04L248.128 151.132H245.664V162ZM261.523 162.176C263.921 162.176 265.219 161.208 265.571 159.602H265.593C265.593 160.482 265.527 161.472 265.483 162H267.947V155.378C267.947 152.518 266.011 150.956 262.711 150.956C259.609 150.956 257.717 152.254 257.717 154.432C257.717 154.63 257.739 154.916 257.761 155.07H260.027C260.005 154.894 260.005 154.718 260.005 154.652C260.005 153.442 260.951 152.804 262.623 152.804C264.537 152.804 265.483 153.53 265.483 155.158V155.928H261.457C258.553 155.928 257.387 157.226 257.387 158.876C257.387 160.988 259.037 162.176 261.523 162.176ZM262.029 160.328C260.533 160.328 259.653 159.756 259.653 158.766C259.653 157.908 260.269 157.424 261.677 157.424H265.483V157.622C265.483 159.294 264.163 160.328 262.029 160.328ZM270.306 162H272.77V156.742C272.77 154.366 274.134 153.068 276.29 153.068C278.248 153.068 279.216 154.036 279.216 155.752V162H281.68V155.202C281.68 152.518 279.986 150.956 277.236 150.956C274.706 150.956 273.298 152.078 272.704 154.036H272.682L272.77 151.132H270.306V162ZM288.787 162.176C292.263 162.176 294.111 160.878 294.111 158.678C294.111 157.798 293.693 156.962 292.967 156.566C292.197 156.126 291.317 155.972 289.777 155.818C288.457 155.686 287.423 155.576 286.895 155.4C286.257 155.18 286.147 154.74 286.147 154.278C286.147 153.354 287.115 152.738 288.831 152.738C290.635 152.738 291.405 153.42 291.427 154.828H293.649C293.649 152.364 292.153 150.956 288.765 150.956C285.817 150.956 283.705 152.276 283.705 154.454C283.705 155.29 284.057 156.082 284.651 156.522C285.311 157.006 286.455 157.226 288.149 157.38C289.359 157.49 290.393 157.6 290.921 157.798C291.493 157.996 291.647 158.37 291.647 158.788C291.647 159.778 290.767 160.394 288.765 160.394C286.653 160.394 285.927 159.624 285.927 158.37H283.705C283.705 160.504 285.047 162.176 288.787 162.176ZM296.899 162H299.363V153.134H303.147V151.132H299.363V150.164C299.363 148.976 300.045 148.316 301.299 148.316C302.047 148.316 302.619 148.47 302.971 148.58V146.622C302.619 146.49 301.827 146.314 300.859 146.314C298.505 146.314 296.899 147.634 296.899 150.054V151.132H295.161V153.134H296.899V162ZM309.447 162.176C312.923 162.176 315.145 160.042 315.145 156.588C315.145 153.112 312.923 150.956 309.447 150.956C305.993 150.956 303.771 153.112 303.771 156.588C303.771 160.042 305.993 162.176 309.447 162.176ZM309.447 160.152C307.445 160.152 306.235 158.788 306.235 156.588C306.235 154.366 307.445 152.98 309.447 152.98C311.449 152.98 312.681 154.366 312.681 156.588C312.681 158.788 311.449 160.152 309.447 160.152ZM317.25 162H319.714V157.248C319.714 154.652 320.88 153.068 322.75 153.068C324.202 153.068 324.906 153.926 324.906 155.752C324.906 156.258 324.862 156.808 324.818 157.226H327.062C327.106 156.764 327.172 155.884 327.172 155.202C327.172 152.496 325.874 150.956 323.52 150.956C321.276 150.956 320.154 152.298 319.648 154.256H319.626L319.714 151.132H317.25V162ZM329.281 162H331.745V156.698C331.745 154.366 332.867 153.068 334.539 153.068C336.013 153.068 336.827 154.036 336.827 155.576V162H339.291V156.61C339.291 154.344 340.391 153.068 342.107 153.068C343.581 153.068 344.351 154.036 344.351 155.62V162H346.815V155.07C346.815 152.518 345.429 150.956 343.009 150.956C340.941 150.956 339.621 152.056 339.225 153.816H339.203C338.939 152.056 337.575 150.956 335.463 150.956C333.483 150.956 332.163 152.122 331.679 153.992H331.657L331.745 151.132H329.281V162ZM353.003 162.176C355.401 162.176 356.699 161.208 357.051 159.602H357.073C357.073 160.482 357.007 161.472 356.963 162H359.427V155.378C359.427 152.518 357.491 150.956 354.191 150.956C351.089 150.956 349.197 152.254 349.197 154.432C349.197 154.63 349.219 154.916 349.241 155.07H351.507C351.485 154.894 351.485 154.718 351.485 154.652C351.485 153.442 352.431 152.804 354.103 152.804C356.017 152.804 356.963 153.53 356.963 155.158V155.928H352.937C350.033 155.928 348.867 157.226 348.867 158.876C348.867 160.988 350.517 162.176 353.003 162.176ZM353.509 160.328C352.013 160.328 351.133 159.756 351.133 158.766C351.133 157.908 351.749 157.424 353.157 157.424H356.963V157.622C356.963 159.294 355.643 160.328 353.509 160.328ZM361.787 162H364.251V156.742C364.251 154.366 365.615 153.068 367.771 153.068C369.729 153.068 370.697 154.036 370.697 155.752V162H373.161V155.202C373.161 152.518 371.467 150.956 368.717 150.956C366.187 150.956 364.779 152.078 364.185 154.036H364.163L364.251 151.132H361.787V162ZM380.311 162.176C382.533 162.176 383.897 161.076 384.315 159.36H384.359C384.315 160.416 384.293 161.362 384.249 162H386.713V146.754H384.249V153.046H384.227C383.787 151.77 382.511 150.956 380.465 150.956C377.231 150.956 375.185 153.222 375.185 156.5C375.185 159.888 377.165 162.176 380.311 162.176ZM380.817 160.152C378.881 160.152 377.627 158.656 377.627 156.5C377.627 154.432 378.903 152.98 380.861 152.98C382.907 152.98 384.249 154.212 384.249 156.148V156.676C384.249 158.788 382.885 160.152 380.817 160.152ZM394.59 162.176C398.066 162.176 400.288 160.042 400.288 156.588C400.288 153.112 398.066 150.956 394.59 150.956C391.136 150.956 388.914 153.112 388.914 156.588C388.914 160.042 391.136 162.176 394.59 162.176ZM394.59 160.152C392.588 160.152 391.378 158.788 391.378 156.588C391.378 154.366 392.588 152.98 394.59 152.98C396.592 152.98 397.824 154.366 397.824 156.588C397.824 158.788 396.592 160.152 394.59 160.152ZM62.8387 194.176C66.3147 194.176 68.5367 192.042 68.5367 188.588C68.5367 185.112 66.3147 182.956 62.8387 182.956C59.3847 182.956 57.1627 185.112 57.1627 188.588C57.1627 192.042 59.3847 194.176 62.8387 194.176ZM62.8387 192.152C60.8367 192.152 59.6267 190.788 59.6267 188.588C59.6267 186.366 60.8367 184.98 62.8387 184.98C64.8407 184.98 66.0727 186.366 66.0727 188.588C66.0727 190.788 64.8407 192.152 62.8387 192.152ZM76.4375 194H78.9015V185.134H82.6855V183.132H78.9015V182.164C78.9015 180.976 79.5835 180.316 80.8375 180.316C81.5855 180.316 82.1575 180.47 82.5095 180.58V178.622C82.1575 178.49 81.3655 178.314 80.3975 178.314C78.0435 178.314 76.4375 179.634 76.4375 182.054V183.132H74.6995V185.134H76.4375V194ZM88.9861 194.176C91.4061 194.176 92.9241 193.032 93.3861 190.964H93.4081C93.4081 192.108 93.3641 193.274 93.2981 194H95.7621V183.132H93.2981V187.95C93.2981 190.59 91.9121 192.064 89.7121 192.064C87.9301 192.064 86.8741 191.096 86.8741 189.38V183.132H84.4101V189.732C84.4101 192.614 86.1481 194.176 88.9861 194.176ZM103.067 194.132C103.969 194.132 104.717 193.978 105.047 193.868V191.91C104.739 191.998 104.035 192.108 103.419 192.108C101.923 192.108 101.395 191.404 101.395 189.996V185.134H105.135V183.132H101.395V180.668H99.3491L99.2391 182.296C99.1731 182.912 99.0191 183.132 98.6011 183.132H97.2151V185.134H98.9311V190.128C98.9311 192.526 100.097 194.132 103.067 194.132ZM111.566 194.176C113.986 194.176 115.504 193.032 115.966 190.964H115.988C115.988 192.108 115.944 193.274 115.878 194H118.342V183.132H115.878V187.95C115.878 190.59 114.492 192.064 112.292 192.064C110.51 192.064 109.454 191.096 109.454 189.38V183.132H106.99V189.732C106.99 192.614 108.728 194.176 111.566 194.176ZM120.807 194H123.271V189.248C123.271 186.652 124.437 185.068 126.307 185.068C127.759 185.068 128.463 185.926 128.463 187.752C128.463 188.258 128.419 188.808 128.375 189.226H130.619C130.663 188.764 130.729 187.884 130.729 187.202C130.729 184.496 129.431 182.956 127.077 182.956C124.833 182.956 123.711 184.298 123.205 186.256H123.183L123.271 183.132H120.807V194ZM138.184 194.176C141.66 194.176 143.882 192.042 143.882 188.588C143.882 185.112 141.66 182.956 138.184 182.956C134.73 182.956 132.508 185.112 132.508 188.588C132.508 192.042 134.73 194.176 138.184 194.176ZM138.184 192.152C136.182 192.152 134.972 190.788 134.972 188.588C134.972 186.366 136.182 184.98 138.184 184.98C140.186 184.98 141.418 186.366 141.418 188.588C141.418 190.788 140.186 192.152 138.184 192.152ZM146.405 194H148.891V191.14H146.405V194ZM173.061 194H176.119L170.245 179.524H167.033L161.137 194H163.865L165.097 190.744H171.851L173.061 194ZM165.757 188.984L168.463 181.768H168.507L171.191 188.984H165.757ZM178.145 194H180.609V185.134H184.393V183.132H180.609V182.164C180.609 180.976 181.291 180.316 182.545 180.316C183.293 180.316 183.865 180.47 184.217 180.58V178.622C183.865 178.49 183.073 178.314 182.105 178.314C179.751 178.314 178.145 179.634 178.145 182.054V183.132H176.407V185.134H178.145V194ZM186.285 181.856H188.815V179.436H186.285V181.856ZM186.307 194H188.771V183.132H186.307V194ZM191.34 194H193.804V188.742C193.804 186.366 195.168 185.068 197.324 185.068C199.282 185.068 200.25 186.036 200.25 187.752V194H202.714V187.202C202.714 184.518 201.02 182.956 198.27 182.956C195.74 182.956 194.332 184.078 193.738 186.036H193.716L193.804 183.132H191.34V194ZM208.897 194.176C211.295 194.176 212.593 193.208 212.945 191.602H212.967C212.967 192.482 212.901 193.472 212.857 194H215.321V187.378C215.321 184.518 213.385 182.956 210.085 182.956C206.983 182.956 205.091 184.254 205.091 186.432C205.091 186.63 205.113 186.916 205.135 187.07H207.401C207.379 186.894 207.379 186.718 207.379 186.652C207.379 185.442 208.325 184.804 209.997 184.804C211.911 184.804 212.857 185.53 212.857 187.158V187.928H208.831C205.927 187.928 204.761 189.226 204.761 190.876C204.761 192.988 206.411 194.176 208.897 194.176ZM209.403 192.328C207.907 192.328 207.027 191.756 207.027 190.766C207.027 189.908 207.643 189.424 209.051 189.424H212.857V189.622C212.857 191.294 211.537 192.328 209.403 192.328ZM217.746 194H220.21V178.754H217.746V194ZM222.772 197.036C224.686 196.882 225.654 195.804 225.654 193.208V191.14H223.168V194H224.202V194.066C224.202 195.144 223.784 195.672 222.772 195.76V197.036ZM238.418 194.176C240.64 194.176 242.004 193.076 242.422 191.36H242.466C242.422 192.416 242.4 193.362 242.356 194H244.82V178.754H242.356V185.046H242.334C241.894 183.77 240.618 182.956 238.572 182.956C235.338 182.956 233.292 185.222 233.292 188.5C233.292 191.888 235.272 194.176 238.418 194.176ZM238.924 192.152C236.988 192.152 235.734 190.656 235.734 188.5C235.734 186.432 237.01 184.98 238.968 184.98C241.014 184.98 242.356 186.212 242.356 188.148V188.676C242.356 190.788 240.992 192.152 238.924 192.152ZM257.646 188.17C257.646 184.782 255.688 182.956 252.608 182.956C249.176 182.956 247.02 185.134 247.02 188.654C247.02 192.064 249.176 194.176 252.608 194.176C255.578 194.176 257.558 192.702 257.646 190.282H255.424C255.314 191.558 254.236 192.262 252.652 192.262C250.804 192.262 249.638 191.14 249.506 189.05H257.646V188.17ZM255.424 187.554H249.572C249.858 185.75 250.936 184.87 252.63 184.87C254.412 184.87 255.424 185.772 255.424 187.4V187.554ZM259.856 198.356H262.32V194.088C262.32 193.648 262.276 192.526 262.254 191.8H262.276C262.738 193.208 264.146 194.176 266.302 194.176C269.426 194.176 271.406 191.888 271.406 188.368C271.406 185.09 269.448 182.956 266.346 182.956C264.19 182.956 262.738 184.012 262.298 185.662H262.276L262.32 183.132H259.856V198.356ZM265.818 192.152C263.706 192.152 262.32 190.964 262.32 189.116V188.544C262.364 186.366 263.728 184.98 265.774 184.98C267.732 184.98 268.942 186.344 268.942 188.434C268.942 190.7 267.71 192.152 265.818 192.152ZM278.886 194.176C282.362 194.176 284.584 192.042 284.584 188.588C284.584 185.112 282.362 182.956 278.886 182.956C275.432 182.956 273.21 185.112 273.21 188.588C273.21 192.042 275.432 194.176 278.886 194.176ZM278.886 192.152C276.884 192.152 275.674 190.788 275.674 188.588C275.674 186.366 276.884 184.98 278.886 184.98C280.888 184.98 282.12 186.366 282.12 188.588C282.12 190.788 280.888 192.152 278.886 192.152ZM286.754 181.856H289.284V179.436H286.754V181.856ZM286.776 194H289.24V183.132H286.776V194ZM296.575 194.176C300.051 194.176 301.899 192.878 301.899 190.678C301.899 189.798 301.481 188.962 300.755 188.566C299.985 188.126 299.105 187.972 297.565 187.818C296.245 187.686 295.211 187.576 294.683 187.4C294.045 187.18 293.935 186.74 293.935 186.278C293.935 185.354 294.903 184.738 296.619 184.738C298.423 184.738 299.193 185.42 299.215 186.828H301.437C301.437 184.364 299.941 182.956 296.553 182.956C293.605 182.956 291.493 184.276 291.493 186.454C291.493 187.29 291.845 188.082 292.439 188.522C293.099 189.006 294.243 189.226 295.937 189.38C297.147 189.49 298.181 189.6 298.709 189.798C299.281 189.996 299.435 190.37 299.435 190.788C299.435 191.778 298.555 192.394 296.553 192.394C294.441 192.394 293.715 191.624 293.715 190.37H291.493C291.493 192.504 292.835 194.176 296.575 194.176ZM313.892 194.176C316.114 194.176 317.478 193.076 317.896 191.36H317.94C317.896 192.416 317.874 193.362 317.83 194H320.294V178.754H317.83V185.046H317.808C317.368 183.77 316.092 182.956 314.046 182.956C310.812 182.956 308.766 185.222 308.766 188.5C308.766 191.888 310.746 194.176 313.892 194.176ZM314.398 192.152C312.462 192.152 311.208 190.656 311.208 188.5C311.208 186.432 312.484 184.98 314.442 184.98C316.488 184.98 317.83 186.212 317.83 188.148V188.676C317.83 190.788 316.466 192.152 314.398 192.152ZM328.171 194.176C331.647 194.176 333.869 192.042 333.869 188.588C333.869 185.112 331.647 182.956 328.171 182.956C324.717 182.956 322.495 185.112 322.495 188.588C322.495 192.042 324.717 194.176 328.171 194.176ZM328.171 192.152C326.169 192.152 324.959 190.788 324.959 188.588C324.959 186.366 326.169 184.98 328.171 184.98C330.173 184.98 331.405 186.366 331.405 188.588C331.405 190.788 330.173 192.152 328.171 192.152ZM341.11 198.356H343.574V194.088C343.574 193.648 343.53 192.526 343.508 191.8H343.53C343.992 193.208 345.4 194.176 347.556 194.176C350.68 194.176 352.66 191.888 352.66 188.368C352.66 185.09 350.702 182.956 347.6 182.956C345.444 182.956 343.992 184.012 343.552 185.662H343.53L343.574 183.132H341.11V198.356ZM347.072 192.152C344.96 192.152 343.574 190.964 343.574 189.116V188.544C343.618 186.366 344.982 184.98 347.028 184.98C348.986 184.98 350.196 186.344 350.196 188.434C350.196 190.7 348.964 192.152 347.072 192.152ZM360.14 194.176C363.616 194.176 365.838 192.042 365.838 188.588C365.838 185.112 363.616 182.956 360.14 182.956C356.686 182.956 354.464 185.112 354.464 188.588C354.464 192.042 356.686 194.176 360.14 194.176ZM360.14 192.152C358.138 192.152 356.928 190.788 356.928 188.588C356.928 186.366 358.138 184.98 360.14 184.98C362.142 184.98 363.374 186.366 363.374 188.588C363.374 190.788 362.142 192.152 360.14 192.152ZM367.942 194H370.406V188.742C370.406 186.366 371.77 185.068 373.926 185.068C375.884 185.068 376.852 186.036 376.852 187.752V194H379.316V187.202C379.316 184.518 377.622 182.956 374.872 182.956C372.342 182.956 370.934 184.078 370.34 186.036H370.318L370.406 183.132H367.942V194ZM386.51 194.132C387.412 194.132 388.16 193.978 388.49 193.868V191.91C388.182 191.998 387.478 192.108 386.862 192.108C385.366 192.108 384.838 191.404 384.838 189.996V185.134H388.578V183.132H384.838V180.668H382.792L382.682 182.296C382.616 182.912 382.462 183.132 382.044 183.132H380.658V185.134H382.374V190.128C382.374 192.526 383.54 194.132 386.51 194.132ZM395.46 194.176C398.936 194.176 401.158 192.042 401.158 188.588C401.158 185.112 398.936 182.956 395.46 182.956C392.006 182.956 389.784 185.112 389.784 188.588C389.784 192.042 392.006 194.176 395.46 194.176ZM395.46 192.152C393.458 192.152 392.248 190.788 392.248 188.588C392.248 186.366 393.458 184.98 395.46 184.98C397.462 184.98 398.694 186.366 398.694 188.588C398.694 190.788 397.462 192.152 395.46 192.152ZM403.262 197.036C405.176 196.882 406.144 195.804 406.144 193.208V191.14H403.658V194H404.692V194.066C404.692 195.144 404.274 195.672 403.262 195.76V197.036ZM116.915 226H119.841L124.549 215.132H121.975L118.521 223.69H118.477L115.067 215.132H112.185L116.915 226ZM136.206 220.17C136.206 216.782 134.248 214.956 131.168 214.956C127.736 214.956 125.58 217.134 125.58 220.654C125.58 224.064 127.736 226.176 131.168 226.176C134.138 226.176 136.118 224.702 136.206 222.282H133.984C133.874 223.558 132.796 224.262 131.212 224.262C129.364 224.262 128.198 223.14 128.066 221.05H136.206V220.17ZM133.984 219.554H128.132C128.418 217.75 129.496 216.87 131.19 216.87C132.972 216.87 133.984 217.772 133.984 219.4V219.554ZM138.349 226H140.813V220.698C140.813 218.366 141.935 217.068 143.607 217.068C145.081 217.068 145.895 218.036 145.895 219.576V226H148.359V220.61C148.359 218.344 149.459 217.068 151.175 217.068C152.649 217.068 153.419 218.036 153.419 219.62V226H155.883V219.07C155.883 216.518 154.497 214.956 152.077 214.956C150.009 214.956 148.689 216.056 148.293 217.816H148.271C148.007 216.056 146.643 214.956 144.531 214.956C142.551 214.956 141.231 216.122 140.747 217.992H140.725L140.813 215.132H138.349V226ZM167.78 226.176C170.2 226.176 171.718 225.032 172.18 222.964H172.202C172.202 224.108 172.158 225.274 172.092 226H174.556V215.132H172.092V219.95C172.092 222.59 170.706 224.064 168.506 224.064C166.724 224.064 165.668 223.096 165.668 221.38V215.132H163.204V221.732C163.204 224.614 164.942 226.176 167.78 226.176ZM177.021 226H179.485V220.698C179.485 218.366 180.607 217.068 182.279 217.068C183.753 217.068 184.567 218.036 184.567 219.576V226H187.031V220.61C187.031 218.344 188.131 217.068 189.847 217.068C191.321 217.068 192.091 218.036 192.091 219.62V226H194.555V219.07C194.555 216.518 193.169 214.956 190.749 214.956C188.681 214.956 187.361 216.056 186.965 217.816H186.943C186.679 216.056 185.315 214.956 183.203 214.956C181.223 214.956 179.903 216.122 179.419 217.992H179.397L179.485 215.132H177.021V226ZM201.986 226H204.45V220.742C204.45 218.366 205.814 217.068 207.97 217.068C209.928 217.068 210.896 218.036 210.896 219.752V226H213.36V219.202C213.36 216.518 211.666 214.956 208.916 214.956C206.386 214.956 204.978 216.078 204.384 218.036H204.362L204.45 215.132H201.986V226ZM221.06 226.176C224.536 226.176 226.758 224.042 226.758 220.588C226.758 217.112 224.536 214.956 221.06 214.956C217.606 214.956 215.384 217.112 215.384 220.588C215.384 224.042 217.606 226.176 221.06 226.176ZM221.06 224.152C219.058 224.152 217.848 222.788 217.848 220.588C217.848 218.366 219.058 216.98 221.06 216.98C223.062 216.98 224.294 218.366 224.294 220.588C224.294 222.788 223.062 224.152 221.06 224.152ZM232.178 226H235.104L239.812 215.132H237.238L233.784 223.69H233.74L230.33 215.132H227.448L232.178 226ZM246.519 226.176C249.995 226.176 252.217 224.042 252.217 220.588C252.217 217.112 249.995 214.956 246.519 214.956C243.065 214.956 240.843 217.112 240.843 220.588C240.843 224.042 243.065 226.176 246.519 226.176ZM246.519 224.152C244.517 224.152 243.307 222.788 243.307 220.588C243.307 218.366 244.517 216.98 246.519 216.98C248.521 216.98 249.753 218.366 249.753 220.588C249.753 222.788 248.521 224.152 246.519 224.152ZM264.386 226.176C267.488 226.176 269.556 224.482 269.556 221.578H267.334C267.312 223.184 266.234 224.152 264.496 224.152C262.67 224.152 261.526 222.788 261.526 220.566C261.526 218.322 262.692 216.98 264.584 216.98C266.234 216.98 267.29 217.97 267.312 219.598H269.534C269.534 216.716 267.554 214.956 264.518 214.956C261.24 214.956 259.062 217.09 259.062 220.566C259.062 224.042 261.196 226.176 264.386 226.176ZM277.092 226.176C280.568 226.176 282.79 224.042 282.79 220.588C282.79 217.112 280.568 214.956 277.092 214.956C273.638 214.956 271.416 217.112 271.416 220.588C271.416 224.042 273.638 226.176 277.092 226.176ZM277.092 224.152C275.09 224.152 273.88 222.788 273.88 220.588C273.88 218.366 275.09 216.98 277.092 216.98C279.094 216.98 280.326 218.366 280.326 220.588C280.326 222.788 279.094 224.152 277.092 224.152ZM284.894 226H287.358V220.698C287.358 218.366 288.48 217.068 290.152 217.068C291.626 217.068 292.44 218.036 292.44 219.576V226H294.904V220.61C294.904 218.344 296.004 217.068 297.72 217.068C299.194 217.068 299.964 218.036 299.964 219.62V226H302.428V219.07C302.428 216.518 301.042 214.956 298.622 214.956C296.554 214.956 295.234 216.056 294.838 217.816H294.816C294.552 216.056 293.188 214.956 291.076 214.956C289.096 214.956 287.776 216.122 287.292 217.992H287.27L287.358 215.132H284.894V226ZM315.085 220.17C315.085 216.782 313.127 214.956 310.047 214.956C306.615 214.956 304.459 217.134 304.459 220.654C304.459 224.064 306.615 226.176 310.047 226.176C313.017 226.176 314.997 224.702 315.085 222.282H312.863C312.753 223.558 311.675 224.262 310.091 224.262C308.243 224.262 307.077 223.14 306.945 221.05H315.085V220.17ZM312.863 219.554H307.011C307.297 217.75 308.375 216.87 310.069 216.87C311.851 216.87 312.863 217.772 312.863 219.4V219.554ZM327.392 221.578H325.17C325.148 223.184 324.07 224.152 322.332 224.152C320.506 224.152 319.362 222.788 319.362 220.566C319.362 218.322 320.528 216.98 322.42 216.98C324.07 216.98 325.126 217.97 325.148 219.598H327.37C327.37 216.716 325.39 214.956 322.354 214.956C319.076 214.956 316.898 217.09 316.898 220.566C316.898 223.734 318.658 225.78 321.386 226.132L320.682 228.002C320.968 227.958 321.672 227.87 322.42 227.87C323.344 227.87 323.63 228.112 323.63 228.574C323.63 229.146 323.234 229.608 322.332 229.608C321.43 229.608 321.1 229.344 321.012 228.794H319.274C319.362 229.938 320.264 230.796 322.332 230.796C324.466 230.796 325.346 229.74 325.346 228.552C325.346 227.562 324.752 226.924 323.542 226.924C322.926 226.924 322.64 227.1 322.464 227.21L322.442 227.188L322.838 226.154C325.588 225.934 327.392 224.284 327.392 221.578ZM334.928 226.176C338.404 226.176 340.626 224.042 340.626 220.588C340.626 217.112 338.404 214.956 334.928 214.956C331.474 214.956 329.252 217.112 329.252 220.588C329.252 224.042 331.474 226.176 334.928 226.176ZM334.928 224.152C332.926 224.152 331.716 222.788 331.716 220.588C331.716 218.366 332.926 216.98 334.928 216.98C336.93 216.98 338.162 218.366 338.162 220.588C338.162 222.788 336.93 224.152 334.928 224.152ZM343.148 226H345.634V223.14H343.148V226Z" fill="black"/>
</svg>
