<svg width="291" height="152" viewBox="0 0 291 152" fill="none" xmlns="http://www.w3.org/2000/svg">
<path d="M10.592 29.32C8.45867 29.32 6.688 29.0213 5.28 28.424C3.872 27.8053 2.80533 27.0053 2.08 26.024C1.35467 25.0427 0.970667 23.9973 0.928 22.888C0.928 22.7173 0.992 22.568 1.12 22.44C1.26933 22.2907 1.44 22.216 1.632 22.216H5.664C5.96267 22.216 6.18667 22.2693 6.336 22.376C6.50667 22.4827 6.656 22.6213 6.784 22.792C6.95467 23.112 7.18933 23.4213 7.488 23.72C7.808 24.0187 8.21333 24.264 8.704 24.456C9.216 24.6267 9.84533 24.712 10.592 24.712C11.8293 24.712 12.7573 24.52 13.376 24.136C14.016 23.752 14.336 23.2293 14.336 22.568C14.336 22.0987 14.1653 21.7147 13.824 21.416C13.4827 21.096 12.928 20.8187 12.16 20.584C11.4133 20.328 10.4107 20.072 9.152 19.816C7.53067 19.4747 6.144 19.0373 4.992 18.504C3.86133 17.9493 2.99733 17.2347 2.4 16.36C1.80267 15.464 1.504 14.3547 1.504 13.032C1.504 11.7307 1.86667 10.568 2.592 9.544C3.33867 8.52 4.37333 7.72 5.696 7.144C7.01867 6.568 8.58667 6.28 10.4 6.28C11.872 6.28 13.1627 6.472 14.272 6.856C15.4027 7.24 16.352 7.752 17.12 8.392C17.888 9.032 18.464 9.71467 18.848 10.44C19.2533 11.144 19.4667 11.8373 19.488 12.52C19.488 12.6907 19.424 12.8507 19.296 13C19.168 13.128 19.008 13.192 18.816 13.192H14.592C14.3573 13.192 14.1547 13.1493 13.984 13.064C13.8133 12.9787 13.664 12.84 13.536 12.648C13.408 12.1787 13.0667 11.7733 12.512 11.432C11.9787 11.0693 11.2747 10.888 10.4 10.888C9.46133 10.888 8.72533 11.0587 8.192 11.4C7.68 11.72 7.424 12.2213 7.424 12.904C7.424 13.3307 7.56267 13.704 7.84 14.024C8.13867 14.344 8.61867 14.6213 9.28 14.856C9.96267 15.0907 10.8907 15.336 12.064 15.592C14.0053 15.9547 15.5733 16.4133 16.768 16.968C17.9627 17.5013 18.8373 18.2053 19.392 19.08C19.9467 19.9333 20.224 21.0107 20.224 22.312C20.224 23.7627 19.808 25.0213 18.976 26.088C18.1653 27.1333 17.0347 27.9333 15.584 28.488C14.1333 29.0427 12.4693 29.32 10.592 29.32ZM32.5795 29.32C30.6168 29.32 28.9102 29 27.4595 28.36C26.0088 27.72 24.8782 26.76 24.0675 25.48C23.2568 24.1787 22.8088 22.5573 22.7235 20.616C22.7022 19.6987 22.6915 18.7813 22.6915 17.864C22.6915 16.9467 22.7022 16.0187 22.7235 15.08C22.8088 13.16 23.2568 11.5493 24.0675 10.248C24.8995 8.92533 26.0408 7.93333 27.4915 7.272C28.9422 6.61067 30.6382 6.28 32.5795 6.28C34.4995 6.28 36.1848 6.61067 37.6355 7.272C39.1075 7.93333 40.2595 8.92533 41.0915 10.248C41.9235 11.5493 42.3715 13.16 42.4355 15.08C42.4782 16.0187 42.4995 16.9467 42.4995 17.864C42.4995 18.7813 42.4782 19.6987 42.4355 20.616C42.3502 22.5573 41.9022 24.1787 41.0915 25.48C40.2808 26.76 39.1502 27.72 37.6995 28.36C36.2488 29 34.5422 29.32 32.5795 29.32ZM32.5795 24.712C33.7102 24.712 34.6275 24.3707 35.3315 23.688C36.0568 23.0053 36.4408 21.9173 36.4835 20.424C36.5262 19.4853 36.5475 18.6 36.5475 17.768C36.5475 16.936 36.5262 16.072 36.4835 15.176C36.4408 14.1733 36.2488 13.3627 35.9075 12.744C35.5875 12.104 35.1395 11.6347 34.5635 11.336C33.9875 11.0373 33.3262 10.888 32.5795 10.888C31.8542 10.888 31.2035 11.0373 30.6275 11.336C30.0515 11.6347 29.5928 12.104 29.2515 12.744C28.9102 13.3627 28.7182 14.1733 28.6755 15.176C28.6542 16.072 28.6435 16.936 28.6435 17.768C28.6435 18.6 28.6542 19.4853 28.6755 20.424C28.7395 21.9173 29.1235 23.0053 29.8275 23.688C30.5315 24.3707 31.4488 24.712 32.5795 24.712ZM47.0088 29C46.7954 29 46.6034 28.9253 46.4328 28.776C46.2834 28.6267 46.2088 28.4347 46.2088 28.2V7.4C46.2088 7.16533 46.2834 6.97333 46.4328 6.824C46.6034 6.67467 46.7954 6.6 47.0088 6.6H50.4648C50.8061 6.6 51.0621 6.696 51.2328 6.888C51.4248 7.05867 51.5421 7.19733 51.5848 7.304L57.2168 17.416L62.8488 7.304C62.9128 7.19733 63.0194 7.05867 63.1688 6.888C63.3394 6.696 63.6061 6.6 63.9688 6.6H67.3928C67.6274 6.6 67.8194 6.67467 67.9688 6.824C68.1394 6.97333 68.2248 7.16533 68.2248 7.4V28.2C68.2248 28.4347 68.1394 28.6267 67.9688 28.776C67.8194 28.9253 67.6274 29 67.3928 29H63.5848C63.3501 29 63.1474 28.9253 62.9768 28.776C62.8274 28.6267 62.7528 28.4347 62.7528 28.2V16.2L59.1368 22.888C59.0514 23.08 58.9234 23.2507 58.7528 23.4C58.5821 23.5493 58.3474 23.624 58.0488 23.624H56.3848C56.0861 23.624 55.8514 23.5493 55.6808 23.4C55.5101 23.2507 55.3714 23.08 55.2648 22.888L51.6488 16.2V28.2C51.6488 28.4347 51.5741 28.6267 51.4248 28.776C51.2754 28.9253 51.0834 29 50.8488 29H47.0088ZM81.8295 29.32C79.8668 29.32 78.1602 29 76.7095 28.36C75.2588 27.72 74.1282 26.76 73.3175 25.48C72.5068 24.1787 72.0588 22.5573 71.9735 20.616C71.9522 19.6987 71.9415 18.7813 71.9415 17.864C71.9415 16.9467 71.9522 16.0187 71.9735 15.08C72.0588 13.16 72.5068 11.5493 73.3175 10.248C74.1495 8.92533 75.2908 7.93333 76.7415 7.272C78.1922 6.61067 79.8882 6.28 81.8295 6.28C83.7495 6.28 85.4348 6.61067 86.8855 7.272C88.3575 7.93333 89.5095 8.92533 90.3415 10.248C91.1735 11.5493 91.6215 13.16 91.6855 15.08C91.7282 16.0187 91.7495 16.9467 91.7495 17.864C91.7495 18.7813 91.7282 19.6987 91.6855 20.616C91.6002 22.5573 91.1522 24.1787 90.3415 25.48C89.5308 26.76 88.4002 27.72 86.9495 28.36C85.4988 29 83.7922 29.32 81.8295 29.32ZM81.8295 24.712C82.9602 24.712 83.8775 24.3707 84.5815 23.688C85.3068 23.0053 85.6908 21.9173 85.7335 20.424C85.7762 19.4853 85.7975 18.6 85.7975 17.768C85.7975 16.936 85.7762 16.072 85.7335 15.176C85.6908 14.1733 85.4988 13.3627 85.1575 12.744C84.8375 12.104 84.3895 11.6347 83.8135 11.336C83.2375 11.0373 82.5762 10.888 81.8295 10.888C81.1042 10.888 80.4535 11.0373 79.8775 11.336C79.3015 11.6347 78.8428 12.104 78.5015 12.744C78.1602 13.3627 77.9682 14.1733 77.9255 15.176C77.9042 16.072 77.8935 16.936 77.8935 17.768C77.8935 18.6 77.9042 19.4853 77.9255 20.424C77.9895 21.9173 78.3735 23.0053 79.0775 23.688C79.7815 24.3707 80.6988 24.712 81.8295 24.712ZM103.811 29.32C101.677 29.32 99.9068 29.0213 98.4988 28.424C97.0908 27.8053 96.0241 27.0053 95.2988 26.024C94.5734 25.0427 94.1894 23.9973 94.1468 22.888C94.1468 22.7173 94.2108 22.568 94.3388 22.44C94.4881 22.2907 94.6588 22.216 94.8508 22.216H98.8828C99.1814 22.216 99.4054 22.2693 99.5548 22.376C99.7254 22.4827 99.8748 22.6213 100.003 22.792C100.173 23.112 100.408 23.4213 100.707 23.72C101.027 24.0187 101.432 24.264 101.923 24.456C102.435 24.6267 103.064 24.712 103.811 24.712C105.048 24.712 105.976 24.52 106.595 24.136C107.235 23.752 107.555 23.2293 107.555 22.568C107.555 22.0987 107.384 21.7147 107.043 21.416C106.701 21.096 106.147 20.8187 105.379 20.584C104.632 20.328 103.629 20.072 102.371 19.816C100.749 19.4747 99.3628 19.0373 98.2108 18.504C97.0801 17.9493 96.2161 17.2347 95.6188 16.36C95.0214 15.464 94.7228 14.3547 94.7228 13.032C94.7228 11.7307 95.0854 10.568 95.8108 9.544C96.5574 8.52 97.5921 7.72 98.9148 7.144C100.237 6.568 101.805 6.28 103.619 6.28C105.091 6.28 106.381 6.472 107.491 6.856C108.621 7.24 109.571 7.752 110.339 8.392C111.107 9.032 111.683 9.71467 112.067 10.44C112.472 11.144 112.685 11.8373 112.707 12.52C112.707 12.6907 112.643 12.8507 112.515 13C112.387 13.128 112.227 13.192 112.035 13.192H107.811C107.576 13.192 107.373 13.1493 107.203 13.064C107.032 12.9787 106.883 12.84 106.755 12.648C106.627 12.1787 106.285 11.7733 105.731 11.432C105.197 11.0693 104.493 10.888 103.619 10.888C102.68 10.888 101.944 11.0587 101.411 11.4C100.899 11.72 100.643 12.2213 100.643 12.904C100.643 13.3307 100.781 13.704 101.059 14.024C101.357 14.344 101.837 14.6213 102.499 14.856C103.181 15.0907 104.109 15.336 105.283 15.592C107.224 15.9547 108.792 16.4133 109.987 16.968C111.181 17.5013 112.056 18.2053 112.611 19.08C113.165 19.9333 113.443 21.0107 113.443 22.312C113.443 23.7627 113.027 25.0213 112.195 26.088C111.384 27.1333 110.253 27.9333 108.803 28.488C107.352 29.0427 105.688 29.32 103.811 29.32ZM121.366 29C121.196 29 121.036 28.936 120.886 28.808C120.758 28.6587 120.694 28.4987 120.694 28.328C120.694 28.2213 120.705 28.1253 120.726 28.04L128.246 7.496C128.31 7.26133 128.438 7.05867 128.63 6.888C128.844 6.696 129.132 6.6 129.494 6.6H134.23C134.593 6.6 134.87 6.696 135.062 6.888C135.276 7.05867 135.414 7.26133 135.478 7.496L142.966 28.04C143.009 28.1253 143.03 28.2213 143.03 28.328C143.03 28.4987 142.956 28.6587 142.806 28.808C142.678 28.936 142.518 29 142.326 29H138.39C138.07 29 137.825 28.9253 137.654 28.776C137.505 28.6053 137.409 28.456 137.366 28.328L136.118 25.064H127.574L126.358 28.328C126.316 28.456 126.22 28.6053 126.07 28.776C125.921 28.9253 125.665 29 125.302 29H121.366ZM128.886 20.456H134.838L131.83 12.008L128.886 20.456ZM7.968 103C7.73333 103 7.54133 102.925 7.392 102.776C7.24267 102.627 7.168 102.435 7.168 102.2V85.624H1.472C1.23733 85.624 1.04533 85.5493 0.896 85.4C0.746667 85.2293 0.672 85.0373 0.672 84.824V81.4C0.672 81.1653 0.746667 80.9733 0.896 80.824C1.04533 80.6747 1.23733 80.6 1.472 80.6H18.688C18.9227 80.6 19.1147 80.6747 19.264 80.824C19.4133 80.9733 19.488 81.1653 19.488 81.4V84.824C19.488 85.0373 19.4133 85.2293 19.264 85.4C19.1147 85.5493 18.9227 85.624 18.688 85.624H12.992V102.2C12.992 102.435 12.9173 102.627 12.768 102.776C12.6187 102.925 12.4267 103 12.192 103H7.968ZM23.1963 103C22.9616 103 22.7696 102.925 22.6203 102.776C22.4709 102.627 22.3963 102.435 22.3963 102.2V81.4C22.3963 81.1653 22.4709 80.9733 22.6203 80.824C22.7696 80.6747 22.9616 80.6 23.1963 80.6H31.9003C34.6523 80.6 36.8176 81.24 38.3963 82.52C39.9963 83.7787 40.7963 85.5707 40.7963 87.896C40.7963 89.4107 40.4229 90.6907 39.6763 91.736C38.9509 92.7813 37.9909 93.5707 36.7963 94.104L41.2123 101.976C41.2763 102.104 41.3083 102.221 41.3083 102.328C41.3083 102.499 41.2336 102.659 41.0843 102.808C40.9563 102.936 40.7963 103 40.6043 103H36.3803C35.9749 103 35.6763 102.904 35.4843 102.712C35.2923 102.499 35.1536 102.307 35.0683 102.136L31.4203 95.096H28.1243V102.2C28.1243 102.435 28.0496 102.627 27.9003 102.776C27.7509 102.925 27.5589 103 27.3243 103H23.1963ZM28.1243 90.584H31.8363C32.8389 90.584 33.5856 90.3387 34.0763 89.848C34.5883 89.3573 34.8443 88.6853 34.8443 87.832C34.8443 87 34.5989 86.328 34.1083 85.816C33.6389 85.304 32.8816 85.048 31.8363 85.048H28.1243V90.584ZM43.2413 103C43.0706 103 42.9106 102.936 42.7613 102.808C42.6333 102.659 42.5693 102.499 42.5693 102.328C42.5693 102.221 42.5799 102.125 42.6013 102.04L50.1213 81.496C50.1853 81.2613 50.3133 81.0587 50.5052 80.888C50.7186 80.696 51.0066 80.6 51.3693 80.6H56.1053C56.4679 80.6 56.7453 80.696 56.9373 80.888C57.1506 81.0587 57.2893 81.2613 57.3533 81.496L64.8413 102.04C64.8839 102.125 64.9053 102.221 64.9053 102.328C64.9053 102.499 64.8306 102.659 64.6813 102.808C64.5533 102.936 64.3933 103 64.2013 103H60.2653C59.9453 103 59.6999 102.925 59.5293 102.776C59.3799 102.605 59.2839 102.456 59.2413 102.328L57.9933 99.064H49.4493L48.2333 102.328C48.1906 102.456 48.0946 102.605 47.9453 102.776C47.7959 102.925 47.5399 103 47.1773 103H43.2413ZM50.7613 94.456H56.7133L53.7053 86.008L50.7613 94.456ZM68.2275 103C67.9928 103 67.8008 102.925 67.6515 102.776C67.5022 102.627 67.4275 102.435 67.4275 102.2V81.4C67.4275 81.1653 67.5022 80.9733 67.6515 80.824C67.8008 80.6747 67.9928 80.6 68.2275 80.6H71.6195C71.9822 80.6 72.2382 80.6853 72.3875 80.856C72.5582 81.0053 72.6648 81.1227 72.7075 81.208L80.5155 93.528V81.4C80.5155 81.1653 80.5902 80.9733 80.7395 80.824C80.8888 80.6747 81.0808 80.6 81.3155 80.6H85.1555C85.3902 80.6 85.5822 80.6747 85.7315 80.824C85.8808 80.9733 85.9555 81.1653 85.9555 81.4V102.2C85.9555 102.413 85.8808 102.605 85.7315 102.776C85.5822 102.925 85.3902 103 85.1555 103H81.7315C81.3902 103 81.1342 102.915 80.9635 102.744C80.8142 102.573 80.7182 102.456 80.6755 102.392L72.8675 90.552V102.2C72.8675 102.435 72.7928 102.627 72.6435 102.776C72.4942 102.925 72.3022 103 72.0675 103H68.2275ZM91.2275 103C90.9928 103 90.8008 102.925 90.6515 102.776C90.5022 102.627 90.4275 102.435 90.4275 102.2V81.4C90.4275 81.1653 90.5022 80.9733 90.6515 80.824C90.8008 80.6747 90.9928 80.6 91.2275 80.6H105.916C106.15 80.6 106.342 80.6747 106.492 80.824C106.662 80.9733 106.748 81.1653 106.748 81.4V84.632C106.748 84.8667 106.662 85.0587 106.492 85.208C106.342 85.3573 106.15 85.432 105.916 85.432H96.0595V90.136H105.276C105.51 90.136 105.702 90.2213 105.852 90.392C106.022 90.5413 106.108 90.7333 106.108 90.968V94.168C106.108 94.3813 106.022 94.5733 105.852 94.744C105.702 94.8933 105.51 94.968 105.276 94.968H96.0595V102.2C96.0595 102.435 95.9848 102.627 95.8355 102.776C95.6862 102.925 95.4942 103 95.2595 103H91.2275ZM119.173 103.32C117.211 103.32 115.504 103 114.053 102.36C112.603 101.72 111.472 100.76 110.661 99.48C109.851 98.1787 109.403 96.5573 109.317 94.616C109.296 93.6987 109.285 92.7813 109.285 91.864C109.285 90.9467 109.296 90.0187 109.317 89.08C109.403 87.16 109.851 85.5493 110.661 84.248C111.493 82.9253 112.635 81.9333 114.085 81.272C115.536 80.6107 117.232 80.28 119.173 80.28C121.093 80.28 122.779 80.6107 124.229 81.272C125.701 81.9333 126.853 82.9253 127.685 84.248C128.517 85.5493 128.965 87.16 129.029 89.08C129.072 90.0187 129.093 90.9467 129.093 91.864C129.093 92.7813 129.072 93.6987 129.029 94.616C128.944 96.5573 128.496 98.1787 127.685 99.48C126.875 100.76 125.744 101.72 124.293 102.36C122.843 103 121.136 103.32 119.173 103.32ZM119.173 98.712C120.304 98.712 121.221 98.3707 121.925 97.688C122.651 97.0053 123.035 95.9173 123.077 94.424C123.12 93.4853 123.141 92.6 123.141 91.768C123.141 90.936 123.12 90.072 123.077 89.176C123.035 88.1733 122.843 87.3627 122.501 86.744C122.181 86.104 121.733 85.6347 121.157 85.336C120.581 85.0373 119.92 84.888 119.173 84.888C118.448 84.888 117.797 85.0373 117.221 85.336C116.645 85.6347 116.187 86.104 115.845 86.744C115.504 87.3627 115.312 88.1733 115.269 89.176C115.248 90.072 115.237 90.936 115.237 91.768C115.237 92.6 115.248 93.4853 115.269 94.424C115.333 95.9173 115.717 97.0053 116.421 97.688C117.125 98.3707 118.043 98.712 119.173 98.712ZM133.603 103C133.368 103 133.176 102.925 133.027 102.776C132.877 102.627 132.803 102.435 132.803 102.2V81.4C132.803 81.1653 132.877 80.9733 133.027 80.824C133.176 80.6747 133.368 80.6 133.603 80.6H142.307C145.059 80.6 147.224 81.24 148.803 82.52C150.403 83.7787 151.203 85.5707 151.203 87.896C151.203 89.4107 150.829 90.6907 150.083 91.736C149.357 92.7813 148.397 93.5707 147.203 94.104L151.619 101.976C151.683 102.104 151.715 102.221 151.715 102.328C151.715 102.499 151.64 102.659 151.491 102.808C151.363 102.936 151.203 103 151.011 103H146.787C146.381 103 146.083 102.904 145.891 102.712C145.699 102.499 145.56 102.307 145.475 102.136L141.827 95.096H138.531V102.2C138.531 102.435 138.456 102.627 138.307 102.776C138.157 102.925 137.965 103 137.731 103H133.603ZM138.531 90.584H142.243C143.245 90.584 143.992 90.3387 144.483 89.848C144.995 89.3573 145.251 88.6853 145.251 87.832C145.251 87 145.005 86.328 144.515 85.816C144.045 85.304 143.288 85.048 142.243 85.048H138.531V90.584ZM155.728 103C155.514 103 155.322 102.925 155.152 102.776C155.002 102.627 154.928 102.435 154.928 102.2V81.4C154.928 81.1653 155.002 80.9733 155.152 80.824C155.322 80.6747 155.514 80.6 155.728 80.6H159.184C159.525 80.6 159.781 80.696 159.952 80.888C160.144 81.0587 160.261 81.1973 160.304 81.304L165.936 91.416L171.568 81.304C171.632 81.1973 171.738 81.0587 171.888 80.888C172.058 80.696 172.325 80.6 172.688 80.6H176.112C176.346 80.6 176.538 80.6747 176.688 80.824C176.858 80.9733 176.944 81.1653 176.944 81.4V102.2C176.944 102.435 176.858 102.627 176.688 102.776C176.538 102.925 176.346 103 176.112 103H172.304C172.069 103 171.866 102.925 171.696 102.776C171.546 102.627 171.472 102.435 171.472 102.2V90.2L167.856 96.888C167.77 97.08 167.642 97.2507 167.472 97.4C167.301 97.5493 167.066 97.624 166.768 97.624H165.104C164.805 97.624 164.57 97.5493 164.4 97.4C164.229 97.2507 164.09 97.08 163.984 96.888L160.368 90.2V102.2C160.368 102.435 160.293 102.627 160.144 102.776C159.994 102.925 159.802 103 159.568 103H155.728ZM180.116 103C179.946 103 179.786 102.936 179.636 102.808C179.508 102.659 179.444 102.499 179.444 102.328C179.444 102.221 179.455 102.125 179.476 102.04L186.996 81.496C187.06 81.2613 187.188 81.0587 187.38 80.888C187.594 80.696 187.882 80.6 188.244 80.6H192.98C193.343 80.6 193.62 80.696 193.812 80.888C194.026 81.0587 194.164 81.2613 194.228 81.496L201.716 102.04C201.759 102.125 201.78 102.221 201.78 102.328C201.78 102.499 201.706 102.659 201.556 102.808C201.428 102.936 201.268 103 201.076 103H197.14C196.82 103 196.575 102.925 196.404 102.776C196.255 102.605 196.159 102.456 196.116 102.328L194.868 99.064H186.324L185.108 102.328C185.066 102.456 184.97 102.605 184.82 102.776C184.671 102.925 184.415 103 184.052 103H180.116ZM187.636 94.456H193.588L190.58 86.008L187.636 94.456ZM205.103 103C204.868 103 204.676 102.925 204.527 102.776C204.377 102.627 204.303 102.435 204.303 102.2V81.4C204.303 81.1653 204.377 80.9733 204.527 80.824C204.676 80.6747 204.868 80.6 205.103 80.6H208.495C208.857 80.6 209.113 80.6853 209.263 80.856C209.433 81.0053 209.54 81.1227 209.583 81.208L217.391 93.528V81.4C217.391 81.1653 217.465 80.9733 217.615 80.824C217.764 80.6747 217.956 80.6 218.191 80.6H222.031C222.265 80.6 222.457 80.6747 222.607 80.824C222.756 80.9733 222.831 81.1653 222.831 81.4V102.2C222.831 102.413 222.756 102.605 222.607 102.776C222.457 102.925 222.265 103 222.031 103H218.607C218.265 103 218.009 102.915 217.839 102.744C217.689 102.573 217.593 102.456 217.551 102.392L209.743 90.552V102.2C209.743 102.435 209.668 102.627 209.519 102.776C209.369 102.925 209.177 103 208.943 103H205.103ZM228.103 103C227.868 103 227.676 102.925 227.527 102.776C227.377 102.627 227.303 102.435 227.303 102.2V81.4C227.303 81.1653 227.377 80.9733 227.527 80.824C227.676 80.6747 227.868 80.6 228.103 80.6H236.423C238.513 80.6 240.295 80.9413 241.767 81.624C243.239 82.2853 244.369 83.2667 245.159 84.568C245.948 85.848 246.375 87.4373 246.439 89.336C246.46 90.2747 246.471 91.096 246.471 91.8C246.471 92.504 246.46 93.3147 246.439 94.232C246.353 96.216 245.927 97.8587 245.159 99.16C244.412 100.461 243.313 101.432 241.863 102.072C240.433 102.691 238.673 103 236.583 103H228.103ZM233.031 98.392H236.423C237.34 98.392 238.097 98.2533 238.695 97.976C239.313 97.6773 239.772 97.2187 240.071 96.6C240.391 95.9813 240.561 95.1707 240.583 94.168C240.625 93.5493 240.647 92.9947 240.647 92.504C240.668 92.0133 240.668 91.5227 240.647 91.032C240.647 90.5413 240.625 89.9973 240.583 89.4C240.54 87.9493 240.156 86.8933 239.431 86.232C238.727 85.5493 237.671 85.208 236.263 85.208H233.031V98.392ZM259.361 103.32C257.398 103.32 255.691 103 254.241 102.36C252.79 101.72 251.659 100.76 250.849 99.48C250.038 98.1787 249.59 96.5573 249.505 94.616C249.483 93.6987 249.473 92.7813 249.473 91.864C249.473 90.9467 249.483 90.0187 249.505 89.08C249.59 87.16 250.038 85.5493 250.849 84.248C251.681 82.9253 252.822 81.9333 254.273 81.272C255.723 80.6107 257.419 80.28 259.361 80.28C261.281 80.28 262.966 80.6107 264.417 81.272C265.889 81.9333 267.041 82.9253 267.873 84.248C268.705 85.5493 269.153 87.16 269.217 89.08C269.259 90.0187 269.281 90.9467 269.281 91.864C269.281 92.7813 269.259 93.6987 269.217 94.616C269.131 96.5573 268.683 98.1787 267.873 99.48C267.062 100.76 265.931 101.72 264.481 102.36C263.03 103 261.323 103.32 259.361 103.32ZM259.361 98.712C260.491 98.712 261.409 98.3707 262.113 97.688C262.838 97.0053 263.222 95.9173 263.265 94.424C263.307 93.4853 263.329 92.6 263.329 91.768C263.329 90.936 263.307 90.072 263.265 89.176C263.222 88.1733 263.03 87.3627 262.689 86.744C262.369 86.104 261.921 85.6347 261.345 85.336C260.769 85.0373 260.107 84.888 259.361 84.888C258.635 84.888 257.985 85.0373 257.409 85.336C256.833 85.6347 256.374 86.104 256.033 86.744C255.691 87.3627 255.499 88.1733 255.457 89.176C255.435 90.072 255.425 90.936 255.425 91.768C255.425 92.6 255.435 93.4853 255.457 94.424C255.521 95.9173 255.905 97.0053 256.609 97.688C257.313 98.3707 258.23 98.712 259.361 98.712ZM11.392 140.32C9.42933 140.32 7.72267 140 6.272 139.36C4.82133 138.72 3.69067 137.76 2.88 136.48C2.06933 135.179 1.62133 133.557 1.536 131.616C1.51467 130.699 1.504 129.781 1.504 128.864C1.504 127.947 1.51467 127.019 1.536 126.08C1.62133 124.16 2.06933 122.549 2.88 121.248C3.712 119.925 4.85333 118.933 6.304 118.272C7.75467 117.611 9.45067 117.28 11.392 117.28C13.312 117.28 14.9973 117.611 16.448 118.272C17.92 118.933 19.072 119.925 19.904 121.248C20.736 122.549 21.184 124.16 21.248 126.08C21.2907 127.019 21.312 127.947 21.312 128.864C21.312 129.781 21.2907 130.699 21.248 131.616C21.1627 133.557 20.7147 135.179 19.904 136.48C19.0933 137.76 17.9627 138.72 16.512 139.36C15.0613 140 13.3547 140.32 11.392 140.32ZM11.392 135.712C12.5227 135.712 13.44 135.371 14.144 134.688C14.8693 134.005 15.2533 132.917 15.296 131.424C15.3387 130.485 15.36 129.6 15.36 128.768C15.36 127.936 15.3387 127.072 15.296 126.176C15.2533 125.173 15.0613 124.363 14.72 123.744C14.4 123.104 13.952 122.635 13.376 122.336C12.8 122.037 12.1387 121.888 11.392 121.888C10.6667 121.888 10.016 122.037 9.44 122.336C8.864 122.635 8.40533 123.104 8.064 123.744C7.72267 124.363 7.53067 125.173 7.488 126.176C7.46667 127.072 7.456 127.936 7.456 128.768C7.456 129.6 7.46667 130.485 7.488 131.424C7.552 132.917 7.936 134.005 8.64 134.688C9.344 135.371 10.2613 135.712 11.392 135.712ZM32.6338 140C32.3991 140 32.2071 139.925 32.0578 139.776C31.9084 139.627 31.8338 139.435 31.8338 139.2V118.4C31.8338 118.165 31.9084 117.973 32.0578 117.824C32.2071 117.675 32.3991 117.6 32.6338 117.6H47.3218C47.5564 117.6 47.7484 117.675 47.8978 117.824C48.0684 117.973 48.1538 118.165 48.1538 118.4V121.632C48.1538 121.867 48.0684 122.059 47.8978 122.208C47.7484 122.357 47.5564 122.432 47.3218 122.432H37.4658V127.136H46.6818C46.9164 127.136 47.1084 127.221 47.2578 127.392C47.4284 127.541 47.5138 127.733 47.5138 127.968V131.168C47.5138 131.381 47.4284 131.573 47.2578 131.744C47.1084 131.893 46.9164 131.968 46.6818 131.968H37.4658V139.2C37.4658 139.435 37.3911 139.627 37.2418 139.776C37.0924 139.925 36.9004 140 36.6658 140H32.6338ZM60.9598 140.32C59.0398 140.32 57.3544 140.011 55.9038 139.392C54.4744 138.752 53.3651 137.781 52.5758 136.48C51.7864 135.157 51.3918 133.483 51.3918 131.456V118.4C51.3918 118.165 51.4664 117.973 51.6158 117.824C51.7651 117.675 51.9571 117.6 52.1918 117.6H56.3198C56.5544 117.6 56.7464 117.675 56.8958 117.824C57.0451 117.973 57.1198 118.165 57.1198 118.4V131.424C57.1198 132.811 57.4504 133.856 58.1118 134.56C58.7944 135.243 59.7438 135.584 60.9598 135.584C62.1544 135.584 63.0824 135.243 63.7438 134.56C64.4264 133.856 64.7678 132.811 64.7678 131.424V118.4C64.7678 118.165 64.8424 117.973 64.9918 117.824C65.1624 117.675 65.3544 117.6 65.5678 117.6H69.7278C69.9411 117.6 70.1224 117.675 70.2718 117.824C70.4424 117.973 70.5278 118.165 70.5278 118.4V131.456C70.5278 133.483 70.1331 135.157 69.3438 136.48C68.5544 137.781 67.4451 138.752 66.0158 139.392C64.5864 140.011 62.9011 140.32 60.9598 140.32ZM80.4993 140C80.2646 140 80.0726 139.925 79.9233 139.776C79.7739 139.627 79.6993 139.435 79.6993 139.2V122.624H74.0033C73.7686 122.624 73.5766 122.549 73.4273 122.4C73.2779 122.229 73.2033 122.037 73.2033 121.824V118.4C73.2033 118.165 73.2779 117.973 73.4273 117.824C73.5766 117.675 73.7686 117.6 74.0033 117.6H91.2193C91.4539 117.6 91.6459 117.675 91.7953 117.824C91.9446 117.973 92.0193 118.165 92.0193 118.4V121.824C92.0193 122.037 91.9446 122.229 91.7953 122.4C91.6459 122.549 91.4539 122.624 91.2193 122.624H85.5233V139.2C85.5233 139.435 85.4486 139.627 85.2993 139.776C85.1499 139.925 84.9579 140 84.7233 140H80.4993ZM104.304 140.32C102.384 140.32 100.698 140.011 99.2475 139.392C97.8182 138.752 96.7088 137.781 95.9195 136.48C95.1302 135.157 94.7355 133.483 94.7355 131.456V118.4C94.7355 118.165 94.8102 117.973 94.9595 117.824C95.1088 117.675 95.3008 117.6 95.5355 117.6H99.6635C99.8982 117.6 100.09 117.675 100.24 117.824C100.389 117.973 100.464 118.165 100.464 118.4V131.424C100.464 132.811 100.794 133.856 101.456 134.56C102.138 135.243 103.088 135.584 104.304 135.584C105.498 135.584 106.426 135.243 107.088 134.56C107.77 133.856 108.112 132.811 108.112 131.424V118.4C108.112 118.165 108.186 117.973 108.336 117.824C108.506 117.675 108.698 117.6 108.912 117.6H113.072C113.285 117.6 113.466 117.675 113.616 117.824C113.786 117.973 113.872 118.165 113.872 118.4V131.456C113.872 133.483 113.477 135.157 112.688 136.48C111.898 137.781 110.789 138.752 109.36 139.392C107.93 140.011 106.245 140.32 104.304 140.32ZM118.915 140C118.68 140 118.488 139.925 118.339 139.776C118.19 139.627 118.115 139.435 118.115 139.2V118.4C118.115 118.165 118.19 117.973 118.339 117.824C118.488 117.675 118.68 117.6 118.915 117.6H127.619C130.371 117.6 132.536 118.24 134.115 119.52C135.715 120.779 136.515 122.571 136.515 124.896C136.515 126.411 136.142 127.691 135.395 128.736C134.67 129.781 133.71 130.571 132.515 131.104L136.931 138.976C136.995 139.104 137.027 139.221 137.027 139.328C137.027 139.499 136.952 139.659 136.803 139.808C136.675 139.936 136.515 140 136.323 140H132.099C131.694 140 131.395 139.904 131.203 139.712C131.011 139.499 130.872 139.307 130.787 139.136L127.139 132.096H123.843V139.2C123.843 139.435 123.768 139.627 123.619 139.776C123.47 139.925 123.278 140 123.043 140H118.915ZM123.843 127.584H127.555C128.558 127.584 129.304 127.339 129.795 126.848C130.307 126.357 130.563 125.685 130.563 124.832C130.563 124 130.318 123.328 129.827 122.816C129.358 122.304 128.6 122.048 127.555 122.048H123.843V127.584ZM149.298 140.32C147.336 140.32 145.629 140 144.178 139.36C142.728 138.72 141.597 137.76 140.786 136.48C139.976 135.179 139.528 133.557 139.442 131.616C139.421 130.699 139.41 129.781 139.41 128.864C139.41 127.947 139.421 127.019 139.442 126.08C139.528 124.16 139.976 122.549 140.786 121.248C141.618 119.925 142.76 118.933 144.21 118.272C145.661 117.611 147.357 117.28 149.298 117.28C151.218 117.28 152.904 117.611 154.354 118.272C155.826 118.933 156.978 119.925 157.81 121.248C158.642 122.549 159.09 124.16 159.154 126.08C159.197 127.019 159.218 127.947 159.218 128.864C159.218 129.781 159.197 130.699 159.154 131.616C159.069 133.557 158.621 135.179 157.81 136.48C157 137.76 155.869 138.72 154.418 139.36C152.968 140 151.261 140.32 149.298 140.32ZM149.298 135.712C150.429 135.712 151.346 135.371 152.05 134.688C152.776 134.005 153.16 132.917 153.202 131.424C153.245 130.485 153.266 129.6 153.266 128.768C153.266 127.936 153.245 127.072 153.202 126.176C153.16 125.173 152.968 124.363 152.626 123.744C152.306 123.104 151.858 122.635 151.282 122.336C150.706 122.037 150.045 121.888 149.298 121.888C148.573 121.888 147.922 122.037 147.346 122.336C146.77 122.635 146.312 123.104 145.97 123.744C145.629 124.363 145.437 125.173 145.394 126.176C145.373 127.072 145.362 127.936 145.362 128.768C145.362 129.6 145.373 130.485 145.394 131.424C145.458 132.917 145.842 134.005 146.546 134.688C147.25 135.371 148.168 135.712 149.298 135.712ZM162.997 140C162.762 140 162.57 139.925 162.421 139.776C162.271 139.627 162.197 139.435 162.197 139.2V135.136C162.197 134.923 162.271 134.741 162.421 134.592C162.57 134.421 162.762 134.336 162.997 134.336H167.029C167.263 134.336 167.455 134.421 167.605 134.592C167.775 134.741 167.861 134.923 167.861 135.136V139.2C167.861 139.435 167.775 139.627 167.605 139.776C167.455 139.925 167.263 140 167.029 140H162.997Z" fill="white"/>
<path d="M3.04 66C2.80533 66 2.61333 65.9253 2.464 65.776C2.31467 65.6267 2.24 65.4347 2.24 65.2V44.4C2.24 44.1653 2.31467 43.9733 2.464 43.824C2.61333 43.6747 2.80533 43.6 3.04 43.6H6.432C6.79467 43.6 7.05067 43.6853 7.2 43.856C7.37067 44.0053 7.47733 44.1227 7.52 44.208L15.328 56.528V44.4C15.328 44.1653 15.4027 43.9733 15.552 43.824C15.7013 43.6747 15.8933 43.6 16.128 43.6H19.968C20.2027 43.6 20.3947 43.6747 20.544 43.824C20.6933 43.9733 20.768 44.1653 20.768 44.4V65.2C20.768 65.4133 20.6933 65.6053 20.544 65.776C20.3947 65.9253 20.2027 66 19.968 66H16.544C16.2027 66 15.9467 65.9147 15.776 65.744C15.6267 65.5733 15.5307 65.456 15.488 65.392L7.68 53.552V65.2C7.68 65.4347 7.60533 65.6267 7.456 65.776C7.30667 65.9253 7.11467 66 6.88 66H3.04ZM34.392 66.32C32.4293 66.32 30.7227 66 29.272 65.36C27.8213 64.72 26.6907 63.76 25.88 62.48C25.0693 61.1787 24.6213 59.5573 24.536 57.616C24.5147 56.6987 24.504 55.7813 24.504 54.864C24.504 53.9467 24.5147 53.0187 24.536 52.08C24.6213 50.16 25.0693 48.5493 25.88 47.248C26.712 45.9253 27.8533 44.9333 29.304 44.272C30.7547 43.6107 32.4507 43.28 34.392 43.28C36.312 43.28 37.9973 43.6107 39.448 44.272C40.92 44.9333 42.072 45.9253 42.904 47.248C43.736 48.5493 44.184 50.16 44.248 52.08C44.2907 53.0187 44.312 53.9467 44.312 54.864C44.312 55.7813 44.2907 56.6987 44.248 57.616C44.1627 59.5573 43.7147 61.1787 42.904 62.48C42.0933 63.76 40.9627 64.72 39.512 65.36C38.0613 66 36.3547 66.32 34.392 66.32ZM34.392 61.712C35.5227 61.712 36.44 61.3707 37.144 60.688C37.8693 60.0053 38.2533 58.9173 38.296 57.424C38.3387 56.4853 38.36 55.6 38.36 54.768C38.36 53.936 38.3387 53.072 38.296 52.176C38.2533 51.1733 38.0613 50.3627 37.72 49.744C37.4 49.104 36.952 48.6347 36.376 48.336C35.8 48.0373 35.1387 47.888 34.392 47.888C33.6667 47.888 33.016 48.0373 32.44 48.336C31.864 48.6347 31.4053 49.104 31.064 49.744C30.7227 50.3627 30.5307 51.1733 30.488 52.176C30.4667 53.072 30.456 53.936 30.456 54.768C30.456 55.6 30.4667 56.4853 30.488 57.424C30.552 58.9173 30.936 60.0053 31.64 60.688C32.344 61.3707 33.2613 61.712 34.392 61.712ZM53.7338 66C53.3711 66 53.0831 65.904 52.8698 65.712C52.6564 65.52 52.5071 65.296 52.4218 65.04L45.8938 44.56C45.8511 44.4533 45.8298 44.3573 45.8298 44.272C45.8298 44.1013 45.8938 43.952 46.0218 43.824C46.1711 43.6747 46.3418 43.6 46.5338 43.6H50.5018C50.8431 43.6 51.1098 43.696 51.3018 43.888C51.4938 44.08 51.6111 44.2613 51.6538 44.432L56.1658 59.216L60.7098 44.432C60.7738 44.2613 60.8911 44.08 61.0618 43.888C61.2538 43.696 61.5204 43.6 61.8618 43.6H65.8298C66.0218 43.6 66.1818 43.6747 66.3098 43.824C66.4591 43.952 66.5338 44.1013 66.5338 44.272C66.5338 44.3573 66.5124 44.4533 66.4698 44.56L59.9418 65.04C59.8564 65.296 59.7071 65.52 59.4938 65.712C59.3018 65.904 59.0138 66 58.6298 66H53.7338ZM66.46 66C66.2893 66 66.1293 65.936 65.98 65.808C65.852 65.6587 65.788 65.4987 65.788 65.328C65.788 65.2213 65.7987 65.1253 65.82 65.04L73.34 44.496C73.404 44.2613 73.532 44.0587 73.724 43.888C73.9373 43.696 74.2253 43.6 74.588 43.6H79.324C79.6867 43.6 79.964 43.696 80.156 43.888C80.3693 44.0587 80.508 44.2613 80.572 44.496L88.06 65.04C88.1027 65.1253 88.124 65.2213 88.124 65.328C88.124 65.4987 88.0493 65.6587 87.9 65.808C87.772 65.936 87.612 66 87.42 66H83.484C83.164 66 82.9187 65.9253 82.748 65.776C82.5987 65.6053 82.5027 65.456 82.46 65.328L81.212 62.064H72.668L71.452 65.328C71.4093 65.456 71.3133 65.6053 71.164 65.776C71.0147 65.9253 70.7587 66 70.396 66H66.46ZM73.98 57.456H79.932L76.924 49.008L73.98 57.456ZM105.894 66.32C103.868 66.32 102.118 65.9893 100.646 65.328C99.1956 64.6453 98.0649 63.664 97.2543 62.384C96.4649 61.0827 96.0276 59.504 95.9423 57.648C95.9209 56.7307 95.9103 55.76 95.9103 54.736C95.9103 53.6907 95.9209 52.6987 95.9423 51.76C96.0276 49.9467 96.4756 48.4107 97.2863 47.152C98.0969 45.8933 99.2383 44.9333 100.71 44.272C102.182 43.6107 103.91 43.28 105.894 43.28C107.494 43.28 108.913 43.4827 110.15 43.888C111.388 44.272 112.422 44.7947 113.254 45.456C114.108 46.1173 114.748 46.8427 115.174 47.632C115.622 48.4213 115.857 49.2 115.878 49.968C115.9 50.16 115.836 50.32 115.686 50.448C115.558 50.576 115.398 50.64 115.206 50.64H110.534C110.3 50.64 110.118 50.608 109.99 50.544C109.884 50.4587 109.788 50.3413 109.702 50.192C109.553 49.872 109.329 49.5413 109.03 49.2C108.753 48.8373 108.358 48.528 107.846 48.272C107.356 48.016 106.705 47.888 105.894 47.888C104.678 47.888 103.718 48.208 103.014 48.848C102.332 49.488 101.958 50.512 101.894 51.92C101.83 53.7547 101.83 55.6107 101.894 57.488C101.958 58.9813 102.353 60.0587 103.078 60.72C103.804 61.3813 104.764 61.712 105.958 61.712C106.769 61.712 107.484 61.5733 108.102 61.296C108.742 61.0187 109.244 60.592 109.606 60.016C109.969 59.4187 110.15 58.6613 110.15 57.744V57.136H107.142C106.908 57.136 106.705 57.0613 106.534 56.912C106.385 56.7413 106.31 56.5387 106.31 56.304V53.936C106.31 53.7013 106.385 53.5093 106.534 53.36C106.705 53.1893 106.908 53.104 107.142 53.104H115.206C115.441 53.104 115.633 53.1893 115.782 53.36C115.932 53.5093 116.006 53.7013 116.006 53.936V57.584C116.006 59.4187 115.59 60.9867 114.758 62.288C113.926 63.5893 112.742 64.592 111.206 65.296C109.692 65.9787 107.921 66.32 105.894 66.32ZM120.478 66C120.243 66 120.051 65.9253 119.902 65.776C119.752 65.6267 119.678 65.4347 119.678 65.2V44.4C119.678 44.1653 119.752 43.9733 119.902 43.824C120.051 43.6747 120.243 43.6 120.478 43.6H135.422C135.656 43.6 135.848 43.6747 135.998 43.824C136.147 43.9733 136.222 44.1653 136.222 44.4V47.408C136.222 47.6427 136.147 47.8347 135.998 47.984C135.848 48.1333 135.656 48.208 135.422 48.208H125.214V52.528H134.718C134.952 52.528 135.144 52.6133 135.294 52.784C135.443 52.9333 135.517 53.1253 135.517 53.36V56.144C135.517 56.3573 135.443 56.5493 135.294 56.72C135.144 56.8693 134.952 56.944 134.718 56.944H125.214V61.392H135.678C135.912 61.392 136.104 61.4667 136.253 61.616C136.403 61.7653 136.478 61.9573 136.478 62.192V65.2C136.478 65.4347 136.403 65.6267 136.253 65.776C136.104 65.9253 135.912 66 135.678 66H120.478ZM140.915 66C140.68 66 140.488 65.9253 140.339 65.776C140.19 65.6267 140.115 65.4347 140.115 65.2V44.4C140.115 44.1653 140.19 43.9733 140.339 43.824C140.488 43.6747 140.68 43.6 140.915 43.6H149.619C152.371 43.6 154.536 44.24 156.115 45.52C157.715 46.7787 158.515 48.5707 158.515 50.896C158.515 52.4107 158.142 53.6907 157.395 54.736C156.67 55.7813 155.71 56.5707 154.515 57.104L158.931 64.976C158.995 65.104 159.027 65.2213 159.027 65.328C159.027 65.4987 158.952 65.6587 158.803 65.808C158.675 65.936 158.515 66 158.323 66H154.099C153.694 66 153.395 65.904 153.203 65.712C153.011 65.4987 152.872 65.3067 152.787 65.136L149.139 58.096H145.843V65.2C145.843 65.4347 145.768 65.6267 145.619 65.776C145.47 65.9253 145.278 66 145.043 66H140.915ZM145.843 53.584H149.555C150.558 53.584 151.304 53.3387 151.795 52.848C152.307 52.3573 152.563 51.6853 152.563 50.832C152.563 50 152.318 49.328 151.827 48.816C151.358 48.304 150.6 48.048 149.555 48.048H145.843V53.584ZM160.96 66C160.789 66 160.629 65.936 160.48 65.808C160.352 65.6587 160.288 65.4987 160.288 65.328C160.288 65.2213 160.299 65.1253 160.32 65.04L167.84 44.496C167.904 44.2613 168.032 44.0587 168.224 43.888C168.437 43.696 168.725 43.6 169.088 43.6H173.824C174.187 43.6 174.464 43.696 174.656 43.888C174.869 44.0587 175.008 44.2613 175.072 44.496L182.56 65.04C182.603 65.1253 182.624 65.2213 182.624 65.328C182.624 65.4987 182.549 65.6587 182.4 65.808C182.272 65.936 182.112 66 181.92 66H177.984C177.664 66 177.419 65.9253 177.248 65.776C177.099 65.6053 177.003 65.456 176.96 65.328L175.712 62.064H167.168L165.952 65.328C165.909 65.456 165.813 65.6053 165.664 65.776C165.515 65.9253 165.259 66 164.896 66H160.96ZM168.48 57.456H174.432L171.424 49.008L168.48 57.456ZM193.702 73.04C193.126 73.04 192.603 72.944 192.134 72.752C191.664 72.56 191.334 72.336 191.142 72.08C190.95 71.824 190.96 71.6 191.174 71.408L191.75 70.896C191.942 70.7253 192.102 70.672 192.23 70.736C192.379 70.8 192.56 70.8853 192.774 70.992C192.987 71.12 193.296 71.184 193.702 71.184C194.022 71.184 194.278 71.088 194.47 70.896C194.662 70.704 194.758 70.48 194.758 70.224C194.758 69.9467 194.662 69.712 194.47 69.52C194.278 69.3493 194.022 69.264 193.702 69.264C193.446 69.264 193.211 69.296 192.998 69.36C192.784 69.4453 192.582 69.488 192.39 69.488C192.219 69.5093 192.048 69.456 191.878 69.328L191.27 68.688C191.142 68.56 191.078 68.4213 191.078 68.272C191.099 68.1227 191.174 67.92 191.302 67.664L191.942 66.192C190.32 66 188.923 65.552 187.75 64.848C186.598 64.144 185.702 63.1947 185.062 62C184.422 60.784 184.059 59.3333 183.974 57.648C183.952 56.7733 183.942 55.8347 183.942 54.832C183.942 53.8293 183.952 52.8693 183.974 51.952C184.059 50.096 184.507 48.528 185.318 47.248C186.128 45.9467 187.259 44.9653 188.71 44.304C190.16 43.6213 191.878 43.28 193.862 43.28C195.27 43.28 196.571 43.4613 197.766 43.824C198.96 44.1653 200.006 44.6773 200.902 45.36C201.798 46.0213 202.491 46.832 202.982 47.792C203.494 48.7307 203.76 49.7973 203.782 50.992C203.803 51.184 203.739 51.344 203.59 51.472C203.462 51.6 203.302 51.664 203.11 51.664H198.79C198.512 51.664 198.299 51.6107 198.15 51.504C198 51.376 197.872 51.152 197.766 50.832C197.467 49.7013 196.976 48.9333 196.294 48.528C195.632 48.1013 194.811 47.888 193.83 47.888C192.656 47.888 191.728 48.2187 191.046 48.88C190.363 49.52 189.99 50.5973 189.926 52.112C189.862 53.8613 189.862 55.6533 189.926 57.488C189.99 59.0027 190.363 60.0907 191.046 60.752C191.728 61.392 192.656 61.712 193.83 61.712C194.811 61.712 195.643 61.4987 196.326 61.072C197.008 60.6453 197.488 59.8773 197.766 58.768C197.851 58.448 197.968 58.2347 198.118 58.128C198.288 58 198.512 57.936 198.79 57.936H203.11C203.302 57.936 203.462 58 203.59 58.128C203.739 58.256 203.803 58.416 203.782 58.608C203.76 59.8027 203.494 60.88 202.982 61.84C202.491 62.7787 201.798 63.5893 200.902 64.272C200.006 64.9333 198.96 65.4453 197.766 65.808C196.571 66.1493 195.27 66.32 193.862 66.32L193.222 67.6C193.35 67.536 193.52 67.4827 193.734 67.44C193.968 67.4187 194.15 67.408 194.278 67.408C195.046 67.408 195.654 67.664 196.102 68.176C196.571 68.688 196.806 69.36 196.806 70.192C196.806 71.0027 196.528 71.6747 195.974 72.208C195.419 72.7627 194.662 73.04 193.702 73.04ZM205.585 66C205.414 66 205.254 65.936 205.105 65.808C204.977 65.6587 204.913 65.4987 204.913 65.328C204.913 65.2213 204.924 65.1253 204.945 65.04L212.465 44.496C212.529 44.2613 212.657 44.0587 212.849 43.888C213.062 43.696 213.35 43.6 213.713 43.6H218.449C218.812 43.6 219.089 43.696 219.281 43.888C219.494 44.0587 219.633 44.2613 219.697 44.496L227.185 65.04C227.228 65.1253 227.249 65.2213 227.249 65.328C227.249 65.4987 227.174 65.6587 227.025 65.808C226.897 65.936 226.737 66 226.545 66H222.609C222.289 66 222.044 65.9253 221.873 65.776C221.724 65.6053 221.628 65.456 221.585 65.328L220.337 62.064H211.793L210.577 65.328C210.534 65.456 210.438 65.6053 210.289 65.776C210.14 65.9253 209.884 66 209.521 66H205.585ZM213.105 57.456H219.057L216.049 49.008L213.105 57.456ZM218.001 42.16C217.425 42.16 216.945 42.064 216.561 41.872C216.177 41.68 215.825 41.4987 215.505 41.328C215.206 41.136 214.865 41.04 214.481 41.04C214.182 41.04 213.969 41.1147 213.841 41.264C213.713 41.4133 213.596 41.5733 213.489 41.744C213.382 41.9147 213.212 42 212.977 42H211.057C210.908 42 210.78 41.9467 210.673 41.84C210.566 41.712 210.513 41.584 210.513 41.456C210.513 41.1147 210.566 40.7093 210.673 40.24C210.801 39.7707 211.004 39.3227 211.281 38.896C211.58 38.448 211.953 38.0853 212.401 37.808C212.87 37.5093 213.436 37.36 214.097 37.36C214.694 37.36 215.185 37.456 215.569 37.648C215.953 37.84 216.305 38.032 216.625 38.224C216.945 38.416 217.286 38.512 217.649 38.512C217.948 38.512 218.15 38.4267 218.257 38.256C218.385 38.0853 218.502 37.9253 218.609 37.776C218.716 37.6053 218.886 37.52 219.121 37.52H221.041C221.233 37.52 221.372 37.584 221.457 37.712C221.564 37.8187 221.617 37.9467 221.617 38.096C221.617 38.4373 221.553 38.8427 221.425 39.312C221.297 39.76 221.094 40.208 220.817 40.656C220.54 41.0827 220.166 41.4453 219.697 41.744C219.228 42.0213 218.662 42.16 218.001 42.16ZM238.455 66.32C236.492 66.32 234.785 66 233.335 65.36C231.884 64.72 230.753 63.76 229.943 62.48C229.132 61.1787 228.684 59.5573 228.599 57.616C228.577 56.6987 228.567 55.7813 228.567 54.864C228.567 53.9467 228.577 53.0187 228.599 52.08C228.684 50.16 229.132 48.5493 229.943 47.248C230.775 45.9253 231.916 44.9333 233.367 44.272C234.817 43.6107 236.513 43.28 238.455 43.28C240.375 43.28 242.06 43.6107 243.51 44.272C244.983 44.9333 246.135 45.9253 246.967 47.248C247.799 48.5493 248.247 50.16 248.311 52.08C248.353 53.0187 248.375 53.9467 248.375 54.864C248.375 55.7813 248.353 56.6987 248.311 57.616C248.225 59.5573 247.777 61.1787 246.967 62.48C246.156 63.76 245.025 64.72 243.575 65.36C242.124 66 240.417 66.32 238.455 66.32ZM238.455 61.712C239.585 61.712 240.503 61.3707 241.207 60.688C241.932 60.0053 242.316 58.9173 242.359 57.424C242.401 56.4853 242.423 55.6 242.423 54.768C242.423 53.936 242.401 53.072 242.359 52.176C242.316 51.1733 242.124 50.3627 241.783 49.744C241.463 49.104 241.015 48.6347 240.439 48.336C239.863 48.0373 239.201 47.888 238.455 47.888C237.729 47.888 237.079 48.0373 236.503 48.336C235.927 48.6347 235.468 49.104 235.127 49.744C234.785 50.3627 234.593 51.1733 234.551 52.176C234.529 53.072 234.519 53.936 234.519 54.768C234.519 55.6 234.529 56.4853 234.551 57.424C234.615 58.9173 234.999 60.0053 235.703 60.688C236.407 61.3707 237.324 61.712 238.455 61.712Z" fill="#7D2CFF"/>
</svg>
