<svg width="459" height="226" viewBox="0 0 459 226" fill="none" xmlns="http://www.w3.org/2000/svg">
<path d="M127.474 43H134.25L134.074 20.56H134.118L147.274 43H155.81V14.048H149.034L149.254 33.496H149.21L137.858 14.048H127.474V43ZM173.515 43.44C178.223 43.44 181.567 41.416 182.403 38.028H182.447C182.447 39.876 182.359 41.944 182.315 43H187.903V28.348H173.559V32.44H181.039V32.88C181.039 36.18 177.783 38.16 174.527 38.16C170.039 38.16 166.475 34.728 166.475 28.964C166.475 22.892 169.863 19.284 174.791 19.284C178.223 19.284 181.347 21.176 181.347 24.608C181.347 24.916 181.347 25.356 181.303 25.84H187.595C187.639 25.488 187.683 24.784 187.683 24.124C187.683 17.524 181.831 13.608 174.527 13.608C165.639 13.608 159.127 19.284 159.127 28.92C159.127 38.028 165.243 43.44 173.515 43.44ZM192.29 43H198.802V36.4H192.29V43ZM218.18 43.44C226.144 43.44 231.644 38.952 231.644 32.308C231.644 31.956 231.644 31.472 231.6 30.9H225.264C225.308 31.384 225.308 31.648 225.308 31.824C225.308 35.476 222.756 37.764 218.532 37.764C213.868 37.764 210.392 34.332 210.392 28.568C210.392 22.848 213.78 19.284 218.532 19.284C222.448 19.284 225.22 21.528 225.22 25.444C225.22 25.664 225.22 26.104 225.176 26.588H231.468C231.512 26.192 231.556 25.4 231.556 24.74C231.556 18.096 226.1 13.608 218.18 13.608C209.248 13.608 202.912 19.152 202.912 28.568C202.912 37.896 209.248 43.44 218.18 43.44ZM255.256 43H263.66L252.484 14.048H243.508L232.332 43H239.724L241.704 37.104H253.276L255.256 43ZM243.2 32.616L247.424 19.944H247.512L251.78 32.616H243.2ZM277.16 43.44C287.5 43.44 290.272 39.04 290.272 34.112C290.272 31.384 289.172 29.316 287.104 28.216C285.388 27.292 282.924 26.764 279.668 26.236C277.204 25.84 274.168 25.356 273.068 24.872C272.056 24.432 271.66 23.64 271.66 22.232C271.66 20.296 273.332 18.844 277.248 18.844C281.208 18.844 282.924 20.648 282.924 23.948H289.304C289.304 17.436 286.312 13.608 277.116 13.608C268.756 13.608 264.488 17.392 264.488 22.848C264.488 25.62 265.456 27.644 267.304 28.832C268.976 29.932 271.88 30.504 274.74 30.944C277.16 31.296 280.152 31.736 281.428 32.176C282.572 32.572 283.1 33.364 283.1 34.596C283.1 36.444 282 38.204 277.116 38.204C272.276 38.204 271 36.18 271 33.056H264.576C264.576 38.38 267.216 43.44 277.16 43.44ZM293.677 43H300.893V30.9H313.301V43H320.517V14.048H313.301V25.268H300.893V14.048H293.677V43Z" fill="#00CA30"/>
<path d="M83.1322 92.843H86.3442L92.1302 78.367H89.4022L84.9362 90.423H84.8922L80.3602 78.367H77.3902L83.1322 92.843ZM93.8459 80.699H96.3759V78.279H93.8459V80.699ZM93.8679 92.843H96.3319V81.975H93.8679V92.843ZM109.211 87.013C109.211 83.625 107.253 81.799 104.173 81.799C100.741 81.799 98.5846 83.977 98.5846 87.497C98.5846 90.907 100.741 93.019 104.173 93.019C107.143 93.019 109.123 91.545 109.211 89.125H106.989C106.879 90.401 105.801 91.105 104.217 91.105C102.369 91.105 101.203 89.983 101.071 87.893H109.211V87.013ZM106.989 86.397H101.137C101.423 84.593 102.501 83.713 104.195 83.713C105.977 83.713 106.989 84.615 106.989 86.243V86.397ZM111.354 92.843H113.818V87.541C113.818 85.209 114.94 83.911 116.612 83.911C118.086 83.911 118.9 84.879 118.9 86.419V92.843H121.364V87.453C121.364 85.187 122.464 83.911 124.18 83.911C125.654 83.911 126.424 84.879 126.424 86.463V92.843H128.888V85.913C128.888 83.361 127.502 81.799 125.082 81.799C123.014 81.799 121.694 82.899 121.298 84.659H121.276C121.012 82.899 119.648 81.799 117.536 81.799C115.556 81.799 114.236 82.965 113.752 84.835H113.73L113.818 81.975H111.354V92.843ZM136.595 93.019C140.071 93.019 142.293 90.885 142.293 87.431C142.293 83.955 140.071 81.799 136.595 81.799C133.141 81.799 130.919 83.955 130.919 87.431C130.919 90.885 133.141 93.019 136.595 93.019ZM136.595 90.995C134.593 90.995 133.383 89.631 133.383 87.431C133.383 85.209 134.593 83.823 136.595 83.823C138.597 83.823 139.829 85.209 139.829 87.431C139.829 89.631 138.597 90.995 136.595 90.995ZM149.02 93.019C152.496 93.019 154.344 91.721 154.344 89.521C154.344 88.641 153.926 87.805 153.2 87.409C152.43 86.969 151.55 86.815 150.01 86.661C148.69 86.529 147.656 86.419 147.128 86.243C146.49 86.023 146.38 85.583 146.38 85.121C146.38 84.197 147.348 83.581 149.064 83.581C150.868 83.581 151.638 84.263 151.66 85.671H153.882C153.882 83.207 152.386 81.799 148.998 81.799C146.05 81.799 143.938 83.119 143.938 85.297C143.938 86.133 144.29 86.925 144.884 87.365C145.544 87.849 146.688 88.069 148.382 88.223C149.592 88.333 150.626 88.443 151.154 88.641C151.726 88.839 151.88 89.213 151.88 89.631C151.88 90.621 151 91.237 148.998 91.237C146.886 91.237 146.16 90.467 146.16 89.213H143.938C143.938 91.347 145.28 93.019 149.02 93.019ZM166.382 92.975C167.284 92.975 168.032 92.821 168.362 92.711V90.753C168.054 90.841 167.35 90.951 166.734 90.951C165.238 90.951 164.71 90.247 164.71 88.839V83.977H168.45V81.975H164.71V79.511H162.664L162.554 81.139C162.488 81.755 162.334 81.975 161.916 81.975H160.53V83.977H162.246V88.971C162.246 91.369 163.412 92.975 166.382 92.975ZM180.281 87.013C180.281 83.625 178.323 81.799 175.243 81.799C171.811 81.799 169.655 83.977 169.655 87.497C169.655 90.907 171.811 93.019 175.243 93.019C178.213 93.019 180.193 91.545 180.281 89.125H178.059C177.949 90.401 176.871 91.105 175.287 91.105C173.439 91.105 172.273 89.983 172.141 87.893H180.281V87.013ZM178.059 86.397H172.207C172.493 84.593 173.571 83.713 175.265 83.713C177.047 83.713 178.059 84.615 178.059 86.243V86.397ZM191.323 93.019C193.721 93.019 195.019 92.051 195.371 90.445H195.393C195.393 91.325 195.327 92.315 195.283 92.843H197.747V86.221C197.747 83.361 195.811 81.799 192.511 81.799C189.409 81.799 187.517 83.097 187.517 85.275C187.517 85.473 187.539 85.759 187.561 85.913H189.827C189.805 85.737 189.805 85.561 189.805 85.495C189.805 84.285 190.751 83.647 192.423 83.647C194.337 83.647 195.283 84.373 195.283 86.001V86.771H191.257C188.353 86.771 187.187 88.069 187.187 89.719C187.187 91.831 188.837 93.019 191.323 93.019ZM191.829 91.171C190.333 91.171 189.453 90.599 189.453 89.609C189.453 88.751 190.069 88.267 191.477 88.267H195.283V88.465C195.283 90.137 193.963 91.171 191.829 91.171ZM200.15 80.699H202.702V78.279H200.15V80.699ZM198.83 97.441C201.426 97.441 202.658 95.703 202.658 93.151V81.975H200.194V93.063C200.194 94.537 199.6 95.395 198.214 95.395C197.708 95.395 197.18 95.329 196.762 95.241V97.199C197.07 97.287 197.84 97.441 198.83 97.441ZM209.707 93.019C212.127 93.019 213.645 91.875 214.107 89.807H214.129C214.129 90.951 214.085 92.117 214.019 92.843H216.483V81.975H214.019V86.793C214.019 89.433 212.633 90.907 210.433 90.907C208.651 90.907 207.595 89.939 207.595 88.223V81.975H205.131V88.575C205.131 91.457 206.869 93.019 209.707 93.019ZM223.744 93.019C225.966 93.019 227.33 91.919 227.748 90.203H227.792C227.748 91.259 227.726 92.205 227.682 92.843H230.146V77.597H227.682V83.889H227.66C227.22 82.613 225.944 81.799 223.898 81.799C220.664 81.799 218.618 84.065 218.618 87.343C218.618 90.731 220.598 93.019 223.744 93.019ZM224.25 90.995C222.314 90.995 221.06 89.499 221.06 87.343C221.06 85.275 222.336 83.823 224.294 83.823C226.34 83.823 227.682 85.055 227.682 86.991V87.519C227.682 89.631 226.318 90.995 224.25 90.995ZM236.504 93.019C238.902 93.019 240.2 92.051 240.552 90.445H240.574C240.574 91.325 240.508 92.315 240.464 92.843H242.928V86.221C242.928 83.361 240.992 81.799 237.692 81.799C234.59 81.799 232.698 83.097 232.698 85.275C232.698 85.473 232.72 85.759 232.742 85.913H235.008C234.986 85.737 234.986 85.561 234.986 85.495C234.986 84.285 235.932 83.647 237.604 83.647C239.518 83.647 240.464 84.373 240.464 86.001V86.771H236.438C233.534 86.771 232.368 88.069 232.368 89.719C232.368 91.831 234.018 93.019 236.504 93.019ZM237.01 91.171C235.514 91.171 234.634 90.599 234.634 89.609C234.634 88.751 235.25 88.267 236.658 88.267H240.464V88.465C240.464 90.137 239.144 91.171 237.01 91.171ZM245.288 92.843H247.752V88.091C247.752 85.495 248.918 83.911 250.788 83.911C252.24 83.911 252.944 84.769 252.944 86.595C252.944 87.101 252.9 87.651 252.856 88.069H255.1C255.144 87.607 255.21 86.727 255.21 86.045C255.21 83.339 253.912 81.799 251.558 81.799C249.314 81.799 248.192 83.141 247.686 85.099H247.664L247.752 81.975H245.288V92.843ZM266.217 93.019C268.615 93.019 269.913 92.051 270.265 90.445H270.287C270.287 91.325 270.221 92.315 270.177 92.843H272.641V86.221C272.641 83.361 270.705 81.799 267.405 81.799C264.303 81.799 262.411 83.097 262.411 85.275C262.411 85.473 262.433 85.759 262.455 85.913H264.721C264.699 85.737 264.699 85.561 264.699 85.495C264.699 84.285 265.645 83.647 267.317 83.647C269.231 83.647 270.177 84.373 270.177 86.001V86.771H266.151C263.247 86.771 262.081 88.069 262.081 89.719C262.081 91.831 263.731 93.019 266.217 93.019ZM266.723 91.171C265.227 91.171 264.347 90.599 264.347 89.609C264.347 88.751 264.963 88.267 266.371 88.267H270.177V88.465C270.177 90.137 268.857 91.171 266.723 91.171ZM285.065 93.019C288.167 93.019 290.235 91.325 290.235 88.421H288.013C287.991 90.027 286.913 90.995 285.175 90.995C283.349 90.995 282.205 89.631 282.205 87.409C282.205 85.165 283.371 83.823 285.263 83.823C286.913 83.823 287.969 84.813 287.991 86.441H290.213C290.213 83.559 288.233 81.799 285.197 81.799C281.919 81.799 279.741 83.933 279.741 87.409C279.741 90.885 281.875 93.019 285.065 93.019ZM297.77 93.019C301.246 93.019 303.468 90.885 303.468 87.431C303.468 83.955 301.246 81.799 297.77 81.799C294.316 81.799 292.094 83.955 292.094 87.431C292.094 90.885 294.316 93.019 297.77 93.019ZM297.77 90.995C295.768 90.995 294.558 89.631 294.558 87.431C294.558 85.209 295.768 83.823 297.77 83.823C299.772 83.823 301.004 85.209 301.004 87.431C301.004 89.631 299.772 90.995 297.77 90.995ZM305.573 92.843H308.037V87.585C308.037 85.209 309.401 83.911 311.557 83.911C313.515 83.911 314.483 84.879 314.483 86.595V92.843H316.947V86.045C316.947 83.361 315.253 81.799 312.503 81.799C309.973 81.799 308.565 82.921 307.971 84.879H307.949L308.037 81.975H305.573V92.843ZM324.053 93.019C327.529 93.019 329.377 91.721 329.377 89.521C329.377 88.641 328.959 87.805 328.233 87.409C327.463 86.969 326.583 86.815 325.043 86.661C323.723 86.529 322.689 86.419 322.161 86.243C321.523 86.023 321.413 85.583 321.413 85.121C321.413 84.197 322.381 83.581 324.097 83.581C325.901 83.581 326.671 84.263 326.693 85.671H328.915C328.915 83.207 327.419 81.799 324.031 81.799C321.083 81.799 318.971 83.119 318.971 85.297C318.971 86.133 319.323 86.925 319.917 87.365C320.577 87.849 321.721 88.069 323.415 88.223C324.625 88.333 325.659 88.443 326.187 88.641C326.759 88.839 326.913 89.213 326.913 89.631C326.913 90.621 326.033 91.237 324.031 91.237C321.919 91.237 321.193 90.467 321.193 89.213H318.971C318.971 91.347 320.313 93.019 324.053 93.019ZM336.344 92.975C337.246 92.975 337.994 92.821 338.324 92.711V90.753C338.016 90.841 337.312 90.951 336.696 90.951C335.2 90.951 334.672 90.247 334.672 88.839V83.977H338.412V81.975H334.672V79.511H332.626L332.516 81.139C332.45 81.755 332.296 81.975 331.878 81.975H330.492V83.977H332.208V88.971C332.208 91.369 333.374 92.975 336.344 92.975ZM340.378 92.843H342.842V88.091C342.842 85.495 344.008 83.911 345.878 83.911C347.33 83.911 348.034 84.769 348.034 86.595C348.034 87.101 347.99 87.651 347.946 88.069H350.19C350.234 87.607 350.3 86.727 350.3 86.045C350.3 83.339 349.002 81.799 346.648 81.799C344.404 81.799 343.282 83.141 342.776 85.099H342.754L342.842 81.975H340.378V92.843ZM356.875 93.019C359.295 93.019 360.813 91.875 361.275 89.807H361.297C361.297 90.951 361.253 92.117 361.187 92.843H363.651V81.975H361.187V86.793C361.187 89.433 359.801 90.907 357.601 90.907C355.819 90.907 354.763 89.939 354.763 88.223V81.975H352.299V88.575C352.299 91.457 354.037 93.019 356.875 93.019ZM366.182 80.699H368.712V78.279H366.182V80.699ZM366.204 92.843H368.668V81.975H366.204V92.843ZM371.251 92.843H373.715V88.091C373.715 85.495 374.881 83.911 376.751 83.911C378.203 83.911 378.907 84.769 378.907 86.595C378.907 87.101 378.863 87.651 378.819 88.069H381.063C381.107 87.607 381.173 86.727 381.173 86.045C381.173 83.339 379.875 81.799 377.521 81.799C375.277 81.799 374.155 83.141 373.649 85.099H373.627L373.715 81.975H371.251V92.843ZM77.0045 125.019C80.4805 125.019 82.3285 123.721 82.3285 121.521C82.3285 120.641 81.9105 119.805 81.1845 119.409C80.4145 118.969 79.5345 118.815 77.9945 118.661C76.6745 118.529 75.6405 118.419 75.1125 118.243C74.4745 118.023 74.3645 117.583 74.3645 117.121C74.3645 116.197 75.3325 115.581 77.0485 115.581C78.8525 115.581 79.6225 116.263 79.6445 117.671H81.8665C81.8665 115.207 80.3705 113.799 76.9825 113.799C74.0345 113.799 71.9225 115.119 71.9225 117.297C71.9225 118.133 72.2745 118.925 72.8685 119.365C73.5285 119.849 74.6725 120.069 76.3665 120.223C77.5765 120.333 78.6105 120.443 79.1385 120.641C79.7105 120.839 79.8645 121.213 79.8645 121.631C79.8645 122.621 78.9845 123.237 76.9825 123.237C74.8705 123.237 74.1445 122.467 74.1445 121.213H71.9225C71.9225 123.347 73.2645 125.019 77.0045 125.019ZM88.9216 125.019C91.3416 125.019 92.8596 123.875 93.3216 121.807H93.3436C93.3436 122.951 93.2996 124.117 93.2336 124.843H95.6976V113.975H93.2336V118.793C93.2336 121.433 91.8476 122.907 89.6476 122.907C87.8656 122.907 86.8096 121.939 86.8096 120.223V113.975H84.3456V120.575C84.3456 123.457 86.0836 125.019 88.9216 125.019ZM101.991 125.019C104.389 125.019 105.687 124.051 106.039 122.445H106.061C106.061 123.325 105.995 124.315 105.951 124.843H108.415V118.221C108.415 115.361 106.479 113.799 103.179 113.799C100.077 113.799 98.1847 115.097 98.1847 117.275C98.1847 117.473 98.2067 117.759 98.2287 117.913H100.495C100.473 117.737 100.473 117.561 100.473 117.495C100.473 116.285 101.419 115.647 103.091 115.647C105.005 115.647 105.951 116.373 105.951 118.001V118.771H101.925C99.0207 118.771 97.8547 120.069 97.8547 121.719C97.8547 123.831 99.5047 125.019 101.991 125.019ZM102.497 123.171C101.001 123.171 100.121 122.599 100.121 121.609C100.121 120.751 100.737 120.267 102.145 120.267H105.951V120.465C105.951 122.137 104.631 123.171 102.497 123.171ZM115.91 112.699H118.44V110.279H115.91V112.699ZM115.932 124.843H118.396V113.975H115.932V124.843ZM120.979 124.843H123.443V119.585C123.443 117.209 124.807 115.911 126.963 115.911C128.921 115.911 129.889 116.879 129.889 118.595V124.843H132.353V118.045C132.353 115.361 130.659 113.799 127.909 113.799C125.379 113.799 123.971 114.921 123.377 116.879H123.355L123.443 113.975H120.979V124.843ZM139.504 125.019C141.726 125.019 143.09 123.919 143.508 122.203H143.552C143.508 123.259 143.486 124.205 143.442 124.843H145.906V109.597H143.442V115.889H143.42C142.98 114.613 141.704 113.799 139.658 113.799C136.424 113.799 134.378 116.065 134.378 119.343C134.378 122.731 136.358 125.019 139.504 125.019ZM140.01 122.995C138.074 122.995 136.82 121.499 136.82 119.343C136.82 117.275 138.096 115.823 140.054 115.823C142.1 115.823 143.442 117.055 143.442 118.991V119.519C143.442 121.631 142.078 122.995 140.01 122.995ZM158.732 119.013C158.732 115.625 156.774 113.799 153.694 113.799C150.262 113.799 148.106 115.977 148.106 119.497C148.106 122.907 150.262 125.019 153.694 125.019C156.664 125.019 158.644 123.545 158.732 121.125H156.51C156.4 122.401 155.322 123.105 153.738 123.105C151.89 123.105 150.724 121.983 150.592 119.893H158.732V119.013ZM156.51 118.397H150.658C150.944 116.593 152.022 115.713 153.716 115.713C155.498 115.713 156.51 116.615 156.51 118.243V118.397ZM160.942 129.199H163.406V124.931C163.406 124.491 163.362 123.369 163.34 122.643H163.362C163.824 124.051 165.232 125.019 167.388 125.019C170.512 125.019 172.492 122.731 172.492 119.211C172.492 115.933 170.534 113.799 167.432 113.799C165.276 113.799 163.824 114.855 163.384 116.505H163.362L163.406 113.975H160.942V129.199ZM166.904 122.995C164.792 122.995 163.406 121.807 163.406 119.959V119.387C163.45 117.209 164.814 115.823 166.86 115.823C168.818 115.823 170.028 117.187 170.028 119.277C170.028 121.543 168.796 122.995 166.904 122.995ZM184.922 119.013C184.922 115.625 182.964 113.799 179.884 113.799C176.452 113.799 174.296 115.977 174.296 119.497C174.296 122.907 176.452 125.019 179.884 125.019C182.854 125.019 184.834 123.545 184.922 121.125H182.7C182.59 122.401 181.512 123.105 179.928 123.105C178.08 123.105 176.914 121.983 176.782 119.893H184.922V119.013ZM182.7 118.397H176.848C177.134 116.593 178.212 115.713 179.906 115.713C181.688 115.713 182.7 116.615 182.7 118.243V118.397ZM187.065 124.843H189.529V119.585C189.529 117.209 190.893 115.911 193.049 115.911C195.007 115.911 195.975 116.879 195.975 118.595V124.843H198.439V118.045C198.439 115.361 196.745 113.799 193.995 113.799C191.465 113.799 190.057 114.921 189.463 116.879H189.441L189.529 113.975H187.065V124.843ZM205.59 125.019C207.812 125.019 209.176 123.919 209.594 122.203H209.638C209.594 123.259 209.572 124.205 209.528 124.843H211.992V109.597H209.528V115.889H209.506C209.066 114.613 207.79 113.799 205.744 113.799C202.51 113.799 200.464 116.065 200.464 119.343C200.464 122.731 202.444 125.019 205.59 125.019ZM206.096 122.995C204.16 122.995 202.906 121.499 202.906 119.343C202.906 117.275 204.182 115.823 206.14 115.823C208.186 115.823 209.528 117.055 209.528 118.991V119.519C209.528 121.631 208.164 122.995 206.096 122.995ZM219.648 111.401L222.904 112.963V111.137L219.648 109.575H219.604L216.348 111.137V112.963L219.604 111.401H219.648ZM224.818 119.013C224.818 115.625 222.86 113.799 219.78 113.799C216.348 113.799 214.192 115.977 214.192 119.497C214.192 122.907 216.348 125.019 219.78 125.019C222.75 125.019 224.73 123.545 224.818 121.125H222.596C222.486 122.401 221.408 123.105 219.824 123.105C217.976 123.105 216.81 121.983 216.678 119.893H224.818V119.013ZM222.596 118.397H216.744C217.03 116.593 218.108 115.713 219.802 115.713C221.584 115.713 222.596 116.615 222.596 118.243V118.397ZM226.961 124.843H229.425V119.585C229.425 117.209 230.789 115.911 232.945 115.911C234.903 115.911 235.871 116.879 235.871 118.595V124.843H238.335V118.045C238.335 115.361 236.641 113.799 233.891 113.799C231.361 113.799 229.953 114.921 229.359 116.879H229.337L229.425 113.975H226.961V124.843ZM245.684 125.019C248.786 125.019 250.854 123.325 250.854 120.421H248.632C248.61 122.027 247.532 122.995 245.794 122.995C243.968 122.995 242.824 121.631 242.824 119.409C242.824 117.165 243.99 115.823 245.882 115.823C247.532 115.823 248.588 116.813 248.61 118.441H250.832C250.832 115.559 248.852 113.799 245.816 113.799C242.538 113.799 240.36 115.933 240.36 119.409C240.36 122.885 242.494 125.019 245.684 125.019ZM253.11 112.699H255.64V110.279H253.11V112.699ZM253.132 124.843H255.596V113.975H253.132V124.843ZM262.006 125.019C264.404 125.019 265.702 124.051 266.054 122.445H266.076C266.076 123.325 266.01 124.315 265.966 124.843H268.43V118.221C268.43 115.361 266.494 113.799 263.194 113.799C260.092 113.799 258.2 115.097 258.2 117.275C258.2 117.473 258.222 117.759 258.244 117.913H260.51C260.488 117.737 260.488 117.561 260.488 117.495C260.488 116.285 261.434 115.647 263.106 115.647C265.02 115.647 265.966 116.373 265.966 118.001V118.771H261.94C259.036 118.771 257.87 120.069 257.87 121.719C257.87 123.831 259.52 125.019 262.006 125.019ZM262.512 123.171C261.016 123.171 260.136 122.599 260.136 121.609C260.136 120.751 260.752 120.267 262.16 120.267H265.966V120.465C265.966 122.137 264.646 123.171 262.512 123.171ZM276.586 124.843H279.05V115.977H282.834V113.975H279.05V113.007C279.05 111.819 279.732 111.159 280.986 111.159C281.734 111.159 282.306 111.313 282.658 111.423V109.465C282.306 109.333 281.514 109.157 280.546 109.157C278.192 109.157 276.586 110.477 276.586 112.897V113.975H274.848V115.977H276.586V124.843ZM284.726 112.699H287.256V110.279H284.726V112.699ZM284.748 124.843H287.212V113.975H284.748V124.843ZM289.782 124.843H292.246V119.585C292.246 117.209 293.61 115.911 295.766 115.911C297.724 115.911 298.692 116.879 298.692 118.595V124.843H301.156V118.045C301.156 115.361 299.462 113.799 296.712 113.799C294.182 113.799 292.774 114.921 292.18 116.879H292.158L292.246 113.975H289.782V124.843ZM307.338 125.019C309.736 125.019 311.034 124.051 311.386 122.445H311.408C311.408 123.325 311.342 124.315 311.298 124.843H313.762V118.221C313.762 115.361 311.826 113.799 308.526 113.799C305.424 113.799 303.532 115.097 303.532 117.275C303.532 117.473 303.554 117.759 303.576 117.913H305.842C305.82 117.737 305.82 117.561 305.82 117.495C305.82 116.285 306.766 115.647 308.438 115.647C310.352 115.647 311.298 116.373 311.298 118.001V118.771H307.272C304.368 118.771 303.202 120.069 303.202 121.719C303.202 123.831 304.852 125.019 307.338 125.019ZM307.844 123.171C306.348 123.171 305.468 122.599 305.468 121.609C305.468 120.751 306.084 120.267 307.492 120.267H311.298V120.465C311.298 122.137 309.978 123.171 307.844 123.171ZM316.122 124.843H318.586V119.585C318.586 117.209 319.95 115.911 322.106 115.911C324.064 115.911 325.032 116.879 325.032 118.595V124.843H327.496V118.045C327.496 115.361 325.802 113.799 323.052 113.799C320.522 113.799 319.114 114.921 318.52 116.879H318.498L318.586 113.975H316.122V124.843ZM334.844 125.019C337.946 125.019 340.014 123.325 340.014 120.421H337.792C337.77 122.027 336.692 122.995 334.954 122.995C333.128 122.995 331.984 121.631 331.984 119.409C331.984 117.165 333.15 115.823 335.042 115.823C336.692 115.823 337.748 116.813 337.77 118.441H339.992C339.992 115.559 338.012 113.799 334.976 113.799C331.698 113.799 329.52 115.933 329.52 119.409C329.52 122.885 331.654 125.019 334.844 125.019ZM352.5 119.013C352.5 115.625 350.542 113.799 347.462 113.799C344.03 113.799 341.874 115.977 341.874 119.497C341.874 122.907 344.03 125.019 347.462 125.019C350.432 125.019 352.412 123.545 352.5 121.125H350.278C350.168 122.401 349.09 123.105 347.506 123.105C345.658 123.105 344.492 121.983 344.36 119.893H352.5V119.013ZM350.278 118.397H344.426C344.712 116.593 345.79 115.713 347.484 115.713C349.266 115.713 350.278 116.615 350.278 118.243V118.397ZM354.709 112.699H357.239V110.279H354.709V112.699ZM354.731 124.843H357.195V113.975H354.731V124.843ZM359.778 124.843H362.242V120.091C362.242 117.495 363.408 115.911 365.278 115.911C366.73 115.911 367.434 116.769 367.434 118.595C367.434 119.101 367.39 119.651 367.346 120.069H369.59C369.634 119.607 369.7 118.727 369.7 118.045C369.7 115.339 368.402 113.799 366.048 113.799C363.804 113.799 362.682 115.141 362.176 117.099H362.154L362.242 113.975H359.778V124.843ZM375.637 125.019C378.035 125.019 379.333 124.051 379.685 122.445H379.707C379.707 123.325 379.641 124.315 379.597 124.843H382.061V118.221C382.061 115.361 380.125 113.799 376.825 113.799C373.723 113.799 371.831 115.097 371.831 117.275C371.831 117.473 371.853 117.759 371.875 117.913H374.141C374.119 117.737 374.119 117.561 374.119 117.495C374.119 116.285 375.065 115.647 376.737 115.647C378.651 115.647 379.597 116.373 379.597 118.001V118.771H375.571C372.667 118.771 371.501 120.069 371.501 121.719C371.501 123.831 373.151 125.019 375.637 125.019ZM376.143 123.171C374.647 123.171 373.767 122.599 373.767 121.609C373.767 120.751 374.383 120.267 375.791 120.267H379.597V120.465C379.597 122.137 378.277 123.171 376.143 123.171ZM385.102 119.871H386.07L386.796 112.545V110.059H384.376V112.545L385.102 119.871ZM384.332 124.843H386.84V121.983H384.332V124.843ZM64.0218 156.843H67.2338L73.0198 142.367H70.2918L65.8258 154.423H65.7818L61.2498 142.367H58.2798L64.0218 156.843ZM74.7355 144.699H77.2655V142.279H74.7355V144.699ZM74.7575 156.843H77.2215V145.975H74.7575V156.843ZM83.7643 156.843H86.6903L91.3983 145.975H88.8243L85.3703 154.533H85.3263L81.9163 145.975H79.0343L83.7643 156.843ZM103.055 151.013C103.055 147.625 101.097 145.799 98.0173 145.799C94.5853 145.799 92.4293 147.977 92.4293 151.497C92.4293 154.907 94.5853 157.019 98.0173 157.019C100.987 157.019 102.967 155.545 103.055 153.125H100.833C100.723 154.401 99.6453 155.105 98.0613 155.105C96.2133 155.105 95.0473 153.983 94.9153 151.893H103.055V151.013ZM100.833 150.397H94.9813C95.2673 148.593 96.3453 147.713 98.0393 147.713C99.8213 147.713 100.833 148.615 100.833 150.243V150.397ZM105.199 156.843H107.663V151.541C107.663 149.209 108.785 147.911 110.457 147.911C111.931 147.911 112.745 148.879 112.745 150.419V156.843H115.209V151.453C115.209 149.187 116.309 147.911 118.025 147.911C119.499 147.911 120.269 148.879 120.269 150.463V156.843H122.733V149.913C122.733 147.361 121.347 145.799 118.927 145.799C116.859 145.799 115.539 146.899 115.143 148.659H115.121C114.857 146.899 113.493 145.799 111.381 145.799C109.401 145.799 108.081 146.965 107.597 148.835H107.575L107.663 145.975H105.199V156.843ZM130.439 157.019C133.915 157.019 136.137 154.885 136.137 151.431C136.137 147.955 133.915 145.799 130.439 145.799C126.985 145.799 124.763 147.955 124.763 151.431C124.763 154.885 126.985 157.019 130.439 157.019ZM130.439 154.995C128.437 154.995 127.227 153.631 127.227 151.431C127.227 149.209 128.437 147.823 130.439 147.823C132.441 147.823 133.673 149.209 133.673 151.431C133.673 153.631 132.441 154.995 130.439 154.995ZM142.865 157.019C146.341 157.019 148.189 155.721 148.189 153.521C148.189 152.641 147.771 151.805 147.045 151.409C146.275 150.969 145.395 150.815 143.855 150.661C142.535 150.529 141.501 150.419 140.973 150.243C140.335 150.023 140.225 149.583 140.225 149.121C140.225 148.197 141.193 147.581 142.909 147.581C144.713 147.581 145.483 148.263 145.505 149.671H147.727C147.727 147.207 146.231 145.799 142.843 145.799C139.895 145.799 137.783 147.119 137.783 149.297C137.783 150.133 138.135 150.925 138.729 151.365C139.389 151.849 140.533 152.069 142.227 152.223C143.437 152.333 144.471 152.443 144.999 152.641C145.571 152.839 145.725 153.213 145.725 153.631C145.725 154.621 144.845 155.237 142.843 155.237C140.731 155.237 140.005 154.467 140.005 153.213H137.783C137.783 155.347 139.125 157.019 142.865 157.019ZM160.732 157.019C164.208 157.019 166.43 154.885 166.43 151.431C166.43 147.955 164.208 145.799 160.732 145.799C157.278 145.799 155.056 147.955 155.056 151.431C155.056 154.885 157.278 157.019 160.732 157.019ZM160.732 154.995C158.73 154.995 157.52 153.631 157.52 151.431C157.52 149.209 158.73 147.823 160.732 147.823C162.734 147.823 163.966 149.209 163.966 151.431C163.966 153.631 162.734 154.995 160.732 154.995ZM173.605 156.843H176.069V151.585C176.069 149.209 177.433 147.911 179.589 147.911C181.547 147.911 182.515 148.879 182.515 150.595V156.843H184.979V150.045C184.979 147.361 183.285 145.799 180.535 145.799C178.005 145.799 176.597 146.921 176.003 148.879H175.981L176.069 145.975H173.605V156.843ZM192.68 157.019C196.156 157.019 198.378 154.885 198.378 151.431C198.378 147.955 196.156 145.799 192.68 145.799C189.226 145.799 187.004 147.955 187.004 151.431C187.004 154.885 189.226 157.019 192.68 157.019ZM192.68 154.995C190.678 154.995 189.468 153.631 189.468 151.431C189.468 149.209 190.678 147.823 192.68 147.823C194.682 147.823 195.914 149.209 195.914 151.431C195.914 153.631 194.682 154.995 192.68 154.995ZM203.797 156.843H206.723L211.431 145.975H208.857L205.403 154.533H205.359L201.949 145.975H199.067L203.797 156.843ZM218.139 157.019C221.615 157.019 223.837 154.885 223.837 151.431C223.837 147.955 221.615 145.799 218.139 145.799C214.685 145.799 212.463 147.955 212.463 151.431C212.463 154.885 214.685 157.019 218.139 157.019ZM218.139 154.995C216.137 154.995 214.927 153.631 214.927 151.431C214.927 149.209 216.137 147.823 218.139 147.823C220.141 147.823 221.373 149.209 221.373 151.431C221.373 153.631 220.141 154.995 218.139 154.995ZM225.941 159.879C227.855 159.725 228.823 158.647 228.823 156.051V153.983H226.337V156.843H227.371V156.909C227.371 157.987 226.953 158.515 225.941 158.603V159.879ZM241.631 156.975C242.533 156.975 243.281 156.821 243.611 156.711V154.753C243.303 154.841 242.599 154.951 241.983 154.951C240.487 154.951 239.959 154.247 239.959 152.839V147.977H243.699V145.975H239.959V143.511H237.913L237.803 145.139C237.737 145.755 237.583 145.975 237.165 145.975H235.779V147.977H237.495V152.971C237.495 155.369 238.661 156.975 241.631 156.975ZM245.664 156.843H248.128V152.091C248.128 149.495 249.294 147.911 251.164 147.911C252.616 147.911 253.32 148.769 253.32 150.595C253.32 151.101 253.276 151.651 253.232 152.069H255.476C255.52 151.607 255.586 150.727 255.586 150.045C255.586 147.339 254.288 145.799 251.934 145.799C249.69 145.799 248.568 147.141 248.062 149.099H248.04L248.128 145.975H245.664V156.843ZM261.523 157.019C263.921 157.019 265.219 156.051 265.571 154.445H265.593C265.593 155.325 265.527 156.315 265.483 156.843H267.947V150.221C267.947 147.361 266.011 145.799 262.711 145.799C259.609 145.799 257.717 147.097 257.717 149.275C257.717 149.473 257.739 149.759 257.761 149.913H260.027C260.005 149.737 260.005 149.561 260.005 149.495C260.005 148.285 260.951 147.647 262.623 147.647C264.537 147.647 265.483 148.373 265.483 150.001V150.771H261.457C258.553 150.771 257.387 152.069 257.387 153.719C257.387 155.831 259.037 157.019 261.523 157.019ZM262.029 155.171C260.533 155.171 259.653 154.599 259.653 153.609C259.653 152.751 260.269 152.267 261.677 152.267H265.483V152.465C265.483 154.137 264.163 155.171 262.029 155.171ZM270.306 156.843H272.77V151.585C272.77 149.209 274.134 147.911 276.29 147.911C278.248 147.911 279.216 148.879 279.216 150.595V156.843H281.68V150.045C281.68 147.361 279.986 145.799 277.236 145.799C274.706 145.799 273.298 146.921 272.704 148.879H272.682L272.77 145.975H270.306V156.843ZM288.787 157.019C292.263 157.019 294.111 155.721 294.111 153.521C294.111 152.641 293.693 151.805 292.967 151.409C292.197 150.969 291.317 150.815 289.777 150.661C288.457 150.529 287.423 150.419 286.895 150.243C286.257 150.023 286.147 149.583 286.147 149.121C286.147 148.197 287.115 147.581 288.831 147.581C290.635 147.581 291.405 148.263 291.427 149.671H293.649C293.649 147.207 292.153 145.799 288.765 145.799C285.817 145.799 283.705 147.119 283.705 149.297C283.705 150.133 284.057 150.925 284.651 151.365C285.311 151.849 286.455 152.069 288.149 152.223C289.359 152.333 290.393 152.443 290.921 152.641C291.493 152.839 291.647 153.213 291.647 153.631C291.647 154.621 290.767 155.237 288.765 155.237C286.653 155.237 285.927 154.467 285.927 153.213H283.705C283.705 155.347 285.047 157.019 288.787 157.019ZM296.899 156.843H299.363V147.977H303.147V145.975H299.363V145.007C299.363 143.819 300.045 143.159 301.299 143.159C302.047 143.159 302.619 143.313 302.971 143.423V141.465C302.619 141.333 301.827 141.157 300.859 141.157C298.505 141.157 296.899 142.477 296.899 144.897V145.975H295.161V147.977H296.899V156.843ZM309.447 157.019C312.923 157.019 315.145 154.885 315.145 151.431C315.145 147.955 312.923 145.799 309.447 145.799C305.993 145.799 303.771 147.955 303.771 151.431C303.771 154.885 305.993 157.019 309.447 157.019ZM309.447 154.995C307.445 154.995 306.235 153.631 306.235 151.431C306.235 149.209 307.445 147.823 309.447 147.823C311.449 147.823 312.681 149.209 312.681 151.431C312.681 153.631 311.449 154.995 309.447 154.995ZM317.25 156.843H319.714V152.091C319.714 149.495 320.88 147.911 322.75 147.911C324.202 147.911 324.906 148.769 324.906 150.595C324.906 151.101 324.862 151.651 324.818 152.069H327.062C327.106 151.607 327.172 150.727 327.172 150.045C327.172 147.339 325.874 145.799 323.52 145.799C321.276 145.799 320.154 147.141 319.648 149.099H319.626L319.714 145.975H317.25V156.843ZM329.281 156.843H331.745V151.541C331.745 149.209 332.867 147.911 334.539 147.911C336.013 147.911 336.827 148.879 336.827 150.419V156.843H339.291V151.453C339.291 149.187 340.391 147.911 342.107 147.911C343.581 147.911 344.351 148.879 344.351 150.463V156.843H346.815V149.913C346.815 147.361 345.429 145.799 343.009 145.799C340.941 145.799 339.621 146.899 339.225 148.659H339.203C338.939 146.899 337.575 145.799 335.463 145.799C333.483 145.799 332.163 146.965 331.679 148.835H331.657L331.745 145.975H329.281V156.843ZM353.003 157.019C355.401 157.019 356.699 156.051 357.051 154.445H357.073C357.073 155.325 357.007 156.315 356.963 156.843H359.427V150.221C359.427 147.361 357.491 145.799 354.191 145.799C351.089 145.799 349.197 147.097 349.197 149.275C349.197 149.473 349.219 149.759 349.241 149.913H351.507C351.485 149.737 351.485 149.561 351.485 149.495C351.485 148.285 352.431 147.647 354.103 147.647C356.017 147.647 356.963 148.373 356.963 150.001V150.771H352.937C350.033 150.771 348.867 152.069 348.867 153.719C348.867 155.831 350.517 157.019 353.003 157.019ZM353.509 155.171C352.013 155.171 351.133 154.599 351.133 153.609C351.133 152.751 351.749 152.267 353.157 152.267H356.963V152.465C356.963 154.137 355.643 155.171 353.509 155.171ZM361.787 156.843H364.251V151.585C364.251 149.209 365.615 147.911 367.771 147.911C369.729 147.911 370.697 148.879 370.697 150.595V156.843H373.161V150.045C373.161 147.361 371.467 145.799 368.717 145.799C366.187 145.799 364.779 146.921 364.185 148.879H364.163L364.251 145.975H361.787V156.843ZM380.311 157.019C382.533 157.019 383.897 155.919 384.315 154.203H384.359C384.315 155.259 384.293 156.205 384.249 156.843H386.713V141.597H384.249V147.889H384.227C383.787 146.613 382.511 145.799 380.465 145.799C377.231 145.799 375.185 148.065 375.185 151.343C375.185 154.731 377.165 157.019 380.311 157.019ZM380.817 154.995C378.881 154.995 377.627 153.499 377.627 151.343C377.627 149.275 378.903 147.823 380.861 147.823C382.907 147.823 384.249 149.055 384.249 150.991V151.519C384.249 153.631 382.885 154.995 380.817 154.995ZM394.59 157.019C398.066 157.019 400.288 154.885 400.288 151.431C400.288 147.955 398.066 145.799 394.59 145.799C391.136 145.799 388.914 147.955 388.914 151.431C388.914 154.885 391.136 157.019 394.59 157.019ZM394.59 154.995C392.588 154.995 391.378 153.631 391.378 151.431C391.378 149.209 392.588 147.823 394.59 147.823C396.592 147.823 397.824 149.209 397.824 151.431C397.824 153.631 396.592 154.995 394.59 154.995ZM62.8387 189.019C66.3147 189.019 68.5367 186.885 68.5367 183.431C68.5367 179.955 66.3147 177.799 62.8387 177.799C59.3847 177.799 57.1627 179.955 57.1627 183.431C57.1627 186.885 59.3847 189.019 62.8387 189.019ZM62.8387 186.995C60.8367 186.995 59.6267 185.631 59.6267 183.431C59.6267 181.209 60.8367 179.823 62.8387 179.823C64.8407 179.823 66.0727 181.209 66.0727 183.431C66.0727 185.631 64.8407 186.995 62.8387 186.995ZM76.4375 188.843H78.9015V179.977H82.6855V177.975H78.9015V177.007C78.9015 175.819 79.5835 175.159 80.8375 175.159C81.5855 175.159 82.1575 175.313 82.5095 175.423V173.465C82.1575 173.333 81.3655 173.157 80.3975 173.157C78.0435 173.157 76.4375 174.477 76.4375 176.897V177.975H74.6995V179.977H76.4375V188.843ZM88.9861 189.019C91.4061 189.019 92.9241 187.875 93.3861 185.807H93.4081C93.4081 186.951 93.3641 188.117 93.2981 188.843H95.7621V177.975H93.2981V182.793C93.2981 185.433 91.9121 186.907 89.7121 186.907C87.9301 186.907 86.8741 185.939 86.8741 184.223V177.975H84.4101V184.575C84.4101 187.457 86.1481 189.019 88.9861 189.019ZM103.067 188.975C103.969 188.975 104.717 188.821 105.047 188.711V186.753C104.739 186.841 104.035 186.951 103.419 186.951C101.923 186.951 101.395 186.247 101.395 184.839V179.977H105.135V177.975H101.395V175.511H99.3491L99.2391 177.139C99.1731 177.755 99.0191 177.975 98.6011 177.975H97.2151V179.977H98.9311V184.971C98.9311 187.369 100.097 188.975 103.067 188.975ZM111.566 189.019C113.986 189.019 115.504 187.875 115.966 185.807H115.988C115.988 186.951 115.944 188.117 115.878 188.843H118.342V177.975H115.878V182.793C115.878 185.433 114.492 186.907 112.292 186.907C110.51 186.907 109.454 185.939 109.454 184.223V177.975H106.99V184.575C106.99 187.457 108.728 189.019 111.566 189.019ZM120.807 188.843H123.271V184.091C123.271 181.495 124.437 179.911 126.307 179.911C127.759 179.911 128.463 180.769 128.463 182.595C128.463 183.101 128.419 183.651 128.375 184.069H130.619C130.663 183.607 130.729 182.727 130.729 182.045C130.729 179.339 129.431 177.799 127.077 177.799C124.833 177.799 123.711 179.141 123.205 181.099H123.183L123.271 177.975H120.807V188.843ZM138.184 189.019C141.66 189.019 143.882 186.885 143.882 183.431C143.882 179.955 141.66 177.799 138.184 177.799C134.73 177.799 132.508 179.955 132.508 183.431C132.508 186.885 134.73 189.019 138.184 189.019ZM138.184 186.995C136.182 186.995 134.972 185.631 134.972 183.431C134.972 181.209 136.182 179.823 138.184 179.823C140.186 179.823 141.418 181.209 141.418 183.431C141.418 185.631 140.186 186.995 138.184 186.995ZM146.405 188.843H148.891V185.983H146.405V188.843ZM173.061 188.843H176.119L170.245 174.367H167.033L161.137 188.843H163.865L165.097 185.587H171.851L173.061 188.843ZM165.757 183.827L168.463 176.611H168.507L171.191 183.827H165.757ZM178.145 188.843H180.609V179.977H184.393V177.975H180.609V177.007C180.609 175.819 181.291 175.159 182.545 175.159C183.293 175.159 183.865 175.313 184.217 175.423V173.465C183.865 173.333 183.073 173.157 182.105 173.157C179.751 173.157 178.145 174.477 178.145 176.897V177.975H176.407V179.977H178.145V188.843ZM186.285 176.699H188.815V174.279H186.285V176.699ZM186.307 188.843H188.771V177.975H186.307V188.843ZM191.34 188.843H193.804V183.585C193.804 181.209 195.168 179.911 197.324 179.911C199.282 179.911 200.25 180.879 200.25 182.595V188.843H202.714V182.045C202.714 179.361 201.02 177.799 198.27 177.799C195.74 177.799 194.332 178.921 193.738 180.879H193.716L193.804 177.975H191.34V188.843ZM208.897 189.019C211.295 189.019 212.593 188.051 212.945 186.445H212.967C212.967 187.325 212.901 188.315 212.857 188.843H215.321V182.221C215.321 179.361 213.385 177.799 210.085 177.799C206.983 177.799 205.091 179.097 205.091 181.275C205.091 181.473 205.113 181.759 205.135 181.913H207.401C207.379 181.737 207.379 181.561 207.379 181.495C207.379 180.285 208.325 179.647 209.997 179.647C211.911 179.647 212.857 180.373 212.857 182.001V182.771H208.831C205.927 182.771 204.761 184.069 204.761 185.719C204.761 187.831 206.411 189.019 208.897 189.019ZM209.403 187.171C207.907 187.171 207.027 186.599 207.027 185.609C207.027 184.751 207.643 184.267 209.051 184.267H212.857V184.465C212.857 186.137 211.537 187.171 209.403 187.171ZM217.746 188.843H220.21V173.597H217.746V188.843ZM222.772 191.879C224.686 191.725 225.654 190.647 225.654 188.051V185.983H223.168V188.843H224.202V188.909C224.202 189.987 223.784 190.515 222.772 190.603V191.879ZM238.418 189.019C240.64 189.019 242.004 187.919 242.422 186.203H242.466C242.422 187.259 242.4 188.205 242.356 188.843H244.82V173.597H242.356V179.889H242.334C241.894 178.613 240.618 177.799 238.572 177.799C235.338 177.799 233.292 180.065 233.292 183.343C233.292 186.731 235.272 189.019 238.418 189.019ZM238.924 186.995C236.988 186.995 235.734 185.499 235.734 183.343C235.734 181.275 237.01 179.823 238.968 179.823C241.014 179.823 242.356 181.055 242.356 182.991V183.519C242.356 185.631 240.992 186.995 238.924 186.995ZM257.646 183.013C257.646 179.625 255.688 177.799 252.608 177.799C249.176 177.799 247.02 179.977 247.02 183.497C247.02 186.907 249.176 189.019 252.608 189.019C255.578 189.019 257.558 187.545 257.646 185.125H255.424C255.314 186.401 254.236 187.105 252.652 187.105C250.804 187.105 249.638 185.983 249.506 183.893H257.646V183.013ZM255.424 182.397H249.572C249.858 180.593 250.936 179.713 252.63 179.713C254.412 179.713 255.424 180.615 255.424 182.243V182.397ZM259.856 193.199H262.32V188.931C262.32 188.491 262.276 187.369 262.254 186.643H262.276C262.738 188.051 264.146 189.019 266.302 189.019C269.426 189.019 271.406 186.731 271.406 183.211C271.406 179.933 269.448 177.799 266.346 177.799C264.19 177.799 262.738 178.855 262.298 180.505H262.276L262.32 177.975H259.856V193.199ZM265.818 186.995C263.706 186.995 262.32 185.807 262.32 183.959V183.387C262.364 181.209 263.728 179.823 265.774 179.823C267.732 179.823 268.942 181.187 268.942 183.277C268.942 185.543 267.71 186.995 265.818 186.995ZM278.886 189.019C282.362 189.019 284.584 186.885 284.584 183.431C284.584 179.955 282.362 177.799 278.886 177.799C275.432 177.799 273.21 179.955 273.21 183.431C273.21 186.885 275.432 189.019 278.886 189.019ZM278.886 186.995C276.884 186.995 275.674 185.631 275.674 183.431C275.674 181.209 276.884 179.823 278.886 179.823C280.888 179.823 282.12 181.209 282.12 183.431C282.12 185.631 280.888 186.995 278.886 186.995ZM286.754 176.699H289.284V174.279H286.754V176.699ZM286.776 188.843H289.24V177.975H286.776V188.843ZM296.575 189.019C300.051 189.019 301.899 187.721 301.899 185.521C301.899 184.641 301.481 183.805 300.755 183.409C299.985 182.969 299.105 182.815 297.565 182.661C296.245 182.529 295.211 182.419 294.683 182.243C294.045 182.023 293.935 181.583 293.935 181.121C293.935 180.197 294.903 179.581 296.619 179.581C298.423 179.581 299.193 180.263 299.215 181.671H301.437C301.437 179.207 299.941 177.799 296.553 177.799C293.605 177.799 291.493 179.119 291.493 181.297C291.493 182.133 291.845 182.925 292.439 183.365C293.099 183.849 294.243 184.069 295.937 184.223C297.147 184.333 298.181 184.443 298.709 184.641C299.281 184.839 299.435 185.213 299.435 185.631C299.435 186.621 298.555 187.237 296.553 187.237C294.441 187.237 293.715 186.467 293.715 185.213H291.493C291.493 187.347 292.835 189.019 296.575 189.019ZM313.892 189.019C316.114 189.019 317.478 187.919 317.896 186.203H317.94C317.896 187.259 317.874 188.205 317.83 188.843H320.294V173.597H317.83V179.889H317.808C317.368 178.613 316.092 177.799 314.046 177.799C310.812 177.799 308.766 180.065 308.766 183.343C308.766 186.731 310.746 189.019 313.892 189.019ZM314.398 186.995C312.462 186.995 311.208 185.499 311.208 183.343C311.208 181.275 312.484 179.823 314.442 179.823C316.488 179.823 317.83 181.055 317.83 182.991V183.519C317.83 185.631 316.466 186.995 314.398 186.995ZM328.171 189.019C331.647 189.019 333.869 186.885 333.869 183.431C333.869 179.955 331.647 177.799 328.171 177.799C324.717 177.799 322.495 179.955 322.495 183.431C322.495 186.885 324.717 189.019 328.171 189.019ZM328.171 186.995C326.169 186.995 324.959 185.631 324.959 183.431C324.959 181.209 326.169 179.823 328.171 179.823C330.173 179.823 331.405 181.209 331.405 183.431C331.405 185.631 330.173 186.995 328.171 186.995ZM341.11 193.199H343.574V188.931C343.574 188.491 343.53 187.369 343.508 186.643H343.53C343.992 188.051 345.4 189.019 347.556 189.019C350.68 189.019 352.66 186.731 352.66 183.211C352.66 179.933 350.702 177.799 347.6 177.799C345.444 177.799 343.992 178.855 343.552 180.505H343.53L343.574 177.975H341.11V193.199ZM347.072 186.995C344.96 186.995 343.574 185.807 343.574 183.959V183.387C343.618 181.209 344.982 179.823 347.028 179.823C348.986 179.823 350.196 181.187 350.196 183.277C350.196 185.543 348.964 186.995 347.072 186.995ZM360.14 189.019C363.616 189.019 365.838 186.885 365.838 183.431C365.838 179.955 363.616 177.799 360.14 177.799C356.686 177.799 354.464 179.955 354.464 183.431C354.464 186.885 356.686 189.019 360.14 189.019ZM360.14 186.995C358.138 186.995 356.928 185.631 356.928 183.431C356.928 181.209 358.138 179.823 360.14 179.823C362.142 179.823 363.374 181.209 363.374 183.431C363.374 185.631 362.142 186.995 360.14 186.995ZM367.942 188.843H370.406V183.585C370.406 181.209 371.77 179.911 373.926 179.911C375.884 179.911 376.852 180.879 376.852 182.595V188.843H379.316V182.045C379.316 179.361 377.622 177.799 374.872 177.799C372.342 177.799 370.934 178.921 370.34 180.879H370.318L370.406 177.975H367.942V188.843ZM386.51 188.975C387.412 188.975 388.16 188.821 388.49 188.711V186.753C388.182 186.841 387.478 186.951 386.862 186.951C385.366 186.951 384.838 186.247 384.838 184.839V179.977H388.578V177.975H384.838V175.511H382.792L382.682 177.139C382.616 177.755 382.462 177.975 382.044 177.975H380.658V179.977H382.374V184.971C382.374 187.369 383.54 188.975 386.51 188.975ZM395.46 189.019C398.936 189.019 401.158 186.885 401.158 183.431C401.158 179.955 398.936 177.799 395.46 177.799C392.006 177.799 389.784 179.955 389.784 183.431C389.784 186.885 392.006 189.019 395.46 189.019ZM395.46 186.995C393.458 186.995 392.248 185.631 392.248 183.431C392.248 181.209 393.458 179.823 395.46 179.823C397.462 179.823 398.694 181.209 398.694 183.431C398.694 185.631 397.462 186.995 395.46 186.995ZM403.262 191.879C405.176 191.725 406.144 190.647 406.144 188.051V185.983H403.658V188.843H404.692V188.909C404.692 189.987 404.274 190.515 403.262 190.603V191.879ZM116.915 220.843H119.841L124.549 209.975H121.975L118.521 218.533H118.477L115.067 209.975H112.185L116.915 220.843ZM136.206 215.013C136.206 211.625 134.248 209.799 131.168 209.799C127.736 209.799 125.58 211.977 125.58 215.497C125.58 218.907 127.736 221.019 131.168 221.019C134.138 221.019 136.118 219.545 136.206 217.125H133.984C133.874 218.401 132.796 219.105 131.212 219.105C129.364 219.105 128.198 217.983 128.066 215.893H136.206V215.013ZM133.984 214.397H128.132C128.418 212.593 129.496 211.713 131.19 211.713C132.972 211.713 133.984 212.615 133.984 214.243V214.397ZM138.349 220.843H140.813V215.541C140.813 213.209 141.935 211.911 143.607 211.911C145.081 211.911 145.895 212.879 145.895 214.419V220.843H148.359V215.453C148.359 213.187 149.459 211.911 151.175 211.911C152.649 211.911 153.419 212.879 153.419 214.463V220.843H155.883V213.913C155.883 211.361 154.497 209.799 152.077 209.799C150.009 209.799 148.689 210.899 148.293 212.659H148.271C148.007 210.899 146.643 209.799 144.531 209.799C142.551 209.799 141.231 210.965 140.747 212.835H140.725L140.813 209.975H138.349V220.843ZM167.78 221.019C170.2 221.019 171.718 219.875 172.18 217.807H172.202C172.202 218.951 172.158 220.117 172.092 220.843H174.556V209.975H172.092V214.793C172.092 217.433 170.706 218.907 168.506 218.907C166.724 218.907 165.668 217.939 165.668 216.223V209.975H163.204V216.575C163.204 219.457 164.942 221.019 167.78 221.019ZM177.021 220.843H179.485V215.541C179.485 213.209 180.607 211.911 182.279 211.911C183.753 211.911 184.567 212.879 184.567 214.419V220.843H187.031V215.453C187.031 213.187 188.131 211.911 189.847 211.911C191.321 211.911 192.091 212.879 192.091 214.463V220.843H194.555V213.913C194.555 211.361 193.169 209.799 190.749 209.799C188.681 209.799 187.361 210.899 186.965 212.659H186.943C186.679 210.899 185.315 209.799 183.203 209.799C181.223 209.799 179.903 210.965 179.419 212.835H179.397L179.485 209.975H177.021V220.843ZM201.986 220.843H204.45V215.585C204.45 213.209 205.814 211.911 207.97 211.911C209.928 211.911 210.896 212.879 210.896 214.595V220.843H213.36V214.045C213.36 211.361 211.666 209.799 208.916 209.799C206.386 209.799 204.978 210.921 204.384 212.879H204.362L204.45 209.975H201.986V220.843ZM221.06 221.019C224.536 221.019 226.758 218.885 226.758 215.431C226.758 211.955 224.536 209.799 221.06 209.799C217.606 209.799 215.384 211.955 215.384 215.431C215.384 218.885 217.606 221.019 221.06 221.019ZM221.06 218.995C219.058 218.995 217.848 217.631 217.848 215.431C217.848 213.209 219.058 211.823 221.06 211.823C223.062 211.823 224.294 213.209 224.294 215.431C224.294 217.631 223.062 218.995 221.06 218.995ZM232.178 220.843H235.104L239.812 209.975H237.238L233.784 218.533H233.74L230.33 209.975H227.448L232.178 220.843ZM246.519 221.019C249.995 221.019 252.217 218.885 252.217 215.431C252.217 211.955 249.995 209.799 246.519 209.799C243.065 209.799 240.843 211.955 240.843 215.431C240.843 218.885 243.065 221.019 246.519 221.019ZM246.519 218.995C244.517 218.995 243.307 217.631 243.307 215.431C243.307 213.209 244.517 211.823 246.519 211.823C248.521 211.823 249.753 213.209 249.753 215.431C249.753 217.631 248.521 218.995 246.519 218.995ZM264.386 221.019C267.488 221.019 269.556 219.325 269.556 216.421H267.334C267.312 218.027 266.234 218.995 264.496 218.995C262.67 218.995 261.526 217.631 261.526 215.409C261.526 213.165 262.692 211.823 264.584 211.823C266.234 211.823 267.29 212.813 267.312 214.441H269.534C269.534 211.559 267.554 209.799 264.518 209.799C261.24 209.799 259.062 211.933 259.062 215.409C259.062 218.885 261.196 221.019 264.386 221.019ZM277.092 221.019C280.568 221.019 282.79 218.885 282.79 215.431C282.79 211.955 280.568 209.799 277.092 209.799C273.638 209.799 271.416 211.955 271.416 215.431C271.416 218.885 273.638 221.019 277.092 221.019ZM277.092 218.995C275.09 218.995 273.88 217.631 273.88 215.431C273.88 213.209 275.09 211.823 277.092 211.823C279.094 211.823 280.326 213.209 280.326 215.431C280.326 217.631 279.094 218.995 277.092 218.995ZM284.894 220.843H287.358V215.541C287.358 213.209 288.48 211.911 290.152 211.911C291.626 211.911 292.44 212.879 292.44 214.419V220.843H294.904V215.453C294.904 213.187 296.004 211.911 297.72 211.911C299.194 211.911 299.964 212.879 299.964 214.463V220.843H302.428V213.913C302.428 211.361 301.042 209.799 298.622 209.799C296.554 209.799 295.234 210.899 294.838 212.659H294.816C294.552 210.899 293.188 209.799 291.076 209.799C289.096 209.799 287.776 210.965 287.292 212.835H287.27L287.358 209.975H284.894V220.843ZM315.085 215.013C315.085 211.625 313.127 209.799 310.047 209.799C306.615 209.799 304.459 211.977 304.459 215.497C304.459 218.907 306.615 221.019 310.047 221.019C313.017 221.019 314.997 219.545 315.085 217.125H312.863C312.753 218.401 311.675 219.105 310.091 219.105C308.243 219.105 307.077 217.983 306.945 215.893H315.085V215.013ZM312.863 214.397H307.011C307.297 212.593 308.375 211.713 310.069 211.713C311.851 211.713 312.863 212.615 312.863 214.243V214.397ZM327.392 216.421H325.17C325.148 218.027 324.07 218.995 322.332 218.995C320.506 218.995 319.362 217.631 319.362 215.409C319.362 213.165 320.528 211.823 322.42 211.823C324.07 211.823 325.126 212.813 325.148 214.441H327.37C327.37 211.559 325.39 209.799 322.354 209.799C319.076 209.799 316.898 211.933 316.898 215.409C316.898 218.577 318.658 220.623 321.386 220.975L320.682 222.845C320.968 222.801 321.672 222.713 322.42 222.713C323.344 222.713 323.63 222.955 323.63 223.417C323.63 223.989 323.234 224.451 322.332 224.451C321.43 224.451 321.1 224.187 321.012 223.637H319.274C319.362 224.781 320.264 225.639 322.332 225.639C324.466 225.639 325.346 224.583 325.346 223.395C325.346 222.405 324.752 221.767 323.542 221.767C322.926 221.767 322.64 221.943 322.464 222.053L322.442 222.031L322.838 220.997C325.588 220.777 327.392 219.127 327.392 216.421ZM334.928 221.019C338.404 221.019 340.626 218.885 340.626 215.431C340.626 211.955 338.404 209.799 334.928 209.799C331.474 209.799 329.252 211.955 329.252 215.431C329.252 218.885 331.474 221.019 334.928 221.019ZM334.928 218.995C332.926 218.995 331.716 217.631 331.716 215.431C331.716 213.209 332.926 211.823 334.928 211.823C336.93 211.823 338.162 213.209 338.162 215.431C338.162 217.631 336.93 218.995 334.928 218.995ZM343.148 220.843H345.634V217.983H343.148V220.843Z" fill="black"/>
</svg>
