<svg width="318" height="423" viewBox="0 0 318 423" fill="none" xmlns="http://www.w3.org/2000/svg">
<path d="M84.6232 36.44C92.5872 36.44 98.0872 31.952 98.0872 25.308C98.0872 24.956 98.0872 24.472 98.0432 23.9H91.7072C91.7512 24.384 91.7512 24.648 91.7512 24.824C91.7512 28.476 89.1992 30.764 84.9752 30.764C80.3112 30.764 76.8352 27.332 76.8352 21.568C76.8352 15.848 80.2232 12.284 84.9752 12.284C88.8912 12.284 91.6632 14.528 91.6632 18.444C91.6632 18.664 91.6632 19.104 91.6192 19.588H97.9112C97.9552 19.192 97.9992 18.4 97.9992 17.74C97.9992 11.096 92.5432 6.608 84.6232 6.608C75.6912 6.608 69.3552 12.152 69.3552 21.568C69.3552 30.896 75.6912 36.44 84.6232 36.44ZM116.254 36.44C125.01 36.44 131.786 30.852 131.786 21.392C131.786 12.108 125.01 6.608 116.254 6.608C107.498 6.608 100.722 12.108 100.722 21.392C100.722 30.852 107.498 36.44 116.254 36.44ZM116.254 30.764C111.678 30.764 108.202 27.288 108.202 21.436C108.202 15.672 111.678 12.284 116.254 12.284C120.83 12.284 124.306 15.672 124.306 21.436C124.306 27.288 120.83 30.764 116.254 30.764ZM135.07 36H141.846L141.714 13.252H141.802L149.15 36H155.354L162.658 13.252H162.746L162.57 36H169.786V7.048H158.83L152.67 26.32H152.582L146.378 7.048H135.07V36ZM173.742 36H194.642V30.324H180.958V23.636H191.254V19.236H180.958V12.724H194.246V7.048H173.742V36ZM211.295 36.44C219.259 36.44 224.759 31.952 224.759 25.308C224.759 24.956 224.759 24.472 224.715 23.9H218.379C218.423 24.384 218.423 24.648 218.423 24.824C218.423 28.476 215.871 30.764 211.647 30.764C206.983 30.764 203.507 27.332 203.507 21.568C203.507 15.848 206.895 12.284 211.647 12.284C215.563 12.284 218.335 14.528 218.335 18.444C218.335 18.664 218.335 19.104 218.291 19.588H224.583C224.627 19.192 224.671 18.4 224.671 17.74C224.671 11.096 219.215 6.608 211.295 6.608C202.363 6.608 196.027 12.152 196.027 21.568C196.027 30.896 202.363 36.44 211.295 36.44ZM228.054 36H248.954V30.324H235.27V23.636H245.566V19.236H235.27V12.724H248.558V7.048H228.054V36ZM18.8823 86H39.7823V80.324H26.0983V73.636H36.3943V69.236H26.0983V62.724H39.3863V57.048H18.8823V86ZM42.773 86H49.549L49.417 63.252H49.505L56.853 86H63.057L70.361 63.252H70.449L70.273 86H77.489V57.048H66.533L60.373 76.32H60.285L54.081 57.048H42.773V86Z" fill="white"/>
<path d="M102.497 86.396C110.373 86.396 114.993 82.876 114.993 76.936C114.993 73.504 113.101 71.128 109.845 70.468V70.336C112.265 69.72 113.673 67.608 113.673 64.836C113.673 59.6 109.229 56.652 102.893 56.652C95.6775 56.652 91.4535 59.952 91.4535 65.584C91.4535 66.728 91.5855 67.784 91.7175 68.268H97.7895C97.7455 67.96 97.7015 67.344 97.7015 66.684C97.7015 63.956 99.3295 62.328 102.629 62.328C105.533 62.328 107.249 63.692 107.249 66.068C107.249 68.136 105.973 69.324 103.773 69.324H100.165V73.724H104.477C106.853 73.724 107.953 74.692 107.953 76.496C107.953 79.092 106.149 80.72 102.497 80.72C99.1535 80.72 97.2175 79.048 97.2175 76.232C97.2175 75.924 97.2175 75.44 97.2615 74.824H90.9695C90.8815 75.308 90.7495 76.276 90.7495 77.244C90.7495 83.008 95.1055 86.396 102.497 86.396ZM128.281 86H135.497V77.728H141.393C148.961 77.728 152.569 73.944 152.569 67.52C152.569 60.524 148.125 57.048 140.733 57.048H128.281V86ZM135.497 72.888V62.724H140.513C143.945 62.724 145.793 64.572 145.793 67.872C145.793 71.26 144.121 72.888 141.085 72.888H135.497ZM173.735 86H182.139L170.963 57.048H161.987L150.811 86H158.203L160.183 80.104H171.755L173.735 86ZM161.678 75.616L165.903 62.944H165.991L170.259 75.616H161.678ZM195.639 86.44C205.979 86.44 208.751 82.04 208.751 77.112C208.751 74.384 207.651 72.316 205.583 71.216C203.867 70.292 201.403 69.764 198.147 69.236C195.683 68.84 192.647 68.356 191.547 67.872C190.535 67.432 190.139 66.64 190.139 65.232C190.139 63.296 191.811 61.844 195.727 61.844C199.687 61.844 201.403 63.648 201.403 66.948H207.783C207.783 60.436 204.791 56.608 195.595 56.608C187.235 56.608 182.967 60.392 182.967 65.848C182.967 68.62 183.935 70.644 185.783 71.832C187.455 72.932 190.359 73.504 193.219 73.944C195.639 74.296 198.631 74.736 199.907 75.176C201.051 75.572 201.579 76.364 201.579 77.596C201.579 79.444 200.479 81.204 195.595 81.204C190.755 81.204 189.479 79.18 189.479 76.056H183.055C183.055 81.38 185.695 86.44 195.639 86.44ZM224.256 86.44C234.596 86.44 237.368 82.04 237.368 77.112C237.368 74.384 236.268 72.316 234.2 71.216C232.484 70.292 230.02 69.764 226.764 69.236C224.3 68.84 221.264 68.356 220.164 67.872C219.152 67.432 218.756 66.64 218.756 65.232C218.756 63.296 220.428 61.844 224.344 61.844C228.304 61.844 230.02 63.648 230.02 66.948H236.4C236.4 60.436 233.408 56.608 224.212 56.608C215.852 56.608 211.584 60.392 211.584 65.848C211.584 68.62 212.552 70.644 214.4 71.832C216.072 72.932 218.976 73.504 221.836 73.944C224.256 74.296 227.248 74.736 228.524 75.176C229.668 75.572 230.196 76.364 230.196 77.596C230.196 79.444 229.096 81.204 224.212 81.204C219.372 81.204 218.096 79.18 218.096 76.056H211.672C211.672 81.38 214.312 86.44 224.256 86.44ZM255.645 86.44C264.401 86.44 271.177 80.852 271.177 71.392C271.177 62.108 264.401 56.608 255.645 56.608C246.889 56.608 240.113 62.108 240.113 71.392C240.113 80.852 246.889 86.44 255.645 86.44ZM255.645 80.764C251.069 80.764 247.593 77.288 247.593 71.436C247.593 65.672 251.069 62.284 255.645 62.284C260.221 62.284 263.697 65.672 263.697 71.436C263.697 77.288 260.221 80.764 255.645 80.764ZM286.56 86.44C296.9 86.44 299.672 82.04 299.672 77.112C299.672 74.384 298.572 72.316 296.504 71.216C294.788 70.292 292.324 69.764 289.068 69.236C286.604 68.84 283.568 68.356 282.468 67.872C281.456 67.432 281.06 66.64 281.06 65.232C281.06 63.296 282.732 61.844 286.648 61.844C290.608 61.844 292.324 63.648 292.324 66.948H298.704C298.704 60.436 295.712 56.608 286.516 56.608C278.156 56.608 273.888 60.392 273.888 65.848C273.888 68.62 274.856 70.644 276.704 71.832C278.376 72.932 281.28 73.504 284.14 73.944C286.56 74.296 289.552 74.736 290.828 75.176C291.972 75.572 292.5 76.364 292.5 77.596C292.5 79.444 291.4 81.204 286.516 81.204C281.676 81.204 280.4 79.18 280.4 76.056H273.976C273.976 81.38 276.616 86.44 286.56 86.44Z" fill="#7D2CFF"/>
<path d="M144.848 160.248H152.984C154.376 160.248 155.456 160.64 156.224 161.424C157.008 162.208 157.4 163.248 157.4 164.544C157.4 165.184 157.312 165.728 157.136 166.176C156.976 166.624 156.752 166.992 156.464 167.28C156.192 167.568 155.864 167.784 155.48 167.928C155.112 168.056 154.712 168.128 154.28 168.144V168.288C154.68 168.288 155.096 168.36 155.528 168.504C155.976 168.648 156.384 168.88 156.752 169.2C157.12 169.504 157.424 169.904 157.664 170.4C157.92 170.896 158.048 171.504 158.048 172.224C158.048 172.88 157.936 173.504 157.712 174.096C157.504 174.672 157.208 175.176 156.824 175.608C156.44 176.04 155.984 176.384 155.456 176.64C154.928 176.88 154.352 177 153.728 177H144.848V160.248ZM148.496 173.928H152.696C153.176 173.928 153.552 173.8 153.824 173.544C154.112 173.272 154.256 172.896 154.256 172.416V171.6C154.256 171.12 154.112 170.752 153.824 170.496C153.552 170.224 153.176 170.088 152.696 170.088H148.496V173.928ZM148.496 167.112H152.12C152.6 167.112 152.976 166.976 153.248 166.704C153.52 166.432 153.656 166.056 153.656 165.576V164.856C153.656 164.376 153.52 164 153.248 163.728C152.976 163.456 152.6 163.32 152.12 163.32H148.496V167.112ZM169.976 177C169.336 177 168.8 176.8 168.368 176.4C167.952 176 167.688 175.464 167.576 174.792H167.432C167.24 175.608 166.816 176.232 166.16 176.664C165.504 177.08 164.696 177.288 163.736 177.288C162.472 177.288 161.504 176.952 160.832 176.28C160.16 175.608 159.824 174.72 159.824 173.616C159.824 172.288 160.304 171.304 161.264 170.664C162.24 170.008 163.56 169.68 165.224 169.68H167.216V168.888C167.216 168.28 167.056 167.8 166.736 167.448C166.416 167.08 165.88 166.896 165.128 166.896C164.424 166.896 163.864 167.048 163.448 167.352C163.032 167.656 162.688 168 162.416 168.384L160.304 166.512C160.816 165.76 161.456 165.176 162.224 164.76C163.008 164.328 164.064 164.112 165.392 164.112C167.184 164.112 168.528 164.504 169.424 165.288C170.32 166.072 170.768 167.216 170.768 168.72V174.24H171.944V177H169.976ZM165.056 174.816C165.648 174.816 166.152 174.688 166.568 174.432C167 174.176 167.216 173.76 167.216 173.184V171.696H165.488C164.096 171.696 163.4 172.168 163.4 173.112V173.472C163.4 173.936 163.544 174.28 163.832 174.504C164.12 174.712 164.528 174.816 165.056 174.816ZM176.104 163.056C175.384 163.056 174.856 162.896 174.52 162.576C174.2 162.24 174.04 161.816 174.04 161.304V160.776C174.04 160.264 174.2 159.848 174.52 159.528C174.856 159.192 175.384 159.024 176.104 159.024C176.824 159.024 177.344 159.192 177.664 159.528C178 159.848 178.168 160.264 178.168 160.776V161.304C178.168 161.816 178 162.24 177.664 162.576C177.344 162.896 176.824 163.056 176.104 163.056ZM174.328 164.4H177.88V177H174.328V164.4ZM179.971 177L184.123 170.592L180.019 164.4H184.051L186.403 168.36H186.499L188.779 164.4H192.523L188.347 170.712L192.547 177H188.515L186.091 172.896H185.995L183.667 177H179.971ZM199.506 177.288C198.546 177.288 197.69 177.136 196.938 176.832C196.186 176.512 195.546 176.072 195.018 175.512C194.506 174.936 194.114 174.24 193.842 173.424C193.586 172.608 193.458 171.696 193.458 170.688C193.458 169.696 193.586 168.8 193.842 168C194.098 167.184 194.474 166.488 194.97 165.912C195.482 165.336 196.106 164.896 196.842 164.592C197.578 164.272 198.418 164.112 199.362 164.112C200.402 164.112 201.29 164.288 202.026 164.64C202.778 164.992 203.386 165.464 203.85 166.056C204.33 166.648 204.674 167.336 204.882 168.12C205.106 168.888 205.218 169.696 205.218 170.544V171.6H197.13V171.792C197.13 172.624 197.354 173.288 197.802 173.784C198.25 174.264 198.954 174.504 199.914 174.504C200.65 174.504 201.25 174.36 201.714 174.072C202.178 173.768 202.61 173.408 203.01 172.992L204.786 175.2C204.226 175.856 203.49 176.368 202.578 176.736C201.682 177.104 200.658 177.288 199.506 177.288ZM199.434 166.728C198.714 166.728 198.146 166.968 197.73 167.448C197.33 167.912 197.13 168.536 197.13 169.32V169.512H201.546V169.296C201.546 168.528 201.37 167.912 201.018 167.448C200.682 166.968 200.154 166.728 199.434 166.728ZM218.51 177.288C217.582 177.288 216.75 177.136 216.014 176.832C215.294 176.528 214.678 176.088 214.166 175.512C213.67 174.936 213.286 174.24 213.014 173.424C212.742 172.608 212.606 171.696 212.606 170.688C212.606 169.68 212.742 168.768 213.014 167.952C213.286 167.136 213.67 166.448 214.166 165.888C214.678 165.312 215.294 164.872 216.014 164.568C216.75 164.264 217.582 164.112 218.51 164.112C219.438 164.112 220.262 164.264 220.982 164.568C221.718 164.872 222.334 165.312 222.83 165.888C223.342 166.448 223.734 167.136 224.006 167.952C224.278 168.768 224.414 169.68 224.414 170.688C224.414 171.696 224.278 172.608 224.006 173.424C223.734 174.24 223.342 174.936 222.83 175.512C222.334 176.088 221.718 176.528 220.982 176.832C220.262 177.136 219.438 177.288 218.51 177.288ZM218.51 174.48C219.214 174.48 219.758 174.264 220.142 173.832C220.526 173.4 220.718 172.784 220.718 171.984V169.416C220.718 168.616 220.526 168 220.142 167.568C219.758 167.136 219.214 166.92 218.51 166.92C217.806 166.92 217.262 167.136 216.878 167.568C216.494 168 216.302 168.616 216.302 169.416V171.984C216.302 172.784 216.494 173.4 216.878 173.832C217.262 174.264 217.806 174.48 218.51 174.48ZM155.168 205L153.968 201.016H148.376L147.176 205H143.48L149 188.248H153.512L158.96 205H155.168ZM151.208 191.56H151.088L149.24 197.92H153.08L151.208 191.56ZM161.086 192.4H164.638V194.512H164.758C164.934 193.808 165.334 193.232 165.958 192.784C166.598 192.336 167.326 192.112 168.142 192.112C169.742 192.112 170.95 192.672 171.766 193.792C172.582 194.912 172.99 196.544 172.99 198.688C172.99 200.832 172.582 202.472 171.766 203.608C170.95 204.728 169.742 205.288 168.142 205.288C167.726 205.288 167.334 205.224 166.966 205.096C166.598 204.984 166.262 204.824 165.958 204.616C165.67 204.392 165.422 204.136 165.214 203.848C165.006 203.544 164.854 203.224 164.758 202.888H164.638V209.8H161.086V192.4ZM166.966 202.408C167.638 202.408 168.19 202.176 168.622 201.712C169.07 201.232 169.294 200.592 169.294 199.792V197.608C169.294 196.808 169.07 196.176 168.622 195.712C168.19 195.232 167.638 194.992 166.966 194.992C166.294 194.992 165.734 195.16 165.286 195.496C164.854 195.816 164.638 196.264 164.638 196.84V200.56C164.638 201.136 164.854 201.592 165.286 201.928C165.734 202.248 166.294 202.408 166.966 202.408ZM179.215 205C177.999 205 177.103 204.704 176.527 204.112C175.967 203.52 175.687 202.664 175.687 201.544V187.24H179.239V202.24H180.823V205H179.215ZM184.729 191.056C184.009 191.056 183.481 190.896 183.145 190.576C182.825 190.24 182.665 189.816 182.665 189.304V188.776C182.665 188.264 182.825 187.848 183.145 187.528C183.481 187.192 184.009 187.024 184.729 187.024C185.449 187.024 185.969 187.192 186.289 187.528C186.625 187.848 186.793 188.264 186.793 188.776V189.304C186.793 189.816 186.625 190.24 186.289 190.576C185.969 190.896 185.449 191.056 184.729 191.056ZM182.953 192.4H186.505V205H182.953V192.4ZM194.908 205.288C193.964 205.288 193.124 205.136 192.388 204.832C191.652 204.512 191.036 204.072 190.54 203.512C190.044 202.936 189.668 202.24 189.412 201.424C189.156 200.608 189.028 199.696 189.028 198.688C189.028 197.68 189.156 196.776 189.412 195.976C189.668 195.16 190.044 194.464 190.54 193.888C191.036 193.312 191.652 192.872 192.388 192.568C193.124 192.264 193.964 192.112 194.908 192.112C196.188 192.112 197.252 192.4 198.1 192.976C198.964 193.552 199.58 194.36 199.948 195.4L197.068 196.648C196.956 196.168 196.724 195.76 196.372 195.424C196.02 195.088 195.532 194.92 194.908 194.92C194.188 194.92 193.644 195.16 193.276 195.64C192.908 196.104 192.724 196.736 192.724 197.536V199.888C192.724 200.688 192.908 201.32 193.276 201.784C193.644 202.248 194.188 202.48 194.908 202.48C195.548 202.48 196.052 202.312 196.42 201.976C196.804 201.624 197.084 201.168 197.26 200.608L200.02 201.808C199.604 203.008 198.956 203.888 198.076 204.448C197.212 205.008 196.156 205.288 194.908 205.288ZM211.531 205C210.891 205 210.355 204.8 209.923 204.4C209.507 204 209.243 203.464 209.131 202.792H208.987C208.795 203.608 208.371 204.232 207.715 204.664C207.059 205.08 206.251 205.288 205.291 205.288C204.027 205.288 203.059 204.952 202.387 204.28C201.715 203.608 201.379 202.72 201.379 201.616C201.379 200.288 201.859 199.304 202.819 198.664C203.795 198.008 205.115 197.68 206.779 197.68H208.771V196.888C208.771 196.28 208.611 195.8 208.291 195.448C207.971 195.08 207.435 194.896 206.683 194.896C205.979 194.896 205.419 195.048 205.003 195.352C204.587 195.656 204.243 196 203.971 196.384L201.859 194.512C202.371 193.76 203.011 193.176 203.779 192.76C204.563 192.328 205.619 192.112 206.947 192.112C208.739 192.112 210.083 192.504 210.979 193.288C211.875 194.072 212.323 195.216 212.323 196.72V202.24H213.499V205H211.531ZM206.611 202.816C207.203 202.816 207.707 202.688 208.123 202.432C208.555 202.176 208.771 201.76 208.771 201.184V199.696H207.043C205.651 199.696 204.955 200.168 204.955 201.112V201.472C204.955 201.936 205.099 202.28 205.387 202.504C205.675 202.712 206.083 202.816 206.611 202.816ZM220.158 205C218.926 205 217.99 204.688 217.35 204.064C216.726 203.44 216.414 202.528 216.414 201.328V195.16H214.638V192.4H215.526C216.006 192.4 216.334 192.288 216.51 192.064C216.686 191.824 216.774 191.488 216.774 191.056V188.992H219.966V192.4H222.462V195.16H219.966V202.24H222.27V205H220.158ZM226.705 191.056C225.985 191.056 225.457 190.896 225.121 190.576C224.801 190.24 224.641 189.816 224.641 189.304V188.776C224.641 188.264 224.801 187.848 225.121 187.528C225.457 187.192 225.985 187.024 226.705 187.024C227.425 187.024 227.945 187.192 228.265 187.528C228.601 187.848 228.769 188.264 228.769 188.776V189.304C228.769 189.816 228.601 190.24 228.265 190.576C227.945 190.896 227.425 191.056 226.705 191.056ZM224.929 192.4H228.481V205H224.929V192.4ZM234.485 205L230.357 192.4H233.861L235.421 197.488L236.597 202.048H236.789L237.965 197.488L239.477 192.4H242.837L238.709 205H234.485ZM249.635 205.288C248.707 205.288 247.875 205.136 247.139 204.832C246.419 204.528 245.803 204.088 245.291 203.512C244.795 202.936 244.411 202.24 244.139 201.424C243.867 200.608 243.731 199.696 243.731 198.688C243.731 197.68 243.867 196.768 244.139 195.952C244.411 195.136 244.795 194.448 245.291 193.888C245.803 193.312 246.419 192.872 247.139 192.568C247.875 192.264 248.707 192.112 249.635 192.112C250.563 192.112 251.387 192.264 252.107 192.568C252.843 192.872 253.459 193.312 253.955 193.888C254.467 194.448 254.859 195.136 255.131 195.952C255.403 196.768 255.539 197.68 255.539 198.688C255.539 199.696 255.403 200.608 255.131 201.424C254.859 202.24 254.467 202.936 253.955 203.512C253.459 204.088 252.843 204.528 252.107 204.832C251.387 205.136 250.563 205.288 249.635 205.288ZM249.635 202.48C250.339 202.48 250.883 202.264 251.267 201.832C251.651 201.4 251.843 200.784 251.843 199.984V197.416C251.843 196.616 251.651 196 251.267 195.568C250.883 195.136 250.339 194.92 249.635 194.92C248.931 194.92 248.387 195.136 248.003 195.568C247.619 196 247.427 196.616 247.427 197.416V199.984C247.427 200.784 247.619 201.4 248.003 201.832C248.387 202.264 248.931 202.48 249.635 202.48Z" fill="#7D2CFF"/>
<path d="M148.736 285L143.336 268.248H147.032L149.528 276.288L150.848 281.544H150.92L152.192 276.288L154.688 268.248H158.264L152.816 285H148.736ZM164.678 285.288C163.718 285.288 162.862 285.136 162.11 284.832C161.358 284.512 160.718 284.072 160.19 283.512C159.678 282.936 159.286 282.24 159.014 281.424C158.758 280.608 158.63 279.696 158.63 278.688C158.63 277.696 158.758 276.8 159.014 276C159.27 275.184 159.646 274.488 160.142 273.912C160.654 273.336 161.278 272.896 162.014 272.592C162.75 272.272 163.59 272.112 164.534 272.112C165.574 272.112 166.462 272.288 167.198 272.64C167.95 272.992 168.558 273.464 169.022 274.056C169.502 274.648 169.846 275.336 170.054 276.12C170.278 276.888 170.39 277.696 170.39 278.544V279.6H162.302V279.792C162.302 280.624 162.526 281.288 162.974 281.784C163.422 282.264 164.126 282.504 165.086 282.504C165.822 282.504 166.422 282.36 166.886 282.072C167.35 281.768 167.782 281.408 168.182 280.992L169.958 283.2C169.398 283.856 168.662 284.368 167.75 284.736C166.854 285.104 165.83 285.288 164.678 285.288ZM164.606 274.728C163.886 274.728 163.318 274.968 162.902 275.448C162.502 275.912 162.302 276.536 162.302 277.32V277.512H166.718V277.296C166.718 276.528 166.542 275.912 166.19 275.448C165.854 274.968 165.326 274.728 164.606 274.728ZM172.898 285V272.4H176.45V275.136H176.57C176.634 274.784 176.746 274.448 176.906 274.128C177.066 273.792 177.274 273.496 177.53 273.24C177.802 272.984 178.122 272.784 178.49 272.64C178.858 272.48 179.29 272.4 179.786 272.4H180.41V275.712H179.522C178.482 275.712 177.706 275.848 177.194 276.12C176.698 276.392 176.45 276.896 176.45 277.632V285H172.898ZM184.377 271.056C183.657 271.056 183.129 270.896 182.793 270.576C182.473 270.24 182.313 269.816 182.313 269.304V268.776C182.313 268.264 182.473 267.848 182.793 267.528C183.129 267.192 183.657 267.024 184.377 267.024C185.097 267.024 185.617 267.192 185.937 267.528C186.273 267.848 186.441 268.264 186.441 268.776V269.304C186.441 269.816 186.273 270.24 185.937 270.576C185.617 270.896 185.097 271.056 184.377 271.056ZM182.601 272.4H186.153V285H182.601V272.4ZM190.093 275.16H188.317V272.4H190.093V270.912C190.093 269.696 190.413 268.784 191.053 268.176C191.693 267.552 192.629 267.24 193.861 267.24H196.165V270H193.645V272.4H201.685V285H198.133V275.16H193.645V285H190.093V275.16ZM199.909 271.056C199.189 271.056 198.661 270.896 198.325 270.576C198.005 270.24 197.845 269.816 197.845 269.304V268.776C197.845 268.264 198.005 267.848 198.325 267.528C198.661 267.192 199.189 267.024 199.909 267.024C200.629 267.024 201.149 267.192 201.469 267.528C201.805 267.848 201.973 268.264 201.973 268.776V269.304C201.973 269.816 201.805 270.24 201.469 270.576C201.149 270.896 200.629 271.056 199.909 271.056ZM212.736 282.888H212.616C212.52 283.224 212.368 283.544 212.16 283.848C211.952 284.136 211.696 284.392 211.392 284.616C211.104 284.824 210.768 284.984 210.384 285.096C210.016 285.224 209.632 285.288 209.232 285.288C207.632 285.288 206.424 284.728 205.608 283.608C204.792 282.472 204.384 280.832 204.384 278.688C204.384 276.544 204.792 274.912 205.608 273.792C206.424 272.672 207.632 272.112 209.232 272.112C210.048 272.112 210.768 272.336 211.392 272.784C212.032 273.232 212.44 273.808 212.616 274.512H212.736V272.4H216.288V289.8H212.736V282.888ZM210.408 282.408C211.08 282.408 211.632 282.248 212.064 281.928C212.512 281.592 212.736 281.136 212.736 280.56V276.84C212.736 276.264 212.512 275.816 212.064 275.496C211.632 275.16 211.08 274.992 210.408 274.992C209.736 274.992 209.176 275.232 208.728 275.712C208.296 276.176 208.08 276.808 208.08 277.608V279.792C208.08 280.592 208.296 281.232 208.728 281.712C209.176 282.176 209.736 282.408 210.408 282.408ZM227.049 282.888H226.929C226.817 283.208 226.665 283.512 226.473 283.8C226.297 284.088 226.065 284.344 225.777 284.568C225.489 284.792 225.145 284.968 224.745 285.096C224.361 285.224 223.913 285.288 223.401 285.288C222.105 285.288 221.121 284.864 220.449 284.016C219.793 283.152 219.465 281.92 219.465 280.32V272.4H223.017V280.008C223.017 280.776 223.153 281.368 223.425 281.784C223.697 282.2 224.161 282.408 224.817 282.408C225.089 282.408 225.361 282.368 225.633 282.288C225.905 282.208 226.145 282.096 226.353 281.952C226.561 281.792 226.729 281.6 226.857 281.376C226.985 281.152 227.049 280.888 227.049 280.584V272.4H230.601V285H227.049V282.888ZM239.162 285.288C238.202 285.288 237.346 285.136 236.594 284.832C235.842 284.512 235.202 284.072 234.674 283.512C234.162 282.936 233.77 282.24 233.498 281.424C233.242 280.608 233.114 279.696 233.114 278.688C233.114 277.696 233.242 276.8 233.498 276C233.754 275.184 234.13 274.488 234.626 273.912C235.138 273.336 235.762 272.896 236.498 272.592C237.234 272.272 238.074 272.112 239.018 272.112C240.058 272.112 240.946 272.288 241.682 272.64C242.434 272.992 243.042 273.464 243.506 274.056C243.986 274.648 244.33 275.336 244.538 276.12C244.762 276.888 244.874 277.696 244.874 278.544V279.6H236.786V279.792C236.786 280.624 237.01 281.288 237.458 281.784C237.906 282.264 238.61 282.504 239.57 282.504C240.306 282.504 240.906 282.36 241.37 282.072C241.834 281.768 242.266 281.408 242.666 280.992L244.442 283.2C243.882 283.856 243.146 284.368 242.234 284.736C241.338 285.104 240.314 285.288 239.162 285.288ZM239.09 274.728C238.37 274.728 237.802 274.968 237.386 275.448C236.986 275.912 236.786 276.536 236.786 277.32V277.512H241.202V277.296C241.202 276.528 241.026 275.912 240.674 275.448C240.338 274.968 239.81 274.728 239.09 274.728ZM148.928 313.288C147.712 313.288 146.688 313.096 145.856 312.712C145.024 312.312 144.28 311.752 143.624 311.032L145.712 308.92C146.16 309.416 146.656 309.808 147.2 310.096C147.744 310.384 148.36 310.528 149.048 310.528C149.752 310.528 150.24 310.424 150.512 310.216C150.784 309.992 150.92 309.696 150.92 309.328C150.92 308.736 150.496 308.384 149.648 308.272L148.28 308.104C145.448 307.752 144.032 306.456 144.032 304.216C144.032 303.608 144.144 303.056 144.368 302.56C144.608 302.048 144.936 301.616 145.352 301.264C145.784 300.896 146.296 300.616 146.888 300.424C147.496 300.216 148.176 300.112 148.928 300.112C149.584 300.112 150.16 300.16 150.656 300.256C151.168 300.336 151.616 300.464 152 300.64C152.4 300.8 152.76 301.008 153.08 301.264C153.416 301.504 153.744 301.776 154.064 302.08L152.024 304.168C151.624 303.768 151.168 303.456 150.656 303.232C150.16 302.992 149.648 302.872 149.12 302.872C148.512 302.872 148.08 302.968 147.824 303.16C147.568 303.352 147.44 303.608 147.44 303.928C147.44 304.264 147.528 304.528 147.704 304.72C147.896 304.896 148.248 305.024 148.76 305.104L150.176 305.296C152.944 305.664 154.328 306.928 154.328 309.088C154.328 309.696 154.2 310.256 153.944 310.768C153.688 311.28 153.32 311.728 152.84 312.112C152.376 312.48 151.808 312.768 151.136 312.976C150.48 313.184 149.744 313.288 148.928 313.288ZM164.19 310.888H164.07C163.958 311.208 163.806 311.512 163.614 311.8C163.438 312.088 163.206 312.344 162.918 312.568C162.63 312.792 162.286 312.968 161.886 313.096C161.502 313.224 161.054 313.288 160.542 313.288C159.246 313.288 158.262 312.864 157.59 312.016C156.934 311.152 156.606 309.92 156.606 308.32V300.4H160.158V308.008C160.158 308.776 160.294 309.368 160.566 309.784C160.838 310.2 161.302 310.408 161.958 310.408C162.23 310.408 162.502 310.368 162.774 310.288C163.046 310.208 163.286 310.096 163.494 309.952C163.702 309.792 163.87 309.6 163.998 309.376C164.126 309.152 164.19 308.888 164.19 308.584V300.4H167.742V313H164.19V310.888ZM180.359 313C179.719 313 179.183 312.8 178.751 312.4C178.335 312 178.071 311.464 177.959 310.792H177.815C177.623 311.608 177.199 312.232 176.543 312.664C175.887 313.08 175.079 313.288 174.119 313.288C172.855 313.288 171.887 312.952 171.215 312.28C170.543 311.608 170.207 310.72 170.207 309.616C170.207 308.288 170.687 307.304 171.647 306.664C172.623 306.008 173.943 305.68 175.607 305.68H177.599V304.888C177.599 304.28 177.439 303.8 177.119 303.448C176.799 303.08 176.263 302.896 175.511 302.896C174.807 302.896 174.247 303.048 173.831 303.352C173.415 303.656 173.071 304 172.799 304.384L170.687 302.512C171.199 301.76 171.839 301.176 172.607 300.76C173.391 300.328 174.447 300.112 175.775 300.112C177.567 300.112 178.911 300.504 179.807 301.288C180.703 302.072 181.151 303.216 181.151 304.72V310.24H182.327V313H180.359ZM175.439 310.816C176.031 310.816 176.535 310.688 176.951 310.432C177.383 310.176 177.599 309.76 177.599 309.184V307.696H175.871C174.479 307.696 173.783 308.168 173.783 309.112V309.472C173.783 309.936 173.927 310.28 174.215 310.504C174.503 310.712 174.911 310.816 175.439 310.816ZM195.471 313.288C194.527 313.288 193.687 313.136 192.951 312.832C192.215 312.512 191.599 312.072 191.103 311.512C190.607 310.936 190.231 310.24 189.975 309.424C189.719 308.608 189.591 307.696 189.591 306.688C189.591 305.68 189.719 304.776 189.975 303.976C190.231 303.16 190.607 302.464 191.103 301.888C191.599 301.312 192.215 300.872 192.951 300.568C193.687 300.264 194.527 300.112 195.471 300.112C196.751 300.112 197.815 300.4 198.663 300.976C199.527 301.552 200.143 302.36 200.511 303.4L197.631 304.648C197.519 304.168 197.287 303.76 196.935 303.424C196.583 303.088 196.095 302.92 195.471 302.92C194.751 302.92 194.207 303.16 193.839 303.64C193.471 304.104 193.287 304.736 193.287 305.536V307.888C193.287 308.688 193.471 309.32 193.839 309.784C194.207 310.248 194.751 310.48 195.471 310.48C196.111 310.48 196.615 310.312 196.983 309.976C197.367 309.624 197.647 309.168 197.823 308.608L200.583 309.808C200.167 311.008 199.519 311.888 198.639 312.448C197.775 313.008 196.719 313.288 195.471 313.288ZM207.776 313.288C206.848 313.288 206.016 313.136 205.28 312.832C204.56 312.528 203.944 312.088 203.432 311.512C202.936 310.936 202.552 310.24 202.28 309.424C202.008 308.608 201.872 307.696 201.872 306.688C201.872 305.68 202.008 304.768 202.28 303.952C202.552 303.136 202.936 302.448 203.432 301.888C203.944 301.312 204.56 300.872 205.28 300.568C206.016 300.264 206.848 300.112 207.776 300.112C208.704 300.112 209.528 300.264 210.248 300.568C210.984 300.872 211.6 301.312 212.096 301.888C212.608 302.448 213 303.136 213.272 303.952C213.544 304.768 213.68 305.68 213.68 306.688C213.68 307.696 213.544 308.608 213.272 309.424C213 310.24 212.608 310.936 212.096 311.512C211.6 312.088 210.984 312.528 210.248 312.832C209.528 313.136 208.704 313.288 207.776 313.288ZM207.776 310.48C208.48 310.48 209.024 310.264 209.408 309.832C209.792 309.4 209.984 308.784 209.984 307.984V305.416C209.984 304.616 209.792 304 209.408 303.568C209.024 303.136 208.48 302.92 207.776 302.92C207.072 302.92 206.528 303.136 206.144 303.568C205.76 304 205.568 304.616 205.568 305.416V307.984C205.568 308.784 205.76 309.4 206.144 309.832C206.528 310.264 207.072 310.48 207.776 310.48ZM216.211 313V300.4H219.763V302.536H219.907C220.131 301.88 220.523 301.312 221.083 300.832C221.643 300.352 222.419 300.112 223.411 300.112C224.707 300.112 225.683 300.544 226.339 301.408C227.011 302.272 227.347 303.504 227.347 305.104V313H223.795V305.392C223.795 304.576 223.667 303.976 223.411 303.592C223.155 303.192 222.699 302.992 222.043 302.992C221.755 302.992 221.475 303.032 221.203 303.112C220.931 303.176 220.683 303.288 220.459 303.448C220.251 303.608 220.083 303.808 219.955 304.048C219.827 304.272 219.763 304.536 219.763 304.84V313H216.211ZM234.924 313C233.692 313 232.756 312.688 232.116 312.064C231.492 311.44 231.18 310.528 231.18 309.328V303.16H229.404V300.4H230.292C230.772 300.4 231.1 300.288 231.276 300.064C231.452 299.824 231.54 299.488 231.54 299.056V296.992H234.732V300.4H237.228V303.16H234.732V310.24H237.036V313H234.924ZM249.007 313C248.367 313 247.831 312.8 247.399 312.4C246.983 312 246.719 311.464 246.607 310.792H246.463C246.271 311.608 245.847 312.232 245.191 312.664C244.535 313.08 243.727 313.288 242.767 313.288C241.503 313.288 240.535 312.952 239.863 312.28C239.191 311.608 238.855 310.72 238.855 309.616C238.855 308.288 239.335 307.304 240.295 306.664C241.271 306.008 242.591 305.68 244.255 305.68H246.247V304.888C246.247 304.28 246.087 303.8 245.767 303.448C245.447 303.08 244.911 302.896 244.159 302.896C243.455 302.896 242.895 303.048 242.479 303.352C242.063 303.656 241.719 304 241.447 304.384L239.335 302.512C239.847 301.76 240.487 301.176 241.255 300.76C242.039 300.328 243.095 300.112 244.423 300.112C246.215 300.112 247.559 300.504 248.455 301.288C249.351 302.072 249.799 303.216 249.799 304.72V310.24H250.975V313H249.007ZM244.087 310.816C244.679 310.816 245.183 310.688 245.599 310.432C246.031 310.176 246.247 309.76 246.247 309.184V307.696H244.519C243.127 307.696 242.431 308.168 242.431 309.112V309.472C242.431 309.936 242.575 310.28 242.863 310.504C243.151 310.712 243.559 310.816 244.087 310.816Z" fill="#7D2CFF"/>
<path d="M151.616 391.288C150.48 391.288 149.456 391.112 148.544 390.76C147.632 390.392 146.856 389.856 146.216 389.152C145.576 388.432 145.08 387.544 144.728 386.488C144.376 385.416 144.2 384.168 144.2 382.744C144.2 381.336 144.376 380.088 144.728 379C145.08 377.896 145.576 376.976 146.216 376.24C146.856 375.488 147.632 374.92 148.544 374.536C149.456 374.152 150.48 373.96 151.616 373.96C153.168 373.96 154.448 374.28 155.456 374.92C156.464 375.544 157.272 376.536 157.88 377.896L154.736 379.528C154.512 378.824 154.16 378.264 153.68 377.848C153.216 377.416 152.528 377.2 151.616 377.2C150.544 377.2 149.68 377.552 149.024 378.256C148.384 378.944 148.064 379.952 148.064 381.28V383.968C148.064 385.296 148.384 386.312 149.024 387.016C149.68 387.704 150.544 388.048 151.616 388.048C152.512 388.048 153.224 387.808 153.752 387.328C154.296 386.832 154.696 386.24 154.952 385.552L157.928 387.28C157.304 388.56 156.48 389.552 155.456 390.256C154.448 390.944 153.168 391.288 151.616 391.288ZM169.601 391C168.961 391 168.425 390.8 167.993 390.4C167.577 390 167.313 389.464 167.201 388.792H167.057C166.865 389.608 166.441 390.232 165.785 390.664C165.129 391.08 164.321 391.288 163.361 391.288C162.097 391.288 161.129 390.952 160.457 390.28C159.785 389.608 159.449 388.72 159.449 387.616C159.449 386.288 159.929 385.304 160.889 384.664C161.865 384.008 163.185 383.68 164.849 383.68H166.841V382.888C166.841 382.28 166.681 381.8 166.361 381.448C166.041 381.08 165.505 380.896 164.753 380.896C164.049 380.896 163.489 381.048 163.073 381.352C162.657 381.656 162.313 382 162.041 382.384L159.929 380.512C160.441 379.76 161.081 379.176 161.849 378.76C162.633 378.328 163.689 378.112 165.017 378.112C166.809 378.112 168.153 378.504 169.049 379.288C169.945 380.072 170.393 381.216 170.393 382.72V388.24H171.569V391H169.601ZM164.681 388.816C165.273 388.816 165.777 388.688 166.193 388.432C166.625 388.176 166.841 387.76 166.841 387.184V385.696H165.113C163.721 385.696 163.025 386.168 163.025 387.112V387.472C163.025 387.936 163.169 388.28 163.457 388.504C163.745 388.712 164.153 388.816 164.681 388.816ZM173.953 391V378.4H177.505V381.136H177.625C177.689 380.784 177.801 380.448 177.961 380.128C178.121 379.792 178.329 379.496 178.585 379.24C178.857 378.984 179.177 378.784 179.545 378.64C179.913 378.48 180.345 378.4 180.841 378.4H181.465V381.712H180.577C179.537 381.712 178.761 381.848 178.249 382.12C177.753 382.392 177.505 382.896 177.505 383.632V391H173.953ZM183.656 391V378.4H187.208V381.136H187.328C187.392 380.784 187.504 380.448 187.664 380.128C187.824 379.792 188.032 379.496 188.288 379.24C188.56 378.984 188.88 378.784 189.248 378.64C189.616 378.48 190.048 378.4 190.544 378.4H191.168V381.712H190.28C189.24 381.712 188.464 381.848 187.952 382.12C187.456 382.392 187.208 382.896 187.208 383.632V391H183.656ZM198.498 391.288C197.538 391.288 196.682 391.136 195.93 390.832C195.178 390.512 194.538 390.072 194.01 389.512C193.498 388.936 193.106 388.24 192.834 387.424C192.578 386.608 192.45 385.696 192.45 384.688C192.45 383.696 192.578 382.8 192.834 382C193.09 381.184 193.466 380.488 193.962 379.912C194.474 379.336 195.098 378.896 195.834 378.592C196.57 378.272 197.41 378.112 198.354 378.112C199.394 378.112 200.282 378.288 201.018 378.64C201.77 378.992 202.378 379.464 202.842 380.056C203.322 380.648 203.666 381.336 203.874 382.12C204.098 382.888 204.21 383.696 204.21 384.544V385.6H196.122V385.792C196.122 386.624 196.346 387.288 196.794 387.784C197.242 388.264 197.946 388.504 198.906 388.504C199.642 388.504 200.242 388.36 200.706 388.072C201.17 387.768 201.602 387.408 202.002 386.992L203.778 389.2C203.218 389.856 202.482 390.368 201.57 390.736C200.674 391.104 199.65 391.288 198.498 391.288ZM198.426 380.728C197.706 380.728 197.138 380.968 196.722 381.448C196.322 381.912 196.122 382.536 196.122 383.32V383.512H200.538V383.296C200.538 382.528 200.362 381.912 200.01 381.448C199.674 380.968 199.146 380.728 198.426 380.728ZM218.383 391.912C218.383 392.584 218.263 393.176 218.023 393.688C217.799 394.2 217.423 394.632 216.895 394.984C216.367 395.352 215.663 395.624 214.783 395.8C213.919 395.992 212.847 396.088 211.567 396.088C210.479 396.088 209.551 396.016 208.783 395.872C208.031 395.744 207.415 395.552 206.935 395.296C206.471 395.056 206.127 394.752 205.903 394.384C205.695 394.032 205.591 393.624 205.591 393.16C205.591 392.456 205.799 391.904 206.215 391.504C206.631 391.104 207.207 390.856 207.943 390.76V390.496C207.335 390.384 206.879 390.128 206.575 389.728C206.271 389.312 206.119 388.832 206.119 388.288C206.119 387.952 206.183 387.664 206.311 387.424C206.455 387.168 206.631 386.952 206.839 386.776C207.063 386.584 207.319 386.432 207.607 386.32C207.895 386.208 208.183 386.12 208.471 386.056V385.96C207.703 385.608 207.135 385.128 206.767 384.52C206.399 383.896 206.215 383.176 206.215 382.36C206.215 381.08 206.655 380.056 207.535 379.288C208.431 378.504 209.791 378.112 211.615 378.112C212.447 378.112 213.159 378.192 213.751 378.352V377.872C213.751 377.2 213.911 376.72 214.231 376.432C214.567 376.128 215.039 375.976 215.647 375.976H217.639V378.616H214.855V378.76C215.591 379.112 216.135 379.6 216.487 380.224C216.839 380.832 217.015 381.544 217.015 382.36C217.015 383.624 216.567 384.64 215.671 385.408C214.791 386.16 213.439 386.536 211.615 386.536C210.799 386.536 210.055 386.448 209.383 386.272C209.015 386.512 208.831 386.848 208.831 387.28C208.831 387.584 208.943 387.824 209.167 388C209.407 388.16 209.799 388.24 210.343 388.24H213.991C215.527 388.24 216.639 388.56 217.327 389.2C218.031 389.84 218.383 390.744 218.383 391.912ZM215.047 392.392C215.047 392.024 214.903 391.744 214.615 391.552C214.327 391.36 213.823 391.264 213.103 391.264H208.783C208.623 391.424 208.503 391.6 208.423 391.792C208.359 392 208.327 392.2 208.327 392.392C208.327 392.856 208.527 393.192 208.927 393.4C209.327 393.624 210.007 393.736 210.967 393.736H212.407C213.367 393.736 214.047 393.624 214.447 393.4C214.847 393.192 215.047 392.856 215.047 392.392ZM211.615 384.208C212.319 384.208 212.839 384.064 213.175 383.776C213.527 383.472 213.703 383.04 213.703 382.48V382.192C213.703 381.632 213.527 381.208 213.175 380.92C212.839 380.616 212.319 380.464 211.615 380.464C210.911 380.464 210.383 380.616 210.031 380.92C209.695 381.208 209.527 381.632 209.527 382.192V382.48C209.527 383.04 209.695 383.472 210.031 383.776C210.383 384.064 210.911 384.208 211.615 384.208ZM227.307 388.888H227.187C227.075 389.208 226.923 389.512 226.731 389.8C226.555 390.088 226.323 390.344 226.035 390.568C225.747 390.792 225.403 390.968 225.003 391.096C224.619 391.224 224.171 391.288 223.659 391.288C222.363 391.288 221.379 390.864 220.707 390.016C220.051 389.152 219.723 387.92 219.723 386.32V378.4H223.275V386.008C223.275 386.776 223.411 387.368 223.683 387.784C223.955 388.2 224.419 388.408 225.075 388.408C225.347 388.408 225.619 388.368 225.891 388.288C226.163 388.208 226.403 388.096 226.611 387.952C226.819 387.792 226.987 387.6 227.115 387.376C227.243 387.152 227.307 386.888 227.307 386.584V378.4H230.859V391H227.307V388.888ZM239.42 391.288C238.46 391.288 237.604 391.136 236.852 390.832C236.1 390.512 235.46 390.072 234.932 389.512C234.42 388.936 234.028 388.24 233.756 387.424C233.5 386.608 233.372 385.696 233.372 384.688C233.372 383.696 233.5 382.8 233.756 382C234.012 381.184 234.388 380.488 234.884 379.912C235.396 379.336 236.02 378.896 236.756 378.592C237.492 378.272 238.332 378.112 239.276 378.112C240.316 378.112 241.204 378.288 241.94 378.64C242.692 378.992 243.3 379.464 243.764 380.056C244.244 380.648 244.588 381.336 244.796 382.12C245.02 382.888 245.132 383.696 245.132 384.544V385.6H237.044V385.792C237.044 386.624 237.268 387.288 237.716 387.784C238.164 388.264 238.868 388.504 239.828 388.504C240.564 388.504 241.164 388.36 241.628 388.072C242.092 387.768 242.524 387.408 242.924 386.992L244.7 389.2C244.14 389.856 243.404 390.368 242.492 390.736C241.596 391.104 240.572 391.288 239.42 391.288ZM239.348 380.728C238.628 380.728 238.06 380.968 237.644 381.448C237.244 381.912 237.044 382.536 237.044 383.32V383.512H241.46V383.296C241.46 382.528 241.284 381.912 240.932 381.448C240.596 380.968 240.068 380.728 239.348 380.728ZM148.928 419.288C147.712 419.288 146.688 419.096 145.856 418.712C145.024 418.312 144.28 417.752 143.624 417.032L145.712 414.92C146.16 415.416 146.656 415.808 147.2 416.096C147.744 416.384 148.36 416.528 149.048 416.528C149.752 416.528 150.24 416.424 150.512 416.216C150.784 415.992 150.92 415.696 150.92 415.328C150.92 414.736 150.496 414.384 149.648 414.272L148.28 414.104C145.448 413.752 144.032 412.456 144.032 410.216C144.032 409.608 144.144 409.056 144.368 408.56C144.608 408.048 144.936 407.616 145.352 407.264C145.784 406.896 146.296 406.616 146.888 406.424C147.496 406.216 148.176 406.112 148.928 406.112C149.584 406.112 150.16 406.16 150.656 406.256C151.168 406.336 151.616 406.464 152 406.64C152.4 406.8 152.76 407.008 153.08 407.264C153.416 407.504 153.744 407.776 154.064 408.08L152.024 410.168C151.624 409.768 151.168 409.456 150.656 409.232C150.16 408.992 149.648 408.872 149.12 408.872C148.512 408.872 148.08 408.968 147.824 409.16C147.568 409.352 147.44 409.608 147.44 409.928C147.44 410.264 147.528 410.528 147.704 410.72C147.896 410.896 148.248 411.024 148.76 411.104L150.176 411.296C152.944 411.664 154.328 412.928 154.328 415.088C154.328 415.696 154.2 416.256 153.944 416.768C153.688 417.28 153.32 417.728 152.84 418.112C152.376 418.48 151.808 418.768 151.136 418.976C150.48 419.184 149.744 419.288 148.928 419.288ZM162.006 419.288C161.046 419.288 160.19 419.136 159.438 418.832C158.686 418.512 158.046 418.072 157.518 417.512C157.006 416.936 156.614 416.24 156.342 415.424C156.086 414.608 155.958 413.696 155.958 412.688C155.958 411.696 156.086 410.8 156.342 410C156.598 409.184 156.974 408.488 157.47 407.912C157.982 407.336 158.606 406.896 159.342 406.592C160.078 406.272 160.918 406.112 161.862 406.112C162.902 406.112 163.79 406.288 164.526 406.64C165.278 406.992 165.886 407.464 166.35 408.056C166.83 408.648 167.174 409.336 167.382 410.12C167.606 410.888 167.718 411.696 167.718 412.544V413.6H159.63V413.792C159.63 414.624 159.854 415.288 160.302 415.784C160.75 416.264 161.454 416.504 162.414 416.504C163.15 416.504 163.75 416.36 164.214 416.072C164.678 415.768 165.11 415.408 165.51 414.992L167.286 417.2C166.726 417.856 165.99 418.368 165.078 418.736C164.182 419.104 163.158 419.288 162.006 419.288ZM161.934 408.728C161.214 408.728 160.646 408.968 160.23 409.448C159.83 409.912 159.63 410.536 159.63 411.32V411.512H164.046V411.296C164.046 410.528 163.87 409.912 163.518 409.448C163.182 408.968 162.654 408.728 161.934 408.728ZM177.666 416.888H177.546C177.434 417.208 177.282 417.512 177.09 417.8C176.914 418.088 176.682 418.344 176.394 418.568C176.106 418.792 175.762 418.968 175.362 419.096C174.978 419.224 174.53 419.288 174.018 419.288C172.722 419.288 171.738 418.864 171.066 418.016C170.41 417.152 170.082 415.92 170.082 414.32V406.4H173.634V414.008C173.634 414.776 173.77 415.368 174.042 415.784C174.314 416.2 174.778 416.408 175.434 416.408C175.706 416.408 175.978 416.368 176.25 416.288C176.522 416.208 176.762 416.096 176.97 415.952C177.178 415.792 177.346 415.6 177.474 415.376C177.602 415.152 177.666 414.888 177.666 414.584V406.4H181.218V419H177.666V416.888ZM194.467 419.288C193.251 419.288 192.227 419.096 191.395 418.712C190.563 418.312 189.819 417.752 189.163 417.032L191.251 414.92C191.699 415.416 192.195 415.808 192.739 416.096C193.283 416.384 193.899 416.528 194.587 416.528C195.291 416.528 195.779 416.424 196.051 416.216C196.323 415.992 196.459 415.696 196.459 415.328C196.459 414.736 196.035 414.384 195.187 414.272L193.819 414.104C190.987 413.752 189.571 412.456 189.571 410.216C189.571 409.608 189.683 409.056 189.907 408.56C190.147 408.048 190.475 407.616 190.891 407.264C191.323 406.896 191.835 406.616 192.427 406.424C193.035 406.216 193.715 406.112 194.467 406.112C195.123 406.112 195.699 406.16 196.195 406.256C196.707 406.336 197.155 406.464 197.539 406.64C197.939 406.8 198.299 407.008 198.619 407.264C198.955 407.504 199.283 407.776 199.603 408.08L197.563 410.168C197.163 409.768 196.707 409.456 196.195 409.232C195.699 408.992 195.187 408.872 194.659 408.872C194.051 408.872 193.619 408.968 193.363 409.16C193.107 409.352 192.979 409.608 192.979 409.928C192.979 410.264 193.067 410.528 193.243 410.72C193.435 410.896 193.787 411.024 194.299 411.104L195.715 411.296C198.483 411.664 199.867 412.928 199.867 415.088C199.867 415.696 199.739 416.256 199.483 416.768C199.227 417.28 198.859 417.728 198.379 418.112C197.915 418.48 197.347 418.768 196.675 418.976C196.019 419.184 195.283 419.288 194.467 419.288ZM211.601 419C210.961 419 210.425 418.8 209.993 418.4C209.577 418 209.313 417.464 209.201 416.792H209.057C208.865 417.608 208.441 418.232 207.785 418.664C207.129 419.08 206.321 419.288 205.361 419.288C204.097 419.288 203.129 418.952 202.457 418.28C201.785 417.608 201.449 416.72 201.449 415.616C201.449 414.288 201.929 413.304 202.889 412.664C203.865 412.008 205.185 411.68 206.849 411.68H208.841V410.888C208.841 410.28 208.681 409.8 208.361 409.448C208.041 409.08 207.505 408.896 206.753 408.896C206.049 408.896 205.489 409.048 205.073 409.352C204.657 409.656 204.313 410 204.041 410.384L201.929 408.512C202.441 407.76 203.081 407.176 203.849 406.76C204.633 406.328 205.689 406.112 207.017 406.112C208.809 406.112 210.153 406.504 211.049 407.288C211.945 408.072 212.393 409.216 212.393 410.72V416.24H213.569V419H211.601ZM206.681 416.816C207.273 416.816 207.777 416.688 208.193 416.432C208.625 416.176 208.841 415.76 208.841 415.184V413.696H207.113C205.721 413.696 205.025 414.168 205.025 415.112V415.472C205.025 415.936 205.169 416.28 205.457 416.504C205.745 416.712 206.153 416.816 206.681 416.816ZM219.481 419C218.265 419 217.369 418.704 216.793 418.112C216.233 417.52 215.953 416.664 215.953 415.544V401.24H219.505V416.24H221.089V419H219.481ZM230.947 416.888H230.827C230.731 417.224 230.579 417.544 230.371 417.848C230.163 418.136 229.907 418.392 229.603 418.616C229.315 418.824 228.979 418.984 228.595 419.096C228.227 419.224 227.843 419.288 227.443 419.288C225.843 419.288 224.635 418.728 223.819 417.608C223.003 416.472 222.595 414.832 222.595 412.688C222.595 410.544 223.003 408.912 223.819 407.792C224.635 406.672 225.843 406.112 227.443 406.112C228.259 406.112 228.979 406.336 229.603 406.784C230.243 407.232 230.651 407.808 230.827 408.512H230.947V401.24H234.499V419H230.947V416.888ZM228.618 416.408C229.291 416.408 229.843 416.248 230.275 415.928C230.723 415.592 230.947 415.136 230.947 414.56V410.84C230.947 410.264 230.723 409.816 230.275 409.496C229.843 409.16 229.291 408.992 228.618 408.992C227.947 408.992 227.387 409.232 226.939 409.712C226.507 410.176 226.291 410.808 226.291 411.608V413.792C226.291 414.592 226.507 415.232 226.939 415.712C227.387 416.176 227.947 416.408 228.618 416.408ZM242.932 419.288C242.004 419.288 241.172 419.136 240.436 418.832C239.716 418.528 239.1 418.088 238.588 417.512C238.092 416.936 237.708 416.24 237.436 415.424C237.164 414.608 237.028 413.696 237.028 412.688C237.028 411.68 237.164 410.768 237.436 409.952C237.708 409.136 238.092 408.448 238.588 407.888C239.1 407.312 239.716 406.872 240.436 406.568C241.172 406.264 242.004 406.112 242.932 406.112C243.86 406.112 244.684 406.264 245.404 406.568C246.14 406.872 246.756 407.312 247.252 407.888C247.764 408.448 248.156 409.136 248.428 409.952C248.7 410.768 248.836 411.68 248.836 412.688C248.836 413.696 248.7 414.608 248.428 415.424C248.156 416.24 247.764 416.936 247.252 417.512C246.756 418.088 246.14 418.528 245.404 418.832C244.684 419.136 243.86 419.288 242.932 419.288ZM242.932 416.48C243.636 416.48 244.18 416.264 244.564 415.832C244.948 415.4 245.14 414.784 245.14 413.984V411.416C245.14 410.616 244.948 410 244.564 409.568C244.18 409.136 243.636 408.92 242.932 408.92C242.228 408.92 241.684 409.136 241.3 409.568C240.916 410 240.724 410.616 240.724 411.416V413.984C240.724 414.784 240.916 415.4 241.3 415.832C241.684 416.264 242.228 416.48 242.932 416.48Z" fill="#7D2CFF"/>
<path d="M73.8115 200H71.8115V202H73.8115V200ZM107.22 200V202H109.22V200H107.22ZM107.22 191.744H109.22V189.744H107.22V191.744ZM96.9155 191.744H94.9155V193.744H96.9155V191.744ZM96.9155 157.76H98.9155V155.76H96.9155V157.76ZM88.3395 157.76V155.76H86.391L86.3402 157.708L88.3395 157.76ZM82.4515 167.808L82.5028 169.807L82.5112 169.807L82.4515 167.808ZM77.4595 167.936L77.4082 165.937L75.4595 165.987V167.936H77.4595ZM77.4595 174.656H75.4595V176.656H77.4595V174.656ZM86.6115 174.656H88.6115V172.656H86.6115V174.656ZM86.6115 191.744V193.744H88.6115V191.744H86.6115ZM73.8115 191.744V189.744H71.8115V191.744H73.8115ZM73.8115 202H107.22V198H73.8115V202ZM109.22 200V191.744H105.22V200H109.22ZM107.22 189.744H96.9155V193.744H107.22V189.744ZM98.9155 191.744V157.76H94.9155V191.744H98.9155ZM96.9155 155.76H88.3395V159.76H96.9155V155.76ZM86.3402 157.708C86.2443 161.383 85.8344 163.399 85.2004 164.494C84.9222 164.975 84.6143 165.251 84.2513 165.434C83.8579 165.633 83.2803 165.782 82.3918 165.809L82.5112 169.807C83.7667 169.77 84.9731 169.551 86.0557 169.004C87.1687 168.441 88.0288 167.593 88.6626 166.498C89.8526 164.441 90.2427 161.497 90.3388 157.812L86.3402 157.708ZM82.4002 165.809L77.4082 165.937L77.5108 169.935L82.5028 169.807L82.4002 165.809ZM75.4595 167.936V174.656H79.4595V167.936H75.4595ZM77.4595 176.656H86.6115V172.656H77.4595V176.656ZM84.6115 174.656V191.744H88.6115V174.656H84.6115ZM86.6115 189.744H73.8115V193.744H86.6115V189.744ZM71.8115 191.744V200H75.8115V191.744H71.8115ZM73.8115 308H71.8115V310H73.8115V308ZM107.092 308V310H109.092V308H107.092ZM107.092 299.808H109.092V297.808H107.092V299.808ZM85.4595 299.808H83.4595V301.808H85.4595V299.808ZM92.4995 294.24L91.6736 292.418L91.6692 292.42L92.4995 294.24ZM74.3235 284.768L72.341 285.032L72.5725 286.768H74.3235V284.768ZM83.4115 284.768V286.768H85.6658L85.3973 284.53L83.4115 284.768ZM85.5875 289.44L84.7332 287.632L84.7276 287.634L85.5875 289.44ZM73.8115 310H107.092V306H73.8115V310ZM109.092 308V299.808H105.092V308H109.092ZM107.092 297.808H85.4595V301.808H107.092V297.808ZM87.4595 299.808C87.4595 299.514 87.4853 299.466 87.4869 299.462C87.4891 299.457 87.5006 299.428 87.5439 299.371C87.59 299.31 87.6754 299.212 87.829 299.077C88.5162 298.472 90.0208 297.569 93.3298 296.06L91.6692 292.42C88.3862 293.919 86.3708 295.032 85.186 296.075C84.5526 296.632 84.0696 297.242 83.7781 297.964C83.4897 298.678 83.4595 299.334 83.4595 299.808H87.4595ZM93.3254 296.062C98.5688 293.684 102.31 291.297 104.731 288.468C107.228 285.551 108.196 282.312 108.196 278.56H104.196C104.196 281.527 103.467 283.793 101.692 285.868C99.8407 288.031 96.7342 290.124 91.6736 292.418L93.3254 296.062ZM108.196 278.56C108.196 274.268 106.599 270.389 103.448 267.605C100.317 264.839 95.8357 263.312 90.3235 263.312V267.312C95.1153 267.312 98.5702 268.633 100.799 270.603C103.008 272.555 104.196 275.3 104.196 278.56H108.196ZM90.3235 263.312C84.3489 263.312 79.7118 265.01 76.5729 268.186C73.4412 271.356 72.0675 275.727 72.0675 280.544H76.0675C76.0675 276.465 77.2218 273.22 79.4181 270.998C81.6072 268.782 85.0981 267.312 90.3235 267.312V263.312ZM72.0675 280.544C72.0675 282.295 72.2012 283.984 72.341 285.032L76.306 284.504C76.1898 283.632 76.0675 282.121 76.0675 280.544H72.0675ZM74.3235 286.768H83.4115V282.768H74.3235V286.768ZM85.3973 284.53C85.2199 283.052 85.2195 281.932 85.2195 281.248H81.2195C81.2195 281.972 81.2191 283.284 81.4257 285.006L85.3973 284.53ZM85.2195 281.248C85.2195 278.986 85.7719 277.618 86.4855 276.831C87.1703 276.075 88.2632 275.568 90.0035 275.568V271.568C87.4558 271.568 85.1567 272.341 83.5215 274.145C81.9151 275.918 81.2195 278.39 81.2195 281.248H85.2195ZM90.0035 275.568C91.5112 275.568 92.4386 275.996 92.9869 276.54C93.5333 277.082 93.9555 277.989 93.9555 279.456H97.9555C97.9555 277.211 97.2897 275.174 95.8041 273.7C94.3204 272.228 92.2718 271.568 90.0035 271.568V275.568ZM93.9555 279.456C93.9555 280.858 93.598 281.871 92.4236 283.016C91.1065 284.299 88.7842 285.718 84.7332 287.632L86.4418 291.248C90.5188 289.322 93.3805 287.669 95.2154 285.88C97.193 283.953 97.9555 281.894 97.9555 279.456H93.9555ZM84.7276 287.634C79.3071 290.215 75.8695 292.526 73.9423 295.812C72.0313 299.07 71.8115 302.964 71.8115 308H75.8115C75.8115 302.86 76.1037 300.034 77.3927 297.836C78.6655 295.666 81.1159 293.785 86.4474 291.246L84.7276 287.634ZM100.628 393.408H98.6275V395.043L100.23 395.368L100.628 393.408ZM100.628 393.216L100.134 391.278L98.6275 391.661V393.216H100.628ZM74.2595 390.208L72.33 390.734L72.7319 392.208H74.2595V390.208ZM83.0915 390.208V392.208H85.3975L85.0714 389.925L83.0915 390.208ZM86.5475 391.744V389.744H84.5475V391.744H86.5475ZM86.5475 398.144H84.5475V400.144H86.5475V398.144ZM82.3235 399.744L84.3184 399.886L84.4715 397.744H82.3235V399.744ZM73.1715 399.744V397.744H71.5023L71.2038 399.386L73.1715 399.744ZM89.9395 418.576C95.9314 418.576 100.956 417.241 104.532 414.53C108.179 411.764 110.116 407.714 110.116 402.816H106.116C106.116 406.558 104.692 409.388 102.115 411.342C99.4668 413.351 95.4036 414.576 89.9395 414.576V418.576ZM110.116 402.816C110.116 399.948 109.32 397.375 107.712 395.354C106.1 393.329 103.789 392.008 101.025 391.448L100.23 395.368C102.202 395.768 103.635 396.655 104.583 397.846C105.535 399.041 106.116 400.692 106.116 402.816H110.116ZM102.628 393.408V393.216H98.6275V393.408H102.628ZM101.121 395.154C105.711 393.986 108.196 389.959 108.196 385.216H104.196C104.196 388.537 102.584 390.654 100.134 391.278L101.121 395.154ZM108.196 385.216C108.196 380.766 106.272 377.192 102.992 374.794C99.7801 372.445 95.4024 371.312 90.5155 371.312V375.312C94.8446 375.312 98.3069 376.323 100.631 378.022C102.887 379.672 104.196 382.05 104.196 385.216H108.196ZM90.5155 371.312C84.9952 371.312 80.3442 372.571 77.0286 375.16C73.6467 377.801 71.8755 381.656 71.8755 386.304H75.8755C75.8755 382.76 77.1763 380.119 79.4904 378.312C81.8709 376.453 85.5398 375.312 90.5155 375.312V371.312ZM71.8755 386.304C71.8755 388.064 72.0737 389.794 72.33 390.734L76.189 389.682C76.0613 389.214 75.8755 387.872 75.8755 386.304H71.8755ZM74.2595 392.208H83.0915V388.208H74.2595V392.208ZM85.0714 389.925C85.0246 389.598 84.9635 388.801 84.9635 387.904H80.9635C80.9635 388.927 81.0304 389.922 81.1116 390.491L85.0714 389.925ZM84.9635 387.904C84.9635 386.323 85.4236 385.339 86.0958 384.725C86.7966 384.086 88.0348 383.568 90.1315 383.568V379.568C87.4282 379.568 85.0824 380.234 83.3992 381.771C81.6874 383.333 80.9635 385.517 80.9635 387.904H84.9635ZM90.1315 383.568C91.9609 383.568 93.1395 384.001 93.8208 384.55C94.4423 385.05 94.8515 385.805 94.8515 387.008H98.8515C98.8515 384.755 98.0127 382.79 96.3302 381.434C94.7075 380.127 92.5261 379.568 90.1315 379.568V383.568ZM94.8515 387.008C94.8515 388.092 94.5288 388.696 94.1574 389.043C93.767 389.408 93.0495 389.744 91.7955 389.744V393.744C93.7415 393.744 95.552 393.216 96.8896 391.965C98.2462 390.696 98.8515 388.932 98.8515 387.008H94.8515ZM91.7955 389.744H86.5475V393.744H91.7955V389.744ZM84.5475 391.744V398.144H88.5475V391.744H84.5475ZM86.5475 400.144H92.8195V396.144H86.5475V400.144ZM92.8195 400.144C94.3275 400.144 95.0535 400.459 95.3778 400.725C95.6245 400.926 95.8755 401.289 95.8755 402.176H99.8755C99.8755 400.439 99.3265 398.786 97.9092 397.627C96.5695 396.533 94.7675 396.144 92.8195 396.144V400.144ZM95.8755 402.176C95.8755 403.564 95.4173 404.484 94.6444 405.107C93.8069 405.782 92.3342 406.32 89.9395 406.32V410.32C92.8568 410.32 95.3521 409.674 97.1546 408.221C99.0217 406.716 99.8755 404.564 99.8755 402.176H95.8755ZM89.9395 406.32C87.8172 406.32 86.4149 405.789 85.574 405.071C84.7762 404.39 84.2595 403.352 84.2595 401.792H80.2595C80.2595 404.328 81.1508 406.554 82.977 408.113C84.7601 409.635 87.1978 410.32 89.9395 410.32V406.32ZM84.2595 401.792C84.2595 401.353 84.2598 400.708 84.3184 399.886L80.3286 399.602C80.2592 400.572 80.2595 401.335 80.2595 401.792H84.2595ZM82.3235 397.744H73.1715V401.744H82.3235V397.744ZM71.2038 399.386C71.0613 400.17 70.8515 401.702 70.8515 403.264H74.8515C74.8515 402.01 75.0257 400.726 75.1392 400.102L71.2038 399.386ZM70.8515 403.264C70.8515 408.013 72.6745 411.948 76.1347 414.642C79.5289 417.285 84.2901 418.576 89.9395 418.576V414.576C84.8369 414.576 81.0541 413.403 78.5923 411.486C76.1965 409.62 74.8515 406.899 74.8515 403.264H70.8515Z" fill="white"/>
</svg>
