<svg width="310" height="133" viewBox="0 0 310 133" fill="none" xmlns="http://www.w3.org/2000/svg">
<path d="M1.14 35C0.937333 35 0.747333 34.924 0.57 34.772C0.418 34.5947 0.342 34.4047 0.342 34.202C0.342 34.0753 0.354667 33.9613 0.38 33.86L9.31 9.464C9.386 9.18533 9.538 8.94467 9.766 8.742C10.0193 8.514 10.3613 8.4 10.792 8.4H16.416C16.8467 8.4 17.176 8.514 17.404 8.742C17.6573 8.94467 17.822 9.18533 17.898 9.464L26.79 33.86C26.8407 33.9613 26.866 34.0753 26.866 34.202C26.866 34.4047 26.7773 34.5947 26.6 34.772C26.448 34.924 26.258 35 26.03 35H21.356C20.976 35 20.6847 34.9113 20.482 34.734C20.3047 34.5313 20.1907 34.354 20.14 34.202L18.658 30.326H8.512L7.068 34.202C7.01733 34.354 6.90333 34.5313 6.726 34.734C6.54867 34.9113 6.24467 35 5.814 35H1.14ZM10.07 24.854H17.138L13.566 14.822L10.07 24.854ZM47.8922 35.38C45.4855 35.38 43.4208 34.9873 41.6982 34.202C40.0008 33.4167 38.6708 32.264 37.7082 30.744C36.7708 29.224 36.2515 27.3367 36.1502 25.082C36.1248 24.0433 36.1122 22.9287 36.1122 21.738C36.1122 20.5473 36.1248 19.4073 36.1502 18.318C36.2515 16.114 36.7835 14.252 37.7462 12.732C38.7088 11.1867 40.0515 10.0213 41.7742 9.236C43.4968 8.42533 45.5362 8.02 47.8922 8.02C49.5642 8.02 51.1095 8.23533 52.5282 8.666C53.9468 9.07133 55.1882 9.67933 56.2522 10.49C57.3162 11.2753 58.1395 12.238 58.7222 13.378C59.3302 14.4927 59.6468 15.7593 59.6722 17.178C59.6975 17.406 59.6215 17.596 59.4442 17.748C59.2922 17.9 59.1022 17.976 58.8742 17.976H53.7442C53.4148 17.976 53.1615 17.9127 52.9842 17.786C52.8068 17.634 52.6548 17.368 52.5282 16.988C52.1735 15.6453 51.5908 14.7333 50.7802 14.252C49.9948 13.7453 49.0195 13.492 47.8542 13.492C46.4608 13.492 45.3588 13.8847 44.5482 14.67C43.7375 15.43 43.2942 16.7093 43.2182 18.508C43.1422 20.5853 43.1422 22.7133 43.2182 24.892C43.2942 26.6907 43.7375 27.9827 44.5482 28.768C45.3588 29.528 46.4608 29.908 47.8542 29.908C49.0195 29.908 50.0075 29.6547 50.8182 29.148C51.6288 28.6413 52.1988 27.7293 52.5282 26.412C52.6295 26.032 52.7688 25.7787 52.9462 25.652C53.1488 25.5 53.4148 25.424 53.7442 25.424H58.8742C59.1022 25.424 59.2922 25.5 59.4442 25.652C59.6215 25.804 59.6975 25.994 59.6722 26.222C59.6468 27.6407 59.3302 28.92 58.7222 30.06C58.1395 31.1747 57.3162 32.1373 56.2522 32.948C55.1882 33.7333 53.9468 34.3413 52.5282 34.772C51.1095 35.1773 49.5642 35.38 47.8922 35.38ZM74.5358 35.38C72.2051 35.38 70.1785 35 68.4558 34.24C66.7331 33.48 65.3905 32.34 64.4278 30.82C63.4651 29.2747 62.9331 27.3493 62.8318 25.044C62.8065 23.9547 62.7938 22.8653 62.7938 21.776C62.7938 20.6867 62.8065 19.5847 62.8318 18.47C62.9331 16.19 63.4651 14.2773 64.4278 12.732C65.4158 11.1613 66.7711 9.98333 68.4938 9.198C70.2165 8.41267 72.2305 8.02 74.5358 8.02C76.8158 8.02 78.8171 8.41267 80.5398 9.198C82.2878 9.98333 83.6558 11.1613 84.6438 12.732C85.6318 14.2773 86.1638 16.19 86.2398 18.47C86.2905 19.5847 86.3158 20.6867 86.3158 21.776C86.3158 22.8653 86.2905 23.9547 86.2398 25.044C86.1385 27.3493 85.6065 29.2747 84.6438 30.82C83.6811 32.34 82.3385 33.48 80.6158 34.24C78.8931 35 76.8665 35.38 74.5358 35.38ZM74.5358 29.908C75.8785 29.908 76.9678 29.5027 77.8038 28.692C78.6651 27.8813 79.1211 26.5893 79.1718 24.816C79.2225 23.7013 79.2478 22.65 79.2478 21.662C79.2478 20.674 79.2225 19.648 79.1718 18.584C79.1211 17.3933 78.8931 16.4307 78.4878 15.696C78.1078 14.936 77.5758 14.3787 76.8918 14.024C76.2078 13.6693 75.4225 13.492 74.5358 13.492C73.6745 13.492 72.9018 13.6693 72.2178 14.024C71.5338 14.3787 70.9891 14.936 70.5838 15.696C70.1785 16.4307 69.9505 17.3933 69.8998 18.584C69.8745 19.648 69.8618 20.674 69.8618 21.662C69.8618 22.65 69.8745 23.7013 69.8998 24.816C69.9758 26.5893 70.4318 27.8813 71.2678 28.692C72.1038 29.5027 73.1931 29.908 74.5358 29.908ZM91.6705 35C91.3919 35 91.1639 34.9113 90.9865 34.734C90.8092 34.5567 90.7205 34.3287 90.7205 34.05V9.35C90.7205 9.07133 90.8092 8.84333 90.9865 8.666C91.1639 8.48867 91.3919 8.4 91.6705 8.4H95.6985C96.1292 8.4 96.4332 8.50133 96.6105 8.704C96.8132 8.88133 96.9399 9.02066 96.9905 9.122L106.263 23.752V9.35C106.263 9.07133 106.351 8.84333 106.529 8.666C106.706 8.48867 106.934 8.4 107.213 8.4H111.773C112.051 8.4 112.279 8.48867 112.457 8.666C112.634 8.84333 112.723 9.07133 112.723 9.35V34.05C112.723 34.3033 112.634 34.5313 112.457 34.734C112.279 34.9113 112.051 35 111.773 35H107.707C107.301 35 106.997 34.8987 106.795 34.696C106.617 34.4933 106.503 34.354 106.453 34.278L97.1805 20.218V34.05C97.1805 34.3287 97.0919 34.5567 96.9145 34.734C96.7372 34.9113 96.5092 35 96.2305 35H91.6705ZM124.835 35C124.556 35 124.328 34.9113 124.151 34.734C123.974 34.5567 123.885 34.3287 123.885 34.05V14.366H117.121C116.842 14.366 116.614 14.2773 116.437 14.1C116.26 13.8973 116.171 13.6693 116.171 13.416V9.35C116.171 9.07133 116.26 8.84333 116.437 8.666C116.614 8.48867 116.842 8.4 117.121 8.4H137.565C137.844 8.4 138.072 8.48867 138.249 8.666C138.426 8.84333 138.515 9.07133 138.515 9.35V13.416C138.515 13.6693 138.426 13.8973 138.249 14.1C138.072 14.2773 137.844 14.366 137.565 14.366H130.801V34.05C130.801 34.3287 130.712 34.5567 130.535 34.734C130.358 34.9113 130.13 35 129.851 35H124.835ZM137.74 35C137.537 35 137.347 34.924 137.17 34.772C137.018 34.5947 136.942 34.4047 136.942 34.202C136.942 34.0753 136.954 33.9613 136.98 33.86L145.91 9.464C145.986 9.18533 146.138 8.94467 146.366 8.742C146.619 8.514 146.961 8.4 147.392 8.4H153.016C153.446 8.4 153.776 8.514 154.004 8.742C154.257 8.94467 154.422 9.18533 154.498 9.464L163.39 33.86C163.44 33.9613 163.466 34.0753 163.466 34.202C163.466 34.4047 163.377 34.5947 163.2 34.772C163.048 34.924 162.858 35 162.63 35H157.956C157.576 35 157.284 34.9113 157.082 34.734C156.904 34.5313 156.79 34.354 156.74 34.202L155.258 30.326H145.112L143.668 34.202C143.617 34.354 143.503 34.5313 143.326 34.734C143.148 34.9113 142.844 35 142.414 35H137.74ZM146.67 24.854H153.738L150.166 14.822L146.67 24.854ZM3.61 79C3.33133 79 3.10333 78.9113 2.926 78.734C2.74867 78.5567 2.66 78.3287 2.66 78.05V53.35C2.66 53.0713 2.74867 52.8433 2.926 52.666C3.10333 52.4887 3.33133 52.4 3.61 52.4H13.49C15.9727 52.4 18.088 52.8053 19.836 53.616C21.584 54.4013 22.9267 55.5667 23.864 57.112C24.8013 58.632 25.308 60.5193 25.384 62.774C25.4093 63.8887 25.422 64.864 25.422 65.7C25.422 66.536 25.4093 67.4987 25.384 68.588C25.2827 70.944 24.776 72.8947 23.864 74.44C22.9773 75.9853 21.6727 77.138 19.95 77.898C18.2527 78.6327 16.1627 79 13.68 79H3.61ZM9.462 73.528H13.49C14.5793 73.528 15.4787 73.3633 16.188 73.034C16.9227 72.6793 17.4673 72.1347 17.822 71.4C18.202 70.6653 18.4047 69.7027 18.43 68.512C18.4807 67.7773 18.506 67.1187 18.506 66.536C18.5313 65.9533 18.5313 65.3707 18.506 64.788C18.506 64.2053 18.4807 63.5593 18.43 62.85C18.3793 61.1273 17.9233 59.8733 17.062 59.088C16.226 58.2773 14.972 57.872 13.3 57.872H9.462V73.528ZM30.8112 79C30.5325 79 30.3045 78.9113 30.1272 78.734C29.9498 78.5567 29.8612 78.3287 29.8612 78.05V53.35C29.8612 53.0713 29.9498 52.8433 30.1272 52.666C30.3045 52.4887 30.5325 52.4 30.8112 52.4H35.9032C36.1818 52.4 36.4098 52.4887 36.5872 52.666C36.7645 52.8433 36.8532 53.0713 36.8532 53.35V78.05C36.8532 78.3287 36.7645 78.5567 36.5872 78.734C36.4098 78.9113 36.1818 79 35.9032 79H30.8112ZM53.1635 79.38C50.7568 79.38 48.6795 78.9873 46.9315 78.202C45.2088 77.3913 43.8662 76.226 42.9035 74.706C41.9662 73.1607 41.4468 71.286 41.3455 69.082C41.3202 67.9927 41.3075 66.84 41.3075 65.624C41.3075 64.3827 41.3202 63.2047 41.3455 62.09C41.4468 59.9367 41.9788 58.1127 42.9415 56.618C43.9042 55.1233 45.2595 53.9833 47.0075 53.198C48.7555 52.4127 50.8075 52.02 53.1635 52.02C55.0635 52.02 56.7482 52.2607 58.2175 52.742C59.6868 53.198 60.9155 53.8187 61.9035 54.604C62.9168 55.3893 63.6768 56.2507 64.1835 57.188C64.7155 58.1253 64.9942 59.05 65.0195 59.962C65.0448 60.19 64.9688 60.38 64.7915 60.532C64.6395 60.684 64.4495 60.76 64.2215 60.76H58.6735C58.3948 60.76 58.1795 60.722 58.0275 60.646C57.9008 60.5447 57.7868 60.4053 57.6855 60.228C57.5082 59.848 57.2422 59.4553 56.8875 59.05C56.5582 58.6193 56.0895 58.252 55.4815 57.948C54.8988 57.644 54.1262 57.492 53.1635 57.492C51.7195 57.492 50.5795 57.872 49.7435 58.632C48.9328 59.392 48.4895 60.608 48.4135 62.28C48.3375 64.4587 48.3375 66.6627 48.4135 68.892C48.4895 70.6653 48.9582 71.9447 49.8195 72.73C50.6808 73.5153 51.8208 73.908 53.2395 73.908C54.2022 73.908 55.0508 73.7433 55.7855 73.414C56.5455 73.0847 57.1408 72.578 57.5715 71.894C58.0022 71.1847 58.2175 70.2853 58.2175 69.196V68.474H54.6455C54.3668 68.474 54.1262 68.3853 53.9235 68.208C53.7462 68.0053 53.6575 67.7647 53.6575 67.486V64.674C53.6575 64.3953 53.7462 64.1673 53.9235 63.99C54.1262 63.7873 54.3668 63.686 54.6455 63.686H64.2215C64.5002 63.686 64.7282 63.7873 64.9055 63.99C65.0828 64.1673 65.1715 64.3953 65.1715 64.674V69.006C65.1715 71.1847 64.6775 73.0467 63.6895 74.592C62.7015 76.1373 61.2955 77.328 59.4715 78.164C57.6728 78.9747 55.5702 79.38 53.1635 79.38ZM70.4811 79C70.2024 79 69.9744 78.9113 69.7971 78.734C69.6198 78.5567 69.5311 78.3287 69.5311 78.05V53.35C69.5311 53.0713 69.6198 52.8433 69.7971 52.666C69.9744 52.4887 70.2024 52.4 70.4811 52.4H75.5731C75.8518 52.4 76.0798 52.4887 76.2571 52.666C76.4344 52.8433 76.5231 53.0713 76.5231 53.35V78.05C76.5231 78.3287 76.4344 78.5567 76.2571 78.734C76.0798 78.9113 75.8518 79 75.5731 79H70.4811ZM88.6534 79C88.3747 79 88.1467 78.9113 87.9694 78.734C87.7921 78.5567 87.7034 78.3287 87.7034 78.05V58.366H80.9394C80.6607 58.366 80.4327 58.2773 80.2554 58.1C80.0781 57.8973 79.9894 57.6693 79.9894 57.416V53.35C79.9894 53.0713 80.0781 52.8433 80.2554 52.666C80.4327 52.4887 80.6607 52.4 80.9394 52.4H101.383C101.662 52.4 101.89 52.4887 102.067 52.666C102.245 52.8433 102.333 53.0713 102.333 53.35V57.416C102.333 57.6693 102.245 57.8973 102.067 58.1C101.89 58.2773 101.662 58.366 101.383 58.366H94.6194V78.05C94.6194 78.3287 94.5307 78.5567 94.3534 78.734C94.1761 78.9113 93.9481 79 93.6694 79H88.6534ZM101.558 79C101.355 79 101.165 78.924 100.988 78.772C100.836 78.5947 100.76 78.4047 100.76 78.202C100.76 78.0753 100.773 77.9613 100.798 77.86L109.728 53.464C109.804 53.1853 109.956 52.9447 110.184 52.742C110.437 52.514 110.779 52.4 111.21 52.4H116.834C117.265 52.4 117.594 52.514 117.822 52.742C118.075 52.9447 118.24 53.1853 118.316 53.464L127.208 77.86C127.259 77.9613 127.284 78.0753 127.284 78.202C127.284 78.4047 127.195 78.5947 127.018 78.772C126.866 78.924 126.676 79 126.448 79H121.774C121.394 79 121.103 78.9113 120.9 78.734C120.723 78.5313 120.609 78.354 120.558 78.202L119.076 74.326H108.93L107.486 78.202C107.435 78.354 107.321 78.5313 107.144 78.734C106.967 78.9113 106.663 79 106.232 79H101.558ZM110.488 68.854H117.556L113.984 58.822L110.488 68.854ZM131.229 79C130.95 79 130.722 78.9113 130.545 78.734C130.368 78.5567 130.279 78.3287 130.279 78.05V53.35C130.279 53.0713 130.368 52.8433 130.545 52.666C130.722 52.4887 130.95 52.4 131.229 52.4H136.245C136.498 52.4 136.714 52.4887 136.891 52.666C137.094 52.8433 137.195 53.0713 137.195 53.35V73.262H148.671C148.95 73.262 149.178 73.3633 149.355 73.566C149.558 73.7433 149.659 73.9713 149.659 74.25V78.05C149.659 78.3287 149.558 78.5567 149.355 78.734C149.178 78.9113 148.95 79 148.671 79H131.229ZM161.993 79C161.714 79 161.486 78.9113 161.309 78.734C161.131 78.5567 161.043 78.3287 161.043 78.05V53.35C161.043 53.0713 161.131 52.8433 161.309 52.666C161.486 52.4887 161.714 52.4 161.993 52.4H171.873C174.355 52.4 176.471 52.8053 178.219 53.616C179.967 54.4013 181.309 55.5667 182.247 57.112C183.184 58.632 183.691 60.5193 183.767 62.774C183.792 63.8887 183.805 64.864 183.805 65.7C183.805 66.536 183.792 67.4987 183.767 68.588C183.665 70.944 183.159 72.8947 182.247 74.44C181.36 75.9853 180.055 77.138 178.333 77.898C176.635 78.6327 174.545 79 172.063 79H161.993ZM167.845 73.528H171.873C172.962 73.528 173.861 73.3633 174.571 73.034C175.305 72.6793 175.85 72.1347 176.205 71.4C176.585 70.6653 176.787 69.7027 176.813 68.512C176.863 67.7773 176.889 67.1187 176.889 66.536C176.914 65.9533 176.914 65.3707 176.889 64.788C176.889 64.2053 176.863 63.5593 176.813 62.85C176.762 61.1273 176.306 59.8733 175.445 59.088C174.609 58.2773 173.355 57.872 171.683 57.872H167.845V73.528ZM186.167 79C185.965 79 185.775 78.924 185.597 78.772C185.445 78.5947 185.369 78.4047 185.369 78.202C185.369 78.0753 185.382 77.9613 185.407 77.86L194.337 53.464C194.413 53.1853 194.565 52.9447 194.793 52.742C195.047 52.514 195.389 52.4 195.819 52.4H201.443C201.874 52.4 202.203 52.514 202.431 52.742C202.685 52.9447 202.849 53.1853 202.925 53.464L211.817 77.86C211.868 77.9613 211.893 78.0753 211.893 78.202C211.893 78.4047 211.805 78.5947 211.627 78.772C211.475 78.924 211.285 79 211.057 79H206.383C206.003 79 205.712 78.9113 205.509 78.734C205.332 78.5313 205.218 78.354 205.167 78.202L203.685 74.326H193.539L192.095 78.202C192.045 78.354 191.931 78.5313 191.753 78.734C191.576 78.9113 191.272 79 190.841 79H186.167ZM195.097 68.854H202.165L198.593 58.822L195.097 68.854Z" fill="white"/>
<path d="M3.61 123C3.33133 123 3.10333 122.911 2.926 122.734C2.74867 122.557 2.66 122.329 2.66 122.05V97.35C2.66 97.0713 2.74867 96.8433 2.926 96.666C3.10333 96.4887 3.33133 96.4 3.61 96.4H7.638C8.06867 96.4 8.37267 96.5013 8.55 96.704C8.75267 96.8813 8.87933 97.0207 8.93 97.122L18.202 111.752V97.35C18.202 97.0713 18.2907 96.8433 18.468 96.666C18.6453 96.4887 18.8733 96.4 19.152 96.4H23.712C23.9907 96.4 24.2187 96.4887 24.396 96.666C24.5733 96.8433 24.662 97.0713 24.662 97.35V122.05C24.662 122.303 24.5733 122.531 24.396 122.734C24.2187 122.911 23.9907 123 23.712 123H19.646C19.2407 123 18.9367 122.899 18.734 122.696C18.5567 122.493 18.4427 122.354 18.392 122.278L9.12 108.218V122.05C9.12 122.329 9.03133 122.557 8.854 122.734C8.67667 122.911 8.44867 123 8.17 123H3.61ZM40.8405 123.38C38.5098 123.38 36.4832 123 34.7605 122.24C33.0378 121.48 31.6952 120.34 30.7325 118.82C29.7698 117.275 29.2378 115.349 29.1365 113.044C29.1112 111.955 29.0985 110.865 29.0985 109.776C29.0985 108.687 29.1112 107.585 29.1365 106.47C29.2378 104.19 29.7698 102.277 30.7325 100.732C31.7205 99.1613 33.0758 97.9833 34.7985 97.198C36.5212 96.4127 38.5352 96.02 40.8405 96.02C43.1205 96.02 45.1218 96.4127 46.8445 97.198C48.5925 97.9833 49.9605 99.1613 50.9485 100.732C51.9365 102.277 52.4685 104.19 52.5445 106.47C52.5952 107.585 52.6205 108.687 52.6205 109.776C52.6205 110.865 52.5952 111.955 52.5445 113.044C52.4432 115.349 51.9112 117.275 50.9485 118.82C49.9858 120.34 48.6432 121.48 46.9205 122.24C45.1978 123 43.1712 123.38 40.8405 123.38ZM40.8405 117.908C42.1832 117.908 43.2725 117.503 44.1085 116.692C44.9698 115.881 45.4258 114.589 45.4765 112.816C45.5272 111.701 45.5525 110.65 45.5525 109.662C45.5525 108.674 45.5272 107.648 45.4765 106.584C45.4258 105.393 45.1978 104.431 44.7925 103.696C44.4125 102.936 43.8805 102.379 43.1965 102.024C42.5125 101.669 41.7272 101.492 40.8405 101.492C39.9792 101.492 39.2065 101.669 38.5225 102.024C37.8385 102.379 37.2938 102.936 36.8885 103.696C36.4832 104.431 36.2552 105.393 36.2045 106.584C36.1792 107.648 36.1665 108.674 36.1665 109.662C36.1665 110.65 36.1792 111.701 36.2045 112.816C36.2805 114.589 36.7365 115.881 37.5725 116.692C38.4085 117.503 39.4978 117.908 40.8405 117.908ZM63.8088 123C63.3782 123 63.0362 122.886 62.7828 122.658C62.5295 122.43 62.3522 122.164 62.2508 121.86L54.4988 97.54C54.4482 97.4133 54.4228 97.2993 54.4228 97.198C54.4228 96.9953 54.4988 96.818 54.6508 96.666C54.8282 96.4887 55.0308 96.4 55.2588 96.4H59.9708C60.3762 96.4 60.6928 96.514 60.9208 96.742C61.1488 96.97 61.2882 97.1853 61.3388 97.388L66.6968 114.944L72.0928 97.388C72.1688 97.1853 72.3082 96.97 72.5108 96.742C72.7388 96.514 73.0555 96.4 73.4608 96.4H78.1728C78.4008 96.4 78.5908 96.4887 78.7428 96.666C78.9202 96.818 79.0088 96.9953 79.0088 97.198C79.0088 97.2993 78.9835 97.4133 78.9328 97.54L71.1808 121.86C71.0795 122.164 70.9022 122.43 70.6488 122.658C70.4208 122.886 70.0788 123 69.6228 123H63.8088ZM78.9213 123C78.7186 123 78.5286 122.924 78.3513 122.772C78.1993 122.595 78.1233 122.405 78.1233 122.202C78.1233 122.075 78.1359 121.961 78.1613 121.86L87.0913 97.464C87.1673 97.1853 87.3193 96.9447 87.5472 96.742C87.8006 96.514 88.1426 96.4 88.5733 96.4H94.1973C94.6279 96.4 94.9573 96.514 95.1853 96.742C95.4386 96.9447 95.6033 97.1853 95.6793 97.464L104.571 121.86C104.622 121.961 104.647 122.075 104.647 122.202C104.647 122.405 104.559 122.595 104.381 122.772C104.229 122.924 104.039 123 103.811 123H99.1373C98.7573 123 98.4659 122.911 98.2633 122.734C98.0859 122.531 97.9719 122.354 97.9213 122.202L96.4393 118.326H86.2933L84.8493 122.202C84.7986 122.354 84.6846 122.531 84.5073 122.734C84.3299 122.911 84.0259 123 83.5953 123H78.9213ZM87.8513 112.854H94.9193L91.3473 102.822L87.8513 112.854ZM125.749 123.38C123.343 123.38 121.265 122.987 119.517 122.202C117.795 121.391 116.452 120.226 115.489 118.706C114.552 117.161 114.033 115.286 113.931 113.082C113.906 111.993 113.893 110.84 113.893 109.624C113.893 108.383 113.906 107.205 113.931 106.09C114.033 103.937 114.565 102.113 115.527 100.618C116.49 99.1233 117.845 97.9833 119.593 97.198C121.341 96.4127 123.393 96.02 125.749 96.02C127.649 96.02 129.334 96.2607 130.803 96.742C132.273 97.198 133.501 97.8187 134.489 98.604C135.503 99.3893 136.263 100.251 136.769 101.188C137.301 102.125 137.58 103.05 137.605 103.962C137.631 104.19 137.555 104.38 137.377 104.532C137.225 104.684 137.035 104.76 136.807 104.76H131.259C130.981 104.76 130.765 104.722 130.613 104.646C130.487 104.545 130.373 104.405 130.271 104.228C130.094 103.848 129.828 103.455 129.473 103.05C129.144 102.619 128.675 102.252 128.067 101.948C127.485 101.644 126.712 101.492 125.749 101.492C124.305 101.492 123.165 101.872 122.329 102.632C121.519 103.392 121.075 104.608 120.999 106.28C120.923 108.459 120.923 110.663 120.999 112.892C121.075 114.665 121.544 115.945 122.405 116.73C123.267 117.515 124.407 117.908 125.825 117.908C126.788 117.908 127.637 117.743 128.371 117.414C129.131 117.085 129.727 116.578 130.157 115.894C130.588 115.185 130.803 114.285 130.803 113.196V112.474H127.231C126.953 112.474 126.712 112.385 126.509 112.208C126.332 112.005 126.243 111.765 126.243 111.486V108.674C126.243 108.395 126.332 108.167 126.509 107.99C126.712 107.787 126.953 107.686 127.231 107.686H136.807C137.086 107.686 137.314 107.787 137.491 107.99C137.669 108.167 137.757 108.395 137.757 108.674V113.006C137.757 115.185 137.263 117.047 136.275 118.592C135.287 120.137 133.881 121.328 132.057 122.164C130.259 122.975 128.156 123.38 125.749 123.38ZM143.067 123C142.788 123 142.56 122.911 142.383 122.734C142.206 122.557 142.117 122.329 142.117 122.05V97.35C142.117 97.0713 142.206 96.8433 142.383 96.666C142.56 96.4887 142.788 96.4 143.067 96.4H160.813C161.092 96.4 161.32 96.4887 161.497 96.666C161.674 96.8433 161.763 97.0713 161.763 97.35V100.922C161.763 101.201 161.674 101.429 161.497 101.606C161.32 101.783 161.092 101.872 160.813 101.872H148.691V107.002H159.977C160.256 107.002 160.484 107.103 160.661 107.306C160.838 107.483 160.927 107.711 160.927 107.99V111.296C160.927 111.549 160.838 111.777 160.661 111.98C160.484 112.157 160.256 112.246 159.977 112.246H148.691V117.528H161.117C161.396 117.528 161.624 117.617 161.801 117.794C161.978 117.971 162.067 118.199 162.067 118.478V122.05C162.067 122.329 161.978 122.557 161.801 122.734C161.624 122.911 161.396 123 161.117 123H143.067ZM167.337 123C167.058 123 166.83 122.911 166.653 122.734C166.475 122.557 166.387 122.329 166.387 122.05V97.35C166.387 97.0713 166.475 96.8433 166.653 96.666C166.83 96.4887 167.058 96.4 167.337 96.4H177.673C180.941 96.4 183.512 97.16 185.387 98.68C187.287 100.175 188.237 102.303 188.237 105.064C188.237 106.863 187.793 108.383 186.907 109.624C186.045 110.865 184.905 111.803 183.487 112.436L188.731 121.784C188.807 121.936 188.845 122.075 188.845 122.202C188.845 122.405 188.756 122.595 188.579 122.772C188.427 122.924 188.237 123 188.009 123H182.993C182.511 123 182.157 122.886 181.929 122.658C181.701 122.405 181.536 122.177 181.435 121.974L177.103 113.614H173.189V122.05C173.189 122.329 173.1 122.557 172.923 122.734C172.745 122.911 172.517 123 172.239 123H167.337ZM173.189 108.256H177.597C178.787 108.256 179.674 107.965 180.257 107.382C180.865 106.799 181.169 106.001 181.169 104.988C181.169 104 180.877 103.202 180.295 102.594C179.737 101.986 178.838 101.682 177.597 101.682H173.189V108.256ZM191.14 123C190.937 123 190.747 122.924 190.57 122.772C190.418 122.595 190.342 122.405 190.342 122.202C190.342 122.075 190.355 121.961 190.38 121.86L199.31 97.464C199.386 97.1853 199.538 96.9447 199.766 96.742C200.019 96.514 200.361 96.4 200.792 96.4H206.416C206.847 96.4 207.176 96.514 207.404 96.742C207.657 96.9447 207.822 97.1853 207.898 97.464L216.79 121.86C216.841 121.961 216.866 122.075 216.866 122.202C216.866 122.405 216.777 122.595 216.6 122.772C216.448 122.924 216.258 123 216.03 123H211.356C210.976 123 210.685 122.911 210.482 122.734C210.305 122.531 210.191 122.354 210.14 122.202L208.658 118.326H198.512L197.068 122.202C197.017 122.354 196.903 122.531 196.726 122.734C196.549 122.911 196.245 123 195.814 123H191.14ZM200.07 112.854H207.138L203.566 102.822L200.07 112.854ZM230.021 131.36C229.337 131.36 228.716 131.246 228.159 131.018C227.601 130.79 227.209 130.524 226.981 130.22C226.753 129.916 226.765 129.65 227.019 129.422L227.703 128.814C227.931 128.611 228.121 128.548 228.273 128.624C228.45 128.7 228.665 128.801 228.919 128.928C229.172 129.08 229.539 129.156 230.021 129.156C230.401 129.156 230.705 129.042 230.933 128.814C231.161 128.586 231.275 128.32 231.275 128.016C231.275 127.687 231.161 127.408 230.933 127.18C230.705 126.977 230.401 126.876 230.021 126.876C229.717 126.876 229.438 126.914 229.185 126.99C228.931 127.091 228.691 127.142 228.463 127.142C228.26 127.167 228.057 127.104 227.855 126.952L227.133 126.192C226.981 126.04 226.905 125.875 226.905 125.698C226.93 125.521 227.019 125.28 227.171 124.976L227.931 123.228C226.005 123 224.346 122.468 222.953 121.632C221.585 120.796 220.521 119.669 219.761 118.25C219.001 116.806 218.57 115.083 218.469 113.082C218.443 112.043 218.431 110.929 218.431 109.738C218.431 108.547 218.443 107.407 218.469 106.318C218.57 104.114 219.102 102.252 220.065 100.732C221.027 99.1867 222.37 98.0213 224.093 97.236C225.815 96.4253 227.855 96.02 230.211 96.02C231.883 96.02 233.428 96.2353 234.847 96.666C236.265 97.0713 237.507 97.6793 238.571 98.49C239.635 99.2753 240.458 100.238 241.041 101.378C241.649 102.493 241.965 103.759 241.991 105.178C242.016 105.406 241.94 105.596 241.763 105.748C241.611 105.9 241.421 105.976 241.193 105.976H236.063C235.733 105.976 235.48 105.913 235.303 105.786C235.125 105.634 234.973 105.368 234.847 104.988C234.492 103.645 233.909 102.733 233.099 102.252C232.313 101.745 231.338 101.492 230.173 101.492C228.779 101.492 227.677 101.885 226.867 102.67C226.056 103.43 225.613 104.709 225.537 106.508C225.461 108.585 225.461 110.713 225.537 112.892C225.613 114.691 226.056 115.983 226.867 116.768C227.677 117.528 228.779 117.908 230.173 117.908C231.338 117.908 232.326 117.655 233.137 117.148C233.947 116.641 234.517 115.729 234.847 114.412C234.948 114.032 235.087 113.779 235.265 113.652C235.467 113.5 235.733 113.424 236.063 113.424H241.193C241.421 113.424 241.611 113.5 241.763 113.652C241.94 113.804 242.016 113.994 241.991 114.222C241.965 115.641 241.649 116.92 241.041 118.06C240.458 119.175 239.635 120.137 238.571 120.948C237.507 121.733 236.265 122.341 234.847 122.772C233.428 123.177 231.883 123.38 230.211 123.38L229.451 124.9C229.603 124.824 229.805 124.761 230.059 124.71C230.337 124.685 230.553 124.672 230.705 124.672C231.617 124.672 232.339 124.976 232.871 125.584C233.428 126.192 233.707 126.99 233.707 127.978C233.707 128.941 233.377 129.739 232.719 130.372C232.06 131.031 231.161 131.36 230.021 131.36ZM244.132 123C243.93 123 243.74 122.924 243.562 122.772C243.41 122.595 243.334 122.405 243.334 122.202C243.334 122.075 243.347 121.961 243.372 121.86L252.302 97.464C252.378 97.1853 252.53 96.9447 252.758 96.742C253.012 96.514 253.354 96.4 253.784 96.4H259.408C259.839 96.4 260.168 96.514 260.396 96.742C260.65 96.9447 260.814 97.1853 260.89 97.464L269.782 121.86C269.833 121.961 269.858 122.075 269.858 122.202C269.858 122.405 269.77 122.595 269.592 122.772C269.44 122.924 269.25 123 269.022 123H264.348C263.968 123 263.677 122.911 263.474 122.734C263.297 122.531 263.183 122.354 263.132 122.202L261.65 118.326H251.504L250.06 122.202C250.01 122.354 249.896 122.531 249.718 122.734C249.541 122.911 249.237 123 248.806 123H244.132ZM253.062 112.854H260.13L256.558 102.822L253.062 112.854ZM258.876 94.69C258.192 94.69 257.622 94.576 257.166 94.348C256.71 94.12 256.292 93.9047 255.912 93.702C255.558 93.474 255.152 93.36 254.696 93.36C254.342 93.36 254.088 93.4487 253.936 93.626C253.784 93.8033 253.645 93.9933 253.518 94.196C253.392 94.3987 253.189 94.5 252.91 94.5H250.63C250.453 94.5 250.301 94.4367 250.174 94.31C250.048 94.158 249.984 94.006 249.984 93.854C249.984 93.4487 250.048 92.9673 250.174 92.41C250.326 91.8527 250.567 91.3207 250.896 90.814C251.251 90.282 251.694 89.8513 252.226 89.522C252.784 89.1673 253.455 88.99 254.24 88.99C254.95 88.99 255.532 89.104 255.988 89.332C256.444 89.56 256.862 89.788 257.242 90.016C257.622 90.244 258.028 90.358 258.458 90.358C258.813 90.358 259.054 90.2567 259.18 90.054C259.332 89.8513 259.472 89.6613 259.598 89.484C259.725 89.2813 259.928 89.18 260.206 89.18H262.486C262.714 89.18 262.879 89.256 262.98 89.408C263.107 89.5347 263.17 89.6867 263.17 89.864C263.17 90.2693 263.094 90.7507 262.942 91.308C262.79 91.84 262.55 92.372 262.22 92.904C261.891 93.4107 261.448 93.8413 260.89 94.196C260.333 94.5253 259.662 94.69 258.876 94.69ZM283.165 123.38C280.834 123.38 278.807 123 277.085 122.24C275.362 121.48 274.019 120.34 273.057 118.82C272.094 117.275 271.562 115.349 271.461 113.044C271.435 111.955 271.423 110.865 271.423 109.776C271.423 108.687 271.435 107.585 271.461 106.47C271.562 104.19 272.094 102.277 273.057 100.732C274.045 99.1613 275.4 97.9833 277.123 97.198C278.845 96.4127 280.859 96.02 283.165 96.02C285.445 96.02 287.446 96.4127 289.169 97.198C290.917 97.9833 292.285 99.1613 293.273 100.732C294.261 102.277 294.793 104.19 294.869 106.47C294.919 107.585 294.945 108.687 294.945 109.776C294.945 110.865 294.919 111.955 294.869 113.044C294.767 115.349 294.235 117.275 293.273 118.82C292.31 120.34 290.967 121.48 289.245 122.24C287.522 123 285.495 123.38 283.165 123.38ZM283.165 117.908C284.507 117.908 285.597 117.503 286.433 116.692C287.294 115.881 287.75 114.589 287.801 112.816C287.851 111.701 287.877 110.65 287.877 109.662C287.877 108.674 287.851 107.648 287.801 106.584C287.75 105.393 287.522 104.431 287.117 103.696C286.737 102.936 286.205 102.379 285.521 102.024C284.837 101.669 284.051 101.492 283.165 101.492C282.303 101.492 281.531 101.669 280.847 102.024C280.163 102.379 279.618 102.936 279.213 103.696C278.807 104.431 278.579 105.393 278.529 106.584C278.503 107.648 278.491 108.674 278.491 109.662C278.491 110.65 278.503 111.701 278.529 112.816C278.605 114.589 279.061 115.881 279.897 116.692C280.733 117.503 281.822 117.908 283.165 117.908ZM299.432 123C299.153 123 298.925 122.911 298.748 122.734C298.57 122.557 298.482 122.329 298.482 122.05V117.224C298.482 116.971 298.57 116.755 298.748 116.578C298.925 116.375 299.153 116.274 299.432 116.274H304.22C304.498 116.274 304.726 116.375 304.904 116.578C305.106 116.755 305.208 116.971 305.208 117.224V122.05C305.208 122.329 305.106 122.557 304.904 122.734C304.726 122.911 304.498 123 304.22 123H299.432Z" fill="#7D2CFF"/>
</svg>
