<svg width="1053" height="157" viewBox="0 0 1053 157" fill="none" xmlns="http://www.w3.org/2000/svg">
<path d="M83.5638 69.75C78.5638 69.75 74.4138 69.05 71.1138 67.65C67.8138 66.2 65.3138 64.325 63.6138 62.025C61.9138 59.725 61.0138 57.275 60.9138 54.675C60.9138 54.275 61.0638 53.925 61.3638 53.625C61.7138 53.275 62.1138 53.1 62.5638 53.1H72.0138C72.7138 53.1 73.2388 53.225 73.5888 53.475C73.9888 53.725 74.3388 54.05 74.6388 54.45C75.0388 55.2 75.5888 55.925 76.2888 56.625C77.0388 57.325 77.9888 57.9 79.1388 58.35C80.3388 58.75 81.8138 58.95 83.5638 58.95C86.4638 58.95 88.6388 58.5 90.0888 57.6C91.5888 56.7 92.3388 55.475 92.3388 53.925C92.3388 52.825 91.9388 51.925 91.1388 51.225C90.3388 50.475 89.0388 49.825 87.2388 49.275C85.4888 48.675 83.1388 48.075 80.1888 47.475C76.3888 46.675 73.1388 45.65 70.4388 44.4C67.7888 43.1 65.7638 41.425 64.3638 39.375C62.9638 37.275 62.2638 34.675 62.2638 31.575C62.2638 28.525 63.1138 25.8 64.8138 23.4C66.5638 21 68.9888 19.125 72.0888 17.775C75.1888 16.425 78.8638 15.75 83.1138 15.75C86.5638 15.75 89.5888 16.2 92.1888 17.1C94.8388 18 97.0638 19.2 98.8638 20.7C100.664 22.2 102.014 23.8 102.914 25.5C103.864 27.15 104.364 28.775 104.414 30.375C104.414 30.775 104.264 31.15 103.964 31.5C103.664 31.8 103.289 31.95 102.839 31.95H92.9388C92.3888 31.95 91.9138 31.85 91.5138 31.65C91.1138 31.45 90.7638 31.125 90.4638 30.675C90.1638 29.575 89.3638 28.625 88.0638 27.825C86.8138 26.975 85.1638 26.55 83.1138 26.55C80.9138 26.55 79.1888 26.95 77.9388 27.75C76.7388 28.5 76.1388 29.675 76.1388 31.275C76.1388 32.275 76.4638 33.15 77.1138 33.9C77.8138 34.65 78.9388 35.3 80.4888 35.85C82.0888 36.4 84.2638 36.975 87.0138 37.575C91.5638 38.425 95.2388 39.5 98.0388 40.8C100.839 42.05 102.889 43.7 104.189 45.75C105.489 47.75 106.139 50.275 106.139 53.325C106.139 56.725 105.164 59.675 103.214 62.175C101.314 64.625 98.6638 66.5 95.2638 67.8C91.8638 69.1 87.9638 69.75 83.5638 69.75ZM135.097 69.75C130.497 69.75 126.497 69 123.097 67.5C119.697 66 117.047 63.75 115.147 60.75C113.247 57.7 112.197 53.9 111.997 49.35C111.947 47.2 111.922 45.05 111.922 42.9C111.922 40.75 111.947 38.575 111.997 36.375C112.197 31.875 113.247 28.1 115.147 25.05C117.097 21.95 119.772 19.625 123.172 18.075C126.572 16.525 130.547 15.75 135.097 15.75C139.597 15.75 143.547 16.525 146.947 18.075C150.397 19.625 153.097 21.95 155.047 25.05C156.997 28.1 158.047 31.875 158.197 36.375C158.297 38.575 158.347 40.75 158.347 42.9C158.347 45.05 158.297 47.2 158.197 49.35C157.997 53.9 156.947 57.7 155.047 60.75C153.147 63.75 150.497 66 147.097 67.5C143.697 69 139.697 69.75 135.097 69.75ZM135.097 58.95C137.747 58.95 139.897 58.15 141.547 56.55C143.247 54.95 144.147 52.4 144.247 48.9C144.347 46.7 144.397 44.625 144.397 42.675C144.397 40.725 144.347 38.7 144.247 36.6C144.147 34.25 143.697 32.35 142.897 30.9C142.147 29.4 141.097 28.3 139.747 27.6C138.397 26.9 136.847 26.55 135.097 26.55C133.397 26.55 131.872 26.9 130.522 27.6C129.172 28.3 128.097 29.4 127.297 30.9C126.497 32.35 126.047 34.25 125.947 36.6C125.897 38.7 125.872 40.725 125.872 42.675C125.872 44.625 125.897 46.7 125.947 48.9C126.097 52.4 126.997 54.95 128.647 56.55C130.297 58.15 132.447 58.95 135.097 58.95ZM168.916 69C168.416 69 167.966 68.825 167.566 68.475C167.216 68.125 167.041 67.675 167.041 67.125V18.375C167.041 17.825 167.216 17.375 167.566 17.025C167.966 16.675 168.416 16.5 168.916 16.5H177.016C177.816 16.5 178.416 16.725 178.816 17.175C179.266 17.575 179.541 17.9 179.641 18.15L192.841 41.85L206.041 18.15C206.191 17.9 206.441 17.575 206.791 17.175C207.191 16.725 207.816 16.5 208.666 16.5H216.691C217.241 16.5 217.691 16.675 218.041 17.025C218.441 17.375 218.641 17.825 218.641 18.375V67.125C218.641 67.675 218.441 68.125 218.041 68.475C217.691 68.825 217.241 69 216.691 69H207.766C207.216 69 206.741 68.825 206.341 68.475C205.991 68.125 205.816 67.675 205.816 67.125V39L197.341 54.675C197.141 55.125 196.841 55.525 196.441 55.875C196.041 56.225 195.491 56.4 194.791 56.4H190.891C190.191 56.4 189.641 56.225 189.241 55.875C188.841 55.525 188.516 55.125 188.266 54.675L179.791 39V67.125C179.791 67.675 179.616 68.125 179.266 68.475C178.916 68.825 178.466 69 177.916 69H168.916ZM250.527 69.75C245.927 69.75 241.927 69 238.527 67.5C235.127 66 232.477 63.75 230.577 60.75C228.677 57.7 227.627 53.9 227.427 49.35C227.377 47.2 227.352 45.05 227.352 42.9C227.352 40.75 227.377 38.575 227.427 36.375C227.627 31.875 228.677 28.1 230.577 25.05C232.527 21.95 235.202 19.625 238.602 18.075C242.002 16.525 245.977 15.75 250.527 15.75C255.027 15.75 258.977 16.525 262.377 18.075C265.827 19.625 268.527 21.95 270.477 25.05C272.427 28.1 273.477 31.875 273.627 36.375C273.727 38.575 273.777 40.75 273.777 42.9C273.777 45.05 273.727 47.2 273.627 49.35C273.427 53.9 272.377 57.7 270.477 60.75C268.577 63.75 265.927 66 262.527 67.5C259.127 69 255.127 69.75 250.527 69.75ZM250.527 58.95C253.177 58.95 255.327 58.15 256.977 56.55C258.677 54.95 259.577 52.4 259.677 48.9C259.777 46.7 259.827 44.625 259.827 42.675C259.827 40.725 259.777 38.7 259.677 36.6C259.577 34.25 259.127 32.35 258.327 30.9C257.577 29.4 256.527 28.3 255.177 27.6C253.827 26.9 252.277 26.55 250.527 26.55C248.827 26.55 247.302 26.9 245.952 27.6C244.602 28.3 243.527 29.4 242.727 30.9C241.927 32.35 241.477 34.25 241.377 36.6C241.327 38.7 241.302 40.725 241.302 42.675C241.302 44.625 241.327 46.7 241.377 48.9C241.527 52.4 242.427 54.95 244.077 56.55C245.727 58.15 247.877 58.95 250.527 58.95ZM302.045 69.75C297.045 69.75 292.895 69.05 289.595 67.65C286.295 66.2 283.795 64.325 282.095 62.025C280.395 59.725 279.495 57.275 279.395 54.675C279.395 54.275 279.545 53.925 279.845 53.625C280.195 53.275 280.595 53.1 281.045 53.1H290.495C291.195 53.1 291.72 53.225 292.07 53.475C292.47 53.725 292.82 54.05 293.12 54.45C293.52 55.2 294.07 55.925 294.77 56.625C295.52 57.325 296.47 57.9 297.62 58.35C298.82 58.75 300.295 58.95 302.045 58.95C304.945 58.95 307.12 58.5 308.57 57.6C310.07 56.7 310.82 55.475 310.82 53.925C310.82 52.825 310.42 51.925 309.62 51.225C308.82 50.475 307.52 49.825 305.72 49.275C303.97 48.675 301.62 48.075 298.67 47.475C294.87 46.675 291.62 45.65 288.92 44.4C286.27 43.1 284.245 41.425 282.845 39.375C281.445 37.275 280.745 34.675 280.745 31.575C280.745 28.525 281.595 25.8 283.295 23.4C285.045 21 287.47 19.125 290.57 17.775C293.67 16.425 297.345 15.75 301.595 15.75C305.045 15.75 308.07 16.2 310.67 17.1C313.32 18 315.545 19.2 317.345 20.7C319.145 22.2 320.495 23.8 321.395 25.5C322.345 27.15 322.845 28.775 322.895 30.375C322.895 30.775 322.745 31.15 322.445 31.5C322.145 31.8 321.77 31.95 321.32 31.95H311.42C310.87 31.95 310.395 31.85 309.995 31.65C309.595 31.45 309.245 31.125 308.945 30.675C308.645 29.575 307.845 28.625 306.545 27.825C305.295 26.975 303.645 26.55 301.595 26.55C299.395 26.55 297.67 26.95 296.42 27.75C295.22 28.5 294.62 29.675 294.62 31.275C294.62 32.275 294.945 33.15 295.595 33.9C296.295 34.65 297.42 35.3 298.97 35.85C300.57 36.4 302.745 36.975 305.495 37.575C310.045 38.425 313.72 39.5 316.52 40.8C319.32 42.05 321.37 43.7 322.67 45.75C323.97 47.75 324.62 50.275 324.62 53.325C324.62 56.725 323.645 59.675 321.695 62.175C319.795 64.625 317.145 66.5 313.745 67.8C310.345 69.1 306.445 69.75 302.045 69.75ZM343.191 69C342.791 69 342.416 68.85 342.066 68.55C341.766 68.2 341.616 67.825 341.616 67.425C341.616 67.175 341.641 66.95 341.691 66.75L359.316 18.6C359.466 18.05 359.766 17.575 360.216 17.175C360.716 16.725 361.391 16.5 362.241 16.5H373.341C374.191 16.5 374.841 16.725 375.291 17.175C375.791 17.575 376.116 18.05 376.266 18.6L393.816 66.75C393.916 66.95 393.966 67.175 393.966 67.425C393.966 67.825 393.791 68.2 393.441 68.55C393.141 68.85 392.766 69 392.316 69H383.091C382.341 69 381.766 68.825 381.366 68.475C381.016 68.075 380.791 67.725 380.691 67.425L377.766 59.775H357.741L354.891 67.425C354.791 67.725 354.566 68.075 354.216 68.475C353.866 68.825 353.266 69 352.416 69H343.191ZM360.816 48.975H374.766L367.716 29.175L360.816 48.975ZM20.6877 155C20.1377 155 19.6877 154.825 19.3377 154.475C18.9877 154.125 18.8127 153.675 18.8127 153.125V114.275H5.4627C4.9127 114.275 4.4627 114.1 4.1127 113.75C3.7627 113.35 3.5877 112.9 3.5877 112.4V104.375C3.5877 103.825 3.7627 103.375 4.1127 103.025C4.4627 102.675 4.9127 102.5 5.4627 102.5H45.8127C46.3627 102.5 46.8127 102.675 47.1627 103.025C47.5127 103.375 47.6877 103.825 47.6877 104.375V112.4C47.6877 112.9 47.5127 113.35 47.1627 113.75C46.8127 114.1 46.3627 114.275 45.8127 114.275H32.4627V153.125C32.4627 153.675 32.2877 154.125 31.9377 154.475C31.5877 154.825 31.1377 155 30.5877 155H20.6877ZM56.3789 155C55.8289 155 55.3789 154.825 55.0289 154.475C54.6789 154.125 54.5039 153.675 54.5039 153.125V104.375C54.5039 103.825 54.6789 103.375 55.0289 103.025C55.3789 102.675 55.8289 102.5 56.3789 102.5H76.7789C83.2289 102.5 88.3039 104 92.0039 107C95.7539 109.95 97.6289 114.15 97.6289 119.6C97.6289 123.15 96.7539 126.15 95.0039 128.6C93.3039 131.05 91.0539 132.9 88.2539 134.15L98.6039 152.6C98.7539 152.9 98.8289 153.175 98.8289 153.425C98.8289 153.825 98.6539 154.2 98.3039 154.55C98.0039 154.85 97.6289 155 97.1789 155H87.2789C86.3289 155 85.6289 154.775 85.1789 154.325C84.7289 153.825 84.4039 153.375 84.2039 152.975L75.6539 136.475H67.9289V153.125C67.9289 153.675 67.7539 154.125 67.4039 154.475C67.0539 154.825 66.6039 155 66.0539 155H56.3789ZM67.9289 125.9H76.6289C78.9789 125.9 80.7289 125.325 81.8789 124.175C83.0789 123.025 83.6789 121.45 83.6789 119.45C83.6789 117.5 83.1039 115.925 81.9539 114.725C80.8539 113.525 79.0789 112.925 76.6289 112.925H67.9289V125.9ZM103.359 155C102.959 155 102.584 154.85 102.234 154.55C101.934 154.2 101.784 153.825 101.784 153.425C101.784 153.175 101.809 152.95 101.859 152.75L119.484 104.6C119.634 104.05 119.934 103.575 120.384 103.175C120.884 102.725 121.559 102.5 122.409 102.5H133.509C134.359 102.5 135.009 102.725 135.459 103.175C135.959 103.575 136.284 104.05 136.434 104.6L153.984 152.75C154.084 152.95 154.134 153.175 154.134 153.425C154.134 153.825 153.959 154.2 153.609 154.55C153.309 154.85 152.934 155 152.484 155H143.259C142.509 155 141.934 154.825 141.534 154.475C141.184 154.075 140.959 153.725 140.859 153.425L137.934 145.775H117.909L115.059 153.425C114.959 153.725 114.734 154.075 114.384 154.475C114.034 154.825 113.434 155 112.584 155H103.359ZM120.984 134.975H134.934L127.884 115.175L120.984 134.975ZM161.921 155C161.371 155 160.921 154.825 160.571 154.475C160.221 154.125 160.046 153.675 160.046 153.125V104.375C160.046 103.825 160.221 103.375 160.571 103.025C160.921 102.675 161.371 102.5 161.921 102.5H169.871C170.721 102.5 171.321 102.7 171.671 103.1C172.071 103.45 172.321 103.725 172.421 103.925L190.721 132.8V104.375C190.721 103.825 190.896 103.375 191.246 103.025C191.596 102.675 192.046 102.5 192.596 102.5H201.596C202.146 102.5 202.596 102.675 202.946 103.025C203.296 103.375 203.471 103.825 203.471 104.375V153.125C203.471 153.625 203.296 154.075 202.946 154.475C202.596 154.825 202.146 155 201.596 155H193.571C192.771 155 192.171 154.8 191.771 154.4C191.421 154 191.196 153.725 191.096 153.575L172.796 125.825V153.125C172.796 153.675 172.621 154.125 172.271 154.475C171.921 154.825 171.471 155 170.921 155H161.921ZM215.827 155C215.277 155 214.827 154.825 214.477 154.475C214.127 154.125 213.952 153.675 213.952 153.125V104.375C213.952 103.825 214.127 103.375 214.477 103.025C214.827 102.675 215.277 102.5 215.827 102.5H250.252C250.802 102.5 251.252 102.675 251.602 103.025C252.002 103.375 252.202 103.825 252.202 104.375V111.95C252.202 112.5 252.002 112.95 251.602 113.3C251.252 113.65 250.802 113.825 250.252 113.825H227.152V124.85H248.752C249.302 124.85 249.752 125.05 250.102 125.45C250.502 125.8 250.702 126.25 250.702 126.8V134.3C250.702 134.8 250.502 135.25 250.102 135.65C249.752 136 249.302 136.175 248.752 136.175H227.152V153.125C227.152 153.675 226.977 154.125 226.627 154.475C226.277 154.825 225.827 155 225.277 155H215.827ZM281.325 155.75C276.725 155.75 272.725 155 269.325 153.5C265.925 152 263.275 149.75 261.375 146.75C259.475 143.7 258.425 139.9 258.225 135.35C258.175 133.2 258.15 131.05 258.15 128.9C258.15 126.75 258.175 124.575 258.225 122.375C258.425 117.875 259.475 114.1 261.375 111.05C263.325 107.95 266 105.625 269.4 104.075C272.8 102.525 276.775 101.75 281.325 101.75C285.825 101.75 289.775 102.525 293.175 104.075C296.625 105.625 299.325 107.95 301.275 111.05C303.225 114.1 304.275 117.875 304.425 122.375C304.525 124.575 304.575 126.75 304.575 128.9C304.575 131.05 304.525 133.2 304.425 135.35C304.225 139.9 303.175 143.7 301.275 146.75C299.375 149.75 296.725 152 293.325 153.5C289.925 155 285.925 155.75 281.325 155.75ZM281.325 144.95C283.975 144.95 286.125 144.15 287.775 142.55C289.475 140.95 290.375 138.4 290.475 134.9C290.575 132.7 290.625 130.625 290.625 128.675C290.625 126.725 290.575 124.7 290.475 122.6C290.375 120.25 289.925 118.35 289.125 116.9C288.375 115.4 287.325 114.3 285.975 113.6C284.625 112.9 283.075 112.55 281.325 112.55C279.625 112.55 278.1 112.9 276.75 113.6C275.4 114.3 274.325 115.4 273.525 116.9C272.725 118.35 272.275 120.25 272.175 122.6C272.125 124.7 272.1 126.725 272.1 128.675C272.1 130.625 272.125 132.7 272.175 134.9C272.325 138.4 273.225 140.95 274.875 142.55C276.525 144.15 278.675 144.95 281.325 144.95ZM315.144 155C314.594 155 314.144 154.825 313.794 154.475C313.444 154.125 313.269 153.675 313.269 153.125V104.375C313.269 103.825 313.444 103.375 313.794 103.025C314.144 102.675 314.594 102.5 315.144 102.5H335.544C341.994 102.5 347.069 104 350.769 107C354.519 109.95 356.394 114.15 356.394 119.6C356.394 123.15 355.519 126.15 353.769 128.6C352.069 131.05 349.819 132.9 347.019 134.15L357.369 152.6C357.519 152.9 357.594 153.175 357.594 153.425C357.594 153.825 357.419 154.2 357.069 154.55C356.769 154.85 356.394 155 355.944 155H346.044C345.094 155 344.394 154.775 343.944 154.325C343.494 153.825 343.169 153.375 342.969 152.975L334.419 136.475H326.694V153.125C326.694 153.675 326.519 154.125 326.169 154.475C325.819 154.825 325.369 155 324.819 155H315.144ZM326.694 125.9H335.394C337.744 125.9 339.494 125.325 340.644 124.175C341.844 123.025 342.444 121.45 342.444 119.45C342.444 117.5 341.869 115.925 340.719 114.725C339.619 113.525 337.844 112.925 335.394 112.925H326.694V125.9ZM366.999 155C366.499 155 366.049 154.825 365.649 154.475C365.299 154.125 365.124 153.675 365.124 153.125V104.375C365.124 103.825 365.299 103.375 365.649 103.025C366.049 102.675 366.499 102.5 366.999 102.5H375.099C375.899 102.5 376.499 102.725 376.899 103.175C377.349 103.575 377.624 103.9 377.724 104.15L390.924 127.85L404.124 104.15C404.274 103.9 404.524 103.575 404.874 103.175C405.274 102.725 405.899 102.5 406.749 102.5H414.774C415.324 102.5 415.774 102.675 416.124 103.025C416.524 103.375 416.724 103.825 416.724 104.375V153.125C416.724 153.675 416.524 154.125 416.124 154.475C415.774 154.825 415.324 155 414.774 155H405.849C405.299 155 404.824 154.825 404.424 154.475C404.074 154.125 403.899 153.675 403.899 153.125V125L395.424 140.675C395.224 141.125 394.924 141.525 394.524 141.875C394.124 142.225 393.574 142.4 392.874 142.4H388.974C388.274 142.4 387.724 142.225 387.324 141.875C386.924 141.525 386.599 141.125 386.349 140.675L377.874 125V153.125C377.874 153.675 377.699 154.125 377.349 154.475C376.999 154.825 376.549 155 375.999 155H366.999ZM424.16 155C423.76 155 423.385 154.85 423.035 154.55C422.735 154.2 422.585 153.825 422.585 153.425C422.585 153.175 422.61 152.95 422.66 152.75L440.285 104.6C440.435 104.05 440.735 103.575 441.185 103.175C441.685 102.725 442.36 102.5 443.21 102.5H454.31C455.16 102.5 455.81 102.725 456.26 103.175C456.76 103.575 457.085 104.05 457.235 104.6L474.785 152.75C474.885 152.95 474.935 153.175 474.935 153.425C474.935 153.825 474.76 154.2 474.41 154.55C474.11 154.85 473.735 155 473.285 155H464.06C463.31 155 462.735 154.825 462.335 154.475C461.985 154.075 461.76 153.725 461.66 153.425L458.735 145.775H438.71L435.86 153.425C435.76 153.725 435.535 154.075 435.185 154.475C434.835 154.825 434.235 155 433.385 155H424.16ZM441.785 134.975H455.735L448.685 115.175L441.785 134.975ZM482.722 155C482.172 155 481.722 154.825 481.372 154.475C481.022 154.125 480.847 153.675 480.847 153.125V104.375C480.847 103.825 481.022 103.375 481.372 103.025C481.722 102.675 482.172 102.5 482.722 102.5H490.672C491.522 102.5 492.122 102.7 492.472 103.1C492.872 103.45 493.122 103.725 493.222 103.925L511.522 132.8V104.375C511.522 103.825 511.697 103.375 512.047 103.025C512.397 102.675 512.847 102.5 513.397 102.5H522.397C522.947 102.5 523.397 102.675 523.747 103.025C524.097 103.375 524.272 103.825 524.272 104.375V153.125C524.272 153.625 524.097 154.075 523.747 154.475C523.397 154.825 522.947 155 522.397 155H514.372C513.572 155 512.972 154.8 512.572 154.4C512.222 154 511.997 153.725 511.897 153.575L493.597 125.825V153.125C493.597 153.675 493.422 154.125 493.072 154.475C492.722 154.825 492.272 155 491.722 155H482.722ZM536.628 155C536.078 155 535.628 154.825 535.278 154.475C534.928 154.125 534.753 153.675 534.753 153.125V104.375C534.753 103.825 534.928 103.375 535.278 103.025C535.628 102.675 536.078 102.5 536.628 102.5H556.128C561.028 102.5 565.203 103.3 568.653 104.9C572.103 106.45 574.753 108.75 576.603 111.8C578.453 114.8 579.453 118.525 579.603 122.975C579.653 125.175 579.678 127.1 579.678 128.75C579.678 130.4 579.653 132.3 579.603 134.45C579.403 139.1 578.403 142.95 576.603 146C574.853 149.05 572.278 151.325 568.878 152.825C565.528 154.275 561.403 155 556.503 155H536.628ZM548.178 144.2H556.128C558.278 144.2 560.053 143.875 561.453 143.225C562.903 142.525 563.978 141.45 564.678 140C565.428 138.55 565.828 136.65 565.878 134.3C565.978 132.85 566.028 131.55 566.028 130.4C566.078 129.25 566.078 128.1 566.028 126.95C566.028 125.8 565.978 124.525 565.878 123.125C565.778 119.725 564.878 117.25 563.178 115.7C561.528 114.1 559.053 113.3 555.753 113.3H548.178V144.2ZM609.889 155.75C605.289 155.75 601.289 155 597.889 153.5C594.489 152 591.839 149.75 589.939 146.75C588.039 143.7 586.989 139.9 586.789 135.35C586.739 133.2 586.714 131.05 586.714 128.9C586.714 126.75 586.739 124.575 586.789 122.375C586.989 117.875 588.039 114.1 589.939 111.05C591.889 107.95 594.564 105.625 597.964 104.075C601.364 102.525 605.339 101.75 609.889 101.75C614.389 101.75 618.339 102.525 621.739 104.075C625.189 105.625 627.889 107.95 629.839 111.05C631.789 114.1 632.839 117.875 632.989 122.375C633.089 124.575 633.139 126.75 633.139 128.9C633.139 131.05 633.089 133.2 632.989 135.35C632.789 139.9 631.739 143.7 629.839 146.75C627.939 149.75 625.289 152 621.889 153.5C618.489 155 614.489 155.75 609.889 155.75ZM609.889 144.95C612.539 144.95 614.689 144.15 616.339 142.55C618.039 140.95 618.939 138.4 619.039 134.9C619.139 132.7 619.189 130.625 619.189 128.675C619.189 126.725 619.139 124.7 619.039 122.6C618.939 120.25 618.489 118.35 617.689 116.9C616.939 115.4 615.889 114.3 614.539 113.6C613.189 112.9 611.639 112.55 609.889 112.55C608.189 112.55 606.664 112.9 605.314 113.6C603.964 114.3 602.889 115.4 602.089 116.9C601.289 118.35 600.839 120.25 600.739 122.6C600.689 124.7 600.664 126.725 600.664 128.675C600.664 130.625 600.689 132.7 600.739 134.9C600.889 138.4 601.789 140.95 603.439 142.55C605.089 144.15 607.239 144.95 609.889 144.95ZM679.25 155.75C674.65 155.75 670.65 155 667.25 153.5C663.85 152 661.2 149.75 659.3 146.75C657.4 143.7 656.35 139.9 656.15 135.35C656.1 133.2 656.075 131.05 656.075 128.9C656.075 126.75 656.1 124.575 656.15 122.375C656.35 117.875 657.4 114.1 659.3 111.05C661.25 107.95 663.925 105.625 667.325 104.075C670.725 102.525 674.7 101.75 679.25 101.75C683.75 101.75 687.7 102.525 691.1 104.075C694.55 105.625 697.25 107.95 699.2 111.05C701.15 114.1 702.2 117.875 702.35 122.375C702.45 124.575 702.5 126.75 702.5 128.9C702.5 131.05 702.45 133.2 702.35 135.35C702.15 139.9 701.1 143.7 699.2 146.75C697.3 149.75 694.65 152 691.25 153.5C687.85 155 683.85 155.75 679.25 155.75ZM679.25 144.95C681.9 144.95 684.05 144.15 685.7 142.55C687.4 140.95 688.3 138.4 688.4 134.9C688.5 132.7 688.55 130.625 688.55 128.675C688.55 126.725 688.5 124.7 688.4 122.6C688.3 120.25 687.85 118.35 687.05 116.9C686.3 115.4 685.25 114.3 683.9 113.6C682.55 112.9 681 112.55 679.25 112.55C677.55 112.55 676.025 112.9 674.675 113.6C673.325 114.3 672.25 115.4 671.45 116.9C670.65 118.35 670.2 120.25 670.1 122.6C670.05 124.7 670.025 126.725 670.025 128.675C670.025 130.625 670.05 132.7 670.1 134.9C670.25 138.4 671.15 140.95 672.8 142.55C674.45 144.15 676.6 144.95 679.25 144.95ZM729.035 155C728.485 155 728.035 154.825 727.685 154.475C727.335 154.125 727.16 153.675 727.16 153.125V104.375C727.16 103.825 727.335 103.375 727.685 103.025C728.035 102.675 728.485 102.5 729.035 102.5H763.46C764.01 102.5 764.46 102.675 764.81 103.025C765.21 103.375 765.41 103.825 765.41 104.375V111.95C765.41 112.5 765.21 112.95 764.81 113.3C764.46 113.65 764.01 113.825 763.46 113.825H740.36V124.85H761.96C762.51 124.85 762.96 125.05 763.31 125.45C763.71 125.8 763.91 126.25 763.91 126.8V134.3C763.91 134.8 763.71 135.25 763.31 135.65C762.96 136 762.51 136.175 761.96 136.175H740.36V153.125C740.36 153.675 740.185 154.125 739.835 154.475C739.485 154.825 739.035 155 738.485 155H729.035ZM795.424 155.75C790.924 155.75 786.974 155.025 783.574 153.575C780.224 152.075 777.624 149.8 775.774 146.75C773.924 143.65 772.999 139.725 772.999 134.975V104.375C772.999 103.825 773.174 103.375 773.524 103.025C773.874 102.675 774.324 102.5 774.874 102.5H784.549C785.099 102.5 785.549 102.675 785.899 103.025C786.249 103.375 786.424 103.825 786.424 104.375V134.9C786.424 138.15 787.199 140.6 788.749 142.25C790.349 143.85 792.574 144.65 795.424 144.65C798.224 144.65 800.399 143.85 801.949 142.25C803.549 140.6 804.349 138.15 804.349 134.9V104.375C804.349 103.825 804.524 103.375 804.874 103.025C805.274 102.675 805.724 102.5 806.224 102.5H815.974C816.474 102.5 816.899 102.675 817.249 103.025C817.649 103.375 817.849 103.825 817.849 104.375V134.975C817.849 139.725 816.924 143.65 815.074 146.75C813.224 149.8 810.624 152.075 807.274 153.575C803.924 155.025 799.974 155.75 795.424 155.75ZM841.22 155C840.67 155 840.22 154.825 839.87 154.475C839.52 154.125 839.345 153.675 839.345 153.125V114.275H825.995C825.445 114.275 824.995 114.1 824.645 113.75C824.295 113.35 824.12 112.9 824.12 112.4V104.375C824.12 103.825 824.295 103.375 824.645 103.025C824.995 102.675 825.445 102.5 825.995 102.5H866.345C866.895 102.5 867.345 102.675 867.695 103.025C868.045 103.375 868.22 103.825 868.22 104.375V112.4C868.22 112.9 868.045 113.35 867.695 113.75C867.345 114.1 866.895 114.275 866.345 114.275H852.995V153.125C852.995 153.675 852.82 154.125 852.47 154.475C852.12 154.825 851.67 155 851.12 155H841.22ZM897.011 155.75C892.511 155.75 888.561 155.025 885.161 153.575C881.811 152.075 879.211 149.8 877.361 146.75C875.511 143.65 874.586 139.725 874.586 134.975V104.375C874.586 103.825 874.761 103.375 875.111 103.025C875.461 102.675 875.911 102.5 876.461 102.5H886.136C886.686 102.5 887.136 102.675 887.486 103.025C887.836 103.375 888.011 103.825 888.011 104.375V134.9C888.011 138.15 888.786 140.6 890.336 142.25C891.936 143.85 894.161 144.65 897.011 144.65C899.811 144.65 901.986 143.85 903.536 142.25C905.136 140.6 905.936 138.15 905.936 134.9V104.375C905.936 103.825 906.111 103.375 906.461 103.025C906.861 102.675 907.311 102.5 907.811 102.5H917.561C918.061 102.5 918.486 102.675 918.836 103.025C919.236 103.375 919.436 103.825 919.436 104.375V134.975C919.436 139.725 918.511 143.65 916.661 146.75C914.811 149.8 912.211 152.075 908.861 153.575C905.511 155.025 901.561 155.75 897.011 155.75ZM931.257 155C930.707 155 930.257 154.825 929.907 154.475C929.557 154.125 929.382 153.675 929.382 153.125V104.375C929.382 103.825 929.557 103.375 929.907 103.025C930.257 102.675 930.707 102.5 931.257 102.5H951.657C958.107 102.5 963.182 104 966.882 107C970.632 109.95 972.507 114.15 972.507 119.6C972.507 123.15 971.632 126.15 969.882 128.6C968.182 131.05 965.932 132.9 963.132 134.15L973.482 152.6C973.632 152.9 973.707 153.175 973.707 153.425C973.707 153.825 973.532 154.2 973.182 154.55C972.882 154.85 972.507 155 972.057 155H962.157C961.207 155 960.507 154.775 960.057 154.325C959.607 153.825 959.282 153.375 959.082 152.975L950.532 136.475H942.807V153.125C942.807 153.675 942.632 154.125 942.282 154.475C941.932 154.825 941.482 155 940.932 155H931.257ZM942.807 125.9H951.507C953.857 125.9 955.607 125.325 956.757 124.175C957.957 123.025 958.557 121.45 958.557 119.45C958.557 117.5 957.982 115.925 956.832 114.725C955.732 113.525 953.957 112.925 951.507 112.925H942.807V125.9ZM1002.47 155.75C997.868 155.75 993.868 155 990.468 153.5C987.068 152 984.418 149.75 982.518 146.75C980.618 143.7 979.568 139.9 979.368 135.35C979.318 133.2 979.293 131.05 979.293 128.9C979.293 126.75 979.318 124.575 979.368 122.375C979.568 117.875 980.618 114.1 982.518 111.05C984.468 107.95 987.143 105.625 990.543 104.075C993.943 102.525 997.918 101.75 1002.47 101.75C1006.97 101.75 1010.92 102.525 1014.32 104.075C1017.77 105.625 1020.47 107.95 1022.42 111.05C1024.37 114.1 1025.42 117.875 1025.57 122.375C1025.67 124.575 1025.72 126.75 1025.72 128.9C1025.72 131.05 1025.67 133.2 1025.57 135.35C1025.37 139.9 1024.32 143.7 1022.42 146.75C1020.52 149.75 1017.87 152 1014.47 153.5C1011.07 155 1007.07 155.75 1002.47 155.75ZM1002.47 144.95C1005.12 144.95 1007.27 144.15 1008.92 142.55C1010.62 140.95 1011.52 138.4 1011.62 134.9C1011.72 132.7 1011.77 130.625 1011.77 128.675C1011.77 126.725 1011.72 124.7 1011.62 122.6C1011.52 120.25 1011.07 118.35 1010.27 116.9C1009.52 115.4 1008.47 114.3 1007.12 113.6C1005.77 112.9 1004.22 112.55 1002.47 112.55C1000.77 112.55 999.243 112.9 997.893 113.6C996.543 114.3 995.468 115.4 994.668 116.9C993.868 118.35 993.418 120.25 993.318 122.6C993.268 124.7 993.243 126.725 993.243 128.675C993.243 130.625 993.268 132.7 993.318 134.9C993.468 138.4 994.368 140.95 996.018 142.55C997.668 144.15 999.818 144.95 1002.47 144.95ZM1035.76 138.425C1035.21 138.425 1034.76 138.25 1034.41 137.9C1034.06 137.5 1033.89 137.05 1033.89 136.55V104.375C1033.89 103.825 1034.06 103.375 1034.41 103.025C1034.76 102.675 1035.21 102.5 1035.76 102.5H1044.39C1044.89 102.5 1045.31 102.675 1045.66 103.025C1046.06 103.375 1046.26 103.825 1046.26 104.375V136.55C1046.26 137.05 1046.06 137.5 1045.66 137.9C1045.31 138.25 1044.89 138.425 1044.39 138.425H1035.76ZM1035.46 155C1034.91 155 1034.46 154.825 1034.11 154.475C1033.76 154.125 1033.59 153.675 1033.59 153.125V143.9C1033.59 143.35 1033.76 142.9 1034.11 142.55C1034.46 142.15 1034.91 141.95 1035.46 141.95H1044.69C1045.19 141.95 1045.61 142.15 1045.96 142.55C1046.36 142.9 1046.56 143.35 1046.56 143.9V153.125C1046.56 153.675 1046.36 154.125 1045.96 154.475C1045.61 154.825 1045.19 155 1044.69 155H1035.46Z" fill="white"/>
<path d="M415.815 69C415.265 69 414.815 68.825 414.465 68.475C414.115 68.125 413.94 67.675 413.94 67.125V18.375C413.94 17.825 414.115 17.375 414.465 17.025C414.815 16.675 415.265 16.5 415.815 16.5H423.765C424.615 16.5 425.215 16.7 425.565 17.1C425.965 17.45 426.215 17.725 426.315 17.925L444.615 46.8V18.375C444.615 17.825 444.79 17.375 445.14 17.025C445.49 16.675 445.94 16.5 446.49 16.5H455.49C456.04 16.5 456.49 16.675 456.84 17.025C457.19 17.375 457.365 17.825 457.365 18.375V67.125C457.365 67.625 457.19 68.075 456.84 68.475C456.49 68.825 456.04 69 455.49 69H447.465C446.665 69 446.065 68.8 445.665 68.4C445.315 68 445.09 67.725 444.99 67.575L426.69 39.825V67.125C426.69 67.675 426.515 68.125 426.165 68.475C425.815 68.825 425.365 69 424.815 69H415.815ZM489.296 69.75C484.696 69.75 480.696 69 477.296 67.5C473.896 66 471.246 63.75 469.346 60.75C467.446 57.7 466.396 53.9 466.196 49.35C466.146 47.2 466.121 45.05 466.121 42.9C466.121 40.75 466.146 38.575 466.196 36.375C466.396 31.875 467.446 28.1 469.346 25.05C471.296 21.95 473.971 19.625 477.371 18.075C480.771 16.525 484.746 15.75 489.296 15.75C493.796 15.75 497.746 16.525 501.146 18.075C504.596 19.625 507.296 21.95 509.246 25.05C511.196 28.1 512.246 31.875 512.396 36.375C512.496 38.575 512.546 40.75 512.546 42.9C512.546 45.05 512.496 47.2 512.396 49.35C512.196 53.9 511.146 57.7 509.246 60.75C507.346 63.75 504.696 66 501.296 67.5C497.896 69 493.896 69.75 489.296 69.75ZM489.296 58.95C491.946 58.95 494.096 58.15 495.746 56.55C497.446 54.95 498.346 52.4 498.446 48.9C498.546 46.7 498.596 44.625 498.596 42.675C498.596 40.725 498.546 38.7 498.446 36.6C498.346 34.25 497.896 32.35 497.096 30.9C496.346 29.4 495.296 28.3 493.946 27.6C492.596 26.9 491.046 26.55 489.296 26.55C487.596 26.55 486.071 26.9 484.721 27.6C483.371 28.3 482.296 29.4 481.496 30.9C480.696 32.35 480.246 34.25 480.146 36.6C480.096 38.7 480.071 40.725 480.071 42.675C480.071 44.625 480.096 46.7 480.146 48.9C480.296 52.4 481.196 54.95 482.846 56.55C484.496 58.15 486.646 58.95 489.296 58.95ZM534.628 69C533.778 69 533.103 68.775 532.603 68.325C532.103 67.875 531.753 67.35 531.553 66.75L516.253 18.75C516.153 18.5 516.103 18.275 516.103 18.075C516.103 17.675 516.253 17.325 516.553 17.025C516.903 16.675 517.303 16.5 517.753 16.5H527.053C527.853 16.5 528.478 16.725 528.928 17.175C529.378 17.625 529.653 18.05 529.753 18.45L540.328 53.1L550.978 18.45C551.128 18.05 551.403 17.625 551.803 17.175C552.253 16.725 552.878 16.5 553.678 16.5H562.978C563.428 16.5 563.803 16.675 564.103 17.025C564.453 17.325 564.628 17.675 564.628 18.075C564.628 18.275 564.578 18.5 564.478 18.75L549.178 66.75C548.978 67.35 548.628 67.875 548.128 68.325C547.678 68.775 547.003 69 546.103 69H534.628ZM564.456 69C564.056 69 563.681 68.85 563.331 68.55C563.031 68.2 562.881 67.825 562.881 67.425C562.881 67.175 562.906 66.95 562.956 66.75L580.581 18.6C580.731 18.05 581.031 17.575 581.481 17.175C581.981 16.725 582.656 16.5 583.506 16.5H594.606C595.456 16.5 596.106 16.725 596.556 17.175C597.056 17.575 597.381 18.05 597.531 18.6L615.081 66.75C615.181 66.95 615.231 67.175 615.231 67.425C615.231 67.825 615.056 68.2 614.706 68.55C614.406 68.85 614.031 69 613.581 69H604.356C603.606 69 603.031 68.825 602.631 68.475C602.281 68.075 602.056 67.725 601.956 67.425L599.031 59.775H579.006L576.156 67.425C576.056 67.725 575.831 68.075 575.481 68.475C575.131 68.825 574.531 69 573.681 69H564.456ZM582.081 48.975H596.031L588.981 29.175L582.081 48.975ZM656.88 69.75C652.13 69.75 648.03 68.975 644.58 67.425C641.18 65.825 638.53 63.525 636.63 60.525C634.78 57.475 633.755 53.775 633.555 49.425C633.505 47.275 633.48 45 633.48 42.6C633.48 40.15 633.505 37.825 633.555 35.625C633.755 31.375 634.805 27.775 636.705 24.825C638.605 21.875 641.28 19.625 644.73 18.075C648.18 16.525 652.23 15.75 656.88 15.75C660.63 15.75 663.955 16.225 666.855 17.175C669.755 18.075 672.18 19.3 674.13 20.85C676.13 22.4 677.63 24.1 678.63 25.95C679.68 27.8 680.23 29.625 680.28 31.425C680.33 31.875 680.18 32.25 679.83 32.55C679.53 32.85 679.155 33 678.705 33H667.755C667.205 33 666.78 32.925 666.48 32.775C666.23 32.575 666.005 32.3 665.805 31.95C665.455 31.2 664.93 30.425 664.23 29.625C663.58 28.775 662.655 28.05 661.455 27.45C660.305 26.85 658.78 26.55 656.88 26.55C654.03 26.55 651.78 27.3 650.13 28.8C648.53 30.3 647.655 32.7 647.505 36C647.355 40.3 647.355 44.65 647.505 49.05C647.655 52.55 648.58 55.075 650.28 56.625C651.98 58.175 654.23 58.95 657.03 58.95C658.93 58.95 660.605 58.625 662.055 57.975C663.555 57.325 664.73 56.325 665.58 54.975C666.43 53.575 666.855 51.8 666.855 49.65V48.225H659.805C659.255 48.225 658.78 48.05 658.38 47.7C658.03 47.3 657.855 46.825 657.855 46.275V40.725C657.855 40.175 658.03 39.725 658.38 39.375C658.78 38.975 659.255 38.775 659.805 38.775H678.705C679.255 38.775 679.705 38.975 680.055 39.375C680.405 39.725 680.58 40.175 680.58 40.725V49.275C680.58 53.575 679.605 57.25 677.655 60.3C675.705 63.35 672.93 65.7 669.33 67.35C665.78 68.95 661.63 69.75 656.88 69.75ZM691.059 69C690.509 69 690.059 68.825 689.709 68.475C689.359 68.125 689.184 67.675 689.184 67.125V18.375C689.184 17.825 689.359 17.375 689.709 17.025C690.059 16.675 690.509 16.5 691.059 16.5H726.084C726.634 16.5 727.084 16.675 727.434 17.025C727.784 17.375 727.959 17.825 727.959 18.375V25.425C727.959 25.975 727.784 26.425 727.434 26.775C727.084 27.125 726.634 27.3 726.084 27.3H702.159V37.425H724.434C724.984 37.425 725.434 37.625 725.784 38.025C726.134 38.375 726.309 38.825 726.309 39.375V45.9C726.309 46.4 726.134 46.85 725.784 47.25C725.434 47.6 724.984 47.775 724.434 47.775H702.159V58.2H726.684C727.234 58.2 727.684 58.375 728.034 58.725C728.384 59.075 728.559 59.525 728.559 60.075V67.125C728.559 67.675 728.384 68.125 728.034 68.475C727.684 68.825 727.234 69 726.684 69H691.059ZM738.959 69C738.409 69 737.959 68.825 737.609 68.475C737.259 68.125 737.084 67.675 737.084 67.125V18.375C737.084 17.825 737.259 17.375 737.609 17.025C737.959 16.675 738.409 16.5 738.959 16.5H759.359C765.809 16.5 770.884 18 774.584 21C778.334 23.95 780.209 28.15 780.209 33.6C780.209 37.15 779.334 40.15 777.584 42.6C775.884 45.05 773.634 46.9 770.834 48.15L781.184 66.6C781.334 66.9 781.409 67.175 781.409 67.425C781.409 67.825 781.234 68.2 780.884 68.55C780.584 68.85 780.209 69 779.759 69H769.859C768.909 69 768.209 68.775 767.759 68.325C767.309 67.825 766.984 67.375 766.784 66.975L758.234 50.475H750.509V67.125C750.509 67.675 750.334 68.125 749.984 68.475C749.634 68.825 749.184 69 748.634 69H738.959ZM750.509 39.9H759.209C761.559 39.9 763.309 39.325 764.459 38.175C765.659 37.025 766.259 35.45 766.259 33.45C766.259 31.5 765.684 29.925 764.534 28.725C763.434 27.525 761.659 26.925 759.209 26.925H750.509V39.9ZM785.94 69C785.54 69 785.165 68.85 784.815 68.55C784.515 68.2 784.365 67.825 784.365 67.425C784.365 67.175 784.39 66.95 784.44 66.75L802.065 18.6C802.215 18.05 802.515 17.575 802.965 17.175C803.465 16.725 804.14 16.5 804.99 16.5H816.09C816.94 16.5 817.59 16.725 818.04 17.175C818.54 17.575 818.865 18.05 819.015 18.6L836.565 66.75C836.665 66.95 836.715 67.175 836.715 67.425C836.715 67.825 836.54 68.2 836.19 68.55C835.89 68.85 835.515 69 835.065 69H825.84C825.09 69 824.515 68.825 824.115 68.475C823.765 68.075 823.54 67.725 823.44 67.425L820.515 59.775H800.49L797.64 67.425C797.54 67.725 797.315 68.075 796.965 68.475C796.615 68.825 796.015 69 795.165 69H785.94ZM803.565 48.975H817.515L810.465 29.175L803.565 48.975ZM862.678 85.5C861.328 85.5 860.103 85.275 859.003 84.825C857.903 84.375 857.128 83.85 856.678 83.25C856.228 82.65 856.253 82.125 856.753 81.675L858.103 80.475C858.553 80.075 858.928 79.95 859.228 80.1C859.578 80.25 860.003 80.45 860.503 80.7C861.003 81 861.728 81.15 862.678 81.15C863.428 81.15 864.028 80.925 864.478 80.475C864.928 80.025 865.153 79.5 865.153 78.9C865.153 78.25 864.928 77.7 864.478 77.25C864.028 76.85 863.428 76.65 862.678 76.65C862.078 76.65 861.528 76.725 861.028 76.875C860.528 77.075 860.053 77.175 859.603 77.175C859.203 77.225 858.803 77.1 858.403 76.8L856.978 75.3C856.678 75 856.528 74.675 856.528 74.325C856.578 73.975 856.753 73.5 857.053 72.9L858.553 69.45C854.753 69 851.478 67.95 848.728 66.3C846.028 64.65 843.928 62.425 842.428 59.625C840.928 56.775 840.078 53.375 839.878 49.425C839.828 47.375 839.803 45.175 839.803 42.825C839.803 40.475 839.828 38.225 839.878 36.075C840.078 31.725 841.128 28.05 843.028 25.05C844.928 22 847.578 19.7 850.978 18.15C854.378 16.55 858.403 15.75 863.053 15.75C866.353 15.75 869.403 16.175 872.203 17.025C875.003 17.825 877.453 19.025 879.553 20.625C881.653 22.175 883.278 24.075 884.428 26.325C885.628 28.525 886.253 31.025 886.303 33.825C886.353 34.275 886.203 34.65 885.853 34.95C885.553 35.25 885.178 35.4 884.728 35.4H874.603C873.953 35.4 873.453 35.275 873.103 35.025C872.753 34.725 872.453 34.2 872.203 33.45C871.503 30.8 870.353 29 868.753 28.05C867.203 27.05 865.278 26.55 862.978 26.55C860.228 26.55 858.053 27.325 856.453 28.875C854.853 30.375 853.978 32.9 853.828 36.45C853.678 40.55 853.678 44.75 853.828 49.05C853.978 52.6 854.853 55.15 856.453 56.7C858.053 58.2 860.228 58.95 862.978 58.95C865.278 58.95 867.228 58.45 868.828 57.45C870.428 56.45 871.553 54.65 872.203 52.05C872.403 51.3 872.678 50.8 873.028 50.55C873.428 50.25 873.953 50.1 874.603 50.1H884.728C885.178 50.1 885.553 50.25 885.853 50.55C886.203 50.85 886.353 51.225 886.303 51.675C886.253 54.475 885.628 57 884.428 59.25C883.278 61.45 881.653 63.35 879.553 64.95C877.453 66.5 875.003 67.7 872.203 68.55C869.403 69.35 866.353 69.75 863.053 69.75L861.553 72.75C861.853 72.6 862.253 72.475 862.753 72.375C863.303 72.325 863.728 72.3 864.028 72.3C865.828 72.3 867.253 72.9 868.303 74.1C869.403 75.3 869.953 76.875 869.953 78.825C869.953 80.725 869.303 82.3 868.003 83.55C866.703 84.85 864.928 85.5 862.678 85.5ZM890.53 69C890.13 69 889.755 68.85 889.405 68.55C889.105 68.2 888.955 67.825 888.955 67.425C888.955 67.175 888.98 66.95 889.03 66.75L906.655 18.6C906.805 18.05 907.105 17.575 907.555 17.175C908.055 16.725 908.73 16.5 909.58 16.5H920.68C921.53 16.5 922.18 16.725 922.63 17.175C923.13 17.575 923.455 18.05 923.605 18.6L941.155 66.75C941.255 66.95 941.305 67.175 941.305 67.425C941.305 67.825 941.13 68.2 940.78 68.55C940.48 68.85 940.105 69 939.655 69H930.43C929.68 69 929.105 68.825 928.705 68.475C928.355 68.075 928.13 67.725 928.03 67.425L925.105 59.775H905.08L902.23 67.425C902.13 67.725 901.905 68.075 901.555 68.475C901.205 68.825 900.605 69 899.755 69H890.53ZM908.155 48.975H922.105L915.055 29.175L908.155 48.975ZM919.63 13.125C918.28 13.125 917.155 12.9 916.255 12.45C915.355 12 914.53 11.575 913.78 11.175C913.08 10.725 912.28 10.5 911.38 10.5C910.68 10.5 910.18 10.675 909.88 11.025C909.58 11.375 909.305 11.75 909.055 12.15C908.805 12.55 908.405 12.75 907.855 12.75H903.355C903.005 12.75 902.705 12.625 902.455 12.375C902.205 12.075 902.08 11.775 902.08 11.475C902.08 10.675 902.205 9.725 902.455 8.62499C902.755 7.525 903.23 6.475 903.88 5.475C904.58 4.425 905.455 3.575 906.505 2.925C907.605 2.225 908.93 1.875 910.48 1.875C911.88 1.875 913.03 2.1 913.93 2.55C914.83 3 915.655 3.45 916.405 3.9C917.155 4.35 917.955 4.575 918.805 4.575C919.505 4.575 919.98 4.375 920.23 3.975C920.53 3.575 920.805 3.2 921.055 2.85C921.305 2.45 921.705 2.25 922.255 2.25H926.755C927.205 2.25 927.53 2.4 927.73 2.7C927.98 2.95 928.105 3.25 928.105 3.6C928.105 4.4 927.955 5.35 927.655 6.45C927.355 7.5 926.88 8.55 926.23 9.6C925.58 10.6 924.705 11.45 923.605 12.15C922.505 12.8 921.18 13.125 919.63 13.125ZM967.568 69.75C962.968 69.75 958.968 69 955.568 67.5C952.168 66 949.518 63.75 947.618 60.75C945.718 57.7 944.668 53.9 944.468 49.35C944.418 47.2 944.393 45.05 944.393 42.9C944.393 40.75 944.418 38.575 944.468 36.375C944.668 31.875 945.718 28.1 947.618 25.05C949.568 21.95 952.243 19.625 955.643 18.075C959.043 16.525 963.018 15.75 967.568 15.75C972.068 15.75 976.018 16.525 979.418 18.075C982.868 19.625 985.568 21.95 987.518 25.05C989.468 28.1 990.518 31.875 990.668 36.375C990.768 38.575 990.818 40.75 990.818 42.9C990.818 45.05 990.768 47.2 990.668 49.35C990.468 53.9 989.418 57.7 987.518 60.75C985.618 63.75 982.968 66 979.568 67.5C976.168 69 972.168 69.75 967.568 69.75ZM967.568 58.95C970.218 58.95 972.368 58.15 974.018 56.55C975.718 54.95 976.618 52.4 976.718 48.9C976.818 46.7 976.868 44.625 976.868 42.675C976.868 40.725 976.818 38.7 976.718 36.6C976.618 34.25 976.168 32.35 975.368 30.9C974.618 29.4 973.568 28.3 972.218 27.6C970.868 26.9 969.318 26.55 967.568 26.55C965.868 26.55 964.343 26.9 962.993 27.6C961.643 28.3 960.568 29.4 959.768 30.9C958.968 32.35 958.518 34.25 958.418 36.6C958.368 38.7 958.343 40.725 958.343 42.675C958.343 44.625 958.368 46.7 958.418 48.9C958.568 52.4 959.468 54.95 961.118 56.55C962.768 58.15 964.918 58.95 967.568 58.95Z" fill="#7C2CFF"/>
</svg>
