<svg width="885" height="238" viewBox="0 0 885 238" fill="none" xmlns="http://www.w3.org/2000/svg">
<path d="M95.1676 63.75C108.743 63.75 118.118 56.1 118.118 44.775C118.118 44.175 118.118 43.35 118.043 42.375H107.243C107.318 43.2 107.318 43.65 107.318 43.95C107.318 50.175 102.968 54.075 95.7676 54.075C87.8176 54.075 81.8926 48.225 81.8926 38.4C81.8926 28.65 87.6676 22.575 95.7676 22.575C102.443 22.575 107.168 26.4 107.168 33.075C107.168 33.45 107.168 34.2 107.093 35.025H117.818C117.893 34.35 117.968 33 117.968 31.875C117.968 20.55 108.668 12.9 95.1676 12.9C79.9426 12.9 69.1426 22.35 69.1426 38.4C69.1426 54.3 79.9426 63.75 95.1676 63.75ZM149.084 63.75C164.009 63.75 175.559 54.225 175.559 38.1C175.559 22.275 164.009 12.9 149.084 12.9C134.159 12.9 122.609 22.275 122.609 38.1C122.609 54.225 134.159 63.75 149.084 63.75ZM149.084 54.075C141.284 54.075 135.359 48.15 135.359 38.175C135.359 28.35 141.284 22.575 149.084 22.575C156.884 22.575 162.809 28.35 162.809 38.175C162.809 48.15 156.884 54.075 149.084 54.075ZM181.156 63H192.706L192.481 24.225H192.631L205.156 63H215.731L228.181 24.225H228.331L228.031 63H240.331V13.65H221.656L211.156 46.5H211.006L200.431 13.65H181.156V63ZM247.074 63H282.699V53.325H259.374V41.925H276.924V34.425H259.374V23.325H282.024V13.65H247.074V63ZM311.086 63.75C324.661 63.75 334.036 56.1 334.036 44.775C334.036 44.175 334.036 43.35 333.961 42.375H323.161C323.236 43.2 323.236 43.65 323.236 43.95C323.236 50.175 318.886 54.075 311.686 54.075C303.736 54.075 297.811 48.225 297.811 38.4C297.811 28.65 303.586 22.575 311.686 22.575C318.361 22.575 323.086 26.4 323.086 33.075C323.086 33.45 323.086 34.2 323.011 35.025H333.736C333.811 34.35 333.886 33 333.886 31.875C333.886 20.55 324.586 12.9 311.086 12.9C295.861 12.9 285.061 22.35 285.061 38.4C285.061 54.3 295.861 63.75 311.086 63.75ZM339.652 63H375.277V53.325H351.952V41.925H369.502V34.425H351.952V23.325H374.602V13.65H339.652V63ZM211.186 149H246.811V139.325H223.486V127.925H241.036V120.425H223.486V109.325H246.136V99.65H211.186V149ZM251.908 149H263.458L263.233 110.225H263.383L275.908 149H286.483L298.933 110.225H299.083L298.783 149H311.083V99.65H292.408L281.908 132.5H281.758L271.183 99.65H251.908V149ZM353.711 149.675C367.136 149.675 375.011 143.675 375.011 133.55C375.011 127.7 371.786 123.65 366.236 122.525V122.3C370.361 121.25 372.761 117.65 372.761 112.925C372.761 104 365.186 98.975 354.386 98.975C342.086 98.975 334.886 104.6 334.886 114.2C334.886 116.15 335.111 117.95 335.336 118.775H345.686C345.611 118.25 345.536 117.2 345.536 116.075C345.536 111.425 348.311 108.65 353.936 108.65C358.886 108.65 361.811 110.975 361.811 115.025C361.811 118.55 359.636 120.575 355.886 120.575H349.736V128.075H357.086C361.136 128.075 363.011 129.725 363.011 132.8C363.011 137.225 359.936 140 353.711 140C348.011 140 344.711 137.15 344.711 132.35C344.711 131.825 344.711 131 344.786 129.95H334.061C333.911 130.775 333.686 132.425 333.686 134.075C333.686 143.9 341.111 149.675 353.711 149.675ZM82.4258 235H94.7258V220.9H104.776C117.676 220.9 123.826 214.45 123.826 203.5C123.826 191.575 116.251 185.65 103.651 185.65H82.4258V235ZM94.7258 212.65V195.325H103.276C109.126 195.325 112.276 198.475 112.276 204.1C112.276 209.875 109.426 212.65 104.251 212.65H94.7258ZM159.904 235H174.229L155.179 185.65H139.879L120.829 235H133.429L136.804 224.95H156.529L159.904 235ZM139.354 217.3L146.554 195.7H146.704L153.979 217.3H139.354ZM197.24 235.75C214.865 235.75 219.59 228.25 219.59 219.85C219.59 215.2 217.715 211.675 214.19 209.8C211.265 208.225 207.065 207.325 201.515 206.425C197.315 205.75 192.14 204.925 190.265 204.1C188.54 203.35 187.865 202 187.865 199.6C187.865 196.3 190.715 193.825 197.39 193.825C204.14 193.825 207.065 196.9 207.065 202.525H217.94C217.94 191.425 212.84 184.9 197.165 184.9C182.915 184.9 175.64 191.35 175.64 200.65C175.64 205.375 177.29 208.825 180.44 210.85C183.29 212.725 188.24 213.7 193.115 214.45C197.24 215.05 202.34 215.8 204.515 216.55C206.465 217.225 207.365 218.575 207.365 220.675C207.365 223.825 205.49 226.825 197.165 226.825C188.915 226.825 186.74 223.375 186.74 218.05H175.79C175.79 227.125 180.29 235.75 197.24 235.75ZM246.02 235.75C263.645 235.75 268.37 228.25 268.37 219.85C268.37 215.2 266.495 211.675 262.97 209.8C260.045 208.225 255.845 207.325 250.295 206.425C246.095 205.75 240.92 204.925 239.045 204.1C237.32 203.35 236.645 202 236.645 199.6C236.645 196.3 239.495 193.825 246.17 193.825C252.92 193.825 255.845 196.9 255.845 202.525H266.72C266.72 191.425 261.62 184.9 245.945 184.9C231.695 184.9 224.42 191.35 224.42 200.65C224.42 205.375 226.07 208.825 229.22 210.85C232.07 212.725 237.02 213.7 241.895 214.45C246.02 215.05 251.12 215.8 253.295 216.55C255.245 217.225 256.145 218.575 256.145 220.675C256.145 223.825 254.27 226.825 245.945 226.825C237.695 226.825 235.52 223.375 235.52 218.05H224.57C224.57 227.125 229.07 235.75 246.02 235.75ZM299.524 235.75C314.449 235.75 325.999 226.225 325.999 210.1C325.999 194.275 314.449 184.9 299.524 184.9C284.599 184.9 273.049 194.275 273.049 210.1C273.049 226.225 284.599 235.75 299.524 235.75ZM299.524 226.075C291.724 226.075 285.799 220.15 285.799 210.175C285.799 200.35 291.724 194.575 299.524 194.575C307.324 194.575 313.249 200.35 313.249 210.175C313.249 220.15 307.324 226.075 299.524 226.075ZM352.221 235.75C369.846 235.75 374.571 228.25 374.571 219.85C374.571 215.2 372.696 211.675 369.171 209.8C366.246 208.225 362.046 207.325 356.496 206.425C352.296 205.75 347.121 204.925 345.246 204.1C343.521 203.35 342.846 202 342.846 199.6C342.846 196.3 345.696 193.825 352.371 193.825C359.121 193.825 362.046 196.9 362.046 202.525H372.921C372.921 191.425 367.821 184.9 352.146 184.9C337.896 184.9 330.621 191.35 330.621 200.65C330.621 205.375 332.271 208.825 335.421 210.85C338.271 212.725 343.221 213.7 348.096 214.45C352.221 215.05 357.321 215.8 359.496 216.55C361.446 217.225 362.346 218.575 362.346 220.675C362.346 223.825 360.471 226.825 352.146 226.825C343.896 226.825 341.721 223.375 341.721 218.05H330.771C330.771 227.125 335.271 235.75 352.221 235.75Z" fill="white"/>
<path d="M443.87 62H441.87V64H443.87V62ZM480.41 62V64H482.41V62H480.41ZM480.41 52.97H482.41V50.97H480.41V52.97ZM469.14 52.97H467.14V54.97H469.14V52.97ZM469.14 15.8H471.14V13.8H469.14V15.8ZM459.76 15.8V13.8H457.811L457.761 15.7478L459.76 15.8ZM453.32 26.79L453.371 28.7894L453.38 28.7891L453.32 26.79ZM447.86 26.93L447.809 24.9307L445.86 24.9806V26.93H447.86ZM447.86 34.28H445.86V36.28H447.86V34.28ZM457.87 34.28H459.87V32.28H457.87V34.28ZM457.87 52.97V54.97H459.87V52.97H457.87ZM443.87 52.97V50.97H441.87V52.97H443.87ZM443.87 64H480.41V60H443.87V64ZM482.41 62V52.97H478.41V62H482.41ZM480.41 50.97H469.14V54.97H480.41V50.97ZM471.14 52.97V15.8H467.14V52.97H471.14ZM469.14 13.8H459.76V17.8H469.14V13.8ZM457.761 15.7478C457.656 19.7682 457.208 22.0162 456.489 23.2595C456.168 23.8142 455.805 24.1424 455.373 24.3608C454.911 24.5946 454.249 24.7614 453.26 24.7909L453.38 28.7891C454.736 28.7486 456.026 28.5129 457.177 27.9307C458.36 27.3332 459.275 26.432 459.951 25.263C461.227 23.0588 461.654 19.8818 461.759 15.8522L457.761 15.7478ZM453.269 24.7907L447.809 24.9307L447.911 28.9293L453.371 28.7893L453.269 24.7907ZM445.86 26.93V34.28H449.86V26.93H445.86ZM447.86 36.28H457.87V32.28H447.86V36.28ZM455.87 34.28V52.97H459.87V34.28H455.87ZM457.87 50.97H443.87V54.97H457.87V50.97ZM441.87 52.97V62H445.87V52.97H441.87ZM443.87 147H441.87V149H443.87V147ZM480.27 147V149H482.27V147H480.27ZM480.27 138.04H482.27V136.04H480.27V138.04ZM456.61 138.04H454.61V140.04H456.61V138.04ZM464.31 131.95L463.484 130.128L463.48 130.13L464.31 131.95ZM444.43 121.59L442.448 121.854L442.679 123.59H444.43V121.59ZM454.37 121.59V123.59H456.624L456.356 121.352L454.37 121.59ZM456.75 126.7L455.896 124.892L455.89 124.894L456.75 126.7ZM443.87 149H480.27V145H443.87V149ZM482.27 147V138.04H478.27V147H482.27ZM480.27 136.04H456.61V140.04H480.27V136.04ZM458.61 138.04C458.61 137.71 458.638 137.629 458.654 137.591C458.666 137.562 458.731 137.405 459.078 137.1C459.853 136.418 461.522 135.42 465.14 133.77L463.48 130.13C459.888 131.77 457.707 132.977 456.435 134.098C455.758 134.694 455.25 135.338 454.945 136.093C454.643 136.841 454.61 137.53 454.61 138.04H458.61ZM465.136 133.772C470.862 131.175 474.925 128.578 477.546 125.515C480.243 122.364 481.29 118.867 481.29 114.8H477.29C477.29 118.082 476.482 120.606 474.507 122.915C472.455 125.312 469.028 127.615 463.484 130.128L465.136 133.772ZM481.29 114.8C481.29 110.154 479.563 105.965 476.161 102.959C472.778 99.9703 467.925 98.31 461.93 98.31V102.31C467.205 102.31 471.032 103.765 473.512 105.956C475.972 108.13 477.29 111.186 477.29 114.8H481.29ZM461.93 98.31C455.43 98.31 450.412 100.156 447.024 103.586C443.642 107.008 442.15 111.736 442.15 116.97H446.15C446.15 112.474 447.423 108.872 449.869 106.397C452.308 103.929 456.18 102.31 461.93 102.31V98.31ZM442.15 116.97C442.15 118.877 442.296 120.716 442.448 121.854L446.412 121.326C446.284 120.364 446.15 118.703 446.15 116.97H442.15ZM444.43 123.59H454.37V119.59H444.43V123.59ZM456.356 121.352C456.16 119.724 456.16 118.49 456.16 117.74H452.16C452.16 118.53 452.16 119.956 452.384 121.828L456.356 121.352ZM456.16 117.74C456.16 115.238 456.771 113.69 457.593 112.783C458.387 111.907 459.639 111.34 461.58 111.34V107.34C458.831 107.34 456.373 108.173 454.629 110.097C452.914 111.99 452.16 114.642 452.16 117.74H456.16ZM461.58 111.34C463.265 111.34 464.332 111.819 464.975 112.457C465.617 113.094 466.09 114.139 466.09 115.78H470.09C470.09 113.361 469.373 111.186 467.792 109.618C466.213 108.051 464.025 107.34 461.58 107.34V111.34ZM466.09 115.78C466.09 117.362 465.68 118.519 464.358 119.808C462.893 121.235 460.328 122.798 455.896 124.892L457.604 128.508C462.062 126.402 465.167 124.605 467.15 122.672C469.275 120.601 470.09 118.398 470.09 115.78H466.09ZM455.89 124.894C449.966 127.715 446.252 130.223 444.175 133.764C442.114 137.278 441.87 141.487 441.87 147H445.87C445.87 141.383 446.186 138.242 447.625 135.788C449.048 133.362 451.774 131.285 457.61 128.506L455.89 124.894ZM473.2 207.29H471.2V208.925L472.803 209.25L473.2 207.29ZM473.2 207.08L472.707 205.142L471.2 205.525V207.08H473.2ZM444.36 203.79L442.43 204.316L442.832 205.79H444.36V203.79ZM454.02 203.79V205.79H456.326L456 203.507L454.02 203.79ZM457.8 205.47V203.47H455.8V205.47H457.8ZM457.8 212.47H455.8V214.47H457.8V212.47ZM453.18 214.22L455.175 214.362L455.328 212.22H453.18V214.22ZM443.17 214.22V212.22H441.501L441.202 213.862L443.17 214.22ZM461.51 234.63C468.039 234.63 473.49 233.175 477.357 230.242C481.296 227.255 483.39 222.883 483.39 217.58H479.39C479.39 221.727 477.809 224.88 474.94 227.055C472 229.285 467.511 230.63 461.51 230.63V234.63ZM483.39 217.58C483.39 214.478 482.53 211.707 480.802 209.536C479.07 207.36 476.583 205.935 473.597 205.33L472.803 209.25C474.997 209.695 476.605 210.685 477.673 212.027C478.745 213.373 479.39 215.222 479.39 217.58H483.39ZM475.2 207.29V207.08H471.2V207.29H475.2ZM473.693 209.018C478.613 207.766 481.29 203.451 481.29 198.33H477.29C477.29 202.029 475.487 204.434 472.707 205.142L473.693 209.018ZM481.29 198.33C481.29 193.523 479.215 189.67 475.676 187.082C472.204 184.543 467.459 183.31 462.14 183.31V187.31C466.901 187.31 470.731 188.422 473.315 190.311C475.83 192.15 477.29 194.807 477.29 198.33H481.29ZM462.14 183.31C456.128 183.31 451.087 184.681 447.504 187.479C443.855 190.328 441.94 194.488 441.94 199.52H445.94C445.94 195.592 447.385 192.647 449.966 190.631C452.613 188.564 456.672 187.31 462.14 187.31V183.31ZM441.94 199.52C441.94 201.436 442.156 203.31 442.43 204.316L446.29 203.264C446.144 202.73 445.94 201.244 445.94 199.52H441.94ZM444.36 205.79H454.02V201.79H444.36V205.79ZM456 203.507C455.947 203.138 455.88 202.257 455.88 201.27H451.88C451.88 202.383 451.953 203.462 452.04 204.073L456 203.507ZM455.88 201.27C455.88 199.503 456.396 198.37 457.18 197.655C457.992 196.913 459.398 196.34 461.72 196.34V192.34C458.792 192.34 456.278 193.062 454.483 194.7C452.659 196.365 451.88 198.697 451.88 201.27H455.88ZM461.72 196.34C463.747 196.34 465.084 196.819 465.873 197.455C466.602 198.043 467.07 198.925 467.07 200.29H471.07C471.07 197.875 470.173 195.782 468.382 194.34C466.651 192.946 464.313 192.34 461.72 192.34V196.34ZM467.07 200.29C467.07 201.515 466.704 202.23 466.251 202.653C465.78 203.094 464.944 203.47 463.54 203.47V207.47C465.636 207.47 467.565 206.901 468.984 205.575C470.421 204.23 471.07 202.355 471.07 200.29H467.07ZM463.54 203.47H457.8V207.47H463.54V203.47ZM455.8 205.47V212.47H459.8V205.47H455.8ZM457.8 214.47H464.66V210.47H457.8V214.47ZM464.66 214.47C466.33 214.47 467.174 214.818 467.577 215.147C467.902 215.413 468.19 215.87 468.19 216.88H472.19C472.19 215.02 471.603 213.272 470.108 212.05C468.691 210.892 466.77 210.47 464.66 210.47V214.47ZM468.19 216.88C468.19 218.445 467.67 219.509 466.774 220.232C465.812 221.006 464.154 221.6 461.51 221.6V225.6C464.676 225.6 467.358 224.899 469.284 223.346C471.275 221.741 472.19 219.445 472.19 216.88H468.19ZM461.51 221.6C459.16 221.6 457.577 221.012 456.614 220.189C455.693 219.403 455.11 218.212 455.11 216.46H451.11C451.11 219.188 452.067 221.567 454.016 223.231C455.923 224.858 458.54 225.6 461.51 225.6V221.6ZM455.11 216.46C455.11 215.979 455.11 215.268 455.175 214.362L451.185 214.078C451.11 215.132 451.11 215.961 451.11 216.46H455.11ZM453.18 212.22H443.17V216.22H453.18V212.22ZM441.202 213.862C441.048 214.712 440.82 216.376 440.82 218.07H444.82C444.82 216.684 445.012 215.268 445.138 214.578L441.202 213.862ZM440.82 218.07C440.82 223.212 442.791 227.459 446.526 230.367C450.195 233.224 455.357 234.63 461.51 234.63V230.63C455.903 230.63 451.72 229.341 448.984 227.211C446.314 225.131 444.82 222.098 444.82 218.07H440.82Z" fill="white"/>
<path d="M537.772 28.872H549.976C552.064 28.872 553.684 29.46 554.836 30.636C556.012 31.812 556.6 33.372 556.6 35.316C556.6 36.276 556.468 37.092 556.204 37.764C555.964 38.436 555.628 38.988 555.196 39.42C554.788 39.852 554.296 40.176 553.72 40.392C553.168 40.584 552.568 40.692 551.92 40.716V40.932C552.52 40.932 553.144 41.04 553.792 41.256C554.464 41.472 555.076 41.82 555.628 42.3C556.18 42.756 556.636 43.356 556.996 44.1C557.38 44.844 557.572 45.756 557.572 46.836C557.572 47.82 557.404 48.756 557.068 49.644C556.756 50.508 556.312 51.264 555.736 51.912C555.16 52.56 554.476 53.076 553.684 53.46C552.892 53.82 552.028 54 551.092 54H537.772V28.872ZM543.244 49.392H549.544C550.264 49.392 550.828 49.2 551.236 48.816C551.668 48.408 551.884 47.844 551.884 47.124V45.9C551.884 45.18 551.668 44.628 551.236 44.244C550.828 43.836 550.264 43.632 549.544 43.632H543.244V49.392ZM543.244 39.168H548.68C549.4 39.168 549.964 38.964 550.372 38.556C550.78 38.148 550.984 37.584 550.984 36.864V35.784C550.984 35.064 550.78 34.5 550.372 34.092C549.964 33.684 549.4 33.48 548.68 33.48H543.244V39.168ZM575.464 54C574.504 54 573.7 53.7 573.052 53.1C572.428 52.5 572.032 51.696 571.864 50.688H571.648C571.36 51.912 570.724 52.848 569.74 53.496C568.756 54.12 567.544 54.432 566.104 54.432C564.208 54.432 562.756 53.928 561.748 52.92C560.74 51.912 560.236 50.58 560.236 48.924C560.236 46.932 560.956 45.456 562.396 44.496C563.86 43.512 565.84 43.02 568.336 43.02H571.324V41.832C571.324 40.92 571.084 40.2 570.604 39.672C570.124 39.12 569.32 38.844 568.192 38.844C567.136 38.844 566.296 39.072 565.672 39.528C565.048 39.984 564.532 40.5 564.124 41.076L560.956 38.268C561.724 37.14 562.684 36.264 563.836 35.64C565.012 34.992 566.596 34.668 568.588 34.668C571.276 34.668 573.292 35.256 574.636 36.432C575.98 37.608 576.652 39.324 576.652 41.58V49.86H578.416V54H575.464ZM568.084 50.724C568.972 50.724 569.728 50.532 570.352 50.148C571 49.764 571.324 49.14 571.324 48.276V46.044H568.732C566.644 46.044 565.6 46.752 565.6 48.168V48.708C565.6 49.404 565.816 49.92 566.248 50.256C566.68 50.568 567.292 50.724 568.084 50.724ZM584.656 33.084C583.576 33.084 582.784 32.844 582.28 32.364C581.8 31.86 581.56 31.224 581.56 30.456V29.664C581.56 28.896 581.8 28.272 582.28 27.792C582.784 27.288 583.576 27.036 584.656 27.036C585.736 27.036 586.516 27.288 586.996 27.792C587.5 28.272 587.752 28.896 587.752 29.664V30.456C587.752 31.224 587.5 31.86 586.996 32.364C586.516 32.844 585.736 33.084 584.656 33.084ZM581.992 35.1H587.32V54H581.992V35.1ZM590.457 54L596.685 44.388L590.529 35.1H596.577L600.105 41.04H600.249L603.669 35.1H609.285L603.021 44.568L609.321 54H603.273L599.637 47.844H599.493L596.001 54H590.457ZM619.759 54.432C618.319 54.432 617.035 54.204 615.907 53.748C614.779 53.268 613.819 52.608 613.027 51.768C612.259 50.904 611.671 49.86 611.263 48.636C610.879 47.412 610.687 46.044 610.687 44.532C610.687 43.044 610.879 41.7 611.263 40.5C611.647 39.276 612.211 38.232 612.955 37.368C613.723 36.504 614.659 35.844 615.763 35.388C616.867 34.908 618.127 34.668 619.543 34.668C621.103 34.668 622.435 34.932 623.539 35.46C624.667 35.988 625.579 36.696 626.275 37.584C626.995 38.472 627.511 39.504 627.823 40.68C628.159 41.832 628.327 43.044 628.327 44.316V45.9H616.195V46.188C616.195 47.436 616.531 48.432 617.203 49.176C617.875 49.896 618.931 50.256 620.371 50.256C621.475 50.256 622.375 50.04 623.071 49.608C623.767 49.152 624.415 48.612 625.015 47.988L627.679 51.3C626.839 52.284 625.735 53.052 624.367 53.604C623.023 54.156 621.487 54.432 619.759 54.432ZM619.651 38.592C618.571 38.592 617.719 38.952 617.095 39.672C616.495 40.368 616.195 41.304 616.195 42.48V42.768H622.819V42.444C622.819 41.292 622.555 40.368 622.027 39.672C621.523 38.952 620.731 38.592 619.651 38.592ZM648.265 54.432C646.873 54.432 645.625 54.204 644.521 53.748C643.441 53.292 642.517 52.632 641.749 51.768C641.005 50.904 640.429 49.86 640.021 48.636C639.613 47.412 639.409 46.044 639.409 44.532C639.409 43.02 639.613 41.652 640.021 40.428C640.429 39.204 641.005 38.172 641.749 37.332C642.517 36.468 643.441 35.808 644.521 35.352C645.625 34.896 646.873 34.668 648.265 34.668C649.657 34.668 650.893 34.896 651.973 35.352C653.077 35.808 654.001 36.468 654.745 37.332C655.513 38.172 656.101 39.204 656.509 40.428C656.917 41.652 657.121 43.02 657.121 44.532C657.121 46.044 656.917 47.412 656.509 48.636C656.101 49.86 655.513 50.904 654.745 51.768C654.001 52.632 653.077 53.292 651.973 53.748C650.893 54.204 649.657 54.432 648.265 54.432ZM648.265 50.22C649.321 50.22 650.137 49.896 650.713 49.248C651.289 48.6 651.577 47.676 651.577 46.476V42.624C651.577 41.424 651.289 40.5 650.713 39.852C650.137 39.204 649.321 38.88 648.265 38.88C647.209 38.88 646.393 39.204 645.817 39.852C645.241 40.5 644.953 41.424 644.953 42.624V46.476C644.953 47.676 645.241 48.6 645.817 49.248C646.393 49.896 647.209 50.22 648.265 50.22ZM683.393 54C682.433 54 681.629 53.7 680.981 53.1C680.357 52.5 679.961 51.696 679.793 50.688H679.577C679.289 51.912 678.653 52.848 677.669 53.496C676.685 54.12 675.473 54.432 674.033 54.432C672.137 54.432 670.685 53.928 669.677 52.92C668.669 51.912 668.165 50.58 668.165 48.924C668.165 46.932 668.885 45.456 670.325 44.496C671.789 43.512 673.769 43.02 676.265 43.02H679.253V41.832C679.253 40.92 679.013 40.2 678.533 39.672C678.053 39.12 677.249 38.844 676.121 38.844C675.065 38.844 674.225 39.072 673.601 39.528C672.977 39.984 672.461 40.5 672.053 41.076L668.885 38.268C669.653 37.14 670.613 36.264 671.765 35.64C672.941 34.992 674.525 34.668 676.517 34.668C679.205 34.668 681.221 35.256 682.565 36.432C683.909 37.608 684.581 39.324 684.581 41.58V49.86H686.345V54H683.393ZM676.013 50.724C676.901 50.724 677.657 50.532 678.281 50.148C678.929 49.764 679.253 49.14 679.253 48.276V46.044H676.661C674.573 46.044 673.529 46.752 673.529 48.168V48.708C673.529 49.404 673.745 49.92 674.177 50.256C674.609 50.568 675.221 50.724 676.013 50.724ZM689.922 35.1H695.25V38.268H695.43C695.694 37.212 696.294 36.348 697.23 35.676C698.19 35.004 699.282 34.668 700.506 34.668C702.906 34.668 704.718 35.508 705.941 37.188C707.165 38.868 707.777 41.316 707.777 44.532C707.777 47.748 707.165 50.208 705.941 51.912C704.718 53.592 702.906 54.432 700.506 54.432C699.882 54.432 699.294 54.336 698.742 54.144C698.19 53.976 697.686 53.736 697.23 53.424C696.798 53.088 696.426 52.704 696.114 52.272C695.802 51.816 695.574 51.336 695.43 50.832H695.25V61.2H689.922V35.1ZM698.742 50.112C699.75 50.112 700.578 49.764 701.226 49.068C701.898 48.348 702.234 47.388 702.234 46.188V42.912C702.234 41.712 701.898 40.764 701.226 40.068C700.578 39.348 699.75 38.988 698.742 38.988C697.734 38.988 696.894 39.24 696.222 39.744C695.574 40.224 695.25 40.896 695.25 41.76V47.34C695.25 48.204 695.574 48.888 696.222 49.392C696.894 49.872 697.734 50.112 698.742 50.112ZM711.824 35.1H717.152V38.268H717.332C717.596 37.212 718.196 36.348 719.132 35.676C720.092 35.004 721.184 34.668 722.408 34.668C724.808 34.668 726.62 35.508 727.844 37.188C729.068 38.868 729.68 41.316 729.68 44.532C729.68 47.748 729.068 50.208 727.844 51.912C726.62 53.592 724.808 54.432 722.408 54.432C721.784 54.432 721.196 54.336 720.644 54.144C720.092 53.976 719.588 53.736 719.132 53.424C718.7 53.088 718.328 52.704 718.016 52.272C717.704 51.816 717.476 51.336 717.332 50.832H717.152V61.2H711.824V35.1ZM720.644 50.112C721.652 50.112 722.48 49.764 723.128 49.068C723.8 48.348 724.136 47.388 724.136 46.188V42.912C724.136 41.712 723.8 40.764 723.128 40.068C722.48 39.348 721.652 38.988 720.644 38.988C719.636 38.988 718.796 39.24 718.124 39.744C717.476 40.224 717.152 40.896 717.152 41.76V47.34C717.152 48.204 717.476 48.888 718.124 49.392C718.796 49.872 719.636 50.112 720.644 50.112Z" fill="#7D2CFF"/>
<path d="M543.604 139L535.504 113.872H541.048L544.792 125.932L546.772 133.816H546.88L548.788 125.932L552.532 113.872H557.896L549.724 139H543.604ZM567.516 139.432C566.076 139.432 564.792 139.204 563.664 138.748C562.536 138.268 561.576 137.608 560.784 136.768C560.016 135.904 559.428 134.86 559.02 133.636C558.636 132.412 558.444 131.044 558.444 129.532C558.444 128.044 558.636 126.7 559.02 125.5C559.404 124.276 559.968 123.232 560.712 122.368C561.48 121.504 562.416 120.844 563.52 120.388C564.624 119.908 565.884 119.668 567.3 119.668C568.86 119.668 570.192 119.932 571.296 120.46C572.424 120.988 573.336 121.696 574.032 122.584C574.752 123.472 575.268 124.504 575.58 125.68C575.916 126.832 576.084 128.044 576.084 129.316V130.9H563.952V131.188C563.952 132.436 564.288 133.432 564.96 134.176C565.632 134.896 566.688 135.256 568.128 135.256C569.232 135.256 570.132 135.04 570.828 134.608C571.524 134.152 572.172 133.612 572.772 132.988L575.436 136.3C574.596 137.284 573.492 138.052 572.124 138.604C570.78 139.156 569.244 139.432 567.516 139.432ZM567.408 123.592C566.328 123.592 565.476 123.952 564.852 124.672C564.252 125.368 563.952 126.304 563.952 127.48V127.768H570.576V127.444C570.576 126.292 570.312 125.368 569.784 124.672C569.28 123.952 568.488 123.592 567.408 123.592ZM579.847 139V120.1H585.175V124.204H585.355C585.451 123.676 585.619 123.172 585.859 122.692C586.099 122.188 586.411 121.744 586.795 121.36C587.203 120.976 587.683 120.676 588.235 120.46C588.787 120.22 589.435 120.1 590.179 120.1H591.115V125.068H589.783C588.223 125.068 587.059 125.272 586.291 125.68C585.547 126.088 585.175 126.844 585.175 127.948V139H579.847ZM597.066 118.084C595.986 118.084 595.194 117.844 594.69 117.364C594.21 116.86 593.97 116.224 593.97 115.456V114.664C593.97 113.896 594.21 113.272 594.69 112.792C595.194 112.288 595.986 112.036 597.066 112.036C598.146 112.036 598.926 112.288 599.406 112.792C599.91 113.272 600.162 113.896 600.162 114.664V115.456C600.162 116.224 599.91 116.86 599.406 117.364C598.926 117.844 598.146 118.084 597.066 118.084ZM594.402 120.1H599.73V139H594.402V120.1ZM605.639 124.24H602.975V120.1H605.639V117.868C605.639 116.044 606.119 114.676 607.079 113.764C608.039 112.828 609.443 112.36 611.291 112.36H614.747V116.5H610.967V120.1H623.027V139H617.699V124.24H610.967V139H605.639V124.24ZM620.363 118.084C619.283 118.084 618.491 117.844 617.987 117.364C617.507 116.86 617.267 116.224 617.267 115.456V114.664C617.267 113.896 617.507 113.272 617.987 112.792C618.491 112.288 619.283 112.036 620.363 112.036C621.443 112.036 622.223 112.288 622.703 112.792C623.207 113.272 623.459 113.896 623.459 114.664V115.456C623.459 116.224 623.207 116.86 622.703 117.364C622.223 117.844 621.443 118.084 620.363 118.084ZM639.603 135.832H639.423C639.279 136.336 639.051 136.816 638.739 137.272C638.427 137.704 638.043 138.088 637.587 138.424C637.155 138.736 636.651 138.976 636.075 139.144C635.523 139.336 634.947 139.432 634.347 139.432C631.947 139.432 630.135 138.592 628.911 136.912C627.687 135.208 627.075 132.748 627.075 129.532C627.075 126.316 627.687 123.868 628.911 122.188C630.135 120.508 631.947 119.668 634.347 119.668C635.571 119.668 636.651 120.004 637.587 120.676C638.547 121.348 639.159 122.212 639.423 123.268H639.603V120.1H644.931V146.2H639.603V135.832ZM636.111 135.112C637.119 135.112 637.947 134.872 638.595 134.392C639.267 133.888 639.603 133.204 639.603 132.34V126.76C639.603 125.896 639.267 125.224 638.595 124.744C637.947 124.24 637.119 123.988 636.111 123.988C635.103 123.988 634.263 124.348 633.591 125.068C632.943 125.764 632.619 126.712 632.619 127.912V131.188C632.619 132.388 632.943 133.348 633.591 134.068C634.263 134.764 635.103 135.112 636.111 135.112ZM661.074 135.832H660.894C660.726 136.312 660.498 136.768 660.21 137.2C659.946 137.632 659.598 138.016 659.166 138.352C658.734 138.688 658.218 138.952 657.618 139.144C657.042 139.336 656.37 139.432 655.602 139.432C653.658 139.432 652.182 138.796 651.174 137.524C650.19 136.228 649.698 134.38 649.698 131.98V120.1H655.026V131.512C655.026 132.664 655.23 133.552 655.638 134.176C656.046 134.8 656.742 135.112 657.726 135.112C658.134 135.112 658.542 135.052 658.95 134.932C659.358 134.812 659.718 134.644 660.03 134.428C660.342 134.188 660.594 133.9 660.786 133.564C660.978 133.228 661.074 132.832 661.074 132.376V120.1H666.402V139H661.074V135.832ZM679.243 139.432C677.803 139.432 676.519 139.204 675.391 138.748C674.263 138.268 673.303 137.608 672.511 136.768C671.743 135.904 671.155 134.86 670.747 133.636C670.363 132.412 670.171 131.044 670.171 129.532C670.171 128.044 670.363 126.7 670.747 125.5C671.131 124.276 671.695 123.232 672.439 122.368C673.207 121.504 674.143 120.844 675.247 120.388C676.351 119.908 677.611 119.668 679.027 119.668C680.587 119.668 681.919 119.932 683.023 120.46C684.151 120.988 685.063 121.696 685.759 122.584C686.479 123.472 686.995 124.504 687.307 125.68C687.643 126.832 687.811 128.044 687.811 129.316V130.9H675.679V131.188C675.679 132.436 676.015 133.432 676.687 134.176C677.359 134.896 678.415 135.256 679.855 135.256C680.959 135.256 681.859 135.04 682.555 134.608C683.251 134.152 683.899 133.612 684.499 132.988L687.163 136.3C686.323 137.284 685.219 138.052 683.851 138.604C682.507 139.156 680.971 139.432 679.243 139.432ZM679.135 123.592C678.055 123.592 677.203 123.952 676.579 124.672C675.979 125.368 675.679 126.304 675.679 127.48V127.768H682.303V127.444C682.303 126.292 682.039 125.368 681.511 124.672C681.007 123.952 680.215 123.592 679.135 123.592ZM706.49 139.432C704.666 139.432 703.13 139.144 701.882 138.568C700.634 137.968 699.518 137.128 698.534 136.048L701.666 132.88C702.338 133.624 703.082 134.212 703.898 134.644C704.714 135.076 705.638 135.292 706.67 135.292C707.726 135.292 708.458 135.136 708.866 134.824C709.274 134.488 709.478 134.044 709.478 133.492C709.478 132.604 708.842 132.076 707.57 131.908L705.518 131.656C701.27 131.128 699.146 129.184 699.146 125.824C699.146 124.912 699.314 124.084 699.65 123.34C700.01 122.572 700.502 121.924 701.126 121.396C701.774 120.844 702.542 120.424 703.43 120.136C704.342 119.824 705.362 119.668 706.49 119.668C707.474 119.668 708.338 119.74 709.082 119.884C709.85 120.004 710.522 120.196 711.098 120.46C711.698 120.7 712.238 121.012 712.718 121.396C713.222 121.756 713.714 122.164 714.194 122.62L711.134 125.752C710.534 125.152 709.85 124.684 709.082 124.348C708.338 123.988 707.57 123.808 706.778 123.808C705.866 123.808 705.218 123.952 704.834 124.24C704.45 124.528 704.258 124.912 704.258 125.392C704.258 125.896 704.39 126.292 704.654 126.58C704.942 126.844 705.47 127.036 706.238 127.156L708.362 127.444C712.514 127.996 714.59 129.892 714.59 133.132C714.59 134.044 714.398 134.884 714.014 135.652C713.63 136.42 713.078 137.092 712.358 137.668C711.662 138.22 710.81 138.652 709.802 138.964C708.818 139.276 707.714 139.432 706.49 139.432ZM729.382 135.832H729.202C729.034 136.312 728.806 136.768 728.518 137.2C728.254 137.632 727.906 138.016 727.474 138.352C727.042 138.688 726.526 138.952 725.926 139.144C725.35 139.336 724.678 139.432 723.91 139.432C721.966 139.432 720.49 138.796 719.482 137.524C718.498 136.228 718.006 134.38 718.006 131.98V120.1H723.334V131.512C723.334 132.664 723.538 133.552 723.946 134.176C724.354 134.8 725.05 135.112 726.034 135.112C726.442 135.112 726.85 135.052 727.258 134.932C727.666 134.812 728.026 134.644 728.338 134.428C728.65 134.188 728.902 133.9 729.094 133.564C729.286 133.228 729.382 132.832 729.382 132.376V120.1H734.71V139H729.382V135.832ZM753.636 139C752.676 139 751.872 138.7 751.224 138.1C750.6 137.5 750.204 136.696 750.036 135.688H749.82C749.532 136.912 748.896 137.848 747.912 138.496C746.928 139.12 745.716 139.432 744.276 139.432C742.38 139.432 740.928 138.928 739.92 137.92C738.912 136.912 738.408 135.58 738.408 133.924C738.408 131.932 739.128 130.456 740.568 129.496C742.032 128.512 744.012 128.02 746.508 128.02H749.496V126.832C749.496 125.92 749.256 125.2 748.776 124.672C748.296 124.12 747.492 123.844 746.364 123.844C745.308 123.844 744.468 124.072 743.844 124.528C743.22 124.984 742.704 125.5 742.296 126.076L739.128 123.268C739.896 122.14 740.856 121.264 742.008 120.64C743.184 119.992 744.768 119.668 746.76 119.668C749.448 119.668 751.464 120.256 752.808 121.432C754.152 122.608 754.824 124.324 754.824 126.58V134.86H756.588V139H753.636ZM746.256 135.724C747.144 135.724 747.9 135.532 748.524 135.148C749.172 134.764 749.496 134.14 749.496 133.276V131.044H746.904C744.816 131.044 743.772 131.752 743.772 133.168V133.708C743.772 134.404 743.988 134.92 744.42 135.256C744.852 135.568 745.464 135.724 746.256 135.724ZM776.304 139.432C774.888 139.432 773.628 139.204 772.524 138.748C771.42 138.268 770.496 137.608 769.752 136.768C769.008 135.904 768.444 134.86 768.06 133.636C767.676 132.412 767.484 131.044 767.484 129.532C767.484 128.02 767.676 126.664 768.06 125.464C768.444 124.24 769.008 123.196 769.752 122.332C770.496 121.468 771.42 120.808 772.524 120.352C773.628 119.896 774.888 119.668 776.304 119.668C778.224 119.668 779.82 120.1 781.092 120.964C782.388 121.828 783.312 123.04 783.864 124.6L779.544 126.472C779.376 125.752 779.028 125.14 778.5 124.636C777.972 124.132 777.24 123.88 776.304 123.88C775.224 123.88 774.408 124.24 773.856 124.96C773.304 125.656 773.028 126.604 773.028 127.804V131.332C773.028 132.532 773.304 133.48 773.856 134.176C774.408 134.872 775.224 135.22 776.304 135.22C777.264 135.22 778.02 134.968 778.572 134.464C779.148 133.936 779.568 133.252 779.832 132.412L783.972 134.212C783.348 136.012 782.376 137.332 781.056 138.172C779.76 139.012 778.176 139.432 776.304 139.432ZM794.761 139.432C793.369 139.432 792.121 139.204 791.017 138.748C789.937 138.292 789.013 137.632 788.245 136.768C787.501 135.904 786.925 134.86 786.517 133.636C786.109 132.412 785.905 131.044 785.905 129.532C785.905 128.02 786.109 126.652 786.517 125.428C786.925 124.204 787.501 123.172 788.245 122.332C789.013 121.468 789.937 120.808 791.017 120.352C792.121 119.896 793.369 119.668 794.761 119.668C796.153 119.668 797.389 119.896 798.469 120.352C799.573 120.808 800.497 121.468 801.241 122.332C802.009 123.172 802.597 124.204 803.005 125.428C803.413 126.652 803.617 128.02 803.617 129.532C803.617 131.044 803.413 132.412 803.005 133.636C802.597 134.86 802.009 135.904 801.241 136.768C800.497 137.632 799.573 138.292 798.469 138.748C797.389 139.204 796.153 139.432 794.761 139.432ZM794.761 135.22C795.817 135.22 796.633 134.896 797.209 134.248C797.785 133.6 798.073 132.676 798.073 131.476V127.624C798.073 126.424 797.785 125.5 797.209 124.852C796.633 124.204 795.817 123.88 794.761 123.88C793.705 123.88 792.889 124.204 792.313 124.852C791.737 125.5 791.449 126.424 791.449 127.624V131.476C791.449 132.676 791.737 133.6 792.313 134.248C792.889 134.896 793.705 135.22 794.761 135.22ZM807.414 139V120.1H812.742V123.304H812.958C813.294 122.32 813.882 121.468 814.722 120.748C815.562 120.028 816.726 119.668 818.214 119.668C820.158 119.668 821.622 120.316 822.606 121.612C823.614 122.908 824.118 124.756 824.118 127.156V139H818.79V127.588C818.79 126.364 818.598 125.464 818.214 124.888C817.83 124.288 817.146 123.988 816.162 123.988C815.73 123.988 815.31 124.048 814.902 124.168C814.494 124.264 814.122 124.432 813.786 124.672C813.474 124.912 813.222 125.212 813.03 125.572C812.838 125.908 812.742 126.304 812.742 126.76V139H807.414ZM835.483 139C833.635 139 832.231 138.532 831.271 137.596C830.335 136.66 829.867 135.292 829.867 133.492V124.24H827.203V120.1H828.535C829.255 120.1 829.747 119.932 830.011 119.596C830.275 119.236 830.407 118.732 830.407 118.084V114.988H835.195V120.1H838.939V124.24H835.195V134.86H838.651V139H835.483ZM856.608 139C855.648 139 854.844 138.7 854.196 138.1C853.572 137.5 853.176 136.696 853.008 135.688H852.792C852.504 136.912 851.868 137.848 850.884 138.496C849.9 139.12 848.688 139.432 847.248 139.432C845.352 139.432 843.9 138.928 842.892 137.92C841.884 136.912 841.38 135.58 841.38 133.924C841.38 131.932 842.1 130.456 843.54 129.496C845.004 128.512 846.984 128.02 849.48 128.02H852.468V126.832C852.468 125.92 852.228 125.2 851.748 124.672C851.268 124.12 850.464 123.844 849.336 123.844C848.28 123.844 847.44 124.072 846.816 124.528C846.192 124.984 845.676 125.5 845.268 126.076L842.1 123.268C842.868 122.14 843.828 121.264 844.98 120.64C846.156 119.992 847.74 119.668 849.732 119.668C852.42 119.668 854.436 120.256 855.78 121.432C857.124 122.608 857.796 124.324 857.796 126.58V134.86H859.56V139H856.608ZM849.228 135.724C850.116 135.724 850.872 135.532 851.496 135.148C852.144 134.764 852.468 134.14 852.468 133.276V131.044H849.876C847.788 131.044 846.744 131.752 846.744 133.168V133.708C846.744 134.404 846.96 134.92 847.392 135.256C847.824 135.568 848.436 135.724 849.228 135.724Z" fill="#7D2CFF"/>
<path d="M547.924 223.432C546.22 223.432 544.684 223.168 543.316 222.64C541.948 222.088 540.784 221.284 539.824 220.228C538.864 219.148 538.12 217.816 537.592 216.232C537.064 214.624 536.8 212.752 536.8 210.616C536.8 208.504 537.064 206.632 537.592 205C538.12 203.344 538.864 201.964 539.824 200.86C540.784 199.732 541.948 198.88 543.316 198.304C544.684 197.728 546.22 197.44 547.924 197.44C550.252 197.44 552.172 197.92 553.684 198.88C555.196 199.816 556.408 201.304 557.32 203.344L552.604 205.792C552.268 204.736 551.74 203.896 551.02 203.272C550.324 202.624 549.292 202.3 547.924 202.3C546.316 202.3 545.02 202.828 544.036 203.884C543.076 204.916 542.596 206.428 542.596 208.42V212.452C542.596 214.444 543.076 215.968 544.036 217.024C545.02 218.056 546.316 218.572 547.924 218.572C549.268 218.572 550.336 218.212 551.128 217.492C551.944 216.748 552.544 215.86 552.928 214.828L557.392 217.42C556.456 219.34 555.22 220.828 553.684 221.884C552.172 222.916 550.252 223.432 547.924 223.432ZM574.901 223C573.941 223 573.137 222.7 572.489 222.1C571.865 221.5 571.469 220.696 571.301 219.688H571.085C570.797 220.912 570.161 221.848 569.177 222.496C568.193 223.12 566.981 223.432 565.541 223.432C563.645 223.432 562.193 222.928 561.185 221.92C560.177 220.912 559.673 219.58 559.673 217.924C559.673 215.932 560.393 214.456 561.833 213.496C563.297 212.512 565.277 212.02 567.773 212.02H570.761V210.832C570.761 209.92 570.521 209.2 570.041 208.672C569.561 208.12 568.757 207.844 567.629 207.844C566.573 207.844 565.733 208.072 565.109 208.528C564.485 208.984 563.969 209.5 563.561 210.076L560.393 207.268C561.161 206.14 562.121 205.264 563.273 204.64C564.449 203.992 566.033 203.668 568.025 203.668C570.713 203.668 572.729 204.256 574.073 205.432C575.417 206.608 576.089 208.324 576.089 210.58V218.86H577.853V223H574.901ZM567.521 219.724C568.409 219.724 569.165 219.532 569.789 219.148C570.437 218.764 570.761 218.14 570.761 217.276V215.044H568.169C566.081 215.044 565.037 215.752 565.037 217.168V217.708C565.037 218.404 565.253 218.92 565.685 219.256C566.117 219.568 566.729 219.724 567.521 219.724ZM581.429 223V204.1H586.757V208.204H586.937C587.033 207.676 587.201 207.172 587.441 206.692C587.681 206.188 587.993 205.744 588.377 205.36C588.785 204.976 589.265 204.676 589.817 204.46C590.369 204.22 591.017 204.1 591.761 204.1H592.697V209.068H591.365C589.805 209.068 588.641 209.272 587.873 209.68C587.129 210.088 586.757 210.844 586.757 211.948V223H581.429ZM595.984 223V204.1H601.312V208.204H601.492C601.588 207.676 601.756 207.172 601.996 206.692C602.236 206.188 602.548 205.744 602.932 205.36C603.34 204.976 603.82 204.676 604.372 204.46C604.924 204.22 605.572 204.1 606.316 204.1H607.252V209.068H605.92C604.36 209.068 603.196 209.272 602.428 209.68C601.684 210.088 601.312 210.844 601.312 211.948V223H595.984ZM618.247 223.432C616.807 223.432 615.523 223.204 614.395 222.748C613.267 222.268 612.307 221.608 611.515 220.768C610.747 219.904 610.159 218.86 609.751 217.636C609.367 216.412 609.175 215.044 609.175 213.532C609.175 212.044 609.367 210.7 609.751 209.5C610.135 208.276 610.699 207.232 611.443 206.368C612.211 205.504 613.147 204.844 614.251 204.388C615.355 203.908 616.615 203.668 618.031 203.668C619.591 203.668 620.923 203.932 622.027 204.46C623.155 204.988 624.067 205.696 624.763 206.584C625.483 207.472 625.999 208.504 626.311 209.68C626.647 210.832 626.815 212.044 626.815 213.316V214.9H614.683V215.188C614.683 216.436 615.019 217.432 615.691 218.176C616.363 218.896 617.419 219.256 618.859 219.256C619.963 219.256 620.863 219.04 621.559 218.608C622.255 218.152 622.903 217.612 623.503 216.988L626.167 220.3C625.327 221.284 624.223 222.052 622.855 222.604C621.511 223.156 619.975 223.432 618.247 223.432ZM618.139 207.592C617.059 207.592 616.207 207.952 615.583 208.672C614.983 209.368 614.683 210.304 614.683 211.48V211.768H621.307V211.444C621.307 210.292 621.043 209.368 620.515 208.672C620.011 207.952 619.219 207.592 618.139 207.592ZM648.074 224.368C648.074 225.376 647.894 226.264 647.534 227.032C647.198 227.8 646.634 228.448 645.842 228.976C645.05 229.528 643.994 229.936 642.674 230.2C641.378 230.488 639.77 230.632 637.85 230.632C636.218 230.632 634.826 230.524 633.674 230.308C632.546 230.116 631.622 229.828 630.902 229.444C630.206 229.084 629.69 228.628 629.354 228.076C629.042 227.548 628.886 226.936 628.886 226.24C628.886 225.184 629.198 224.356 629.822 223.756C630.446 223.156 631.31 222.784 632.414 222.64V222.244C631.502 222.076 630.818 221.692 630.362 221.092C629.906 220.468 629.678 219.748 629.678 218.932C629.678 218.428 629.774 217.996 629.966 217.636C630.182 217.252 630.446 216.928 630.758 216.664C631.094 216.376 631.478 216.148 631.91 215.98C632.342 215.812 632.774 215.68 633.206 215.584V215.44C632.054 214.912 631.202 214.192 630.65 213.28C630.098 212.344 629.822 211.264 629.822 210.04C629.822 208.12 630.482 206.584 631.802 205.432C633.146 204.256 635.186 203.668 637.922 203.668C639.17 203.668 640.238 203.788 641.126 204.028V203.308C641.126 202.3 641.366 201.58 641.846 201.148C642.35 200.692 643.058 200.464 643.97 200.464H646.958V204.424H642.782V204.64C643.886 205.168 644.702 205.9 645.23 206.836C645.758 207.748 646.022 208.816 646.022 210.04C646.022 211.936 645.35 213.46 644.006 214.612C642.686 215.74 640.658 216.304 637.922 216.304C636.698 216.304 635.582 216.172 634.574 215.908C634.022 216.268 633.746 216.772 633.746 217.42C633.746 217.876 633.914 218.236 634.25 218.5C634.61 218.74 635.198 218.86 636.014 218.86H641.486C643.79 218.86 645.458 219.34 646.49 220.3C647.546 221.26 648.074 222.616 648.074 224.368ZM643.07 225.088C643.07 224.536 642.854 224.116 642.422 223.828C641.99 223.54 641.234 223.396 640.154 223.396H633.674C633.434 223.636 633.254 223.9 633.134 224.188C633.038 224.5 632.99 224.8 632.99 225.088C632.99 225.784 633.29 226.288 633.89 226.6C634.49 226.936 635.51 227.104 636.95 227.104H639.11C640.55 227.104 641.57 226.936 642.17 226.6C642.77 226.288 643.07 225.784 643.07 225.088ZM637.922 212.812C638.978 212.812 639.758 212.596 640.262 212.164C640.79 211.708 641.054 211.06 641.054 210.22V209.788C641.054 208.948 640.79 208.312 640.262 207.88C639.758 207.424 638.978 207.196 637.922 207.196C636.866 207.196 636.074 207.424 635.546 207.88C635.042 208.312 634.79 208.948 634.79 209.788V210.22C634.79 211.06 635.042 211.708 635.546 212.164C636.074 212.596 636.866 212.812 637.922 212.812ZM661.46 219.832H661.28C661.112 220.312 660.884 220.768 660.596 221.2C660.332 221.632 659.984 222.016 659.552 222.352C659.12 222.688 658.604 222.952 658.004 223.144C657.428 223.336 656.756 223.432 655.988 223.432C654.044 223.432 652.568 222.796 651.56 221.524C650.576 220.228 650.084 218.38 650.084 215.98V204.1H655.412V215.512C655.412 216.664 655.616 217.552 656.024 218.176C656.432 218.8 657.128 219.112 658.112 219.112C658.52 219.112 658.928 219.052 659.336 218.932C659.744 218.812 660.104 218.644 660.416 218.428C660.728 218.188 660.98 217.9 661.172 217.564C661.364 217.228 661.46 216.832 661.46 216.376V204.1H666.788V223H661.46V219.832ZM679.63 223.432C678.19 223.432 676.906 223.204 675.778 222.748C674.65 222.268 673.69 221.608 672.898 220.768C672.13 219.904 671.542 218.86 671.134 217.636C670.75 216.412 670.558 215.044 670.558 213.532C670.558 212.044 670.75 210.7 671.134 209.5C671.518 208.276 672.082 207.232 672.826 206.368C673.594 205.504 674.53 204.844 675.634 204.388C676.738 203.908 677.998 203.668 679.414 203.668C680.974 203.668 682.306 203.932 683.41 204.46C684.538 204.988 685.45 205.696 686.146 206.584C686.866 207.472 687.382 208.504 687.694 209.68C688.03 210.832 688.198 212.044 688.198 213.316V214.9H676.066V215.188C676.066 216.436 676.402 217.432 677.074 218.176C677.746 218.896 678.802 219.256 680.242 219.256C681.346 219.256 682.246 219.04 682.942 218.608C683.638 218.152 684.286 217.612 684.886 216.988L687.55 220.3C686.71 221.284 685.606 222.052 684.238 222.604C682.894 223.156 681.358 223.432 679.63 223.432ZM679.522 207.592C678.442 207.592 677.59 207.952 676.966 208.672C676.366 209.368 676.066 210.304 676.066 211.48V211.768H682.69V211.444C682.69 210.292 682.426 209.368 681.898 208.672C681.394 207.952 680.602 207.592 679.522 207.592ZM706.876 223.432C705.052 223.432 703.516 223.144 702.268 222.568C701.02 221.968 699.904 221.128 698.92 220.048L702.052 216.88C702.724 217.624 703.468 218.212 704.284 218.644C705.1 219.076 706.024 219.292 707.056 219.292C708.112 219.292 708.844 219.136 709.252 218.824C709.66 218.488 709.864 218.044 709.864 217.492C709.864 216.604 709.228 216.076 707.956 215.908L705.904 215.656C701.656 215.128 699.532 213.184 699.532 209.824C699.532 208.912 699.7 208.084 700.036 207.34C700.396 206.572 700.888 205.924 701.512 205.396C702.16 204.844 702.928 204.424 703.816 204.136C704.728 203.824 705.748 203.668 706.876 203.668C707.86 203.668 708.724 203.74 709.468 203.884C710.236 204.004 710.908 204.196 711.484 204.46C712.084 204.7 712.624 205.012 713.104 205.396C713.608 205.756 714.1 206.164 714.58 206.62L711.52 209.752C710.92 209.152 710.236 208.684 709.468 208.348C708.724 207.988 707.956 207.808 707.164 207.808C706.252 207.808 705.604 207.952 705.22 208.24C704.836 208.528 704.644 208.912 704.644 209.392C704.644 209.896 704.776 210.292 705.04 210.58C705.328 210.844 705.856 211.036 706.624 211.156L708.748 211.444C712.9 211.996 714.976 213.892 714.976 217.132C714.976 218.044 714.784 218.884 714.4 219.652C714.016 220.42 713.464 221.092 712.744 221.668C712.048 222.22 711.196 222.652 710.188 222.964C709.204 223.276 708.1 223.432 706.876 223.432ZM726.493 223.432C725.053 223.432 723.769 223.204 722.641 222.748C721.513 222.268 720.553 221.608 719.761 220.768C718.993 219.904 718.405 218.86 717.997 217.636C717.613 216.412 717.421 215.044 717.421 213.532C717.421 212.044 717.613 210.7 717.997 209.5C718.381 208.276 718.945 207.232 719.689 206.368C720.457 205.504 721.393 204.844 722.497 204.388C723.601 203.908 724.861 203.668 726.277 203.668C727.837 203.668 729.169 203.932 730.273 204.46C731.401 204.988 732.313 205.696 733.009 206.584C733.729 207.472 734.245 208.504 734.557 209.68C734.893 210.832 735.061 212.044 735.061 213.316V214.9H722.929V215.188C722.929 216.436 723.265 217.432 723.937 218.176C724.609 218.896 725.665 219.256 727.105 219.256C728.209 219.256 729.109 219.04 729.805 218.608C730.501 218.152 731.149 217.612 731.749 216.988L734.413 220.3C733.573 221.284 732.469 222.052 731.101 222.604C729.757 223.156 728.221 223.432 726.493 223.432ZM726.385 207.592C725.305 207.592 724.453 207.952 723.829 208.672C723.229 209.368 722.929 210.304 722.929 211.48V211.768H729.553V211.444C729.553 210.292 729.289 209.368 728.761 208.672C728.257 207.952 727.465 207.592 726.385 207.592ZM749.984 219.832H749.804C749.636 220.312 749.408 220.768 749.12 221.2C748.856 221.632 748.508 222.016 748.076 222.352C747.644 222.688 747.128 222.952 746.528 223.144C745.952 223.336 745.28 223.432 744.512 223.432C742.568 223.432 741.092 222.796 740.084 221.524C739.1 220.228 738.608 218.38 738.608 215.98V204.1H743.936V215.512C743.936 216.664 744.14 217.552 744.548 218.176C744.956 218.8 745.652 219.112 746.636 219.112C747.044 219.112 747.452 219.052 747.86 218.932C748.268 218.812 748.628 218.644 748.94 218.428C749.252 218.188 749.504 217.9 749.696 217.564C749.888 217.228 749.984 216.832 749.984 216.376V204.1H755.312V223H749.984V219.832ZM775.185 223.432C773.361 223.432 771.825 223.144 770.577 222.568C769.329 221.968 768.213 221.128 767.229 220.048L770.361 216.88C771.033 217.624 771.777 218.212 772.593 218.644C773.409 219.076 774.333 219.292 775.365 219.292C776.421 219.292 777.153 219.136 777.561 218.824C777.969 218.488 778.173 218.044 778.173 217.492C778.173 216.604 777.537 216.076 776.265 215.908L774.213 215.656C769.965 215.128 767.841 213.184 767.841 209.824C767.841 208.912 768.009 208.084 768.345 207.34C768.705 206.572 769.197 205.924 769.821 205.396C770.469 204.844 771.237 204.424 772.125 204.136C773.037 203.824 774.057 203.668 775.185 203.668C776.169 203.668 777.033 203.74 777.777 203.884C778.545 204.004 779.217 204.196 779.793 204.46C780.393 204.7 780.933 205.012 781.413 205.396C781.917 205.756 782.409 206.164 782.889 206.62L779.829 209.752C779.229 209.152 778.545 208.684 777.777 208.348C777.033 207.988 776.265 207.808 775.473 207.808C774.561 207.808 773.913 207.952 773.529 208.24C773.145 208.528 772.953 208.912 772.953 209.392C772.953 209.896 773.085 210.292 773.349 210.58C773.637 210.844 774.165 211.036 774.933 211.156L777.057 211.444C781.209 211.996 783.285 213.892 783.285 217.132C783.285 218.044 783.093 218.884 782.709 219.652C782.325 220.42 781.773 221.092 781.053 221.668C780.357 222.22 779.505 222.652 778.497 222.964C777.513 223.276 776.409 223.432 775.185 223.432ZM800.886 223C799.926 223 799.122 222.7 798.474 222.1C797.85 221.5 797.454 220.696 797.286 219.688H797.07C796.782 220.912 796.146 221.848 795.162 222.496C794.178 223.12 792.966 223.432 791.526 223.432C789.63 223.432 788.178 222.928 787.17 221.92C786.162 220.912 785.658 219.58 785.658 217.924C785.658 215.932 786.378 214.456 787.818 213.496C789.282 212.512 791.262 212.02 793.758 212.02H796.746V210.832C796.746 209.92 796.506 209.2 796.026 208.672C795.546 208.12 794.742 207.844 793.614 207.844C792.558 207.844 791.718 208.072 791.094 208.528C790.47 208.984 789.954 209.5 789.546 210.076L786.378 207.268C787.146 206.14 788.106 205.264 789.258 204.64C790.434 203.992 792.018 203.668 794.01 203.668C796.698 203.668 798.714 204.256 800.058 205.432C801.402 206.608 802.074 208.324 802.074 210.58V218.86H803.838V223H800.886ZM793.506 219.724C794.394 219.724 795.15 219.532 795.774 219.148C796.422 218.764 796.746 218.14 796.746 217.276V215.044H794.154C792.066 215.044 791.022 215.752 791.022 217.168V217.708C791.022 218.404 791.238 218.92 791.67 219.256C792.102 219.568 792.714 219.724 793.506 219.724ZM812.706 223C810.882 223 809.538 222.556 808.674 221.668C807.834 220.78 807.414 219.496 807.414 217.816V196.36H812.742V218.86H815.118V223H812.706ZM829.904 219.832H829.724C829.58 220.336 829.352 220.816 829.04 221.272C828.728 221.704 828.344 222.088 827.888 222.424C827.456 222.736 826.952 222.976 826.376 223.144C825.824 223.336 825.248 223.432 824.648 223.432C822.248 223.432 820.436 222.592 819.212 220.912C817.988 219.208 817.376 216.748 817.376 213.532C817.376 210.316 817.988 207.868 819.212 206.188C820.436 204.508 822.248 203.668 824.648 203.668C825.872 203.668 826.952 204.004 827.888 204.676C828.848 205.348 829.46 206.212 829.724 207.268H829.904V196.36H835.232V223H829.904V219.832ZM826.412 219.112C827.42 219.112 828.248 218.872 828.896 218.392C829.568 217.888 829.904 217.204 829.904 216.34V210.76C829.904 209.896 829.568 209.224 828.896 208.744C828.248 208.24 827.42 207.988 826.412 207.988C825.404 207.988 824.564 208.348 823.892 209.068C823.244 209.764 822.92 210.712 822.92 211.912V215.188C822.92 216.388 823.244 217.348 823.892 218.068C824.564 218.764 825.404 219.112 826.412 219.112ZM847.882 223.432C846.49 223.432 845.242 223.204 844.138 222.748C843.058 222.292 842.134 221.632 841.366 220.768C840.622 219.904 840.046 218.86 839.638 217.636C839.23 216.412 839.026 215.044 839.026 213.532C839.026 212.02 839.23 210.652 839.638 209.428C840.046 208.204 840.622 207.172 841.366 206.332C842.134 205.468 843.058 204.808 844.138 204.352C845.242 203.896 846.49 203.668 847.882 203.668C849.274 203.668 850.51 203.896 851.59 204.352C852.694 204.808 853.618 205.468 854.362 206.332C855.13 207.172 855.718 208.204 856.126 209.428C856.534 210.652 856.738 212.02 856.738 213.532C856.738 215.044 856.534 216.412 856.126 217.636C855.718 218.86 855.13 219.904 854.362 220.768C853.618 221.632 852.694 222.292 851.59 222.748C850.51 223.204 849.274 223.432 847.882 223.432ZM847.882 219.22C848.938 219.22 849.754 218.896 850.33 218.248C850.906 217.6 851.194 216.676 851.194 215.476V211.624C851.194 210.424 850.906 209.5 850.33 208.852C849.754 208.204 848.938 207.88 847.882 207.88C846.826 207.88 846.01 208.204 845.434 208.852C844.858 209.5 844.57 210.424 844.57 211.624V215.476C844.57 216.676 844.858 217.6 845.434 218.248C846.01 218.896 846.826 219.22 847.882 219.22Z" fill="#7D2CFF"/>
</svg>
