<svg width="767" height="172" viewBox="0 0 767 172" fill="none" xmlns="http://www.w3.org/2000/svg">
<path d="M7.63721 69C7.23721 69 6.86221 68.85 6.51221 68.55C6.21221 68.2 6.06221 67.825 6.06221 67.425C6.06221 67.175 6.08721 66.95 6.13721 66.75L23.7622 18.6C23.9122 18.05 24.2122 17.575 24.6622 17.175C25.1622 16.725 25.8372 16.5 26.6872 16.5H37.7872C38.6372 16.5 39.2872 16.725 39.7372 17.175C40.2372 17.575 40.5622 18.05 40.7122 18.6L58.2622 66.75C58.3622 66.95 58.4122 67.175 58.4122 67.425C58.4122 67.825 58.2372 68.2 57.8872 68.55C57.5872 68.85 57.2122 69 56.7622 69H47.5372C46.7872 69 46.2122 68.825 45.8122 68.475C45.4622 68.075 45.2372 67.725 45.1372 67.425L42.2122 59.775H22.1872L19.3372 67.425C19.2372 67.725 19.0122 68.075 18.6622 68.475C18.3122 68.825 17.7122 69 16.8622 69H7.63721ZM25.2622 48.975H39.2122L32.1622 29.175L25.2622 48.975ZM662.463 69C661.913 69 661.463 68.825 661.113 68.475C660.763 68.125 660.588 67.675 660.588 67.125V18.375C660.588 17.825 660.763 17.375 661.113 17.025C661.463 16.675 661.913 16.5 662.463 16.5H681.963C686.863 16.5 691.038 17.3 694.488 18.9C697.938 20.45 700.588 22.75 702.438 25.8C704.288 28.8 705.288 32.525 705.438 36.975C705.488 39.175 705.513 41.1 705.513 42.75C705.513 44.4 705.488 46.3 705.438 48.45C705.238 53.1 704.238 56.95 702.438 60C700.688 63.05 698.113 65.325 694.713 66.825C691.363 68.275 687.238 69 682.338 69H662.463ZM674.013 58.2H681.963C684.113 58.2 685.888 57.875 687.288 57.225C688.738 56.525 689.813 55.45 690.513 54C691.263 52.55 691.663 50.65 691.713 48.3C691.813 46.85 691.863 45.55 691.863 44.4C691.913 43.25 691.913 42.1 691.863 40.95C691.863 39.8 691.813 38.525 691.713 37.125C691.613 33.725 690.713 31.25 689.013 29.7C687.363 28.1 684.888 27.3 681.588 27.3H674.013V58.2ZM710.176 69C709.776 69 709.401 68.85 709.051 68.55C708.751 68.2 708.601 67.825 708.601 67.425C708.601 67.175 708.626 66.95 708.676 66.75L726.301 18.6C726.451 18.05 726.751 17.575 727.201 17.175C727.701 16.725 728.376 16.5 729.226 16.5H740.326C741.176 16.5 741.826 16.725 742.276 17.175C742.776 17.575 743.101 18.05 743.251 18.6L760.801 66.75C760.901 66.95 760.951 67.175 760.951 67.425C760.951 67.825 760.776 68.2 760.426 68.55C760.126 68.85 759.751 69 759.301 69H750.076C749.326 69 748.751 68.825 748.351 68.475C748.001 68.075 747.776 67.725 747.676 67.425L744.751 59.775H724.726L721.876 67.425C721.776 67.725 721.551 68.075 721.201 68.475C720.851 68.825 720.251 69 719.401 69H710.176ZM727.801 48.975H741.751L734.701 29.175L727.801 48.975ZM87.439 155C86.889 155 86.439 154.825 86.089 154.475C85.739 154.125 85.564 153.675 85.564 153.125V104.375C85.564 103.825 85.739 103.375 86.089 103.025C86.439 102.675 86.889 102.5 87.439 102.5H95.389C96.239 102.5 96.839 102.7 97.189 103.1C97.589 103.45 97.839 103.725 97.939 103.925L116.239 132.8V104.375C116.239 103.825 116.414 103.375 116.764 103.025C117.114 102.675 117.564 102.5 118.114 102.5H127.114C127.664 102.5 128.114 102.675 128.464 103.025C128.814 103.375 128.989 103.825 128.989 104.375V153.125C128.989 153.625 128.814 154.075 128.464 154.475C128.114 154.825 127.664 155 127.114 155H119.089C118.289 155 117.689 154.8 117.289 154.4C116.939 154 116.714 153.725 116.614 153.575L98.314 125.825V153.125C98.314 153.675 98.139 154.125 97.789 154.475C97.439 154.825 96.989 155 96.439 155H87.439ZM160.92 155.75C156.32 155.75 152.32 155 148.92 153.5C145.52 152 142.87 149.75 140.97 146.75C139.07 143.7 138.02 139.9 137.82 135.35C137.77 133.2 137.745 131.05 137.745 128.9C137.745 126.75 137.77 124.575 137.82 122.375C138.02 117.875 139.07 114.1 140.97 111.05C142.92 107.95 145.595 105.625 148.995 104.075C152.395 102.525 156.37 101.75 160.92 101.75C165.42 101.75 169.37 102.525 172.77 104.075C176.22 105.625 178.92 107.95 180.87 111.05C182.82 114.1 183.87 117.875 184.02 122.375C184.12 124.575 184.17 126.75 184.17 128.9C184.17 131.05 184.12 133.2 184.02 135.35C183.82 139.9 182.77 143.7 180.87 146.75C178.97 149.75 176.32 152 172.92 153.5C169.52 155 165.52 155.75 160.92 155.75ZM160.92 144.95C163.57 144.95 165.72 144.15 167.37 142.55C169.07 140.95 169.97 138.4 170.07 134.9C170.17 132.7 170.22 130.625 170.22 128.675C170.22 126.725 170.17 124.7 170.07 122.6C169.97 120.25 169.52 118.35 168.72 116.9C167.97 115.4 166.92 114.3 165.57 113.6C164.22 112.9 162.67 112.55 160.92 112.55C159.22 112.55 157.695 112.9 156.345 113.6C154.995 114.3 153.92 115.4 153.12 116.9C152.32 118.35 151.87 120.25 151.77 122.6C151.72 124.7 151.695 126.725 151.695 128.675C151.695 130.625 151.72 132.7 151.77 134.9C151.92 138.4 152.82 140.95 154.47 142.55C156.12 144.15 158.27 144.95 160.92 144.95ZM206.252 155C205.402 155 204.727 154.775 204.227 154.325C203.727 153.875 203.377 153.35 203.177 152.75L187.877 104.75C187.777 104.5 187.727 104.275 187.727 104.075C187.727 103.675 187.877 103.325 188.177 103.025C188.527 102.675 188.927 102.5 189.377 102.5H198.677C199.477 102.5 200.102 102.725 200.552 103.175C201.002 103.625 201.277 104.05 201.377 104.45L211.952 139.1L222.602 104.45C222.752 104.05 223.027 103.625 223.427 103.175C223.877 102.725 224.502 102.5 225.302 102.5H234.602C235.052 102.5 235.427 102.675 235.727 103.025C236.077 103.325 236.252 103.675 236.252 104.075C236.252 104.275 236.202 104.5 236.102 104.75L220.802 152.75C220.602 153.35 220.252 153.875 219.752 154.325C219.302 154.775 218.627 155 217.727 155H206.252ZM236.08 155C235.68 155 235.305 154.85 234.955 154.55C234.655 154.2 234.505 153.825 234.505 153.425C234.505 153.175 234.53 152.95 234.58 152.75L252.205 104.6C252.355 104.05 252.655 103.575 253.105 103.175C253.605 102.725 254.28 102.5 255.13 102.5H266.23C267.08 102.5 267.73 102.725 268.18 103.175C268.68 103.575 269.005 104.05 269.155 104.6L286.705 152.75C286.805 152.95 286.855 153.175 286.855 153.425C286.855 153.825 286.68 154.2 286.33 154.55C286.03 154.85 285.655 155 285.205 155H275.98C275.23 155 274.655 154.825 274.255 154.475C273.905 154.075 273.68 153.725 273.58 153.425L270.655 145.775H250.63L247.78 153.425C247.68 153.725 247.455 154.075 247.105 154.475C246.755 154.825 246.155 155 245.305 155H236.08ZM253.705 134.975H267.655L260.605 115.175L253.705 134.975ZM328.504 155.75C323.754 155.75 319.654 154.975 316.204 153.425C312.804 151.825 310.154 149.525 308.254 146.525C306.404 143.475 305.379 139.775 305.179 135.425C305.129 133.275 305.104 131 305.104 128.6C305.104 126.15 305.129 123.825 305.179 121.625C305.379 117.375 306.429 113.775 308.329 110.825C310.229 107.875 312.904 105.625 316.354 104.075C319.804 102.525 323.854 101.75 328.504 101.75C332.254 101.75 335.579 102.225 338.479 103.175C341.379 104.075 343.804 105.3 345.754 106.85C347.754 108.4 349.254 110.1 350.254 111.95C351.304 113.8 351.854 115.625 351.904 117.425C351.954 117.875 351.804 118.25 351.454 118.55C351.154 118.85 350.779 119 350.329 119H339.379C338.829 119 338.404 118.925 338.104 118.775C337.854 118.575 337.629 118.3 337.429 117.95C337.079 117.2 336.554 116.425 335.854 115.625C335.204 114.775 334.279 114.05 333.079 113.45C331.929 112.85 330.404 112.55 328.504 112.55C325.654 112.55 323.404 113.3 321.754 114.8C320.154 116.3 319.279 118.7 319.129 122C318.979 126.3 318.979 130.65 319.129 135.05C319.279 138.55 320.204 141.075 321.904 142.625C323.604 144.175 325.854 144.95 328.654 144.95C330.554 144.95 332.229 144.625 333.679 143.975C335.179 143.325 336.354 142.325 337.204 140.975C338.054 139.575 338.479 137.8 338.479 135.65V134.225H331.429C330.879 134.225 330.404 134.05 330.004 133.7C329.654 133.3 329.479 132.825 329.479 132.275V126.725C329.479 126.175 329.654 125.725 330.004 125.375C330.404 124.975 330.879 124.775 331.429 124.775H350.329C350.879 124.775 351.329 124.975 351.679 125.375C352.029 125.725 352.204 126.175 352.204 126.725V135.275C352.204 139.575 351.229 143.25 349.279 146.3C347.329 149.35 344.554 151.7 340.954 153.35C337.404 154.95 333.254 155.75 328.504 155.75ZM362.683 155C362.133 155 361.683 154.825 361.333 154.475C360.983 154.125 360.808 153.675 360.808 153.125V104.375C360.808 103.825 360.983 103.375 361.333 103.025C361.683 102.675 362.133 102.5 362.683 102.5H397.708C398.258 102.5 398.708 102.675 399.058 103.025C399.408 103.375 399.583 103.825 399.583 104.375V111.425C399.583 111.975 399.408 112.425 399.058 112.775C398.708 113.125 398.258 113.3 397.708 113.3H373.783V123.425H396.058C396.608 123.425 397.058 123.625 397.408 124.025C397.758 124.375 397.933 124.825 397.933 125.375V131.9C397.933 132.4 397.758 132.85 397.408 133.25C397.058 133.6 396.608 133.775 396.058 133.775H373.783V144.2H398.308C398.858 144.2 399.308 144.375 399.658 144.725C400.008 145.075 400.183 145.525 400.183 146.075V153.125C400.183 153.675 400.008 154.125 399.658 154.475C399.308 154.825 398.858 155 398.308 155H362.683ZM410.583 155C410.033 155 409.583 154.825 409.233 154.475C408.883 154.125 408.708 153.675 408.708 153.125V104.375C408.708 103.825 408.883 103.375 409.233 103.025C409.583 102.675 410.033 102.5 410.583 102.5H430.983C437.433 102.5 442.508 104 446.209 107C449.958 109.95 451.833 114.15 451.833 119.6C451.833 123.15 450.958 126.15 449.208 128.6C447.508 131.05 445.258 132.9 442.458 134.15L452.808 152.6C452.958 152.9 453.033 153.175 453.033 153.425C453.033 153.825 452.858 154.2 452.508 154.55C452.208 154.85 451.833 155 451.384 155H441.483C440.533 155 439.833 154.775 439.383 154.325C438.933 153.825 438.608 153.375 438.408 152.975L429.858 136.475H422.133V153.125C422.133 153.675 421.958 154.125 421.608 154.475C421.258 154.825 420.808 155 420.258 155H410.583ZM422.133 125.9H430.833C433.183 125.9 434.933 125.325 436.083 124.175C437.283 123.025 437.883 121.45 437.883 119.45C437.883 117.5 437.308 115.925 436.158 114.725C435.058 113.525 433.283 112.925 430.833 112.925H422.133V125.9ZM457.564 155C457.164 155 456.789 154.85 456.439 154.55C456.139 154.2 455.989 153.825 455.989 153.425C455.989 153.175 456.014 152.95 456.064 152.75L473.689 104.6C473.839 104.05 474.139 103.575 474.589 103.175C475.089 102.725 475.764 102.5 476.614 102.5H487.714C488.564 102.5 489.214 102.725 489.664 103.175C490.164 103.575 490.489 104.05 490.639 104.6L508.189 152.75C508.289 152.95 508.339 153.175 508.339 153.425C508.339 153.825 508.164 154.2 507.814 154.55C507.514 154.85 507.139 155 506.689 155H497.464C496.714 155 496.139 154.825 495.739 154.475C495.389 154.075 495.164 153.725 495.064 153.425L492.139 145.775H472.114L469.264 153.425C469.164 153.725 468.939 154.075 468.589 154.475C468.239 154.825 467.639 155 466.789 155H457.564ZM475.189 134.975H489.139L482.089 115.175L475.189 134.975ZM534.302 171.5C532.952 171.5 531.727 171.275 530.627 170.825C529.527 170.375 528.752 169.85 528.302 169.25C527.852 168.65 527.877 168.125 528.377 167.675L529.727 166.475C530.177 166.075 530.552 165.95 530.852 166.1C531.202 166.25 531.627 166.45 532.127 166.7C532.627 167 533.352 167.15 534.302 167.15C535.052 167.15 535.652 166.925 536.102 166.475C536.552 166.025 536.777 165.5 536.777 164.9C536.777 164.25 536.552 163.7 536.102 163.25C535.652 162.85 535.052 162.65 534.302 162.65C533.702 162.65 533.152 162.725 532.652 162.875C532.152 163.075 531.677 163.175 531.227 163.175C530.827 163.225 530.427 163.1 530.027 162.8L528.602 161.3C528.302 161 528.152 160.675 528.152 160.325C528.202 159.975 528.377 159.5 528.677 158.9L530.177 155.45C526.377 155 523.102 153.95 520.352 152.3C517.652 150.65 515.552 148.425 514.052 145.625C512.552 142.775 511.702 139.375 511.502 135.425C511.452 133.375 511.427 131.175 511.427 128.825C511.427 126.475 511.452 124.225 511.502 122.075C511.702 117.725 512.752 114.05 514.652 111.05C516.552 108 519.202 105.7 522.602 104.15C526.002 102.55 530.027 101.75 534.677 101.75C537.977 101.75 541.027 102.175 543.827 103.025C546.627 103.825 549.077 105.025 551.177 106.625C553.277 108.175 554.902 110.075 556.052 112.325C557.252 114.525 557.877 117.025 557.927 119.825C557.977 120.275 557.827 120.65 557.477 120.95C557.177 121.25 556.802 121.4 556.352 121.4H546.227C545.577 121.4 545.077 121.275 544.727 121.025C544.377 120.725 544.077 120.2 543.827 119.45C543.127 116.8 541.977 115 540.377 114.05C538.827 113.05 536.902 112.55 534.602 112.55C531.852 112.55 529.677 113.325 528.077 114.875C526.477 116.375 525.602 118.9 525.452 122.45C525.302 126.55 525.302 130.75 525.452 135.05C525.602 138.6 526.477 141.15 528.077 142.7C529.677 144.2 531.852 144.95 534.602 144.95C536.902 144.95 538.852 144.45 540.452 143.45C542.052 142.45 543.177 140.65 543.827 138.05C544.027 137.3 544.302 136.8 544.652 136.55C545.052 136.25 545.577 136.1 546.227 136.1H556.352C556.802 136.1 557.177 136.25 557.477 136.55C557.827 136.85 557.977 137.225 557.927 137.675C557.877 140.475 557.252 143 556.052 145.25C554.902 147.45 553.277 149.35 551.177 150.95C549.077 152.5 546.627 153.7 543.827 154.55C541.027 155.35 537.977 155.75 534.677 155.75L533.177 158.75C533.477 158.6 533.877 158.475 534.377 158.375C534.927 158.325 535.352 158.3 535.652 158.3C537.452 158.3 538.877 158.9 539.927 160.1C541.027 161.3 541.577 162.875 541.577 164.825C541.577 166.725 540.927 168.3 539.627 169.55C538.327 170.85 536.552 171.5 534.302 171.5ZM562.154 155C561.754 155 561.379 154.85 561.029 154.55C560.729 154.2 560.579 153.825 560.579 153.425C560.579 153.175 560.604 152.95 560.654 152.75L578.279 104.6C578.429 104.05 578.729 103.575 579.179 103.175C579.679 102.725 580.354 102.5 581.204 102.5H592.304C593.154 102.5 593.804 102.725 594.254 103.175C594.754 103.575 595.079 104.05 595.229 104.6L612.779 152.75C612.879 152.95 612.929 153.175 612.929 153.425C612.929 153.825 612.754 154.2 612.404 154.55C612.104 154.85 611.729 155 611.279 155H602.054C601.304 155 600.729 154.825 600.329 154.475C599.979 154.075 599.754 153.725 599.654 153.425L596.729 145.775H576.704L573.854 153.425C573.754 153.725 573.529 154.075 573.179 154.475C572.829 154.825 572.229 155 571.379 155H562.154ZM579.779 134.975H593.729L586.679 115.175L579.779 134.975ZM591.254 99.125C589.904 99.125 588.779 98.9 587.879 98.45C586.979 98 586.154 97.575 585.404 97.175C584.704 96.725 583.904 96.5 583.004 96.5C582.304 96.5 581.804 96.675 581.504 97.025C581.204 97.375 580.929 97.75 580.679 98.15C580.429 98.55 580.029 98.75 579.479 98.75H574.979C574.629 98.75 574.329 98.625 574.079 98.375C573.829 98.075 573.704 97.775 573.704 97.475C573.704 96.675 573.829 95.725 574.079 94.625C574.379 93.525 574.854 92.475 575.504 91.475C576.204 90.425 577.079 89.575 578.129 88.925C579.229 88.225 580.554 87.875 582.104 87.875C583.504 87.875 584.654 88.1 585.554 88.55C586.454 89 587.279 89.45 588.029 89.9C588.779 90.35 589.579 90.575 590.429 90.575C591.129 90.575 591.604 90.375 591.854 89.975C592.154 89.575 592.429 89.2 592.679 88.85C592.929 88.45 593.329 88.25 593.879 88.25H598.379C598.829 88.25 599.154 88.4 599.354 88.7C599.604 88.95 599.729 89.25 599.729 89.6C599.729 90.4 599.579 91.35 599.279 92.45C598.979 93.5 598.504 94.55 597.854 95.6C597.204 96.6 596.329 97.45 595.229 98.15C594.129 98.8 592.804 99.125 591.254 99.125ZM639.192 155.75C634.592 155.75 630.592 155 627.192 153.5C623.792 152 621.142 149.75 619.242 146.75C617.342 143.7 616.292 139.9 616.092 135.35C616.042 133.2 616.017 131.05 616.017 128.9C616.017 126.75 616.042 124.575 616.092 122.375C616.292 117.875 617.342 114.1 619.242 111.05C621.192 107.95 623.867 105.625 627.267 104.075C630.667 102.525 634.642 101.75 639.192 101.75C643.692 101.75 647.642 102.525 651.042 104.075C654.492 105.625 657.192 107.95 659.142 111.05C661.092 114.1 662.142 117.875 662.292 122.375C662.392 124.575 662.442 126.75 662.442 128.9C662.442 131.05 662.392 133.2 662.292 135.35C662.092 139.9 661.042 143.7 659.142 146.75C657.242 149.75 654.592 152 651.192 153.5C647.792 155 643.792 155.75 639.192 155.75ZM639.192 144.95C641.842 144.95 643.992 144.15 645.642 142.55C647.342 140.95 648.242 138.4 648.342 134.9C648.442 132.7 648.492 130.625 648.492 128.675C648.492 126.725 648.442 124.7 648.342 122.6C648.242 120.25 647.792 118.35 646.992 116.9C646.242 115.4 645.192 114.3 643.842 113.6C642.492 112.9 640.942 112.55 639.192 112.55C637.492 112.55 635.967 112.9 634.617 113.6C633.267 114.3 632.192 115.4 631.392 116.9C630.592 118.35 630.142 120.25 630.042 122.6C629.992 124.7 629.967 126.725 629.967 128.675C629.967 130.625 629.992 132.7 630.042 134.9C630.192 138.4 631.092 140.95 632.742 142.55C634.392 144.15 636.542 144.95 639.192 144.95ZM671.298 155C670.748 155 670.298 154.825 669.948 154.475C669.598 154.125 669.423 153.675 669.423 153.125V143.6C669.423 143.1 669.598 142.675 669.948 142.325C670.298 141.925 670.748 141.725 671.298 141.725H680.748C681.298 141.725 681.748 141.925 682.098 142.325C682.498 142.675 682.698 143.1 682.698 143.6V153.125C682.698 153.675 682.498 154.125 682.098 154.475C681.748 154.825 681.298 155 680.748 155H671.298Z" fill="white"/>
<path d="M99.9112 69.75C95.1612 69.75 91.0862 68.975 87.6862 67.425C84.3362 65.875 81.7112 63.6 79.8112 60.6C77.9612 57.6 76.9362 53.875 76.7362 49.425C76.6862 47.375 76.6612 45.175 76.6612 42.825C76.6612 40.475 76.6862 38.225 76.7362 36.075C76.9362 31.725 77.9862 28.05 79.8862 25.05C81.7862 22 84.4362 19.7 87.8362 18.15C91.2362 16.55 95.2612 15.75 99.9112 15.75C103.211 15.75 106.261 16.175 109.061 17.025C111.861 17.825 114.311 19.025 116.411 20.625C118.511 22.175 120.136 24.075 121.286 26.325C122.486 28.525 123.111 31.025 123.161 33.825C123.211 34.275 123.061 34.65 122.711 34.95C122.411 35.25 122.036 35.4 121.586 35.4H111.461C110.811 35.4 110.311 35.275 109.961 35.025C109.611 34.725 109.311 34.2 109.061 33.45C108.361 30.8 107.211 29 105.611 28.05C104.061 27.05 102.136 26.55 99.8362 26.55C97.0862 26.55 94.9112 27.325 93.3112 28.875C91.7112 30.375 90.8362 32.9 90.6862 36.45C90.5362 40.55 90.5362 44.75 90.6862 49.05C90.8362 52.6 91.7112 55.15 93.3112 56.7C94.9112 58.2 97.0862 58.95 99.8362 58.95C102.136 58.95 104.086 58.45 105.686 57.45C107.286 56.45 108.411 54.65 109.061 52.05C109.261 51.3 109.536 50.8 109.886 50.55C110.286 50.25 110.811 50.1 111.461 50.1H121.586C122.036 50.1 122.411 50.25 122.711 50.55C123.061 50.85 123.211 51.225 123.161 51.675C123.111 54.475 122.486 57 121.286 59.25C120.136 61.45 118.511 63.35 116.411 64.95C114.311 66.5 111.861 67.7 109.061 68.55C106.261 69.35 103.211 69.75 99.9112 69.75ZM152.497 69.75C147.897 69.75 143.897 69 140.497 67.5C137.097 66 134.447 63.75 132.547 60.75C130.647 57.7 129.597 53.9 129.397 49.35C129.347 47.2 129.322 45.05 129.322 42.9C129.322 40.75 129.347 38.575 129.397 36.375C129.597 31.875 130.647 28.1 132.547 25.05C134.497 21.95 137.172 19.625 140.572 18.075C143.972 16.525 147.947 15.75 152.497 15.75C156.997 15.75 160.947 16.525 164.347 18.075C167.797 19.625 170.497 21.95 172.447 25.05C174.397 28.1 175.447 31.875 175.597 36.375C175.697 38.575 175.747 40.75 175.747 42.9C175.747 45.05 175.697 47.2 175.597 49.35C175.397 53.9 174.347 57.7 172.447 60.75C170.547 63.75 167.897 66 164.497 67.5C161.097 69 157.097 69.75 152.497 69.75ZM152.497 58.95C155.147 58.95 157.297 58.15 158.947 56.55C160.647 54.95 161.547 52.4 161.647 48.9C161.747 46.7 161.797 44.625 161.797 42.675C161.797 40.725 161.747 38.7 161.647 36.6C161.547 34.25 161.097 32.35 160.297 30.9C159.547 29.4 158.497 28.3 157.147 27.6C155.797 26.9 154.247 26.55 152.497 26.55C150.797 26.55 149.272 26.9 147.922 27.6C146.572 28.3 145.497 29.4 144.697 30.9C143.897 32.35 143.447 34.25 143.347 36.6C143.297 38.7 143.272 40.725 143.272 42.675C143.272 44.625 143.297 46.7 143.347 48.9C143.497 52.4 144.397 54.95 146.047 56.55C147.697 58.15 149.847 58.95 152.497 58.95ZM186.316 69C185.766 69 185.316 68.825 184.966 68.475C184.616 68.125 184.441 67.675 184.441 67.125V18.375C184.441 17.825 184.616 17.375 184.966 17.025C185.316 16.675 185.766 16.5 186.316 16.5H194.266C195.116 16.5 195.716 16.7 196.066 17.1C196.466 17.45 196.716 17.725 196.816 17.925L215.116 46.8V18.375C215.116 17.825 215.291 17.375 215.641 17.025C215.991 16.675 216.441 16.5 216.991 16.5H225.991C226.541 16.5 226.991 16.675 227.341 17.025C227.691 17.375 227.866 17.825 227.866 18.375V67.125C227.866 67.625 227.691 68.075 227.341 68.475C226.991 68.825 226.541 69 225.991 69H217.966C217.166 69 216.566 68.8 216.166 68.4C215.816 68 215.591 67.725 215.491 67.575L197.191 39.825V67.125C197.191 67.675 197.016 68.125 196.666 68.475C196.316 68.825 195.866 69 195.316 69H186.316ZM251.772 69C251.222 69 250.772 68.825 250.422 68.475C250.072 68.125 249.897 67.675 249.897 67.125V28.275H236.547C235.997 28.275 235.547 28.1 235.197 27.75C234.847 27.35 234.672 26.9 234.672 26.4V18.375C234.672 17.825 234.847 17.375 235.197 17.025C235.547 16.675 235.997 16.5 236.547 16.5H276.897C277.447 16.5 277.897 16.675 278.247 17.025C278.597 17.375 278.772 17.825 278.772 18.375V26.4C278.772 26.9 278.597 27.35 278.247 27.75C277.897 28.1 277.447 28.275 276.897 28.275H263.547V67.125C263.547 67.675 263.372 68.125 263.022 68.475C262.672 68.825 262.222 69 261.672 69H251.772ZM277.242 69C276.842 69 276.467 68.85 276.117 68.55C275.817 68.2 275.667 67.825 275.667 67.425C275.667 67.175 275.692 66.95 275.742 66.75L293.367 18.6C293.517 18.05 293.817 17.575 294.267 17.175C294.767 16.725 295.442 16.5 296.292 16.5H307.392C308.242 16.5 308.892 16.725 309.342 17.175C309.842 17.575 310.167 18.05 310.317 18.6L327.867 66.75C327.967 66.95 328.017 67.175 328.017 67.425C328.017 67.825 327.842 68.2 327.492 68.55C327.192 68.85 326.817 69 326.367 69H317.142C316.392 69 315.817 68.825 315.417 68.475C315.067 68.075 314.842 67.725 314.742 67.425L311.817 59.775H291.792L288.942 67.425C288.842 67.725 288.617 68.075 288.267 68.475C287.917 68.825 287.317 69 286.467 69H277.242ZM294.867 48.975H308.817L301.767 29.175L294.867 48.975ZM349.866 69C349.316 69 348.866 68.825 348.516 68.475C348.166 68.125 347.991 67.675 347.991 67.125V18.375C347.991 17.825 348.166 17.375 348.516 17.025C348.866 16.675 349.316 16.5 349.866 16.5H369.366C374.266 16.5 378.441 17.3 381.891 18.9C385.341 20.45 387.991 22.75 389.841 25.8C391.691 28.8 392.691 32.525 392.841 36.975C392.891 39.175 392.916 41.1 392.916 42.75C392.916 44.4 392.891 46.3 392.841 48.45C392.641 53.1 391.641 56.95 389.841 60C388.091 63.05 385.516 65.325 382.116 66.825C378.766 68.275 374.641 69 369.741 69H349.866ZM361.416 58.2H369.366C371.516 58.2 373.291 57.875 374.691 57.225C376.141 56.525 377.216 55.45 377.916 54C378.666 52.55 379.066 50.65 379.116 48.3C379.216 46.85 379.266 45.55 379.266 44.4C379.316 43.25 379.316 42.1 379.266 40.95C379.266 39.8 379.216 38.525 379.116 37.125C379.016 33.725 378.116 31.25 376.416 29.7C374.766 28.1 372.291 27.3 368.991 27.3H361.416V58.2ZM403.552 69C403.002 69 402.552 68.825 402.202 68.475C401.852 68.125 401.677 67.675 401.677 67.125V18.375C401.677 17.825 401.852 17.375 402.202 17.025C402.552 16.675 403.002 16.5 403.552 16.5H413.602C414.152 16.5 414.602 16.675 414.952 17.025C415.302 17.375 415.477 17.825 415.477 18.375V67.125C415.477 67.675 415.302 68.125 414.952 68.475C414.602 68.825 414.152 69 413.602 69H403.552ZM447.669 69.75C442.919 69.75 438.819 68.975 435.369 67.425C431.969 65.825 429.319 63.525 427.419 60.525C425.569 57.475 424.544 53.775 424.344 49.425C424.294 47.275 424.269 45 424.269 42.6C424.269 40.15 424.294 37.825 424.344 35.625C424.544 31.375 425.594 27.775 427.494 24.825C429.394 21.875 432.069 19.625 435.519 18.075C438.969 16.525 443.019 15.75 447.669 15.75C451.419 15.75 454.744 16.225 457.644 17.175C460.544 18.075 462.969 19.3 464.919 20.85C466.919 22.4 468.419 24.1 469.419 25.95C470.469 27.8 471.019 29.625 471.069 31.425C471.119 31.875 470.969 32.25 470.619 32.55C470.319 32.85 469.944 33 469.494 33H458.544C457.994 33 457.569 32.925 457.269 32.775C457.019 32.575 456.794 32.3 456.594 31.95C456.244 31.2 455.719 30.425 455.019 29.625C454.369 28.775 453.444 28.05 452.244 27.45C451.094 26.85 449.569 26.55 447.669 26.55C444.819 26.55 442.569 27.3 440.919 28.8C439.319 30.3 438.444 32.7 438.294 36C438.144 40.3 438.144 44.65 438.294 49.05C438.444 52.55 439.369 55.075 441.069 56.625C442.769 58.175 445.019 58.95 447.819 58.95C449.719 58.95 451.394 58.625 452.844 57.975C454.344 57.325 455.519 56.325 456.369 54.975C457.219 53.575 457.644 51.8 457.644 49.65V48.225H450.594C450.044 48.225 449.569 48.05 449.169 47.7C448.819 47.3 448.644 46.825 448.644 46.275V40.725C448.644 40.175 448.819 39.725 449.169 39.375C449.569 38.975 450.044 38.775 450.594 38.775H469.494C470.044 38.775 470.494 38.975 470.844 39.375C471.194 39.725 471.369 40.175 471.369 40.725V49.275C471.369 53.575 470.394 57.25 468.444 60.3C466.494 63.35 463.719 65.7 460.119 67.35C456.569 68.95 452.419 69.75 447.669 69.75ZM481.848 69C481.298 69 480.848 68.825 480.498 68.475C480.148 68.125 479.973 67.675 479.973 67.125V18.375C479.973 17.825 480.148 17.375 480.498 17.025C480.848 16.675 481.298 16.5 481.848 16.5H491.898C492.448 16.5 492.898 16.675 493.248 17.025C493.598 17.375 493.773 17.825 493.773 18.375V67.125C493.773 67.675 493.598 68.125 493.248 68.475C492.898 68.825 492.448 69 491.898 69H481.848ZM517.715 69C517.165 69 516.715 68.825 516.365 68.475C516.015 68.125 515.84 67.675 515.84 67.125V28.275H502.49C501.94 28.275 501.49 28.1 501.14 27.75C500.79 27.35 500.615 26.9 500.615 26.4V18.375C500.615 17.825 500.79 17.375 501.14 17.025C501.49 16.675 501.94 16.5 502.49 16.5H542.84C543.39 16.5 543.84 16.675 544.19 17.025C544.54 17.375 544.715 17.825 544.715 18.375V26.4C544.715 26.9 544.54 27.35 544.19 27.75C543.84 28.1 543.39 28.275 542.84 28.275H529.49V67.125C529.49 67.675 529.315 68.125 528.965 68.475C528.615 68.825 528.165 69 527.615 69H517.715ZM543.184 69C542.784 69 542.409 68.85 542.059 68.55C541.759 68.2 541.609 67.825 541.609 67.425C541.609 67.175 541.634 66.95 541.684 66.75L559.309 18.6C559.459 18.05 559.759 17.575 560.209 17.175C560.709 16.725 561.384 16.5 562.234 16.5H573.334C574.184 16.5 574.834 16.725 575.284 17.175C575.784 17.575 576.109 18.05 576.259 18.6L593.809 66.75C593.909 66.95 593.959 67.175 593.959 67.425C593.959 67.825 593.784 68.2 593.434 68.55C593.134 68.85 592.759 69 592.309 69H583.084C582.334 69 581.759 68.825 581.359 68.475C581.009 68.075 580.784 67.725 580.684 67.425L577.759 59.775H557.734L554.884 67.425C554.784 67.725 554.559 68.075 554.209 68.475C553.859 68.825 553.259 69 552.409 69H543.184ZM560.809 48.975H574.759L567.709 29.175L560.809 48.975ZM601.746 69C601.196 69 600.746 68.825 600.396 68.475C600.046 68.125 599.871 67.675 599.871 67.125V18.375C599.871 17.825 600.046 17.375 600.396 17.025C600.746 16.675 601.196 16.5 601.746 16.5H611.646C612.146 16.5 612.571 16.675 612.921 17.025C613.321 17.375 613.521 17.825 613.521 18.375V57.675H636.171C636.721 57.675 637.171 57.875 637.521 58.275C637.921 58.625 638.121 59.075 638.121 59.625V67.125C638.121 67.675 637.921 68.125 637.521 68.475C637.171 68.825 636.721 69 636.171 69H601.746Z" fill="#7D2CFF"/>
</svg>
