<svg width="1920" height="763" viewBox="0 0 1920 763" fill="none" xmlns="http://www.w3.org/2000/svg">
<rect width="1920" height="763" fill="black"/>
<path d="M360.128 125.785C362.906 125.785 365.158 123.489 365.158 120.657C365.158 117.825 362.906 115.529 360.128 115.529C357.351 115.529 355.099 117.825 355.099 120.657C355.099 123.489 357.351 125.785 360.128 125.785Z" fill="#7D2CFF"/>
<path d="M1706.2 294.998C1697 279.924 1691.26 262.934 1689.38 245.286C1687.5 227.639 1689.55 209.787 1695.36 193.055C1701.17 176.323 1710.61 161.139 1722.96 148.63C1735.31 136.12 1750.27 126.606 1766.72 120.793C1783.17 114.979 1800.69 113.015 1817.99 115.047C1835.28 117.078 1851.91 123.053 1866.63 132.527C1881.35 142.002 1893.79 154.734 1903.03 169.779C1912.27 184.825 1918.07 201.797 1920 219.439L1918.23 219.637C1916.33 202.266 1910.62 185.554 1901.52 170.74C1892.42 155.925 1880.17 143.389 1865.67 134.059C1851.17 124.73 1834.8 118.847 1817.77 116.847C1800.74 114.847 1783.49 116.781 1767.29 122.505C1751.09 128.229 1736.36 137.597 1724.2 149.915C1712.04 162.232 1702.75 177.182 1697.02 193.658C1691.3 210.133 1689.28 227.712 1691.13 245.089C1692.98 262.466 1698.63 279.197 1707.69 294.041L1706.2 294.998Z" fill="#7D2CFF"/>
<path d="M1424.87 469.538L1423.1 469.222C1426.74 448.785 1435.6 429.687 1448.78 413.849C1461.96 398.01 1479 385.99 1498.19 378.998C1517.37 372.006 1538.02 370.289 1558.07 374.018C1578.11 377.748 1596.83 386.793 1612.36 400.244L1611.22 401.617C1595.93 388.37 1577.49 379.463 1557.75 375.789C1538.02 372.116 1517.68 373.807 1498.79 380.692C1479.9 387.577 1463.12 399.413 1450.14 415.01C1437.16 430.606 1428.43 449.413 1424.85 469.538H1424.87Z" fill="#7D2CFF"/>
<path d="M355.657 254.803L353.965 254.288C362.153 226.4 380.14 202.57 404.485 187.36C428.829 172.149 457.82 166.626 485.909 171.849L485.59 173.655C457.924 168.498 429.364 173.929 405.38 188.908C381.397 203.886 363.676 227.359 355.612 254.83L355.657 254.803Z" fill="#7D2CFF"/>
<path d="M1794.9 555.219L1793.7 553.901C1804.89 543.318 1819.37 537.086 1834.62 536.295C1849.86 535.505 1864.89 540.206 1877.08 549.576L1876.02 551.02C1864.16 541.903 1849.54 537.328 1834.71 538.096C1819.88 538.863 1805.79 544.925 1794.9 555.219V555.219Z" fill="#7D2CFF"/>
<path d="M1614 426.915C1609.73 409.135 1609.96 390.54 1614.67 372.877C1619.39 355.214 1628.42 339.062 1640.94 325.937C1653.46 312.813 1669.04 303.147 1686.22 297.848C1703.41 292.548 1721.63 291.788 1739.18 295.64L1738.81 297.4C1721.55 293.612 1703.63 294.36 1686.73 299.573C1669.83 304.786 1654.51 314.293 1642.2 327.201C1629.89 340.109 1621.01 355.995 1616.38 373.367C1611.74 390.738 1611.52 409.024 1615.72 426.508L1614 426.915Z" fill="#7D2CFF"/>
<path d="M322.785 345.26C317.079 329.136 308.292 314.326 296.935 301.686C285.578 289.046 271.874 278.828 256.619 271.624C241.398 264.323 224.909 260.173 208.105 259.414C191.302 258.654 174.517 261.301 158.723 267.2L158.121 265.502C174.13 259.516 191.144 256.827 208.179 257.591C225.214 258.355 241.931 262.557 257.362 269.953C272.834 277.262 286.73 287.626 298.245 300.448C309.761 313.269 318.668 328.292 324.45 344.647L322.785 345.26Z" fill="#7D2CFF"/>
<path d="M1810.35 579C1805 567.939 1797.57 558.061 1788.47 549.93C1779.37 541.8 1768.8 535.576 1757.34 531.614C1745.88 527.653 1733.77 526.031 1721.7 526.842C1709.63 527.653 1697.84 530.88 1686.99 536.34L1686.2 534.724C1697.26 529.157 1709.28 525.866 1721.58 525.038C1733.89 524.21 1746.23 525.862 1757.91 529.899C1769.59 533.936 1780.37 540.28 1789.64 548.567C1798.91 556.854 1806.49 566.922 1811.95 578.196L1810.35 579Z" fill="#7D2CFF"/>
<path d="M582.148 497.454L580.705 496.434C594.803 475.901 615.534 461.079 639.271 454.56C663.008 448.042 688.237 450.244 710.542 460.78L709.798 462.414C687.869 452.058 663.068 449.894 639.732 456.299C616.396 462.705 596.013 477.273 582.148 497.454V497.454Z" fill="#7D2CFF"/>
<path d="M615.445 529.686C564.137 463.778 469.801 452.691 405.149 504.993L404.051 503.576C469.465 450.65 564.925 461.864 616.826 528.558L615.445 529.686Z" fill="#7D2CFF"/>
<path d="M1640.39 223.682C1635.66 223.682 1631.04 222.252 1627.11 219.574C1623.18 216.895 1620.11 213.088 1618.3 208.633C1616.49 204.179 1616.02 199.278 1616.94 194.549C1617.87 189.82 1620.14 185.477 1623.49 182.068C1626.83 178.658 1631.09 176.337 1635.73 175.396C1640.37 174.456 1645.17 174.938 1649.54 176.783C1653.91 178.628 1657.65 181.753 1660.27 185.762C1662.9 189.77 1664.3 194.483 1664.3 199.305C1664.3 205.77 1661.78 211.97 1657.3 216.542C1652.82 221.114 1646.73 223.682 1640.39 223.682V223.682ZM1640.39 176.733C1636.02 176.733 1631.73 178.057 1628.09 180.537C1624.45 183.018 1621.62 186.543 1619.94 190.667C1618.26 194.791 1617.83 199.33 1618.68 203.708C1619.53 208.087 1621.64 212.108 1624.74 215.265C1627.84 218.422 1631.78 220.572 1636.07 221.442C1640.37 222.313 1644.82 221.866 1648.87 220.158C1652.91 218.45 1656.37 215.557 1658.8 211.845C1661.23 208.133 1662.53 203.769 1662.53 199.305C1662.53 193.32 1660.2 187.581 1656.04 183.35C1651.89 179.119 1646.26 176.742 1640.39 176.742V176.733Z" fill="#7D2CFF"/>
<path d="M393.982 156.329C391.661 156.33 389.375 155.746 387.328 154.631C385.28 153.515 383.534 151.902 382.244 149.934C380.954 147.967 380.16 145.705 379.933 143.349C379.705 140.994 380.051 138.618 380.939 136.431C381.827 134.244 383.231 132.315 385.025 130.813C386.82 129.312 388.95 128.284 391.227 127.823C393.504 127.361 395.857 127.479 398.079 128.166C400.3 128.854 402.321 130.089 403.962 131.763V131.763C405.936 133.775 407.28 136.34 407.824 139.131C408.369 141.922 408.089 144.816 407.021 147.445C405.953 150.074 404.144 152.322 401.823 153.903C399.502 155.485 396.774 156.329 393.982 156.329V156.329ZM393.982 129.361C391.126 129.362 388.359 130.373 386.152 132.221C383.946 134.069 382.435 136.64 381.879 139.496C381.323 142.352 381.756 145.317 383.103 147.884C384.45 150.451 386.629 152.463 389.268 153.576C391.906 154.69 394.842 154.836 397.575 153.989C400.308 153.143 402.668 151.357 404.254 148.936C405.84 146.514 406.553 143.607 406.272 140.709C405.991 137.812 404.734 135.103 402.714 133.045V133.045C401.568 131.875 400.207 130.947 398.708 130.315C397.21 129.683 395.604 129.358 393.982 129.361V129.361Z" fill="#7D2CFF"/>
<path d="M1616.7 257.9C1614.89 257.9 1613.12 257.354 1611.62 256.33C1610.12 255.306 1608.95 253.851 1608.25 252.148C1607.56 250.446 1607.38 248.572 1607.73 246.765C1608.09 244.957 1608.96 243.297 1610.24 241.994C1611.51 240.691 1613.14 239.804 1614.91 239.444C1616.69 239.085 1618.52 239.269 1620.19 239.974C1621.86 240.68 1623.29 241.874 1624.3 243.406C1625.3 244.938 1625.84 246.74 1625.84 248.583C1625.83 251.053 1624.87 253.422 1623.16 255.168C1621.44 256.915 1619.12 257.898 1616.7 257.9ZM1616.7 241.071C1615.24 241.071 1613.82 241.511 1612.6 242.337C1611.39 243.162 1610.45 244.335 1609.89 245.708C1609.33 247.081 1609.19 248.591 1609.47 250.048C1609.76 251.505 1610.46 252.844 1611.49 253.894C1612.52 254.945 1613.83 255.66 1615.26 255.95C1616.69 256.24 1618.17 256.091 1619.52 255.523C1620.86 254.954 1622.01 253.991 1622.82 252.756C1623.63 251.521 1624.06 250.068 1624.06 248.583C1624.06 246.591 1623.29 244.682 1621.9 243.274C1620.52 241.865 1618.65 241.073 1616.7 241.071V241.071Z" fill="#7D2CFF"/>
<path d="M1.77176 278.846H0.000701583C-0.0678925 252.989 4.89402 227.374 14.5993 203.485C24.3045 179.596 38.5604 157.906 56.5419 139.671C74.4267 121.338 95.7002 106.803 119.131 96.9083C142.562 87.0132 167.685 81.9542 193.046 82.0242C233.392 82.0011 272.73 94.8713 305.529 118.825C338.328 142.779 362.938 176.611 375.9 215.565L374.217 216.143C361.376 177.547 336.992 144.025 304.494 120.292C271.997 96.5581 233.021 83.8064 193.046 83.8299C167.918 83.7604 143.025 88.7725 119.808 98.5762C96.5916 108.38 75.5125 122.78 57.7905 140.944C39.9749 159.013 25.8507 180.505 16.2351 204.175C6.61958 227.846 1.70365 253.226 1.77176 278.846V278.846Z" fill="#7D2CFF"/>
<path d="M1762.21 27.8531C1761.51 15.2131 1760.94 14.6353 1748.54 13.922C1760.94 13.2088 1761.51 12.6309 1762.21 0C1762.91 12.64 1763.47 13.2088 1775.87 13.922C1763.51 14.6353 1762.94 15.2131 1762.21 27.8531Z" fill="white"/>
<path d="M594.192 312.523C593.492 299.883 592.926 299.305 580.528 298.592C592.926 297.879 593.492 297.301 594.192 284.661C594.892 297.301 595.458 297.879 607.856 298.592C595.494 299.305 594.927 299.883 594.192 312.523Z" fill="white"/>
</svg>
